<?xml version="1.0" encoding="utf-8"?>
<!-- Generator: Adobe Illustrator 22.0.1, SVG Export Plug-In . SVG Version: 6.00 Build 0)  -->
<svg version="1.1" id="Layer_1" xmlns="http://www.w3.org/2000/svg" xmlns:xlink="http://www.w3.org/1999/xlink" x="0px" y="0px"
	 viewBox="0 0 752.2 550.3" style="enable-background:new 0 0 752.2 550.3;" xml:space="preserve">
<style type="text/css">
	.st0{fill:#FFCD00;}
	.st1{fill:#00A1E2;}
	.st2{fill:#243746;}
	.st3{fill:#919191;}
	.st4{fill:url(#SVGID_1_);}
	.st5{fill:url(#SVGID_2_);}
	.st6{fill:url(#SVGID_3_);}
	.st7{fill:url(#SVGID_4_);}
	.st8{opacity:0.7;fill:#FFFFFF;enable-background:new    ;}
	.st9{fill:#FFFFFF;}
	.st10{fill:#D8D8D8;}
	.st11{fill:#00BBB4;}
	.st12{fill:#ADADAD;}
</style>
<g>
	<circle class="st0" cx="374.6" cy="62.3" r="62.3"/>
	<circle class="st1" cx="374.4" cy="280.8" r="62.3"/>
	<g>
		<path class="st2" d="M209.8,72.3V60.8h1.3V71h5v1.2h-6.3V72.3z"/>
		<path class="st2" d="M228,66.5c0,1.8-0.5,3.3-1.4,4.3s-2.2,1.6-3.9,1.6s-3-0.5-3.9-1.5s-1.4-2.5-1.4-4.4c0-1.9,0.5-3.3,1.4-4.3
			s2.2-1.5,3.9-1.5c1.6,0,2.9,0.5,3.8,1.6C227.6,63.3,228,64.7,228,66.5z M218.9,66.5c0,1.5,0.3,2.7,1,3.5s1.6,1.2,2.9,1.2
			c1.3,0,2.2-0.4,2.9-1.2c0.6-0.8,1-2,1-3.5s-0.3-2.7-1-3.5c-0.6-0.8-1.6-1.2-2.9-1.2c-1.3,0-2.2,0.4-2.9,1.2
			C219.3,63.9,218.9,65,218.9,66.5z"/>
		<path class="st2" d="M235.6,66.3h3.9v5.6c-0.6,0.2-1.2,0.3-1.8,0.4c-0.6,0.1-1.3,0.1-2.2,0.1c-1.7,0-3.1-0.5-4-1.5
			c-1-1-1.4-2.5-1.4-4.3c0-1.2,0.2-2.2,0.7-3.1c0.5-0.9,1.2-1.6,2.1-2c0.9-0.5,1.9-0.7,3.1-0.7c1.2,0,2.4,0.2,3.4,0.7l-0.5,1.2
			c-1-0.4-2-0.7-3-0.7c-1.4,0-2.5,0.4-3.3,1.2s-1.2,2-1.2,3.4c0,1.5,0.4,2.7,1.1,3.5c0.8,0.8,1.9,1.2,3.3,1.2c0.8,0,1.6-0.1,2.3-0.3
			v-3.5h-2.6L235.6,66.3L235.6,66.3z"/>
		<path class="st2" d="M248.7,69.2c0,1-0.4,1.8-1.1,2.4c-0.7,0.6-1.7,0.8-3,0.8c-1.4,0-2.4-0.2-3.1-0.5v-1.3c0.5,0.2,1,0.4,1.5,0.5
			c0.6,0.1,1.1,0.2,1.6,0.2c0.9,0,1.6-0.2,2-0.5s0.7-0.8,0.7-1.4c0-0.4-0.1-0.7-0.2-1c-0.2-0.3-0.4-0.5-0.8-0.7
			c-0.4-0.2-0.9-0.5-1.7-0.7c-1.1-0.4-1.8-0.8-2.3-1.4c-0.5-0.5-0.7-1.2-0.7-2c0-0.9,0.3-1.6,1-2.1s1.5-0.8,2.6-0.8s2.2,0.2,3.1,0.6
			l-0.4,1.2c-0.9-0.4-1.9-0.6-2.8-0.6c-0.7,0-1.3,0.2-1.6,0.5c-0.4,0.3-0.6,0.7-0.6,1.3c0,0.4,0.1,0.7,0.2,1
			c0.1,0.3,0.4,0.5,0.7,0.7s0.9,0.4,1.6,0.7c1.2,0.4,2,0.9,2.5,1.4C248.4,67.8,248.7,68.4,248.7,69.2z"/>
		<path class="st2" d="M254.5,72.3h-1.3V62h-3.6v-1.2h8.6V62h-3.6L254.5,72.3L254.5,72.3z"/>
		<path class="st2" d="M267,72.3l-1.4-3.6H261l-1.4,3.6h-1.3l4.5-11.5h1.1l4.5,11.5H267z M265.2,67.4l-1.3-3.5
			c-0.2-0.4-0.3-1-0.5-1.6c-0.1,0.5-0.3,1-0.5,1.6l-1.3,3.5H265.2z"/>
		<path class="st2" d="M276.4,69.2c0,1-0.4,1.8-1.1,2.4c-0.7,0.6-1.7,0.8-3,0.8c-1.4,0-2.4-0.2-3.1-0.5v-1.3c0.5,0.2,1,0.4,1.5,0.5
			c0.6,0.1,1.1,0.2,1.6,0.2c0.9,0,1.6-0.2,2-0.5s0.7-0.8,0.7-1.4c0-0.4-0.1-0.7-0.2-1c-0.2-0.3-0.4-0.5-0.8-0.7s-0.9-0.5-1.7-0.7
			c-1.1-0.4-1.8-0.8-2.3-1.4c-0.5-0.5-0.7-1.2-0.7-2c0-0.9,0.3-1.6,1-2.1s1.5-0.8,2.6-0.8s2.2,0.2,3.1,0.6l-0.4,1.2
			c-0.9-0.4-1.9-0.6-2.8-0.6c-0.7,0-1.3,0.2-1.6,0.5c-0.4,0.3-0.6,0.7-0.6,1.3c0,0.4,0.1,0.7,0.2,1s0.4,0.5,0.7,0.7
			c0.3,0.2,0.9,0.4,1.6,0.7c1.2,0.4,2,0.9,2.5,1.4C276.2,67.8,276.4,68.4,276.4,69.2z"/>
		<path class="st2" d="M287.4,72.3h-1.3v-5.4h-6v5.4h-1.3V60.8h1.3v4.9h6v-4.9h1.3V72.3z"/>
	</g>
	<g>
		<path class="st2" d="M223.7,287.8h-1.3v-11.4h6.4v1.2h-5v4.2h4.7v1.2h-4.7L223.7,287.8L223.7,287.8z"/>
		<path class="st2" d="M230.7,287.8v-11.4h1.3v11.4H230.7z"/>
		<path class="st2" d="M235.1,287.8v-11.4h1.3v10.2h5v1.2L235.1,287.8L235.1,287.8z"/>
		<path class="st2" d="M249.8,287.8h-6.4v-11.4h6.4v1.2h-5v3.7h4.7v1.2h-4.7v4.2h5V287.8z"/>
		<path class="st2" d="M252.3,276.4h3.2c1.5,0,2.6,0.2,3.3,0.7c0.7,0.5,1,1.2,1,2.1c0,0.7-0.2,1.2-0.6,1.7c-0.4,0.4-0.9,0.7-1.7,0.9
			v0.1c1.7,0.3,2.6,1.2,2.6,2.7c0,1-0.3,1.8-1,2.4c-0.7,0.6-1.7,0.9-2.9,0.9h-4v-11.5H252.3z M253.7,281.3h2.2c0.9,0,1.6-0.1,2-0.4
			s0.6-0.8,0.6-1.5c0-0.6-0.2-1.1-0.7-1.4s-1.2-0.4-2.2-0.4h-2L253.7,281.3L253.7,281.3z M253.7,282.4v4.3h2.4
			c0.9,0,1.6-0.2,2.1-0.5c0.5-0.4,0.7-0.9,0.7-1.7c0-0.7-0.2-1.2-0.7-1.6c-0.5-0.3-1.2-0.5-2.2-0.5L253.7,282.4L253.7,282.4z"/>
		<path class="st2" d="M269.1,287.8h-6.4v-11.4h6.4v1.2h-5v3.7h4.7v1.2h-4.7v4.2h5V287.8z"/>
		<path class="st2" d="M278.8,287.8l-1.4-3.6h-4.6l-1.4,3.6h-1.3l4.5-11.5h1.1l4.5,11.5H278.8z M276.9,283l-1.3-3.5
			c-0.2-0.4-0.3-1-0.5-1.6c-0.1,0.5-0.3,1-0.5,1.6l-1.3,3.5H276.9z"/>
		<path class="st2" d="M285.2,287.8h-1.3v-10.2h-3.6v-1.2h8.6v1.2h-3.6v10.2L285.2,287.8L285.2,287.8z"/>
	</g>
	<g>
		<g>
			<path class="st3" d="M172.1,384.2v4.8h-1.3v-11.4h3.1c1.4,0,2.4,0.3,3.1,0.8c0.7,0.5,1,1.3,1,2.4c0,1.5-0.8,2.5-2.3,3.1l3.1,5.1
				h-1.5l-2.8-4.8H172.1z M172.1,383h1.8c0.9,0,1.6-0.2,2.1-0.6s0.7-0.9,0.7-1.7c0-0.8-0.2-1.3-0.7-1.6s-1.2-0.5-2.1-0.5h-1.7v4.4
				L172.1,383L172.1,383z"/>
			<path class="st3" d="M187.8,388.9h-6.4v-11.4h6.4v1.2h-5v3.7h4.7v1.2h-4.7v4.2h5V388.9z"/>
			<path class="st3" d="M198.3,388.9l-1.4-3.6h-4.6l-1.4,3.6h-1.3l4.5-11.5h1.1l4.5,11.5H198.3z M196.5,384.1l-1.3-3.5
				c-0.2-0.4-0.3-1-0.5-1.6c-0.1,0.5-0.3,1-0.5,1.6l-1.3,3.5H196.5z"/>
			<path class="st3" d="M211.2,383.1c0,1.9-0.5,3.3-1.5,4.3s-2.5,1.5-4.4,1.5h-3.2v-11.4h3.5c1.8,0,3.2,0.5,4.1,1.5
				S211.2,381.3,211.2,383.1z M209.8,383.2c0-1.5-0.4-2.6-1.1-3.4c-0.7-0.8-1.9-1.1-3.3-1.1h-1.9v9.1h1.6c1.6,0,2.8-0.4,3.6-1.2
				S209.8,384.7,209.8,383.2z"/>
			<path class="st3" d="M226.8,380.8c0,1.2-0.4,2-1.2,2.7s-1.9,0.9-3.4,0.9h-1.3v4.5h-1.3v-11.4h3
				C225.3,377.5,226.8,378.6,226.8,380.8z M220.8,383.3h1.2c1.2,0,2-0.2,2.6-0.6c0.5-0.4,0.8-1,0.8-1.8s-0.2-1.3-0.7-1.7
				c-0.5-0.4-1.3-0.6-2.3-0.6h-1.5v4.7H220.8z"/>
			<path class="st3" d="M239.9,383.2c0,1.8-0.5,3.3-1.4,4.3s-2.2,1.6-3.9,1.6s-3-0.5-3.9-1.5s-1.4-2.5-1.4-4.4s0.5-3.3,1.4-4.3
				s2.2-1.5,3.9-1.5c1.6,0,2.9,0.5,3.8,1.6S239.9,381.4,239.9,383.2z M230.8,383.2c0,1.5,0.3,2.7,1,3.5s1.6,1.2,2.9,1.2
				c1.3,0,2.2-0.4,2.9-1.2c0.6-0.8,1-2,1-3.5s-0.3-2.7-1-3.5c-0.6-0.8-1.6-1.2-2.9-1.2c-1.3,0-2.2,0.4-2.9,1.2
				S230.8,381.7,230.8,383.2z"/>
			<path class="st3" d="M243.2,388.9v-11.4h1.3v11.4H243.2z"/>
			<path class="st3" d="M257.4,388.9h-1.5l-6.2-9.6h-0.1c0.1,1.1,0.1,2.2,0.1,3.1v6.5h-1.2v-11.4h1.5l6.2,9.5h0.1
				c0-0.1,0-0.6-0.1-1.4c0-0.8,0-1.3,0-1.6v-6.6h1.2V388.9z"/>
			<path class="st3" d="M264.8,388.9h-1.3v-10.2h-3.6v-1.2h8.6v1.2h-3.6v10.2H264.8z"/>
			<path class="st3" d="M277.3,388.9h-6.4v-11.4h6.4v1.2h-5v3.7h4.7v1.2h-4.7v4.2h5V388.9z"/>
			<path class="st3" d="M282,384.2v4.8h-1.3v-11.4h3.1c1.4,0,2.4,0.3,3.1,0.8s1,1.3,1,2.4c0,1.5-0.8,2.5-2.3,3.1l3.1,5.1h-1.6
				l-2.8-4.8H282z M282,383h1.8c0.9,0,1.6-0.2,2.1-0.6s0.7-0.9,0.7-1.7c0-0.8-0.2-1.3-0.7-1.6s-1.2-0.5-2.1-0.5h-1.7L282,383
				L282,383z"/>
		</g>
	</g>
	<g>
		<path class="st2" d="M500.3,110.8l3-5.7h1.4l-3.8,7v4.4h-1.3v-4.4l-3.8-7.1h1.5L500.3,110.8z"/>
		<path class="st2" d="M513.5,112.2c0,1.4-0.4,2.5-1.1,3.3c-0.7,0.8-1.7,1.2-2.9,1.2c-0.8,0-1.4-0.2-2-0.5s-1.1-0.9-1.4-1.5
			s-0.5-1.5-0.5-2.4c0-1.4,0.3-2.5,1-3.3s1.7-1.2,2.9-1.2c1.2,0,2.1,0.4,2.9,1.2C513.2,109.8,513.5,110.9,513.5,112.2z M507,112.2
			c0,1.1,0.2,1.9,0.7,2.5c0.4,0.6,1.1,0.9,1.9,0.9s1.5-0.3,1.9-0.9s0.7-1.4,0.7-2.5s-0.2-1.9-0.7-2.5c-0.4-0.6-1.1-0.8-1.9-0.8
			s-1.5,0.3-1.9,0.8C507.2,110.3,507,111.1,507,112.2z"/>
		<path class="st2" d="M517.2,114.7l0.1,0.2c-0.1,0.5-0.3,1.1-0.6,1.8s-0.5,1.3-0.8,1.9h-1c0.1-0.5,0.3-1.2,0.5-2s0.3-1.4,0.4-1.9
			H517.2z"/>
		<path class="st2" d="M525.4,116.5h-1.3v-11.4h6.4v1.2h-5v4.2h4.7v1.2h-4.7v4.8H525.4z"/>
		<path class="st2" d="M532,105.7c0-0.3,0.1-0.5,0.2-0.7c0.1-0.1,0.3-0.2,0.5-0.2s0.4,0.1,0.5,0.2s0.2,0.4,0.2,0.6
			c0,0.3-0.1,0.5-0.2,0.7c-0.2,0.1-0.3,0.2-0.5,0.2s-0.4-0.1-0.5-0.2C532.1,106.2,532,105.9,532,105.7z M533.4,116.5h-1.3v-8.6h1.3
			V116.5z"/>
		<path class="st2" d="M537.5,116.5h-1.3v-12.1h1.3V116.5z"/>
		<path class="st2" d="M543.9,116.7c-1.3,0-2.3-0.4-3-1.2s-1.1-1.8-1.1-3.2s0.3-2.5,1-3.3s1.6-1.2,2.7-1.2c1.1,0,1.9,0.4,2.5,1.1
			c0.6,0.7,0.9,1.6,0.9,2.8v0.8H541c0,1,0.3,1.8,0.8,2.3s1.2,0.8,2,0.8c0.9,0,1.8-0.2,2.7-0.6v1.2c-0.5,0.2-0.9,0.3-1.3,0.4
			S544.4,116.7,543.9,116.7z M543.5,108.9c-0.7,0-1.2,0.2-1.6,0.7c-0.4,0.4-0.6,1.1-0.7,1.9h4.5c0-0.8-0.2-1.4-0.5-1.9
			C544.7,109.1,544.2,108.9,543.5,108.9z"/>
		<path class="st2" d="M553.2,107.8c1.1,0,2,0.4,2.6,1.2s0.9,1.9,0.9,3.3s-0.3,2.5-0.9,3.3c-0.6,0.8-1.5,1.2-2.6,1.2
			c-0.6,0-1.1-0.1-1.5-0.3s-0.8-0.5-1.2-0.9h-0.1l-0.3,1.1h-0.9v-12.3h1.3v3c0,0.7,0,1.3-0.1,1.8h0.1
			C551.1,108.3,552,107.8,553.2,107.8z M553,108.9c-0.9,0-1.5,0.3-1.9,0.8s-0.6,1.4-0.6,2.6s0.2,2.1,0.6,2.6c0.4,0.5,1,0.8,1.9,0.8
			c0.8,0,1.4-0.3,1.8-0.9c0.4-0.6,0.6-1.4,0.6-2.5s-0.2-1.9-0.6-2.5S553.8,108.9,553,108.9z"/>
		<path class="st2" d="M562.6,116.7c-1.3,0-2.3-0.4-3-1.2s-1.1-1.8-1.1-3.2s0.3-2.5,1-3.3s1.6-1.2,2.7-1.2c1.1,0,1.9,0.4,2.5,1.1
			c0.6,0.7,0.9,1.6,0.9,2.8v0.8h-5.9c0,1,0.3,1.8,0.8,2.3s1.2,0.8,2,0.8c0.9,0,1.8-0.2,2.7-0.6v1.2c-0.5,0.2-0.9,0.3-1.3,0.4
			S563.2,116.7,562.6,116.7z M562.3,108.9c-0.7,0-1.2,0.2-1.6,0.7c-0.4,0.4-0.6,1.1-0.7,1.9h4.5c0-0.8-0.2-1.4-0.5-1.9
			C563.5,109.1,563,108.9,562.3,108.9z"/>
		<path class="st2" d="M573.3,116.5l-0.3-1.2h-0.1c-0.4,0.5-0.9,0.9-1.3,1.1s-1,0.3-1.6,0.3c-0.8,0-1.5-0.2-2-0.7s-0.7-1.1-0.7-1.9
			c0-1.7,1.4-2.6,4.1-2.7h1.5v-0.5c0-0.7-0.1-1.2-0.4-1.5s-0.8-0.5-1.4-0.5c-0.7,0-1.5,0.2-2.4,0.7l-0.4-1c0.4-0.2,0.9-0.4,1.4-0.5
			s1-0.2,1.5-0.2c1,0,1.8,0.2,2.3,0.7s0.7,1.2,0.7,2.2v5.8h-0.9V116.5z M570.3,115.6c0.8,0,1.4-0.2,1.9-0.7c0.5-0.4,0.7-1.1,0.7-1.9
			v-0.8l-1.3,0.1c-1,0-1.8,0.2-2.2,0.5c-0.5,0.3-0.7,0.7-0.7,1.3c0,0.5,0.1,0.8,0.4,1.1C569.4,115.5,569.8,115.6,570.3,115.6z"/>
		<path class="st2" d="M579.7,115.6c0.2,0,0.5,0,0.7-0.1c0.2,0,0.4-0.1,0.5-0.1v1c-0.1,0.1-0.3,0.1-0.6,0.2c-0.3,0-0.5,0.1-0.7,0.1
			c-1.7,0-2.5-0.9-2.5-2.6V109h-1.2v-0.6l1.2-0.5l0.5-1.8h0.8v2h2.5v1h-2.6v5c0,0.5,0.1,0.9,0.4,1.2
			C578.9,115.5,579.2,115.6,579.7,115.6z"/>
		<path class="st2" d="M583.9,114.7l0.1,0.2c-0.1,0.5-0.3,1.1-0.6,1.8s-0.5,1.3-0.8,1.9h-1c0.1-0.5,0.3-1.2,0.5-2s0.3-1.4,0.4-1.9
			H583.9z"/>
		<path class="st2" d="M502.7,133.4c0,0.8-0.3,1.4-0.9,1.8c-0.6,0.4-1.4,0.6-2.5,0.6s-2-0.2-2.7-0.5v-1.2c0.4,0.2,0.9,0.4,1.3,0.5
			c0.5,0.1,0.9,0.2,1.4,0.2c0.7,0,1.2-0.1,1.6-0.3s0.5-0.5,0.5-1c0-0.3-0.1-0.6-0.4-0.9c-0.3-0.2-0.9-0.5-1.7-0.8
			c-0.8-0.3-1.4-0.6-1.7-0.8c-0.3-0.2-0.6-0.5-0.8-0.8s-0.2-0.6-0.2-1c0-0.7,0.3-1.2,0.9-1.7c0.6-0.4,1.3-0.6,2.3-0.6
			c0.9,0,1.8,0.2,2.7,0.6l-0.5,1.1c-0.9-0.4-1.6-0.5-2.3-0.5c-0.6,0-1.1,0.1-1.4,0.3s-0.5,0.5-0.5,0.8c0,0.2,0.1,0.4,0.2,0.6
			c0.1,0.2,0.3,0.3,0.6,0.5c0.3,0.1,0.8,0.4,1.5,0.6c1,0.4,1.7,0.7,2.1,1.1S502.7,132.8,502.7,133.4z"/>
		<path class="st2" d="M506.1,135.7h-1.3v-12.2h1.3V135.7z"/>
		<path class="st2" d="M516.3,131.4c0,1.4-0.4,2.5-1.1,3.3c-0.7,0.8-1.7,1.2-2.9,1.2c-0.8,0-1.4-0.2-2-0.5s-1.1-0.9-1.4-1.5
			s-0.5-1.5-0.5-2.4c0-1.4,0.3-2.5,1-3.3s1.7-1.2,2.9-1.2c1.2,0,2.1,0.4,2.9,1.2C515.9,129,516.3,130.1,516.3,131.4z M509.7,131.4
			c0,1.1,0.2,1.9,0.7,2.5c0.4,0.6,1.1,0.9,1.9,0.9s1.5-0.3,1.9-0.9c0.4-0.6,0.7-1.4,0.7-2.5s-0.2-1.9-0.7-2.5
			c-0.4-0.6-1.1-0.8-1.9-0.8s-1.5,0.3-1.9,0.8C510,129.5,509.7,130.3,509.7,131.4z"/>
		<path class="st2" d="M525.5,135.7l-1.6-5c-0.1-0.3-0.3-1-0.6-2.1l0,0c-0.2,0.9-0.4,1.6-0.5,2.1l-1.6,5h-1.5l-2.3-8.6h1.4
			c0.6,2.2,1,3.8,1.3,4.9s0.5,1.9,0.5,2.3h0.1c0.1-0.3,0.1-0.7,0.3-1.2c0.1-0.5,0.2-0.8,0.3-1.1l1.6-4.9h1.4l1.5,4.9
			c0.3,0.9,0.5,1.6,0.6,2.3h0.1c0-0.2,0.1-0.5,0.2-0.9c0.1-0.4,0.6-2.5,1.6-6.3h1.3l-2.4,8.6H525.5z"/>
		<path class="st2" d="M535,124.9c0-0.3,0.1-0.5,0.2-0.7c0.1-0.1,0.3-0.2,0.5-0.2s0.4,0.1,0.5,0.2s0.2,0.4,0.2,0.6
			c0,0.3-0.1,0.5-0.2,0.7c-0.2,0.1-0.3,0.2-0.5,0.2s-0.4-0.1-0.5-0.2C535.1,125.4,535,125.1,535,124.9z M536.4,135.7h-1.3v-8.6h1.3
			V135.7z"/>
		<path class="st2" d="M541.9,134.8c0.2,0,0.5,0,0.7-0.1c0.2,0,0.4-0.1,0.5-0.1v1c-0.1,0.1-0.3,0.1-0.6,0.2c-0.3,0-0.5,0.1-0.7,0.1
			c-1.7,0-2.5-0.9-2.5-2.6v-5.1h-1.2v-0.6l1.2-0.5l0.5-1.8h0.8v2h2.5v1h-2.5v5c0,0.5,0.1,0.9,0.4,1.2
			C541.2,134.7,541.5,134.8,541.9,134.8z"/>
		<path class="st2" d="M554.8,134.6L554.8,134.6c-0.7,0.9-1.6,1.3-2.8,1.3c-1.1,0-2-0.4-2.6-1.1s-0.9-1.9-0.9-3.3
			c0-1.4,0.3-2.5,0.9-3.3s1.5-1.2,2.6-1.2c1.2,0,2.1,0.4,2.7,1.3h0.1l-0.1-0.6v-0.6v-3.5h1.3v12.2h-1.1L554.8,134.6z M552.2,134.8
			c0.9,0,1.5-0.2,1.9-0.7s0.6-1.3,0.6-2.3v-0.3c0-1.2-0.2-2.1-0.6-2.6c-0.4-0.5-1-0.8-1.9-0.8c-0.8,0-1.3,0.3-1.7,0.9
			c-0.4,0.6-0.6,1.4-0.6,2.5s0.2,1.9,0.6,2.5C550.9,134.5,551.4,134.8,552.2,134.8z"/>
		<path class="st2" d="M566.2,131.4c0,1.4-0.4,2.5-1.1,3.3c-0.7,0.8-1.7,1.2-2.9,1.2c-0.8,0-1.4-0.2-2-0.5s-1.1-0.9-1.4-1.5
			s-0.5-1.5-0.5-2.4c0-1.4,0.3-2.5,1-3.3s1.7-1.2,2.9-1.2s2.1,0.4,2.9,1.2C565.8,129,566.2,130.1,566.2,131.4z M559.7,131.4
			c0,1.1,0.2,1.9,0.7,2.5c0.4,0.6,1.1,0.9,1.9,0.9s1.5-0.3,1.9-0.9s0.7-1.4,0.7-2.5s-0.2-1.9-0.7-2.5c-0.4-0.6-1.1-0.8-1.9-0.8
			c-0.8,0-1.5,0.3-1.9,0.8C559.9,129.5,559.7,130.3,559.7,131.4z"/>
		<path class="st2" d="M575.4,135.7l-1.6-5c-0.1-0.3-0.3-1-0.6-2.1h0.1c-0.2,0.9-0.4,1.6-0.5,2.1l-1.6,5h-1.5l-2.3-8.6h1.4
			c0.6,2.2,1,3.8,1.3,4.9s0.5,1.9,0.5,2.3h0.1c0.1-0.3,0.1-0.7,0.3-1.2c0.1-0.5,0.2-0.8,0.3-1.1l1.6-4.9h1.4l1.5,4.9
			c0.3,0.9,0.5,1.6,0.6,2.3h0.1c0-0.2,0.1-0.5,0.2-0.9c0.1-0.4,0.6-2.5,1.6-6.3h1.3l-2.4,8.6H575.4z"/>
		<path class="st2" d="M586.8,135.7v-5.5c0-0.7-0.2-1.2-0.5-1.6s-0.8-0.5-1.5-0.5c-0.9,0-1.6,0.2-2,0.7s-0.6,1.3-0.6,2.4v4.5h-1.3
			v-8.6h1.1l0.2,1.2h0.1c0.3-0.4,0.6-0.7,1.1-1c0.5-0.2,1-0.3,1.6-0.3c1,0,1.8,0.2,2.3,0.7s0.8,1.3,0.8,2.4v5.6L586.8,135.7
			L586.8,135.7z"/>
		<path class="st2" d="M600.1,135.7l-0.3-1.2h-0.1c-0.4,0.5-0.9,0.9-1.3,1.1s-1,0.3-1.6,0.3c-0.8,0-1.5-0.2-2-0.7s-0.7-1.1-0.7-1.9
			c0-1.7,1.4-2.6,4.1-2.7h1.5v-0.5c0-0.7-0.1-1.2-0.4-1.5s-0.8-0.5-1.4-0.5c-0.7,0-1.5,0.2-2.4,0.7l-0.4-1c0.4-0.2,0.9-0.4,1.4-0.5
			s1-0.2,1.5-0.2c1,0,1.8,0.2,2.3,0.7s0.7,1.2,0.7,2.2v5.8h-0.9L600.1,135.7L600.1,135.7z M597.2,134.8c0.8,0,1.4-0.2,1.9-0.7
			c0.5-0.4,0.7-1.1,0.7-1.9v-0.8l-1.3,0.1c-1,0-1.8,0.2-2.2,0.5c-0.5,0.3-0.7,0.7-0.7,1.3c0,0.5,0.1,0.8,0.4,1.1
			C596.3,134.7,596.7,134.8,597.2,134.8z"/>
		<path class="st2" d="M611.9,127c1.1,0,2,0.4,2.6,1.2s0.9,1.9,0.9,3.3s-0.3,2.5-0.9,3.3c-0.6,0.8-1.5,1.2-2.6,1.2
			c-0.6,0-1.1-0.1-1.5-0.3s-0.8-0.5-1.2-0.9h-0.1l-0.3,1.1h-0.9v-12.2h1.3v3c0,0.7,0,1.3-0.1,1.8h0.1
			C609.8,127.5,610.7,127,611.9,127z M611.7,128.1c-0.9,0-1.5,0.3-1.9,0.8s-0.6,1.4-0.6,2.6s0.2,2.1,0.6,2.6c0.4,0.5,1,0.8,1.9,0.8
			c0.8,0,1.4-0.3,1.8-0.9c0.4-0.6,0.6-1.4,0.6-2.5s-0.2-1.9-0.6-2.5S612.5,128.1,611.7,128.1z"/>
		<path class="st2" d="M617.6,124.9c0-0.3,0.1-0.5,0.2-0.7c0.1-0.1,0.3-0.2,0.5-0.2s0.4,0.1,0.5,0.2s0.2,0.4,0.2,0.6
			c0,0.3-0.1,0.5-0.2,0.7c-0.2,0.1-0.3,0.2-0.5,0.2s-0.4-0.1-0.5-0.2C617.7,125.4,617.6,125.1,617.6,124.9z M619,135.7h-1.3v-8.6
			h1.3V135.7z"/>
		<path class="st2" d="M624.5,134.8c0.2,0,0.5,0,0.7-0.1c0.2,0,0.4-0.1,0.5-0.1v1c-0.1,0.1-0.3,0.1-0.6,0.2c-0.3,0-0.5,0.1-0.7,0.1
			c-1.7,0-2.5-0.9-2.5-2.6v-5.1h-1.2v-0.6l1.2-0.5l0.5-1.8h0.8v2h2.5v1h-2.5v5c0,0.5,0.1,0.9,0.4,1.2
			C623.8,134.7,624.1,134.8,624.5,134.8z"/>
		<path class="st2" d="M628.8,133.9l0.1,0.2c-0.1,0.5-0.3,1.1-0.6,1.8s-0.5,1.3-0.8,1.9h-1c0.1-0.5,0.3-1.2,0.5-2s0.3-1.4,0.4-1.9
			H628.8z"/>
		<path class="st2" d="M639.5,135.9c-0.6,0-1.1-0.1-1.5-0.3s-0.8-0.5-1.2-0.9h-0.1c0.1,0.5,0.1,1,0.1,1.4v3.5h-1.3v-12.4h1.1
			l0.2,1.2h0.1c0.3-0.5,0.7-0.8,1.2-1c0.4-0.2,1-0.3,1.5-0.3c1.1,0,2,0.4,2.6,1.2s0.9,1.9,0.9,3.3c0,1.4-0.3,2.5-0.9,3.3
			C641.5,135.5,640.6,135.9,639.5,135.9z M639.3,128.1c-0.9,0-1.5,0.2-1.9,0.7s-0.6,1.3-0.6,2.3v0.3c0,1.2,0.2,2.1,0.6,2.6
			c0.4,0.5,1,0.8,1.9,0.8c0.7,0,1.3-0.3,1.7-0.9c0.4-0.6,0.6-1.4,0.6-2.5s-0.2-1.9-0.6-2.5S640.1,128.1,639.3,128.1z"/>
		<path class="st2" d="M646.6,135.7h-1.3v-12.2h1.3V135.7z"/>
		<path class="st2" d="M654.9,133.4c0,0.8-0.3,1.4-0.9,1.8c-0.6,0.4-1.4,0.6-2.5,0.6s-2-0.2-2.7-0.5v-1.2c0.4,0.2,0.9,0.4,1.3,0.5
			c0.5,0.1,0.9,0.2,1.4,0.2c0.7,0,1.2-0.1,1.6-0.3c0.4-0.2,0.5-0.5,0.5-1c0-0.3-0.1-0.6-0.4-0.9c-0.3-0.2-0.9-0.5-1.7-0.8
			s-1.4-0.6-1.7-0.8s-0.6-0.5-0.8-0.8s-0.2-0.6-0.2-1c0-0.7,0.3-1.2,0.9-1.7c0.6-0.4,1.3-0.6,2.3-0.6c0.9,0,1.8,0.2,2.7,0.6
			l-0.5,1.1c-0.9-0.4-1.6-0.5-2.3-0.5c-0.6,0-1.1,0.1-1.4,0.3c-0.3,0.2-0.5,0.5-0.5,0.8c0,0.2,0.1,0.4,0.2,0.6
			c0.1,0.2,0.3,0.3,0.6,0.5c0.3,0.1,0.8,0.4,1.5,0.6c1,0.4,1.7,0.7,2.1,1.1S654.9,132.8,654.9,133.4z"/>
		<path class="st2" d="M656.8,134.9c0-0.3,0.1-0.6,0.2-0.8s0.4-0.3,0.7-0.3s0.5,0.1,0.7,0.3s0.3,0.4,0.3,0.8c0,0.3-0.1,0.6-0.3,0.8
			s-0.4,0.3-0.7,0.3s-0.5-0.1-0.7-0.2S656.8,135.3,656.8,134.9z"/>
	</g>
	<g>
		<path class="st2" d="M510.2,244.7h-1.6l-4.2-5.5l-1.2,1.1v4.5h-1.3v-11.4h1.3v5.7l5.2-5.7h1.6l-4.6,5L510.2,244.7z"/>
		<path class="st2" d="M519.7,236c1.1,0,2,0.4,2.6,1.2c0.6,0.8,0.9,1.9,0.9,3.3s-0.3,2.5-0.9,3.3c-0.6,0.8-1.5,1.2-2.6,1.2
			c-0.6,0-1.1-0.1-1.5-0.3s-0.8-0.5-1.2-0.9h-0.1l-0.3,1.1h-0.9v-12.2h1.3v3c0,0.7,0,1.3-0.1,1.8h0.1
			C517.6,236.4,518.5,236,519.7,236z M519.5,237.1c-0.9,0-1.5,0.3-1.9,0.8s-0.6,1.4-0.6,2.6s0.2,2.1,0.6,2.6c0.4,0.5,1,0.8,1.9,0.8
			c0.8,0,1.4-0.3,1.8-0.9c0.4-0.6,0.6-1.4,0.6-2.5s-0.2-1.9-0.6-2.5S520.3,237.1,519.5,237.1z"/>
		<path class="st2" d="M526.7,236.1v5.6c0,0.7,0.2,1.2,0.5,1.6s0.8,0.5,1.5,0.5c0.9,0,1.6-0.2,2-0.7s0.6-1.3,0.6-2.4v-4.5h1.3v8.6
			h-1.1l-0.2-1.1h-0.1c-0.3,0.4-0.6,0.7-1.1,1s-1,0.3-1.6,0.3c-1,0-1.8-0.2-2.3-0.7s-0.8-1.3-0.8-2.4v-5.6h1.3L526.7,236.1
			L526.7,236.1z"/>
		<path class="st2" d="M541.1,243.5L541.1,243.5c-0.7,0.9-1.6,1.3-2.8,1.3c-1.1,0-2-0.4-2.6-1.1s-0.9-1.9-0.9-3.3s0.3-2.5,0.9-3.3
			s1.5-1.2,2.6-1.2c1.2,0,2.1,0.4,2.7,1.3h0.1l-0.1-0.6V236v-3.5h1.3v12.2h-1L541.1,243.5z M538.6,243.8c0.9,0,1.5-0.2,1.9-0.7
			s0.6-1.3,0.6-2.3v-0.4c0-1.2-0.2-2.1-0.6-2.6c-0.4-0.5-1-0.8-1.9-0.8c-0.8,0-1.3,0.3-1.7,0.9s-0.6,1.4-0.6,2.5s0.2,1.9,0.6,2.5
			C537.2,243.5,537.8,243.8,538.6,243.8z"/>
		<path class="st2" d="M551,243.5L551,243.5c-0.7,0.9-1.6,1.3-2.8,1.3c-1.1,0-2-0.4-2.6-1.1s-0.9-1.9-0.9-3.3s0.3-2.5,0.9-3.3
			s1.5-1.2,2.6-1.2c1.2,0,2.1,0.4,2.7,1.3h0.1l-0.1-0.6V236v-3.5h1.3v12.2h-1.1L551,243.5z M548.4,243.8c0.9,0,1.5-0.2,1.9-0.7
			s0.6-1.3,0.6-2.3v-0.4c0-1.2-0.2-2.1-0.6-2.6c-0.4-0.5-1-0.8-1.9-0.8c-0.8,0-1.3,0.3-1.7,0.9s-0.6,1.4-0.6,2.5s0.2,1.9,0.6,2.5
			C547,243.5,547.6,243.8,548.4,243.8z"/>
		<path class="st2" d="M553.6,236.1h1.4l1.9,4.9c0.4,1.1,0.7,1.9,0.8,2.4h0.1c0.1-0.3,0.2-0.7,0.4-1.4c0.2-0.6,0.9-2.6,2.1-5.9h1.4
			l-3.7,9.8c-0.4,1-0.8,1.6-1.3,2.1c-0.5,0.4-1.1,0.6-1.8,0.6c-0.4,0-0.8,0-1.2-0.1v-1c0.3,0.1,0.6,0.1,1,0.1c0.9,0,1.5-0.5,1.9-1.5
			l0.5-1.2L553.6,236.1z"/>
		<path class="st2" d="M562.8,243.9c0-0.7,0.3-1.1,0.9-1.1c0.3,0,0.5,0.1,0.7,0.3c0.2,0.2,0.2,0.4,0.2,0.8c0,0.3-0.1,0.6-0.2,0.8
			s-0.4,0.3-0.7,0.3s-0.5-0.1-0.7-0.2S562.8,244.2,562.8,243.9z M564.2,241.5h-0.9l-0.4-8.3h1.6L564.2,241.5z"/>
	</g>
	<g>
		<g>
			<path class="st3" d="M216.1,547.7h-1.3v-10.3h-3.6v-1.2h8.6v1.2h-3.6L216.1,547.7L216.1,547.7z"/>
			<path class="st3" d="M230.1,547.7h-1.3v-5.4h-6v5.4h-1.3v-11.4h1.3v4.9h6v-4.9h1.3V547.7z"/>
			<path class="st3" d="M239.6,547.7h-6.4v-11.4h6.4v1.2h-5v3.7h4.7v1.2h-4.7v4.2h5V547.7z"/>
			<path class="st3" d="M256.2,541.9c0,1.8-0.5,3.3-1.4,4.3s-2.2,1.6-3.9,1.6s-3-0.5-3.9-1.5s-1.4-2.5-1.4-4.4s0.5-3.3,1.4-4.3
				s2.2-1.5,3.9-1.5c1.6,0,2.9,0.5,3.8,1.6S256.2,540.1,256.2,541.9z M247.1,541.9c0,1.5,0.3,2.7,1,3.5s1.6,1.2,2.9,1.2
				c1.3,0,2.2-0.4,2.9-1.2s1-2,1-3.5s-0.3-2.7-1-3.5s-1.6-1.2-2.9-1.2c-1.3,0-2.2,0.4-2.9,1.2S247.1,540.4,247.1,541.9z"/>
			<path class="st3" d="M260,542.9v4.8h-1.3v-11.4h3.1c1.4,0,2.4,0.3,3.1,0.8s1,1.3,1,2.4c0,1.5-0.8,2.5-2.3,3.1l3.1,5.1h-1.6
				l-2.8-4.8L260,542.9L260,542.9z M260,541.8h1.8c0.9,0,1.6-0.2,2.1-0.6s0.7-0.9,0.7-1.7s-0.2-1.3-0.7-1.6s-1.2-0.5-2.1-0.5h-1.7
				L260,541.8L260,541.8z"/>
			<path class="st3" d="M268.6,547.7v-11.4h1.3v11.4H268.6z"/>
			<path class="st3" d="M278.1,541.7h3.9v5.6c-0.6,0.2-1.2,0.3-1.8,0.4s-1.3,0.1-2.2,0.1c-1.7,0-3.1-0.5-4-1.5c-1-1-1.4-2.5-1.4-4.3
				c0-1.2,0.2-2.2,0.7-3.1s1.2-1.6,2.1-2c0.9-0.5,1.9-0.7,3.1-0.7s2.4,0.2,3.4,0.7l-0.5,1.2c-1-0.4-2-0.7-3-0.7
				c-1.4,0-2.5,0.4-3.3,1.2s-1.2,2-1.2,3.4c0,1.5,0.4,2.7,1.1,3.5c0.8,0.8,1.9,1.2,3.3,1.2c0.8,0,1.6-0.1,2.3-0.3v-3.5H278v-1.2
				L278.1,541.7L278.1,541.7z"/>
			<path class="st3" d="M284.7,547.7v-11.4h1.3v11.4H284.7z"/>
			<path class="st3" d="M298.1,547.7h-1.5l-6.2-9.6h-0.1c0.1,1.1,0.1,2.2,0.1,3.1v6.5h-1.2v-11.4h1.5l6.2,9.5h0.1
				c0-0.1,0-0.6-0.1-1.4s0-1.3,0-1.6v-6.6h1.2L298.1,547.7L298.1,547.7z"/>
			<path class="st3" d="M308.4,547.7l-1.4-3.6h-4.6l-1.4,3.6h-1.3l4.5-11.5h1.1l4.5,11.5H308.4z M306.6,542.8l-1.3-3.5
				c-0.2-0.4-0.3-1-0.5-1.6c-0.1,0.5-0.3,1-0.5,1.6l-1.3,3.5H306.6z"/>
			<path class="st3" d="M311.4,547.7v-11.4h1.3v10.2h5v1.2H311.4z"/>
			<path class="st3" d="M323.8,547.7v-11.4h1.3v10.2h5v1.2H323.8z"/>
			<path class="st3" d="M342,541.9c0,1.8-0.5,3.3-1.4,4.3s-2.2,1.6-3.9,1.6c-1.7,0-3-0.5-3.9-1.5s-1.4-2.5-1.4-4.4s0.5-3.3,1.4-4.3
				s2.2-1.5,3.9-1.5c1.6,0,2.9,0.5,3.8,1.6S342,540.1,342,541.9z M332.9,541.9c0,1.5,0.3,2.7,1,3.5s1.6,1.2,2.9,1.2s2.2-0.4,2.9-1.2
				c0.6-0.8,1-2,1-3.5s-0.3-2.7-1-3.5c-0.6-0.8-1.6-1.2-2.9-1.2s-2.2,0.4-2.9,1.2C333.3,539.3,332.9,540.4,332.9,541.9z"/>
			<path class="st3" d="M349.6,541.7h3.9v5.6c-0.6,0.2-1.2,0.3-1.8,0.4s-1.3,0.1-2.2,0.1c-1.7,0-3.1-0.5-4-1.5c-1-1-1.4-2.5-1.4-4.3
				c0-1.2,0.2-2.2,0.7-3.1s1.2-1.6,2.1-2c0.9-0.5,1.9-0.7,3.1-0.7s2.4,0.2,3.4,0.7l-0.5,1.2c-1-0.4-2-0.7-3-0.7
				c-1.4,0-2.5,0.4-3.3,1.2s-1.2,2-1.2,3.4c0,1.5,0.4,2.7,1.1,3.5c0.8,0.8,1.9,1.2,3.3,1.2c0.8,0,1.6-0.1,2.3-0.3v-3.5h-2.6v-1.2
				L349.6,541.7L349.6,541.7z"/>
			<path class="st3" d="M360.4,547.7v-11.4h1.3v10.2h5v1.2H360.4z"/>
			<path class="st3" d="M368.7,547.7v-11.4h1.3v11.4H368.7z"/>
			<path class="st3" d="M382.1,547.7h-1.5l-6.2-9.6h-0.1c0.1,1.1,0.1,2.2,0.1,3.1v6.5h-1.2v-11.4h1.5l6.2,9.5h0.1
				c0-0.1,0-0.6-0.1-1.4c0-0.8,0-1.3,0-1.6v-6.6h1.2L382.1,547.7L382.1,547.7z"/>
			<path class="st3" d="M391.6,547.7h-6.4v-11.4h6.4v1.2h-5v3.7h4.7v1.2h-4.7v4.2h5V547.7z"/>
			<path class="st3" d="M400.6,544.6c0,1-0.4,1.8-1.1,2.4s-1.7,0.8-3,0.8c-1.4,0-2.4-0.2-3.1-0.5V546c0.5,0.2,1,0.4,1.5,0.5
				s1.1,0.2,1.6,0.2c0.9,0,1.6-0.2,2-0.5s0.7-0.8,0.7-1.4c0-0.4-0.1-0.7-0.2-1s-0.4-0.5-0.8-0.7s-0.9-0.5-1.7-0.7
				c-1.1-0.4-1.8-0.8-2.3-1.4s-0.7-1.2-0.7-2c0-0.9,0.3-1.6,1-2.1s1.5-0.8,2.6-0.8s2.2,0.2,3.1,0.6l-0.4,1.2
				c-0.9-0.4-1.9-0.6-2.8-0.6c-0.7,0-1.3,0.2-1.6,0.5s-0.6,0.7-0.6,1.3c0,0.4,0.1,0.7,0.2,1s0.4,0.5,0.7,0.7s0.9,0.4,1.6,0.7
				c1.2,0.4,2,0.9,2.5,1.4S400.6,543.9,400.6,544.6z"/>
			<path class="st3" d="M414.2,547.7l-1.4-3.6h-4.6l-1.4,3.6h-1.3l4.5-11.5h1.1l4.5,11.5H414.2z M412.4,542.8l-1.3-3.5
				c-0.2-0.4-0.3-1-0.5-1.6c-0.1,0.5-0.3,1-0.5,1.6l-1.3,3.5H412.4z"/>
			<path class="st3" d="M422.1,537.3c-1.3,0-2.2,0.4-3,1.3s-1.1,2-1.1,3.4c0,1.5,0.4,2.6,1.1,3.5s1.7,1.2,3,1.2
				c0.8,0,1.7-0.1,2.7-0.4v1.2c-0.8,0.3-1.8,0.4-2.9,0.4c-1.7,0-3-0.5-3.9-1.5s-1.4-2.5-1.4-4.4c0-1.2,0.2-2.2,0.7-3.1
				s1.1-1.6,1.9-2s1.8-0.7,2.9-0.7c1.2,0,2.2,0.2,3.1,0.7l-0.6,1.1C423.8,537.5,422.9,537.3,422.1,537.3z"/>
			<path class="st3" d="M430.8,547.7h-1.3v-10.3h-3.6v-1.2h8.6v1.2h-3.6v10.3H430.8z"/>
			<path class="st3" d="M440.3,547.7v-11.4h1.3v10.2h5v1.2H440.3z"/>
			<path class="st3" d="M448.6,547.7v-11.4h1.3v11.4H448.6z"/>
			<path class="st3" d="M461.3,547.7h-1.6l-4.2-5.5l-1.2,1.1v4.5H453v-11.4h1.3v5.7l5.2-5.7h1.6l-4.6,5L461.3,547.7z"/>
			<path class="st3" d="M469.2,547.7h-6.4v-11.4h6.4v1.2h-5v3.7h4.7v1.2h-4.7v4.2h5V547.7z"/>
			<path class="st3" d="M483.1,547.7l-1.4-3.6h-4.6l-1.4,3.6h-1.3l4.5-11.5h1.1l4.5,11.5H483.1z M481.3,542.8l-1.3-3.5
				c-0.2-0.4-0.3-1-0.5-1.6c-0.1,0.5-0.3,1-0.5,1.6l-1.3,3.5H481.3z"/>
			<path class="st3" d="M500.1,541.9c0,1.5-0.3,2.7-0.9,3.6c-0.6,1-1.4,1.6-2.5,2l2.7,2.8h-1.9l-2.2-2.6h-0.4c-1.7,0-3-0.5-3.9-1.5
				s-1.4-2.5-1.4-4.4s0.5-3.3,1.4-4.3s2.2-1.5,3.9-1.5c1.6,0,2.9,0.5,3.8,1.6S500.1,540.1,500.1,541.9z M491,541.9
				c0,1.5,0.3,2.7,1,3.5s1.6,1.2,2.9,1.2s2.2-0.4,2.9-1.2c0.6-0.8,1-2,1-3.5s-0.3-2.7-1-3.5c-0.6-0.8-1.6-1.2-2.9-1.2
				s-2.2,0.4-2.9,1.2S491,540.4,491,541.9z"/>
			<path class="st3" d="M511.3,536.3v7.4c0,1.3-0.4,2.3-1.2,3.1c-0.8,0.7-1.9,1.1-3.2,1.1s-2.4-0.4-3.2-1.1s-1.1-1.8-1.1-3.1v-7.4
				h1.3v7.5c0,1,0.3,1.7,0.8,2.2s1.3,0.8,2.3,0.8s1.7-0.3,2.2-0.8s0.8-1.2,0.8-2.2v-7.4L511.3,536.3L511.3,536.3z"/>
			<path class="st3" d="M520.7,547.7h-6.4v-11.4h6.4v1.2h-5v3.7h4.7v1.2h-4.7v4.2h5V547.7z"/>
			<path class="st3" d="M531.8,536.3v7.4c0,1.3-0.4,2.3-1.2,3.1c-0.8,0.7-1.9,1.1-3.2,1.1s-2.4-0.4-3.2-1.1s-1.1-1.8-1.1-3.1v-7.4
				h1.3v7.5c0,1,0.3,1.7,0.8,2.2s1.3,0.8,2.3,0.8s1.7-0.3,2.2-0.8s0.8-1.2,0.8-2.2v-7.4L531.8,536.3L531.8,536.3z"/>
			<path class="st3" d="M541.2,547.7h-6.4v-11.4h6.4v1.2h-5v3.7h4.7v1.2h-4.7v4.2h5V547.7z"/>
		</g>
	</g>
	<g>
		<g>
			<path class="st3" d="M160.7,164.1h3.2c1.5,0,2.6,0.2,3.3,0.7s1,1.2,1,2.1c0,0.7-0.2,1.2-0.6,1.7c-0.4,0.4-0.9,0.7-1.7,0.9v0.1
				c1.7,0.3,2.6,1.2,2.6,2.7c0,1-0.3,1.8-1,2.4c-0.7,0.6-1.7,0.9-2.9,0.9h-4L160.7,164.1L160.7,164.1z M162,169h2.2
				c0.9,0,1.6-0.1,2-0.4c0.4-0.3,0.6-0.8,0.6-1.5c0-0.6-0.2-1.1-0.7-1.4c-0.5-0.3-1.2-0.4-2.2-0.4h-2L162,169L162,169z M162,170.2
				v4.3h2.4c0.9,0,1.6-0.2,2.1-0.5c0.5-0.4,0.7-0.9,0.7-1.7c0-0.7-0.2-1.2-0.7-1.6c-0.5-0.3-1.2-0.5-2.2-0.5H162z"/>
			<path class="st3" d="M179,175.6l-1.4-3.6H173l-1.4,3.6h-1.3l4.5-11.5h1.1l4.5,11.5H179z M177.2,170.7l-1.3-3.5
				c-0.2-0.4-0.3-1-0.5-1.6c-0.1,0.5-0.3,1-0.5,1.6l-1.3,3.5H177.2z"/>
			<path class="st3" d="M187.7,165.2c-1.3,0-2.2,0.4-3,1.3s-1.1,2-1.1,3.4c0,1.5,0.4,2.6,1.1,3.5c0.7,0.8,1.7,1.2,3,1.2
				c0.8,0,1.7-0.1,2.7-0.4v1.2c-0.8,0.3-1.8,0.4-2.9,0.4c-1.7,0-3-0.5-3.9-1.5s-1.4-2.5-1.4-4.4c0-1.2,0.2-2.2,0.7-3.1
				c0.4-0.9,1.1-1.6,1.9-2c0.8-0.5,1.8-0.7,2.9-0.7c1.2,0,2.2,0.2,3.1,0.7l-0.6,1.1C189.4,165.4,188.5,165.2,187.7,165.2z"/>
			<path class="st3" d="M201.9,175.6h-1.6l-4.2-5.5l-1.2,1.1v4.5h-1.3v-11.4h1.3v5.7l5.2-5.7h1.6l-4.6,5L201.9,175.6z"/>
			<path class="st3" d="M203.4,171.9v-1.2h3.8v1.2H203.4z"/>
			<path class="st3" d="M217.5,167.5c0,1.2-0.4,2-1.2,2.7c-0.8,0.6-1.9,0.9-3.4,0.9h-1.3v4.5h-1.3v-11.4h3
				C216.1,164.1,217.5,165.2,217.5,167.5z M211.6,169.9h1.2c1.2,0,2-0.2,2.6-0.6c0.5-0.4,0.8-1,0.8-1.8s-0.2-1.3-0.7-1.7
				s-1.3-0.6-2.3-0.6h-1.5v4.7L211.6,169.9L211.6,169.9z"/>
			<path class="st3" d="M222,170.8v4.8h-1.3v-11.4h3.1c1.4,0,2.4,0.3,3.1,0.8c0.7,0.5,1,1.3,1,2.4c0,1.5-0.8,2.5-2.3,3.1l3.1,5.1
				h-1.6l-2.8-4.8L222,170.8L222,170.8z M222,169.7h1.8c0.9,0,1.6-0.2,2.1-0.6c0.4-0.4,0.7-0.9,0.7-1.7s-0.2-1.3-0.7-1.6
				c-0.4-0.3-1.2-0.5-2.1-0.5h-1.7v4.4L222,169.7L222,169.7z"/>
			<path class="st3" d="M237.7,175.6h-6.4v-11.4h6.4v1.2h-5v3.7h4.7v1.2h-4.7v4.2h5V175.6z"/>
			<path class="st3" d="M247.5,172.5c0,1-0.4,1.8-1.1,2.4c-0.7,0.6-1.7,0.8-3,0.8c-1.4,0-2.4-0.2-3.1-0.5v-1.3
				c0.5,0.2,1,0.4,1.5,0.5c0.6,0.1,1.1,0.2,1.6,0.2c0.9,0,1.6-0.2,2-0.5s0.7-0.8,0.7-1.4c0-0.4-0.1-0.7-0.2-1
				c-0.2-0.3-0.4-0.5-0.8-0.7c-0.4-0.2-0.9-0.5-1.7-0.7c-1.1-0.4-1.8-0.8-2.3-1.4c-0.5-0.5-0.7-1.2-0.7-2c0-0.9,0.3-1.6,1-2.1
				s1.5-0.8,2.6-0.8s2.2,0.2,3.1,0.6l-0.4,1.2c-0.9-0.4-1.9-0.6-2.8-0.6c-0.7,0-1.3,0.2-1.6,0.5c-0.4,0.3-0.6,0.7-0.6,1.3
				c0,0.4,0.1,0.7,0.2,1c0.1,0.3,0.4,0.5,0.7,0.7s0.9,0.4,1.6,0.7c1.2,0.4,2,0.9,2.5,1.4C247.3,171.1,247.5,171.7,247.5,172.5z"/>
			<path class="st3" d="M257.1,172.5c0,1-0.4,1.8-1.1,2.4c-0.7,0.6-1.7,0.8-3,0.8c-1.4,0-2.4-0.2-3.1-0.5v-1.3
				c0.5,0.2,1,0.4,1.5,0.5c0.6,0.1,1.1,0.2,1.6,0.2c0.9,0,1.6-0.2,2-0.5s0.7-0.8,0.7-1.4c0-0.4-0.1-0.7-0.2-1
				c-0.2-0.3-0.4-0.5-0.8-0.7c-0.4-0.2-0.9-0.5-1.7-0.7c-1.1-0.4-1.8-0.8-2.3-1.4c-0.5-0.5-0.7-1.2-0.7-2c0-0.9,0.3-1.6,1-2.1
				s1.5-0.8,2.6-0.8s2.2,0.2,3.1,0.6l-0.4,1.2c-0.9-0.4-1.9-0.6-2.8-0.6c-0.7,0-1.3,0.2-1.6,0.5c-0.4,0.3-0.6,0.7-0.6,1.3
				c0,0.4,0.1,0.7,0.2,1c0.1,0.3,0.4,0.5,0.7,0.7s0.9,0.4,1.6,0.7c1.2,0.4,2,0.9,2.5,1.4C256.9,171.1,257.1,171.7,257.1,172.5z"/>
			<path class="st3" d="M268.9,164.1v7.4c0,1.3-0.4,2.3-1.2,3.1c-0.8,0.7-1.9,1.1-3.2,1.1s-2.4-0.4-3.2-1.1
				c-0.8-0.8-1.1-1.8-1.1-3.1v-7.4h1.3v7.5c0,1,0.3,1.7,0.8,2.2s1.3,0.8,2.3,0.8s1.7-0.3,2.2-0.8s0.8-1.2,0.8-2.2v-7.4h1.3
				L268.9,164.1L268.9,164.1z"/>
			<path class="st3" d="M274,170.8v4.8h-1.3v-11.4h3.1c1.4,0,2.4,0.3,3.1,0.8s1,1.3,1,2.4c0,1.5-0.8,2.5-2.3,3.1l3.1,5.1h-1.6
				l-2.8-4.8L274,170.8L274,170.8z M274,169.7h1.8c0.9,0,1.6-0.2,2.1-0.6c0.4-0.4,0.7-0.9,0.7-1.7s-0.2-1.3-0.7-1.6
				c-0.4-0.3-1.2-0.5-2.1-0.5h-1.7L274,169.7L274,169.7z"/>
			<path class="st3" d="M289.7,175.6h-6.4v-11.4h6.4v1.2h-5v3.7h4.7v1.2h-4.7v4.2h5V175.6z"/>
			<path class="st3" d="M122.1,191.7c0,1-0.4,1.8-1.1,2.4c-0.7,0.6-1.7,0.8-3,0.8c-1.4,0-2.4-0.2-3.1-0.5v-1.3
				c0.5,0.2,1,0.4,1.5,0.5c0.6,0.1,1.1,0.2,1.6,0.2c0.9,0,1.6-0.2,2-0.5c0.4-0.3,0.7-0.8,0.7-1.4c0-0.4-0.1-0.7-0.2-1
				c-0.2-0.3-0.4-0.5-0.8-0.7c-0.4-0.2-0.9-0.5-1.7-0.7c-1.1-0.4-1.8-0.8-2.3-1.4c-0.5-0.5-0.7-1.2-0.7-2c0-0.9,0.3-1.6,1-2.1
				s1.5-0.8,2.6-0.8c1.1,0,2.2,0.2,3.1,0.6l-0.4,1.2c-0.9-0.4-1.9-0.6-2.8-0.6c-0.7,0-1.3,0.2-1.6,0.5c-0.4,0.3-0.6,0.7-0.6,1.3
				c0,0.4,0.1,0.7,0.2,1c0.1,0.3,0.4,0.5,0.7,0.7s0.9,0.4,1.6,0.7c1.2,0.4,2,0.9,2.5,1.4C121.9,190.3,122.1,190.9,122.1,191.7z"/>
			<path class="st3" d="M131.6,194.8h-6.4v-11.4h6.4v1.2h-5v3.7h4.7v1.2h-4.7v4.2h5V194.8z"/>
			<path class="st3" d="M143.8,194.8h-1.5l-6.2-9.6H136c0.1,1.1,0.1,2.2,0.1,3.1v6.5h-1.2v-11.4h1.5l6.2,9.5h0.1
				c0-0.1,0-0.6-0.1-1.4c0-0.8,0-1.3,0-1.6v-6.6h1.2V194.8z"/>
			<path class="st3" d="M154.2,191.7c0,1-0.4,1.8-1.1,2.4c-0.7,0.6-1.7,0.8-3,0.8c-1.4,0-2.4-0.2-3.1-0.5v-1.3
				c0.5,0.2,1,0.4,1.5,0.5c0.6,0.1,1.1,0.2,1.6,0.2c0.9,0,1.6-0.2,2-0.5s0.7-0.8,0.7-1.4c0-0.4-0.1-0.7-0.2-1
				c-0.2-0.3-0.4-0.5-0.8-0.7c-0.4-0.2-0.9-0.5-1.7-0.7c-1.1-0.4-1.8-0.8-2.3-1.4c-0.5-0.5-0.7-1.2-0.7-2c0-0.9,0.3-1.6,1-2.1
				s1.5-0.8,2.6-0.8s2.2,0.2,3.1,0.6l-0.4,1.2c-0.9-0.4-1.9-0.6-2.8-0.6c-0.7,0-1.3,0.2-1.6,0.5c-0.4,0.3-0.6,0.7-0.6,1.3
				c0,0.4,0.1,0.7,0.2,1c0.1,0.3,0.4,0.5,0.7,0.7s0.9,0.4,1.6,0.7c1.2,0.4,2,0.9,2.5,1.4C154,190.3,154.2,190.9,154.2,191.7z"/>
			<path class="st3" d="M157.4,194.8v-11.4h1.3v11.4H157.4z"/>
			<path class="st3" d="M166.1,194.8h-1.3v-10.2h-3.6v-1.2h8.6v1.2h-3.6L166.1,194.8L166.1,194.8z"/>
			<path class="st3" d="M172.3,194.8v-11.4h1.3v11.4H172.3z"/>
			<path class="st3" d="M184.1,183.3h1.4l-4.1,11.4h-1.3l-4.1-11.4h1.4l2.6,7.4c0.3,0.8,0.5,1.7,0.7,2.5c0.2-0.8,0.4-1.7,0.7-2.5
				L184.1,183.3z"/>
			<path class="st3" d="M194.2,194.8h-6.4v-11.4h6.4v1.2h-5v3.7h4.7v1.2h-4.7v4.2h5V194.8z"/>
			<path class="st3" d="M209.8,186.7c0,1.2-0.4,2-1.2,2.7c-0.8,0.6-1.9,0.9-3.4,0.9h-1.3v4.5h-1.3v-11.4h3
				C208.3,183.3,209.8,184.4,209.8,186.7z M203.9,189.1h1.2c1.2,0,2-0.2,2.6-0.6c0.5-0.4,0.8-1,0.8-1.8s-0.2-1.3-0.7-1.7
				s-1.3-0.6-2.3-0.6H204v4.7L203.9,189.1L203.9,189.1z"/>
			<path class="st3" d="M214.3,190v4.8H213v-11.4h3.1c1.4,0,2.4,0.3,3.1,0.8c0.7,0.5,1,1.3,1,2.4c0,1.5-0.8,2.5-2.3,3.1l3.1,5.1
				h-1.6l-2.8-4.8H214.3L214.3,190z M214.3,188.9h1.8c0.9,0,1.6-0.2,2.1-0.6c0.4-0.4,0.7-0.9,0.7-1.7s-0.2-1.3-0.7-1.6
				c-0.4-0.3-1.2-0.5-2.1-0.5h-1.8V188.9z"/>
			<path class="st3" d="M233.6,189c0,1.8-0.5,3.3-1.4,4.3s-2.2,1.6-3.9,1.6s-3-0.5-3.9-1.5s-1.4-2.5-1.4-4.4s0.5-3.3,1.4-4.3
				s2.2-1.5,3.9-1.5c1.6,0,2.9,0.5,3.8,1.6C233.1,185.8,233.6,187.2,233.6,189z M224.5,189c0,1.5,0.3,2.7,1,3.5s1.6,1.2,2.9,1.2
				c1.3,0,2.2-0.4,2.9-1.2c0.6-0.8,1-2,1-3.5s-0.3-2.7-1-3.5c-0.6-0.8-1.6-1.2-2.9-1.2c-1.3,0-2.2,0.4-2.9,1.2
				C224.8,186.3,224.5,187.5,224.5,189z"/>
			<path class="st3" d="M240.4,194.8h-1.3v-10.2h-3.6v-1.2h8.6v1.2h-3.6L240.4,194.8L240.4,194.8z"/>
			<path class="st3" d="M256.5,189c0,1.8-0.5,3.3-1.4,4.3s-2.2,1.6-3.9,1.6s-3-0.5-3.9-1.5s-1.4-2.5-1.4-4.4s0.5-3.3,1.4-4.3
				s2.2-1.5,3.9-1.5c1.6,0,2.9,0.5,3.8,1.6C256,185.8,256.5,187.2,256.5,189z M247.4,189c0,1.5,0.3,2.7,1,3.5s1.6,1.2,2.9,1.2
				c1.3,0,2.2-0.4,2.9-1.2c0.6-0.8,1-2,1-3.5s-0.3-2.7-1-3.5c-0.6-0.8-1.6-1.2-2.9-1.2c-1.3,0-2.2,0.4-2.9,1.2
				C247.7,186.3,247.4,187.5,247.4,189z"/>
			<path class="st3" d="M264.7,184.4c-1.3,0-2.2,0.4-3,1.3s-1.1,2-1.1,3.4c0,1.5,0.4,2.6,1.1,3.5c0.7,0.8,1.7,1.2,3,1.2
				c0.8,0,1.7-0.1,2.7-0.4v1.2c-0.8,0.3-1.8,0.4-2.9,0.4c-1.7,0-3-0.5-3.9-1.5s-1.4-2.5-1.4-4.4c0-1.2,0.2-2.2,0.7-3.1
				c0.4-0.9,1.1-1.6,1.9-2c0.8-0.5,1.8-0.7,2.9-0.7c1.2,0,2.2,0.2,3.1,0.7l-0.6,1.1C266.4,184.6,265.6,184.4,264.7,184.4z"/>
			<path class="st3" d="M280.6,189c0,1.8-0.5,3.3-1.4,4.3s-2.2,1.6-3.9,1.6c-1.7,0-3-0.5-3.9-1.5s-1.4-2.5-1.4-4.4s0.5-3.3,1.4-4.3
				s2.2-1.5,3.9-1.5c1.6,0,2.9,0.5,3.8,1.6C280.2,185.8,280.6,187.2,280.6,189z M271.5,189c0,1.5,0.3,2.7,1,3.5s1.6,1.2,2.9,1.2
				s2.2-0.4,2.9-1.2c0.6-0.8,1-2,1-3.5s-0.3-2.7-1-3.5c-0.6-0.8-1.6-1.2-2.9-1.2s-2.2,0.4-2.9,1.2
				C271.9,186.3,271.5,187.5,271.5,189z"/>
			<path class="st3" d="M284,194.8v-11.4h1.3v10.2h5v1.2H284z"/>
		</g>
	</g>
	<g>
		
			<linearGradient id="SVGID_1_" gradientUnits="userSpaceOnUse" x1="393.6968" y1="-25.073" x2="358.2896" y2="-86.4" gradientTransform="matrix(1 0 0 1 0 438.296)">
			<stop  offset="0" style="stop-color:#00BFB3"/>
			<stop  offset="1" style="stop-color:#00A1E2"/>
		</linearGradient>
		<rect x="373.4" y="343.1" class="st4" width="2" height="73.4"/>
		<g>
			
				<linearGradient id="SVGID_2_" gradientUnits="userSpaceOnUse" x1="378.4028" y1="-16.243" x2="342.9956" y2="-77.57" gradientTransform="matrix(1 0 0 1 0 438.296)">
				<stop  offset="0" style="stop-color:#00BFB3"/>
				<stop  offset="1" style="stop-color:#00A1E2"/>
			</linearGradient>
			<polygon class="st5" points="369.5,415.1 374.4,423.8 379.4,415.1 			"/>
		</g>
	</g>
	<g>
		
			<linearGradient id="SVGID_3_" gradientUnits="userSpaceOnUse" x1="374.3" y1="-218.496" x2="374.3" y2="-299.1102" gradientTransform="matrix(1 0 0 1 0 438.296)">
			<stop  offset="0" style="stop-color:#00A1E2"/>
			<stop  offset="1" style="stop-color:#FFCD00"/>
		</linearGradient>
		<rect x="373.3" y="146.4" class="st6" width="2" height="73.4"/>
		<g>
			
				<linearGradient id="SVGID_4_" gradientUnits="userSpaceOnUse" x1="374.3" y1="-218.483" x2="374.3" y2="-299.0976" gradientTransform="matrix(1 0 0 1 0 438.296)">
				<stop  offset="0" style="stop-color:#00A1E2"/>
				<stop  offset="1" style="stop-color:#FFCD00"/>
			</linearGradient>
			<polygon class="st7" points="379.3,147.8 374.3,139.2 369.3,147.8 			"/>
		</g>
	</g>
	<g>
		<path class="st8" d="M380.2,258.5h-21.9c-1.2,0-2.2,1-2.2,2.2v41.5c0,1.2,1,2.2,2.2,2.2h35c1.2,0,2.2-1,2.2-2.2v-28.4L380.2,258.5
			z"/>
		<path class="st9" d="M380.3,258.5v13.1c0,1.2,1,2.2,2.2,2.2h13.1L380.3,258.5z"/>
	</g>
	<path class="st0" d="M693.9,163.2H484.7c-7.8,0-14.2-6.4-14.2-14.2v-13.6c0-1.4-0.5-2.7-1.5-3.7l-23.2-23.4
		c-0.1-0.1-0.2-0.4-0.1-0.5c0.1-0.2,0.3-0.3,0.5-0.3l0,0h19.1c2.9,0,5.3-2.4,5.3-5.3V91.4c0-7.8,6.4-14.2,14.2-14.2H694
		c7.8,0,14.2,6.4,14.2,14.2v57.7C708,156.9,701.7,163.2,693.9,163.2z M447.4,108.4l22.3,22.6c1.2,1.2,1.8,2.8,1.8,4.4v13.7
		c0,7.3,5.9,13.2,13.2,13.2h209.2c7.3,0,13.2-5.9,13.2-13.2V91.4c0-7.3-5.9-13.2-13.2-13.2H484.7c-7.3,0-13.2,5.9-13.2,13.2v10.7
		c0,3.5-2.8,6.3-6.3,6.3H447.4z"/>
	<path class="st1" d="M693.9,279.7H484.7c-7.8,0-14.2-6.4-14.2-14.2v-10.7c0-2.9-2.4-5.3-5.3-5.3h-19.1c-0.2,0-0.4-0.1-0.5-0.3
		c-0.1-0.2,0-0.4,0.1-0.5l23.2-23.4c1-1,1.5-2.3,1.5-3.7v-13.7c0-7.8,6.4-14.2,14.2-14.2h209.2c7.8,0,14.2,6.4,14.2,14.2v57.7
		C708,273.3,701.7,279.7,693.9,279.7z M465.2,248.5c3.5,0,6.3,2.8,6.3,6.3v10.7c0,7.3,5.9,13.2,13.2,13.2h209.2
		c7.3,0,13.2-5.9,13.2-13.2v-57.7c0-7.3-5.9-13.2-13.2-13.2H484.7c-7.3,0-13.2,5.9-13.2,13.2v13.7c0,1.7-0.6,3.2-1.8,4.4l-22.3,22.6
		H465.2z"/>
	<g>
		<rect x="299.4" y="380.1" class="st10" width="61" height="1"/>
		<g>
			<rect x="298.9" y="377.4" class="st10" width="1" height="6.5"/>
		</g>
	</g>
	<g>
		<rect x="299.4" y="181" class="st10" width="61" height="1"/>
		<g>
			<rect x="298.9" y="178.2" class="st10" width="1" height="6.5"/>
		</g>
	</g>
	<path class="st11" d="M39,514.1c-21.5,0-39-17.5-39-39s17.5-39,39-39s39,17.5,39,39S60.4,514.1,39,514.1z M39,438.2
		c-20.4,0-37,16.6-37,37c0,20.4,16.6,37,37,37s37-16.6,37-37C76,454.8,59.3,438.2,39,438.2z"/>
	<path class="st11" d="M151.3,514.1c-21.5,0-39-17.5-39-39s17.5-39,39-39s39,17.5,39,39S172.8,514.1,151.3,514.1z M151.3,438.2
		c-20.4,0-37,16.6-37,37c0,20.4,16.6,37,37,37s37-16.6,37-37C188.3,454.8,171.7,438.2,151.3,438.2z"/>
	<path class="st11" d="M263.7,514.1c-21.5,0-39-17.5-39-39s17.5-39,39-39s39,17.5,39,39S285.2,514.1,263.7,514.1z M263.7,438.2
		c-20.4,0-37,16.6-37,37c0,20.4,16.6,37,37,37s37-16.6,37-37C300.7,454.8,284.1,438.2,263.7,438.2z"/>
	<path class="st11" d="M376.1,514.1c-21.5,0-39-17.5-39-39s17.5-39,39-39s39,17.5,39,39S397.6,514.1,376.1,514.1z M376.1,438.2
		c-20.4,0-37,16.6-37,37c0,20.4,16.6,37,37,37s37-16.6,37-37C413.1,454.8,396.5,438.2,376.1,438.2z"/>
	<path class="st11" d="M488.5,514.1c-21.5,0-39-17.5-39-39s17.5-39,39-39s39,17.5,39,39S509.9,514.1,488.5,514.1z M488.5,438.2
		c-20.4,0-37,16.6-37,37c0,20.4,16.6,37,37,37s37-16.6,37-37C525.5,454.8,508.8,438.2,488.5,438.2z"/>
	<path class="st11" d="M600.8,514.1c-21.5,0-39-17.5-39-39s17.5-39,39-39s39,17.5,39,39S622.3,514.1,600.8,514.1z M600.8,438.2
		c-20.4,0-37,16.6-37,37c0,20.4,16.6,37,37,37s37-16.6,37-37C637.8,454.8,621.2,438.2,600.8,438.2z"/>
	<path class="st11" d="M713.2,514.1c-21.5,0-39-17.5-39-39s17.5-39,39-39s39,17.5,39,39S734.7,514.1,713.2,514.1z M713.2,438.2
		c-20.4,0-37,16.6-37,37c0,20.4,16.6,37,37,37s37-16.6,37-37C750.2,454.8,733.6,438.2,713.2,438.2z"/>
	<g>
		<g>
			<g>
				<path class="st12" d="M56.5,495.9H26c-1.6,0-2.9-1.3-2.9-2.9v-36.3c0-1.6,1.3-2.9,2.9-2.9h19.1c0.3,0,0.5,0.1,0.7,0.3l13.4,13.4
					c0.2,0.2,0.3,0.4,0.3,0.7V493C59.4,494.6,58.1,495.9,56.5,495.9z M26,455.8c-0.5,0-0.9,0.4-0.9,0.9V493c0,0.5,0.4,0.9,0.9,0.9
					h30.5c0.5,0,0.9-0.4,0.9-0.9v-24.4l-12.8-12.8H26z"/>
				<path class="st12" d="M58.4,469.2H47c-1.6,0-2.9-1.3-2.9-2.9v-11.4c0-0.4,0.2-0.8,0.6-0.9c0.4-0.2,0.8-0.1,1.1,0.2l13.4,13.4
					c0.3,0.3,0.4,0.7,0.2,1.1S58.8,469.2,58.4,469.2z M46.1,457.3v9c0,0.5,0.4,0.9,0.9,0.9h9L46.1,457.3z"/>
			</g>
			<path class="st12" d="M40.7,487.4H17.4c-0.8,0-1.4-0.6-1.4-1.4v-7.8c0-0.8,0.6-1.4,1.4-1.4h23.3c0.8,0,1.4,0.6,1.4,1.4v7.8
				C42,486.8,41.4,487.4,40.7,487.4z"/>
			<g>
				<path class="st9" d="M20.8,484.9v-5.6H22v4.6h2.3v1H20.8z"/>
				<path class="st9" d="M30.7,482.1c0,0.9-0.2,1.6-0.7,2.1s-1.1,0.7-2,0.7s-1.5-0.2-2-0.7s-0.7-1.2-0.7-2.1c0-0.9,0.2-1.6,0.7-2.1
					s1.1-0.7,2-0.7s1.5,0.2,2,0.7C30.5,480.4,30.7,481.2,30.7,482.1z M26.6,482.1c0,0.6,0.1,1.1,0.4,1.4s0.6,0.5,1.1,0.5
					c0.9,0,1.4-0.6,1.4-1.9c0-1.3-0.5-1.9-1.4-1.9c-0.5,0-0.8,0.2-1.1,0.5C26.7,481,26.6,481.5,26.6,482.1z"/>
				<path class="st9" d="M34.4,481.7h2.2v2.9c-0.4,0.1-0.7,0.2-1,0.2s-0.6,0.1-1,0.1c-0.8,0-1.5-0.2-1.9-0.7
					c-0.4-0.5-0.7-1.2-0.7-2.1c0-0.9,0.3-1.6,0.8-2.1s1.2-0.8,2.2-0.8c0.6,0,1.1,0.1,1.7,0.3l-0.4,1c-0.4-0.2-0.8-0.3-1.3-0.3
					s-0.9,0.2-1.2,0.5c-0.3,0.3-0.5,0.8-0.5,1.4s0.1,1.1,0.4,1.4c0.3,0.3,0.6,0.5,1.1,0.5c0.2,0,0.5,0,0.8-0.1v-1.2h-1.1L34.4,481.7
					L34.4,481.7z"/>
			</g>
		</g>
	</g>
	<g>
		<g>
			<g>
				<path class="st12" d="M170.1,495.9h-30.5c-1.6,0-2.9-1.3-2.9-2.9v-36.3c0-1.6,1.3-2.9,2.9-2.9h19.1c0.3,0,0.5,0.1,0.7,0.3
					l13.4,13.4c0.2,0.2,0.3,0.4,0.3,0.7V493C173,494.6,171.7,495.9,170.1,495.9z M139.5,455.8c-0.5,0-0.9,0.4-0.9,0.9V493
					c0,0.5,0.4,0.9,0.9,0.9H170c0.5,0,0.9-0.4,0.9-0.9v-24.4l-12.8-12.8H139.5z"/>
				<path class="st12" d="M172,469.2h-11.4c-1.6,0-2.9-1.3-2.9-2.9v-11.4c0-0.4,0.2-0.8,0.6-0.9c0.4-0.2,0.8-0.1,1.1,0.2l13.4,13.4
					c0.3,0.3,0.4,0.7,0.2,1.1S172.4,469.2,172,469.2z M159.6,457.3v9c0,0.5,0.4,0.9,0.9,0.9h9L159.6,457.3z"/>
			</g>
			<path class="st12" d="M154.2,487.4h-23.3c-0.8,0-1.4-0.6-1.4-1.4v-7.8c0-0.8,0.6-1.4,1.4-1.4h23.3c0.8,0,1.4,0.6,1.4,1.4v7.8
				C155.6,486.8,155,487.4,154.2,487.4z"/>
			<g>
				<path class="st9" d="M134.3,484.9v-5.6h1.2v4.6h2.3v1H134.3z"/>
				<path class="st9" d="M144.2,482.1c0,0.9-0.2,1.6-0.7,2.1s-1.1,0.7-2,0.7s-1.5-0.2-2-0.7s-0.7-1.2-0.7-2.1c0-0.9,0.2-1.6,0.7-2.1
					s1.1-0.7,2-0.7s1.5,0.2,2,0.7C144,480.4,144.2,481.2,144.2,482.1z M140.1,482.1c0,0.6,0.1,1.1,0.4,1.4s0.6,0.5,1.1,0.5
					c0.9,0,1.4-0.6,1.4-1.9c0-1.3-0.5-1.9-1.4-1.9c-0.5,0-0.8,0.2-1.1,0.5C140.3,481,140.1,481.5,140.1,482.1z"/>
				<path class="st9" d="M147.9,481.7h2.2v2.9c-0.4,0.1-0.7,0.2-1,0.2s-0.6,0.1-1,0.1c-0.8,0-1.5-0.2-1.9-0.7s-0.7-1.2-0.7-2.1
					c0-0.9,0.3-1.6,0.8-2.1s1.2-0.8,2.2-0.8c0.6,0,1.1,0.1,1.7,0.3l-0.4,1c-0.4-0.2-0.8-0.3-1.3-0.3s-0.9,0.2-1.2,0.5
					s-0.5,0.8-0.5,1.4s0.1,1.1,0.4,1.4s0.6,0.5,1.1,0.5c0.2,0,0.5,0,0.8-0.1v-1.2H148v-1L147.9,481.7L147.9,481.7z"/>
			</g>
		</g>
	</g>
	<g>
		<g>
			<g>
				<path class="st12" d="M281.6,495.9h-30.5c-1.6,0-2.9-1.3-2.9-2.9v-36.3c0-1.6,1.3-2.9,2.9-2.9h19.1c0.3,0,0.5,0.1,0.7,0.3
					l13.4,13.4c0.2,0.2,0.3,0.4,0.3,0.7V493C284.5,494.6,283.2,495.9,281.6,495.9z M251.1,455.8c-0.5,0-0.9,0.4-0.9,0.9V493
					c0,0.5,0.4,0.9,0.9,0.9h30.5c0.5,0,0.9-0.4,0.9-0.9v-24.4l-12.8-12.8H251.1z"/>
				<path class="st12" d="M283.5,469.2h-11.4c-1.6,0-2.9-1.3-2.9-2.9v-11.4c0-0.4,0.2-0.8,0.6-0.9c0.4-0.2,0.8-0.1,1.1,0.2
					l13.4,13.4c0.3,0.3,0.4,0.7,0.2,1.1S283.9,469.2,283.5,469.2z M271.2,457.3v9c0,0.5,0.4,0.9,0.9,0.9h9L271.2,457.3z"/>
			</g>
			<path class="st12" d="M265.8,487.4h-23.3c-0.8,0-1.4-0.6-1.4-1.4v-7.8c0-0.8,0.6-1.4,1.4-1.4h23.3c0.8,0,1.4,0.6,1.4,1.4v7.8
				C267.1,486.8,266.5,487.4,265.8,487.4z"/>
			<g>
				<path class="st9" d="M245.9,484.9v-5.6h1.2v4.6h2.3v1H245.9z"/>
				<path class="st9" d="M255.8,482.1c0,0.9-0.2,1.6-0.7,2.1s-1.1,0.7-2,0.7s-1.5-0.2-2-0.7s-0.7-1.2-0.7-2.1c0-0.9,0.2-1.6,0.7-2.1
					s1.1-0.7,2-0.7s1.5,0.2,2,0.7C255.6,480.4,255.8,481.2,255.8,482.1z M251.7,482.1c0,0.6,0.1,1.1,0.4,1.4s0.6,0.5,1.1,0.5
					c0.9,0,1.4-0.6,1.4-1.9c0-1.3-0.5-1.9-1.4-1.9c-0.5,0-0.8,0.2-1.1,0.5C251.8,481,251.7,481.5,251.7,482.1z"/>
				<path class="st9" d="M259.5,481.7h2.2v2.9c-0.4,0.1-0.7,0.2-1,0.2s-0.6,0.1-1,0.1c-0.8,0-1.5-0.2-1.9-0.7s-0.7-1.2-0.7-2.1
					c0-0.9,0.3-1.6,0.8-2.1s1.2-0.8,2.2-0.8c0.6,0,1.1,0.1,1.7,0.3l-0.4,1c-0.4-0.2-0.8-0.3-1.3-0.3s-0.9,0.2-1.2,0.5
					c-0.3,0.3-0.5,0.8-0.5,1.4s0.1,1.1,0.4,1.4s0.6,0.5,1.1,0.5c0.2,0,0.5,0,0.8-0.1v-1.2h-1.1v-1L259.5,481.7L259.5,481.7z"/>
			</g>
		</g>
	</g>
	<g>
		<g>
			<g>
				<path class="st12" d="M394.2,495.9h-30.5c-1.6,0-2.9-1.3-2.9-2.9v-36.3c0-1.6,1.3-2.9,2.9-2.9h19.1c0.3,0,0.5,0.1,0.7,0.3
					l13.4,13.4c0.2,0.2,0.3,0.4,0.3,0.7V493C397.1,494.6,395.8,495.9,394.2,495.9z M363.6,455.8c-0.5,0-0.9,0.4-0.9,0.9V493
					c0,0.5,0.4,0.9,0.9,0.9h30.5c0.5,0,0.9-0.4,0.9-0.9v-24.4l-12.7-12.8H363.6z"/>
				<path class="st12" d="M396.1,469.2h-11.4c-1.6,0-2.9-1.3-2.9-2.9v-11.4c0-0.4,0.2-0.8,0.6-0.9c0.4-0.2,0.8-0.1,1.1,0.2
					l13.4,13.4c0.3,0.3,0.4,0.7,0.2,1.1C396.9,469,396.5,469.2,396.1,469.2z M383.7,457.3v9c0,0.5,0.4,0.9,0.9,0.9h9L383.7,457.3z"
					/>
			</g>
			<path class="st12" d="M378.3,487.4H355c-0.8,0-1.4-0.6-1.4-1.4v-7.8c0-0.8,0.6-1.4,1.4-1.4h23.3c0.8,0,1.4,0.6,1.4,1.4v7.8
				C379.7,486.8,379.1,487.4,378.3,487.4z"/>
			<g>
				<path class="st9" d="M358.4,484.9v-5.6h1.2v4.6h2.3v1H358.4z"/>
				<path class="st9" d="M368.3,482.1c0,0.9-0.2,1.6-0.7,2.1s-1.1,0.7-2,0.7s-1.5-0.2-2-0.7s-0.7-1.2-0.7-2.1c0-0.9,0.2-1.6,0.7-2.1
					s1.1-0.7,2-0.7s1.5,0.2,2,0.7C368.1,480.4,368.3,481.2,368.3,482.1z M364.2,482.1c0,0.6,0.1,1.1,0.4,1.4s0.6,0.5,1.1,0.5
					c0.9,0,1.4-0.6,1.4-1.9c0-1.3-0.5-1.9-1.4-1.9c-0.5,0-0.8,0.2-1.1,0.5C364.4,481,364.2,481.5,364.2,482.1z"/>
				<path class="st9" d="M372,481.7h2.2v2.9c-0.4,0.1-0.7,0.2-1,0.2s-0.6,0.1-1,0.1c-0.8,0-1.5-0.2-1.9-0.7s-0.7-1.2-0.7-2.1
					c0-0.9,0.3-1.6,0.8-2.1s1.2-0.8,2.2-0.8c0.6,0,1.1,0.1,1.7,0.3l-0.4,1c-0.4-0.2-0.8-0.3-1.3-0.3s-0.9,0.2-1.2,0.5
					c-0.3,0.3-0.5,0.8-0.5,1.4s0.1,1.1,0.4,1.4s0.6,0.5,1.1,0.5c0.2,0,0.5,0,0.8-0.1v-1.2h-1.1v-1L372,481.7L372,481.7z"/>
			</g>
		</g>
	</g>
	<g>
		<g>
			<g>
				<path class="st12" d="M506.7,495.9h-30.5c-1.6,0-2.9-1.3-2.9-2.9v-36.3c0-1.6,1.3-2.9,2.9-2.9h19.1c0.3,0,0.5,0.1,0.7,0.3
					l13.4,13.4c0.2,0.2,0.3,0.4,0.3,0.7V493C509.6,494.6,508.3,495.9,506.7,495.9z M476.2,455.8c-0.5,0-0.9,0.4-0.9,0.9V493
					c0,0.5,0.4,0.9,0.9,0.9h30.5c0.5,0,0.9-0.4,0.9-0.9v-24.4l-12.8-12.8H476.2z"/>
				<path class="st12" d="M508.6,469.2h-11.4c-1.6,0-2.9-1.3-2.9-2.9v-11.4c0-0.4,0.2-0.8,0.6-0.9c0.4-0.2,0.8-0.1,1.1,0.2
					l13.4,13.4c0.3,0.3,0.4,0.7,0.2,1.1C509.4,469,509,469.2,508.6,469.2z M496.3,457.3v9c0,0.5,0.4,0.9,0.9,0.9h9L496.3,457.3z"/>
			</g>
			<path class="st12" d="M490.9,487.4h-23.3c-0.8,0-1.4-0.6-1.4-1.4v-7.8c0-0.8,0.6-1.4,1.4-1.4h23.3c0.8,0,1.4,0.6,1.4,1.4v7.8
				C492.3,486.8,491.6,487.4,490.9,487.4z"/>
			<g>
				<path class="st9" d="M471,484.9v-5.6h1.2v4.6h2.3v1H471z"/>
				<path class="st9" d="M480.9,482.1c0,0.9-0.2,1.6-0.7,2.1s-1.1,0.7-2,0.7s-1.5-0.2-2-0.7s-0.7-1.2-0.7-2.1c0-0.9,0.2-1.6,0.7-2.1
					s1.1-0.7,2-0.7s1.5,0.2,2,0.7C480.7,480.4,480.9,481.2,480.9,482.1z M476.8,482.1c0,0.6,0.1,1.1,0.4,1.4
					c0.2,0.3,0.6,0.5,1.1,0.5c0.9,0,1.4-0.6,1.4-1.9c0-1.3-0.5-1.9-1.4-1.9c-0.5,0-0.8,0.2-1.1,0.5S476.8,481.5,476.8,482.1z"/>
				<path class="st9" d="M484.6,481.7h2.2v2.9c-0.4,0.1-0.7,0.2-1,0.2s-0.6,0.1-1,0.1c-0.8,0-1.5-0.2-1.9-0.7s-0.7-1.2-0.7-2.1
					c0-0.9,0.3-1.6,0.8-2.1s1.2-0.8,2.2-0.8c0.6,0,1.1,0.1,1.7,0.3l-0.4,1c-0.4-0.2-0.8-0.3-1.3-0.3s-0.9,0.2-1.2,0.5
					c-0.3,0.3-0.5,0.8-0.5,1.4s0.1,1.1,0.4,1.4c0.2,0.3,0.6,0.5,1.1,0.5c0.2,0,0.5,0,0.8-0.1v-1.2h-1.1v-1L484.6,481.7L484.6,481.7z
					"/>
			</g>
		</g>
	</g>
	<g>
		<g>
			<g>
				<path class="st12" d="M619.3,495.9h-30.5c-1.6,0-2.9-1.3-2.9-2.9v-36.3c0-1.6,1.3-2.9,2.9-2.9h19.1c0.3,0,0.5,0.1,0.7,0.3
					l13.4,13.4c0.2,0.2,0.3,0.4,0.3,0.7V493C622.2,494.6,620.9,495.9,619.3,495.9z M588.7,455.8c-0.5,0-0.9,0.4-0.9,0.9V493
					c0,0.5,0.4,0.9,0.9,0.9h30.6c0.5,0,0.9-0.4,0.9-0.9v-24.4l-12.8-12.8H588.7z"/>
				<path class="st12" d="M621.2,469.2h-11.4c-1.6,0-2.9-1.3-2.9-2.9v-11.4c0-0.4,0.2-0.8,0.6-0.9c0.4-0.2,0.8-0.1,1.1,0.2
					l13.4,13.4c0.3,0.3,0.4,0.7,0.2,1.1C622,469,621.6,469.2,621.2,469.2z M608.8,457.3v9c0,0.5,0.4,0.9,0.9,0.9h9L608.8,457.3z"/>
			</g>
			<path class="st12" d="M603.4,487.4h-23.3c-0.8,0-1.4-0.6-1.4-1.4v-7.8c0-0.8,0.6-1.4,1.4-1.4h23.3c0.8,0,1.4,0.6,1.4,1.4v7.8
				C604.8,486.8,604.2,487.4,603.4,487.4z"/>
			<g>
				<path class="st9" d="M583.5,484.9v-5.6h1.2v4.6h2.3v1H583.5z"/>
				<path class="st9" d="M593.4,482.1c0,0.9-0.2,1.6-0.7,2.1s-1.1,0.7-2,0.7s-1.5-0.2-2-0.7s-0.7-1.2-0.7-2.1c0-0.9,0.2-1.6,0.7-2.1
					s1.1-0.7,2-0.7s1.5,0.2,2,0.7C593.2,480.4,593.4,481.2,593.4,482.1z M589.3,482.1c0,0.6,0.1,1.1,0.4,1.4
					c0.2,0.3,0.6,0.5,1.1,0.5c0.9,0,1.4-0.6,1.4-1.9c0-1.3-0.5-1.9-1.4-1.9c-0.5,0-0.8,0.2-1.1,0.5S589.3,481.5,589.3,482.1z"/>
				<path class="st9" d="M597.1,481.7h2.2v2.9c-0.4,0.1-0.7,0.2-1,0.2s-0.6,0.1-1,0.1c-0.8,0-1.5-0.2-1.9-0.7s-0.7-1.2-0.7-2.1
					c0-0.9,0.3-1.6,0.8-2.1s1.2-0.8,2.2-0.8c0.6,0,1.1,0.1,1.7,0.3l-0.4,1c-0.4-0.2-0.8-0.3-1.3-0.3s-0.9,0.2-1.2,0.5
					s-0.5,0.8-0.5,1.4s0.1,1.1,0.4,1.4c0.2,0.3,0.6,0.5,1.1,0.5c0.2,0,0.5,0,0.8-0.1v-1.2h-1.1L597.1,481.7L597.1,481.7z"/>
			</g>
		</g>
	</g>
	<g>
		<g>
			<g>
				<path class="st12" d="M731.8,495.9h-30.5c-1.6,0-2.9-1.3-2.9-2.9v-36.3c0-1.6,1.3-2.9,2.9-2.9h19.1c0.3,0,0.5,0.1,0.7,0.3
					l13.4,13.4c0.2,0.2,0.3,0.4,0.3,0.7V493C734.7,494.6,733.4,495.9,731.8,495.9z M701.3,455.8c-0.5,0-0.9,0.4-0.9,0.9V493
					c0,0.5,0.4,0.9,0.9,0.9h30.5c0.5,0,0.9-0.4,0.9-0.9v-24.4l-12.8-12.8H701.3z"/>
				<path class="st12" d="M733.7,469.2h-11.4c-1.6,0-2.9-1.3-2.9-2.9v-11.4c0-0.4,0.2-0.8,0.6-0.9c0.4-0.2,0.8-0.1,1.1,0.2
					l13.4,13.4c0.3,0.3,0.4,0.7,0.2,1.1C734.5,469,734.1,469.2,733.7,469.2z M721.4,457.3v9c0,0.5,0.4,0.9,0.9,0.9h9L721.4,457.3z"
					/>
			</g>
			<path class="st12" d="M716,487.4h-23.3c-0.8,0-1.4-0.6-1.4-1.4v-7.8c0-0.8,0.6-1.4,1.4-1.4H716c0.8,0,1.4,0.6,1.4,1.4v7.8
				C717.4,486.8,716.7,487.4,716,487.4z"/>
			<g>
				<path class="st9" d="M696.1,484.9v-5.6h1.2v4.6h2.3v1H696.1z"/>
				<path class="st9" d="M706,482.1c0,0.9-0.2,1.6-0.7,2.1s-1.1,0.7-2,0.7s-1.5-0.2-2-0.7s-0.7-1.2-0.7-2.1c0-0.9,0.2-1.6,0.7-2.1
					s1.1-0.7,2-0.7s1.5,0.2,2,0.7C705.8,480.4,706,481.2,706,482.1z M701.9,482.1c0,0.6,0.1,1.1,0.4,1.4c0.2,0.3,0.6,0.5,1.1,0.5
					c0.9,0,1.4-0.6,1.4-1.9c0-1.3-0.5-1.9-1.4-1.9c-0.5,0-0.8,0.2-1.1,0.5S701.9,481.5,701.9,482.1z"/>
				<path class="st9" d="M709.7,481.7h2.2v2.9c-0.4,0.1-0.7,0.2-1,0.2s-0.6,0.1-1,0.1c-0.8,0-1.5-0.2-1.9-0.7s-0.7-1.2-0.7-2.1
					c0-0.9,0.3-1.6,0.8-2.1s1.2-0.8,2.2-0.8c0.6,0,1.1,0.1,1.7,0.3l-0.4,1c-0.4-0.2-0.8-0.3-1.3-0.3s-0.9,0.2-1.2,0.5
					s-0.5,0.8-0.5,1.4s0.1,1.1,0.4,1.4c0.2,0.3,0.6,0.5,1.1,0.5c0.2,0,0.5,0,0.8-0.1v-1.2h-1.1L709.7,481.7L709.7,481.7z"/>
			</g>
		</g>
	</g>
	<g>
		<rect x="379.2" y="67.2" class="st9" width="17.8" height="19.4"/>
		<path class="st9" d="M355,34.9h-1.6v32.3c0,10.7,8.7,19.4,19.4,19.4h1.6V67.2V54.3C374.4,43.6,365.7,34.9,355,34.9z"/>
	</g>
</g>
</svg>
