<?xml version="1.0" encoding="UTF-8"?>
<svg width="32px" height="32px" viewBox="0 0 32 32" version="1.1" xmlns="http://www.w3.org/2000/svg" xmlns:xlink="http://www.w3.org/1999/xlink">
    <!-- Generator: Sketch 55.1 (78136) - https://sketchapp.com -->
    <title>icon-winlogbeat-32-color</title>
    <desc>Created with Sketch.</desc>
    <g id="icon-winlogbeat-32-color" stroke="none" stroke-width="1" fill="none" fill-rule="evenodd">
        <g id="Group" transform="translate(1.000000, 1.000000)" fill-rule="nonzero">
            <polygon id="Stroke-1" fill="#00BFB2" points="-4.54747351e-13 16 -4.54747351e-13 14 30 14 30 16"></polygon>
            <polygon id="Stroke-3" fill="#00BFB2" points="14 -1.42108547e-14 16 -1.42108547e-14 16 30 14 30"></polygon>
            <polygon id="Stroke-5" fill="#535966" points="2 2 2 12 -4.54747351e-13 12 -4.54747351e-13 -3.01980663e-14 12 -3.01980663e-14 12 2"></polygon>
            <polygon id="Stroke-7" fill="#535966" points="28 2 18 2 18 -3.01980663e-14 30 -3.01980663e-14 30 12 28 12"></polygon>
            <polygon id="Stroke-9" fill="#535966" points="2 28 12 28 12 30 -4.54747351e-13 30 -4.54747351e-13 18 2 18"></polygon>
            <polygon id="Stroke-11" fill="#535966" points="28 18 30 18 30 30 18 30 18 28 28 28"></polygon>
        </g>
    </g>
</svg>