<?xml version="1.0" encoding="UTF-8"?>
<svg width="32px" height="32px" viewBox="0 0 32 32" version="1.1" xmlns="http://www.w3.org/2000/svg" xmlns:xlink="http://www.w3.org/1999/xlink">
    <!-- Generator: Sketch 55.1 (78136) - https://sketchapp.com -->
    <title>icon-packetbeat-32-color</title>
    <desc>Created with Sketch.</desc>
    <g id="icon-packetbeat-32-color" stroke="none" stroke-width="1" fill="none" fill-rule="evenodd">
        <g id="Group-11">
            <path d="M16,14 C14.897,14 14,14.897 14,16 C14,17.103 14.897,18 16,18 C17.103,18 18,17.103 18,16 C18,14.897 17.103,14 16,14 M16,20 C13.794,20 12,18.206 12,16 C12,13.794 13.794,12 16,12 C18.206,12 20,13.794 20,16 C20,18.206 18.206,20 16,20" id="Fill-1" fill="#00BFB3"></path>
            <path d="M4,6 C2.897,6 2,5.103 2,4 C2,2.897 2.897,2 4,2 C5.103,2 6,2.897 6,4 C6,5.103 5.103,6 4,6 M8,4 C8,1.794 6.206,0 4,0 C1.794,0 0,1.794 0,4 C0,6.206 1.794,8 4,8 C4.739,8 5.425,7.784 6.02,7.434 L11.293,12.707 L12.707,11.293 L7.434,6.02 C7.784,5.425 8,4.739 8,4" id="Fill-3" fill="#535966"></path>
            <path d="M28,2 C29.103,2 30,2.897 30,4 C30,5.103 29.103,6 28,6 C26.897,6 26,5.103 26,4 C26,2.897 26.897,2 28,2 L28,2 Z M20.707,12.707 L25.98,7.434 C26.575,7.784 27.261,8 28,8 C30.206,8 32,6.206 32,4 C32,1.794 30.206,0 28,0 C25.794,0 24,1.794 24,4 C24,4.739 24.216,5.425 24.566,6.02 L19.293,11.293 L20.707,12.707 Z" id="Fill-5" fill="#535966"></path>
            <path d="M4,30 C2.897,30 2,29.103 2,28 C2,26.897 2.897,26 4,26 C5.103,26 6,26.897 6,28 C6,29.103 5.103,30 4,30 L4,30 Z M11.293,19.293 L6.02,24.566 C5.425,24.216 4.739,24 4,24 C1.794,24 0,25.794 0,28 C0,30.206 1.794,32 4,32 C6.206,32 8,30.206 8,28 C8,27.261 7.784,26.575 7.434,25.98 L12.707,20.707 L11.293,19.293 Z" id="Fill-7" fill="#535966"></path>
            <path d="M28,30 C26.897,30 26,29.103 26,28 C26,26.897 26.897,26 28,26 C29.103,26 30,26.897 30,28 C30,29.103 29.103,30 28,30 M28,24 C27.261,24 26.575,24.216 25.98,24.566 L20.707,19.293 L19.293,20.707 L24.566,25.98 C24.216,26.575 24,27.261 24,28 C24,30.206 25.794,32 28,32 C30.206,32 32,30.206 32,28 C32,25.794 30.206,24 28,24" id="Fill-9" fill="#535966"></path>
        </g>
    </g>
</svg>