<?xml version="1.0" encoding="utf-8"?>
<!-- Generator: Adobe Illustrator 19.2.1, SVG Export Plug-In . SVG Version: 6.00 Build 0)  -->
<svg version="1.1" id="Layer_1" xmlns="http://www.w3.org/2000/svg" xmlns:xlink="http://www.w3.org/1999/xlink" x="0px" y="0px"
	 viewBox="0 0 986 179" style="enable-background:new 0 0 986 179;" xml:space="preserve">
<style type="text/css">
	.st0{fill:url(#Fill-1_1_);}
	.st1{fill:#FEFEFE;stroke:url(#Fill-5_1_);stroke-width:2;}
	.st2{fill:url(#Fill-1-Copy_1_);}
	.st3{fill:#FEFEFE;stroke:url(#Fill-12_1_);stroke-width:2;}
	.st4{fill:url(#Fill-1-Copy-3_1_);}
	.st5{fill:#FEFEFE;stroke:url(#Fill-26-Copy_1_);stroke-width:2;}
	.st6{fill:url(#Fill-1-Copy-2_1_);}
	.st7{fill:#FEFEFE;stroke:url(#Fill-26-Copy-2_1_);stroke-width:2;}
	.st8{fill:#FEFEFE;stroke:url(#Fill-26_1_);stroke-width:2;}
	.st9{fill:#1EBAB0;}
	.st10{enable-background:new    ;}
	.st11{fill:#444444;}
	.st12{fill:#444445;}
</style>
<title>Group 7</title>
<desc>Created with Sketch.</desc>
<g id="Group-Copy">
	
		<linearGradient id="Fill-1_1_" gradientUnits="userSpaceOnUse" x1="968.5558" y1="381.4165" x2="967.5558" y2="381.4165" gradientTransform="matrix(151.3 0 0 -11.006 -146327.2031 4248.3701)">
		<stop  offset="0" style="stop-color:#00BFB3"/>
		<stop  offset="1" style="stop-color:#31C8FA"/>
	</linearGradient>
	<polygon id="Fill-1" class="st0" points="215.3,50.5 209.8,45 209.8,49.7 64,49.7 64,51.3 209.8,51.3 209.8,56 	"/>
	
		<linearGradient id="Fill-5_1_" gradientUnits="userSpaceOnUse" x1="964.25" y1="393.06" x2="965.25" y2="393.06" gradientTransform="matrix(100 0 0 -100 -96424 39357)">
		<stop  offset="0" style="stop-color:#00BFB3"/>
		<stop  offset="1" style="stop-color:#31C8FA"/>
	</linearGradient>
	<path id="Fill-5" class="st1" d="M51,101C23.4,101,1,78.6,1,51S23.4,1,51,1s50,22.4,50,50S78.6,101,51,101z"/>
	
		<linearGradient id="Fill-1-Copy_1_" gradientUnits="userSpaceOnUse" x1="968.5558" y1="381.4165" x2="967.5558" y2="381.4165" gradientTransform="matrix(151.3 0 0 -11.006 -146108.2031 4248.3701)">
		<stop  offset="0" style="stop-color:#00BFB3"/>
		<stop  offset="1" style="stop-color:#31C8FA"/>
	</linearGradient>
	<polygon id="Fill-1-Copy" class="st2" points="434.3,50.5 428.8,45 428.8,49.7 283,49.7 283,51.3 428.8,51.3 428.8,56 	"/>
	
		<linearGradient id="Fill-12_1_" gradientUnits="userSpaceOnUse" x1="964.25" y1="393.06" x2="965.25" y2="393.06" gradientTransform="matrix(100 0 0 -100 -96205 39357)">
		<stop  offset="0" style="stop-color:#00BFB3"/>
		<stop  offset="1" style="stop-color:#31C8FA"/>
	</linearGradient>
	<path id="Fill-12" class="st3" d="M320,51c0,27.6-22.4,50-50,50s-50-22.4-50-50s22.4-50,50-50S320,23.4,320,51"/>
	
		<linearGradient id="Fill-1-Copy-3_1_" gradientUnits="userSpaceOnUse" x1="968.5558" y1="381.4165" x2="967.5558" y2="381.4165" gradientTransform="matrix(151.3 0 0 -11.006 -145889.2031 4248.3701)">
		<stop  offset="0" style="stop-color:#00BFB3"/>
		<stop  offset="1" style="stop-color:#31C8FA"/>
	</linearGradient>
	<polygon id="Fill-1-Copy-3" class="st4" points="653.3,50.5 647.8,45 647.8,49.7 502,49.7 502,51.3 647.8,51.3 647.8,56 	"/>
	
		<linearGradient id="Fill-26-Copy_1_" gradientUnits="userSpaceOnUse" x1="964.25" y1="393.06" x2="965.25" y2="393.06" gradientTransform="matrix(100 0 0 -100 -95548 39357)">
		<stop  offset="0" style="stop-color:#00BFB3"/>
		<stop  offset="1" style="stop-color:#31C8FA"/>
	</linearGradient>
	<path id="Fill-26-Copy" class="st5" d="M977,51c0,27.6-22.4,50-50,50s-50-22.4-50-50s22.4-50,50-50S977,23.4,977,51"/>
	
		<linearGradient id="Fill-1-Copy-2_1_" gradientUnits="userSpaceOnUse" x1="968.5558" y1="381.4165" x2="967.5558" y2="381.4165" gradientTransform="matrix(151.3 0 0 -11.006 -145670.2031 4248.3701)">
		<stop  offset="0" style="stop-color:#00BFB3"/>
		<stop  offset="1" style="stop-color:#31C8FA"/>
	</linearGradient>
	<polygon id="Fill-1-Copy-2" class="st6" points="872.3,50.5 866.8,45 866.8,49.7 721,49.7 721,51.3 866.8,51.3 866.8,56 	"/>
	
		<linearGradient id="Fill-26-Copy-2_1_" gradientUnits="userSpaceOnUse" x1="964.25" y1="393.06" x2="965.25" y2="393.06" gradientTransform="matrix(100 0 0 -100 -95986 39357)">
		<stop  offset="0" style="stop-color:#00BFB3"/>
		<stop  offset="1" style="stop-color:#31C8FA"/>
	</linearGradient>
	<path id="Fill-26-Copy-2" class="st7" d="M539,51c0,27.6-22.4,50-50,50s-50-22.4-50-50s22.4-50,50-50C516.6,1,539,23.4,539,51"/>
	
		<linearGradient id="Fill-26_1_" gradientUnits="userSpaceOnUse" x1="964.25" y1="393.06" x2="965.25" y2="393.06" gradientTransform="matrix(100 0 0 -100 -95767 39357)">
		<stop  offset="0" style="stop-color:#00BFB3"/>
		<stop  offset="1" style="stop-color:#31C8FA"/>
	</linearGradient>
	<path id="Fill-26" class="st8" d="M758,51c0,27.6-22.4,50-50,50s-50-22.4-50-50s22.4-50,50-50S758,23.4,758,51"/>
	<path id="Fill-31" class="st9" d="M709.8,53.9v-5.4c0-1.9,0-3.5,0.1-4.7h-0.1c-0.3,0.6-0.7,1.4-1.3,2.3l-5.3,7.7h6.6V53.9z
		 M716,56.8h-2.9v4.7h-3.4v-4.7H700v-2.7l9.8-14.2h3.4v13.9h2.9v3C716.1,56.8,716,56.8,716,56.8z"/>
	<path id="Fill-17" class="st9" d="M277.5,61.7H263v-2.6l5.5-5.6c1.6-1.7,2.7-2.9,3.2-3.6c0.5-0.7,0.9-1.4,1.2-2
		c0.2-0.6,0.4-1.3,0.4-2c0-1-0.3-1.7-0.9-2.3s-1.4-0.8-2.4-0.8c-0.8,0-1.6,0.2-2.4,0.5s-1.7,0.8-2.7,1.6l-1.9-2.3
		c1.2-1,2.3-1.7,3.5-2.1c1.1-0.4,2.3-0.6,3.6-0.6c2,0,3.6,0.5,4.8,1.6c1.2,1,1.8,2.4,1.8,4.2c0,1-0.2,1.9-0.5,2.8
		c-0.3,0.9-0.9,1.8-1.6,2.7s-1.9,2.2-3.6,3.7l-3.7,3.6v0.1h10.2V61.7z"/>
	<path id="Fill-24" class="st9" d="M495.8,45.2c0,1.4-0.4,2.5-1.2,3.4c-0.8,0.9-1.9,1.5-3.3,1.8v0.1c1.7,0.2,3,0.8,3.9,1.6
		c0.9,0.9,1.3,2,1.3,3.4c0,2.1-0.7,3.7-2.2,4.8s-3.5,1.7-6.2,1.7c-2.4,0-4.4-0.4-6-1.2v-3.1c0.9,0.5,1.9,0.8,2.9,1s2,0.4,2.9,0.4
		c1.7,0,2.9-0.3,3.7-0.9c0.8-0.6,1.2-1.6,1.2-2.9c0-1.1-0.5-2-1.4-2.5s-2.3-0.8-4.3-0.8h-1.9v-2.8h1.9c3.4,0,5.1-1.2,5.1-3.5
		c0-0.9-0.3-1.6-0.9-2.1s-1.5-0.7-2.6-0.7c-0.8,0-1.6,0.1-2.3,0.3c-0.8,0.2-1.6,0.7-2.7,1.3l-1.7-2.4c2-1.4,4.2-2.2,6.8-2.2
		c2.2,0,3.8,0.5,5.1,1.4C495.2,42.3,495.8,43.6,495.8,45.2"/>
	<path id="Fill-10" class="st9" d="M55.2,61.4h-3.4V47.6c0-1.7,0-3,0.1-3.9c-0.2,0.2-0.5,0.5-0.8,0.8s-1.4,1.2-3.3,2.7L46,45l6.3-5
		h2.9V61.4z"/>
	<path id="Fill-38" class="st9" d="M926.9,48c2.2,0,3.9,0.6,5.1,1.7c1.3,1.1,1.9,2.7,1.9,4.7c0,2.3-0.7,4.1-2.1,5.4
		c-1.4,1.3-3.5,1.9-6.1,1.9c-2.4,0-4.3-0.4-5.6-1.2v-3.1c0.8,0.4,1.7,0.8,2.7,1s2,0.4,2.9,0.4c1.6,0,2.7-0.3,3.5-1s1.2-1.7,1.2-3
		c0-2.6-1.6-3.8-4.9-3.8c-0.5,0-1,0-1.7,0.1s-1.3,0.2-1.8,0.3l-1.5-0.9l0.8-10.5h11.1v3.1h-8.1l-0.5,5.3c0.3-0.1,0.8-0.1,1.3-0.2
		C925.6,48.1,926.2,48,926.9,48"/>
</g>
<g class="st10">
	<path class="st11" d="M29.9,157v-5.5c0-0.9-0.2-1.5-0.5-1.9s-0.9-0.6-1.7-0.6c-1,0-1.8,0.3-2.2,0.8c-0.5,0.5-0.7,1.3-0.7,2.5v4.7
		H24v-8.5h0.7l0.1,1.2l0,0c0.6-0.9,1.5-1.3,2.9-1.3c1.9,0,2.9,1,2.9,3.1v5.6h-0.7V157z"/>
	<path class="st11" d="M36.8,157.2c-1.2,0-2.2-0.4-2.9-1.1c-0.7-0.8-1-1.8-1-3.2s0.3-2.4,1-3.3c0.7-0.8,1.6-1.2,2.7-1.2
		c1,0,1.8,0.3,2.4,1s0.9,1.6,0.9,2.8v0.6h-6.1c0,1.2,0.3,2.1,0.8,2.7c0.5,0.6,1.3,0.9,2.3,0.9c0.5,0,0.9,0,1.3-0.1s0.8-0.2,1.4-0.4
		v0.7c-0.5,0.2-0.9,0.4-1.3,0.4S37.3,157.2,36.8,157.2z M36.6,149c-0.8,0-1.5,0.3-2,0.8s-0.8,1.3-0.9,2.3H39c0-1-0.2-1.8-0.6-2.3
		C37.9,149.3,37.3,149,36.6,149z"/>
	<path class="st11" d="M44.4,156.5c0.5,0,0.9,0,1.3-0.1v0.6c-0.4,0.1-0.8,0.2-1.3,0.2c-0.8,0-1.3-0.2-1.7-0.6
		c-0.4-0.4-0.5-1-0.5-1.9v-5.5h-1.3v-0.5l1.3-0.4l0.4-1.9H43v2.1h2.5v0.7H43v5.4c0,0.7,0.1,1.1,0.3,1.4
		C43.6,156.3,43.9,156.5,44.4,156.5z"/>
	<path class="st11" d="M54.3,157l-1.9-5.7c-0.1-0.4-0.3-1-0.5-1.7l0,0l-0.2,0.6l-0.4,1.1l-1.9,5.7h-0.8l-2.4-8.5H47l1.4,4.9
		c0.3,1.2,0.5,2.1,0.6,2.7l0,0c0.3-1.2,0.5-2,0.7-2.4l1.8-5.2h0.7l1.7,5.2c0.4,1.2,0.6,2,0.7,2.4l0,0c0-0.3,0.2-1.2,0.6-2.7l1.3-4.9
		h0.8L55,157L54.3,157L54.3,157z"/>
	<path class="st11" d="M66.1,152.8c0,1.4-0.3,2.5-1,3.2c-0.7,0.7-1.6,1.2-2.8,1.2c-0.7,0-1.4-0.2-2-0.5c-0.6-0.4-1-0.9-1.3-1.5
		c-0.3-0.7-0.5-1.4-0.5-2.3c0-1.4,0.3-2.5,1-3.2s1.6-1.2,2.8-1.2s2.1,0.4,2.7,1.2C65.6,150.5,66.1,151.4,66.1,152.8z M59.4,152.8
		c0,1.2,0.3,2.1,0.8,2.7c0.5,0.7,1.2,1,2.2,1s1.7-0.3,2.2-1s0.8-1.6,0.8-2.7c0-1.2-0.3-2.1-0.8-2.7c-0.5-0.6-1.2-1-2.2-1
		s-1.7,0.3-2.2,1S59.4,151.6,59.4,152.8z"/>
	<path class="st11" d="M71.8,148.4c0.4,0,0.7,0,1.2,0.1l-0.1,0.7c-0.4-0.1-0.7-0.1-1.1-0.1c-0.7,0-1.3,0.3-1.8,0.9
		c-0.5,0.6-0.7,1.4-0.7,2.3v4.7h-0.8v-8.5h0.7l0.1,1.5h0.1c0.3-0.6,0.7-1.1,1.1-1.3C70.8,148.5,71.2,148.4,71.8,148.4z"/>
	<path class="st11" d="M75.5,153.3l4.3-4.8h0.9l-3.3,3.6L81,157h-0.9l-3.2-4.3l-1.4,1.3v3h-0.8v-12.2h0.8v6.1V153.3L75.5,153.3z"/>
</g>
<g class="st10">
	<path class="st11" d="M36,175.5c0.5,0,0.9,0,1.3-0.1v0.6c-0.4,0.1-0.8,0.2-1.3,0.2c-0.8,0-1.3-0.2-1.7-0.6c-0.4-0.4-0.5-1-0.5-1.9
		v-5.5h-1.3v-0.5l1.3-0.4l0.4-1.9h0.4v2.1h2.5v0.7h-2.5v5.4c0,0.7,0.1,1.1,0.3,1.4C35.1,175.3,35.5,175.5,36,175.5z"/>
	<path class="st11" d="M42.4,167.4c0.4,0,0.7,0,1.2,0.1l-0.1,0.7c-0.4-0.1-0.7-0.1-1.1-0.1c-0.7,0-1.3,0.3-1.8,0.9
		c-0.5,0.6-0.7,1.4-0.7,2.3v4.7h-0.8v-8.5h0.7l0.1,1.5h0c0.3-0.6,0.7-1.1,1.1-1.3C41.4,167.5,41.9,167.4,42.4,167.4z"/>
	<path class="st11" d="M50.5,176l-0.2-1.3h-0.1c-0.4,0.5-0.9,0.9-1.3,1.2c-0.5,0.2-1,0.3-1.6,0.3c-0.8,0-1.5-0.2-1.9-0.6
		c-0.5-0.4-0.7-1-0.7-1.8s0.3-1.5,1-1.9c0.7-0.5,1.7-0.7,3-0.7h1.6v-0.6c0-0.8-0.2-1.4-0.5-1.8s-0.9-0.6-1.6-0.6
		c-0.8,0-1.6,0.2-2.4,0.7l-0.3-0.7c0.9-0.4,1.9-0.7,2.8-0.7c0.9,0,1.6,0.2,2.1,0.7s0.7,1.2,0.7,2.3v5.6L50.5,176L50.5,176z
		 M47.3,175.5c0.9,0,1.6-0.3,2.1-0.8s0.8-1.2,0.8-2.2v-0.8l-1.5,0.1c-1.2,0.1-2,0.2-2.6,0.6s-0.8,0.8-0.8,1.5c0,0.5,0.2,0.9,0.5,1.2
		C46.3,175.3,46.8,175.5,47.3,175.5z"/>
	<path class="st11" d="M56.9,168.2h-2v7.8h-0.8v-7.8h-1.6v-0.5l1.6-0.3v-0.7c0-1,0.2-1.8,0.6-2.3s1-0.7,1.9-0.7
		c0.5,0,0.9,0.1,1.4,0.2l-0.2,0.7c-0.4-0.1-0.8-0.2-1.2-0.2c-0.6,0-1,0.2-1.3,0.5c-0.3,0.4-0.4,0.9-0.4,1.7v0.8h2V168.2z
		 M61.7,168.2h-2v7.8h-0.8v-7.8h-1.6v-0.5l1.6-0.3v-0.7c0-1,0.2-1.8,0.6-2.3s1-0.7,1.9-0.7c0.5,0,0.9,0.1,1.4,0.2l-0.2,0.7
		c-0.4-0.1-0.8-0.2-1.2-0.2c-0.6,0-1,0.2-1.3,0.5c-0.3,0.4-0.4,0.9-0.4,1.7v0.8h2V168.2z M63.3,165.2c0-0.5,0.2-0.8,0.5-0.8
		c0.2,0,0.3,0.1,0.4,0.2c0.1,0.1,0.1,0.3,0.1,0.6c0,0.2,0,0.4-0.1,0.6c-0.1,0.1-0.2,0.2-0.4,0.2C63.4,165.9,63.3,165.7,63.3,165.2z
		 M64.2,176h-0.8v-8.5h0.8V176z"/>
	<path class="st11" d="M70.4,176.2c-1.2,0-2.2-0.4-2.9-1.1s-1-1.8-1-3.2s0.4-2.5,1.1-3.3s1.7-1.2,2.9-1.2c0.7,0,1.4,0.1,2.1,0.4
		l-0.2,0.7c-0.7-0.2-1.4-0.4-1.9-0.4c-1,0-1.8,0.3-2.4,1c-0.5,0.6-0.8,1.6-0.8,2.8c0,1.1,0.3,2,0.8,2.7c0.5,0.6,1.3,1,2.2,1
		c0.8,0,1.5-0.1,2.1-0.4v0.7C72,176,71.3,176.2,70.4,176.2z"/>
</g>
<g class="st10">
	<path class="st11" d="M245.6,136.9L245.6,136.9c-0.7,0.9-1.6,1.3-2.8,1.3c-1.1,0-2-0.4-2.6-1.1c-0.6-0.8-0.9-1.9-0.9-3.3
		s0.3-2.5,0.9-3.3s1.5-1.2,2.6-1.2c1.2,0,2.1,0.4,2.7,1.3h0.1l-0.1-0.6v-0.6v-3.5h1.3V138h-1.1L245.6,136.9z M243.1,137.1
		c0.9,0,1.5-0.2,1.9-0.7s0.6-1.3,0.6-2.3v-0.3c0-1.2-0.2-2.1-0.6-2.6c-0.4-0.5-1-0.8-1.9-0.8c-0.8,0-1.3,0.3-1.7,0.9
		c-0.4,0.6-0.6,1.4-0.6,2.5s0.2,1.9,0.6,2.5C241.7,136.8,242.3,137.1,243.1,137.1z"/>
	<path class="st11" d="M253.2,138.2c-1.3,0-2.3-0.4-3-1.2s-1.1-1.8-1.1-3.2s0.3-2.5,1-3.3s1.6-1.2,2.7-1.2c1.1,0,1.9,0.4,2.5,1.1
		c0.6,0.7,0.9,1.6,0.9,2.8v0.8h-5.9c0,1,0.3,1.8,0.8,2.3s1.2,0.8,2,0.8c0.9,0,1.8-0.2,2.7-0.6v1.2c-0.5,0.2-0.9,0.3-1.3,0.4
		C254.3,138.1,253.8,138.2,253.2,138.2z M252.9,130.4c-0.7,0-1.2,0.2-1.6,0.7c-0.4,0.4-0.6,1.1-0.7,1.9h4.5c0-0.8-0.2-1.4-0.5-1.9
		C254.1,130.6,253.6,130.4,252.9,130.4z"/>
	<path class="st11" d="M262,138.2c-1.2,0-2.2-0.4-2.9-1.1s-1-1.8-1-3.2s0.3-2.5,1-3.3s1.7-1.2,2.9-1.2c0.4,0,0.8,0,1.2,0.1
		c0.4,0.1,0.7,0.2,1,0.3l-0.4,1.1c-0.3-0.1-0.6-0.2-0.9-0.3s-0.6-0.1-0.9-0.1c-1.7,0-2.6,1.1-2.6,3.3c0,1.1,0.2,1.9,0.6,2.4
		c0.4,0.6,1.1,0.8,1.9,0.8c0.7,0,1.4-0.2,2.2-0.5v1.1C263.6,138,262.9,138.2,262,138.2z"/>
	<path class="st11" d="M273.6,133.7c0,1.4-0.4,2.5-1.1,3.3s-1.7,1.2-2.9,1.2c-0.8,0-1.4-0.2-2-0.5s-1.1-0.9-1.4-1.5
		c-0.3-0.7-0.5-1.5-0.5-2.4c0-1.4,0.3-2.5,1-3.3s1.7-1.2,2.9-1.2c1.2,0,2.1,0.4,2.9,1.2C273.3,131.3,273.6,132.4,273.6,133.7z
		 M267.1,133.7c0,1.1,0.2,1.9,0.7,2.5s1.1,0.9,1.9,0.9s1.5-0.3,1.9-0.9c0.4-0.6,0.7-1.4,0.7-2.5s-0.2-1.9-0.7-2.5
		c-0.4-0.6-1.1-0.8-1.9-0.8s-1.5,0.3-1.9,0.8C267.3,131.8,267.1,132.6,267.1,133.7z"/>
	<path class="st11" d="M281.7,136.9L281.7,136.9c-0.7,0.9-1.6,1.3-2.8,1.3c-1.1,0-2-0.4-2.6-1.1c-0.6-0.8-0.9-1.9-0.9-3.3
		s0.3-2.5,0.9-3.3s1.5-1.2,2.6-1.2c1.2,0,2.1,0.4,2.7,1.3h0.1l-0.1-0.6v-0.6v-3.5h1.3V138h-1.1L281.7,136.9z M279.1,137.1
		c0.9,0,1.5-0.2,1.9-0.7s0.6-1.3,0.6-2.3v-0.3c0-1.2-0.2-2.1-0.6-2.6s-1-0.8-1.9-0.8c-0.8,0-1.3,0.3-1.7,0.9
		c-0.4,0.6-0.6,1.4-0.6,2.5s0.2,1.9,0.6,2.5C277.7,136.8,278.3,137.1,279.1,137.1z"/>
	<path class="st11" d="M289.3,138.2c-1.3,0-2.3-0.4-3-1.2s-1.1-1.8-1.1-3.2s0.3-2.5,1-3.3s1.6-1.2,2.7-1.2s1.9,0.4,2.5,1.1
		s0.9,1.6,0.9,2.8v0.8h-5.7c0,1,0.3,1.8,0.8,2.3s1.2,0.8,2,0.8c0.9,0,1.8-0.2,2.7-0.6v1.2c-0.5,0.2-0.9,0.3-1.3,0.4
		C290.4,138.1,289.9,138.2,289.3,138.2z M288.9,130.4c-0.7,0-1.2,0.2-1.6,0.7c-0.4,0.4-0.6,1.1-0.7,1.9h4.5c0-0.8-0.2-1.4-0.5-1.9
		C290.1,130.6,289.6,130.4,288.9,130.4z"/>
	<path class="st11" d="M300.2,135.7c0,0.8-0.3,1.4-0.9,1.8s-1.4,0.6-2.5,0.6s-2-0.2-2.7-0.5v-1.2c0.4,0.2,0.9,0.4,1.3,0.5
		s0.9,0.2,1.4,0.2c0.7,0,1.2-0.1,1.6-0.3s0.5-0.5,0.5-1c0-0.3-0.1-0.6-0.4-0.9s-0.9-0.5-1.7-0.8c-0.8-0.3-1.4-0.6-1.7-0.8
		s-0.6-0.5-0.8-0.8s-0.2-0.6-0.2-1c0-0.7,0.3-1.2,0.9-1.7s1.3-0.6,2.3-0.6c0.9,0,1.8,0.2,2.7,0.6l-0.5,1.1c-0.9-0.4-1.6-0.5-2.3-0.5
		c-0.6,0-1.1,0.1-1.4,0.3s-0.5,0.5-0.5,0.8c0,0.2,0.1,0.4,0.2,0.6s0.3,0.3,0.6,0.5s0.8,0.4,1.5,0.6c1,0.4,1.7,0.7,2.1,1.1
		S300.2,135.1,300.2,135.7z"/>
</g>
<g class="st10">
	<path class="st11" d="M247.1,157v-5.5c0-0.9-0.2-1.5-0.5-1.9s-0.9-0.6-1.7-0.6c-1,0-1.8,0.3-2.2,0.8c-0.5,0.5-0.7,1.3-0.7,2.5v4.7
		h-0.8v-8.5h0.7l0.1,1.2l0,0c0.6-0.9,1.5-1.3,2.9-1.3c1.9,0,2.9,1,2.9,3.1v5.6h-0.7V157z"/>
	<path class="st11" d="M254,157.2c-1.2,0-2.2-0.4-2.9-1.1c-0.7-0.8-1-1.8-1-3.2s0.3-2.4,1-3.3c0.7-0.8,1.6-1.2,2.7-1.2
		c1,0,1.8,0.3,2.4,1c0.6,0.7,0.9,1.6,0.9,2.8v0.6H251c0,1.2,0.3,2.1,0.8,2.7c0.5,0.6,1.3,0.9,2.3,0.9c0.5,0,0.9,0,1.3-0.1
		s0.8-0.2,1.4-0.4v0.7c-0.5,0.2-0.9,0.4-1.3,0.4S254.5,157.2,254,157.2z M253.8,149c-0.8,0-1.5,0.3-2,0.8s-0.8,1.3-0.9,2.3h5.2
		c0-1-0.2-1.8-0.6-2.3C255.2,149.3,254.6,149,253.8,149z"/>
	<path class="st11" d="M261.6,156.5c0.5,0,0.9,0,1.3-0.1v0.6c-0.4,0.1-0.8,0.2-1.3,0.2c-0.8,0-1.3-0.2-1.7-0.6
		c-0.4-0.4-0.5-1-0.5-1.9v-5.5h-1.3v-0.5l1.3-0.4l0.4-1.9h0.4v2.1h2.5v0.7h-2.5v5.4c0,0.7,0.1,1.1,0.3,1.4
		C260.8,156.3,261.1,156.5,261.6,156.5z"/>
	<path class="st11" d="M271.5,157l-1.9-5.7c-0.1-0.4-0.3-1-0.5-1.7l0,0l-0.2,0.6l-0.4,1.1l-1.9,5.7H266l-2.4-8.5h0.8l1.4,4.9
		c0.3,1.2,0.5,2.1,0.6,2.7l0,0c0.3-1.2,0.5-2,0.7-2.4l1.8-5.2h0.7l1.7,5.2c0.4,1.2,0.6,2,0.7,2.4l0,0c0-0.3,0.2-1.2,0.6-2.7l1.3-4.9
		h0.8l-2.3,8.5L271.5,157L271.5,157z"/>
	<path class="st11" d="M283.3,152.8c0,1.4-0.3,2.5-1,3.2s-1.6,1.2-2.8,1.2c-0.7,0-1.4-0.2-2-0.5c-0.6-0.4-1-0.9-1.3-1.5
		c-0.3-0.7-0.5-1.4-0.5-2.3c0-1.4,0.3-2.5,1-3.2s1.6-1.2,2.8-1.2c1.2,0,2.1,0.4,2.7,1.2S283.3,151.4,283.3,152.8z M276.6,152.8
		c0,1.2,0.3,2.1,0.8,2.7c0.5,0.7,1.2,1,2.2,1s1.7-0.3,2.2-1s0.8-1.6,0.8-2.7c0-1.2-0.3-2.1-0.8-2.7c-0.5-0.6-1.2-1-2.2-1
		s-1.7,0.3-2.2,1S276.6,151.6,276.6,152.8z"/>
	<path class="st11" d="M289,148.4c0.4,0,0.7,0,1.2,0.1l-0.1,0.7c-0.4-0.1-0.7-0.1-1.1-0.1c-0.7,0-1.3,0.3-1.8,0.9
		c-0.5,0.6-0.7,1.4-0.7,2.3v4.7h-0.8v-8.5h0.7l0.1,1.5h0.1c0.3-0.6,0.7-1.1,1.1-1.3C288,148.5,288.5,148.4,289,148.4z"/>
	<path class="st11" d="M292.7,153.3l4.3-4.8h0.9l-3.3,3.6l3.6,4.9h-0.9l-3.2-4.3l-1.4,1.3v3h-0.8v-12.2h0.8v6.1V153.3L292.7,153.3z"
		/>
</g>
<g class="st10">
	<path class="st11" d="M240.6,176.2c-1.3,0-2.3-0.5-2.9-1.5h-0.1v0.7c0,0.4,0,0.8,0,1.3v3.2h-0.8v-12.3h0.7l0.1,1.2l0,0
		c0.6-0.9,1.5-1.4,2.8-1.4c1.1,0,2,0.4,2.6,1.1s0.9,1.8,0.9,3.3c0,1.4-0.3,2.5-0.9,3.2S241.7,176.2,240.6,176.2z M240.6,175.5
		c0.9,0,1.5-0.3,2-1s0.7-1.5,0.7-2.7c0-2.5-0.9-3.7-2.7-3.7c-1,0-1.7,0.3-2.2,0.8s-0.7,1.4-0.7,2.7v0.2c0,1.3,0.2,2.3,0.7,2.8
		S239.6,175.5,240.6,175.5z"/>
	<path class="st11" d="M249.8,167.4c0.4,0,0.7,0,1.2,0.1l-0.1,0.7c-0.4-0.1-0.7-0.1-1.1-0.1c-0.7,0-1.3,0.3-1.8,0.9
		c-0.5,0.6-0.7,1.4-0.7,2.3v4.7h-0.8v-8.5h0.7l0.1,1.5h0.1c0.3-0.6,0.7-1.1,1.1-1.3C248.8,167.5,249.3,167.4,249.8,167.4z"/>
	<path class="st11" d="M259.7,171.8c0,1.4-0.3,2.5-1,3.2s-1.6,1.2-2.8,1.2c-0.7,0-1.4-0.2-2-0.5c-0.6-0.4-1-0.9-1.3-1.5
		c-0.3-0.7-0.5-1.4-0.5-2.3c0-1.4,0.3-2.5,1-3.2s1.6-1.2,2.8-1.2s2.1,0.4,2.7,1.2S259.7,170.4,259.7,171.8z M253,171.8
		c0,1.2,0.3,2.1,0.8,2.7c0.5,0.7,1.2,1,2.2,1c1,0,1.7-0.3,2.2-1s0.8-1.6,0.8-2.7c0-1.2-0.3-2.1-0.8-2.7c-0.5-0.6-1.2-1-2.2-1
		c-1,0-1.7,0.3-2.2,1S253,170.6,253,171.8z"/>
	<path class="st11" d="M264.3,175.5c0.5,0,0.9,0,1.3-0.1v0.6c-0.4,0.1-0.8,0.2-1.3,0.2c-0.8,0-1.3-0.2-1.7-0.6
		c-0.4-0.4-0.5-1-0.5-1.9v-5.5h-1.3v-0.5l1.3-0.4l0.4-1.9h0.4v2.1h2.5v0.7h-2.5v5.4c0,0.7,0.1,1.1,0.3,1.4
		C263.5,175.3,263.8,175.5,264.3,175.5z"/>
	<path class="st11" d="M274.5,171.8c0,1.4-0.3,2.5-1,3.2s-1.6,1.2-2.8,1.2c-0.7,0-1.4-0.2-2-0.5c-0.6-0.4-1-0.9-1.3-1.5
		c-0.3-0.7-0.5-1.4-0.5-2.3c0-1.4,0.3-2.5,1-3.2s1.6-1.2,2.8-1.2c1.2,0,2.1,0.4,2.7,1.2S274.5,170.4,274.5,171.8z M267.8,171.8
		c0,1.2,0.3,2.1,0.8,2.7c0.5,0.7,1.2,1,2.2,1s1.7-0.3,2.2-1s0.8-1.6,0.8-2.7c0-1.2-0.3-2.1-0.8-2.7c-0.5-0.6-1.2-1-2.2-1
		s-1.7,0.3-2.2,1S267.8,170.6,267.8,171.8z"/>
	<path class="st11" d="M280.2,176.2c-1.2,0-2.2-0.4-2.9-1.1s-1-1.8-1-3.2s0.4-2.5,1.1-3.3s1.7-1.2,2.9-1.2c0.7,0,1.4,0.1,2.1,0.4
		l-0.2,0.7c-0.7-0.2-1.4-0.4-1.9-0.4c-1,0-1.8,0.3-2.4,1c-0.5,0.6-0.8,1.6-0.8,2.8c0,1.1,0.3,2,0.8,2.7c0.5,0.6,1.3,1,2.2,1
		c0.8,0,1.5-0.1,2.1-0.4v0.7C281.8,176,281.1,176.2,280.2,176.2z"/>
	<path class="st11" d="M291.4,171.8c0,1.4-0.3,2.5-1,3.2s-1.6,1.2-2.8,1.2c-0.7,0-1.4-0.2-2-0.5c-0.6-0.4-1-0.9-1.3-1.5
		c-0.3-0.7-0.5-1.4-0.5-2.3c0-1.4,0.3-2.5,1-3.2s1.6-1.2,2.8-1.2c1.2,0,2.1,0.4,2.7,1.2S291.4,170.4,291.4,171.8z M284.7,171.8
		c0,1.2,0.3,2.1,0.8,2.7c0.5,0.7,1.2,1,2.2,1s1.7-0.3,2.2-1s0.8-1.6,0.8-2.7c0-1.2-0.3-2.1-0.8-2.7s-1.2-1-2.2-1s-1.7,0.3-2.2,1
		S284.7,170.6,284.7,171.8z"/>
	<path class="st11" d="M294.6,176h-0.8v-12.2h0.8V176z"/>
	<path class="st11" d="M302.7,173.8c0,0.8-0.3,1.3-0.9,1.8s-1.4,0.6-2.5,0.6s-2-0.2-2.7-0.5v-0.8c0.9,0.4,1.8,0.6,2.7,0.6
		c0.8,0,1.5-0.1,1.9-0.4s0.7-0.6,0.7-1.1c0-0.4-0.2-0.8-0.5-1.1s-0.9-0.6-1.7-0.9c-0.8-0.3-1.4-0.6-1.8-0.8s-0.6-0.5-0.8-0.8
		s-0.3-0.6-0.3-1c0-0.6,0.3-1.1,0.8-1.5s1.3-0.6,2.2-0.6c0.9,0,1.8,0.2,2.6,0.5l-0.3,0.7c-0.8-0.3-1.6-0.5-2.3-0.5
		c-0.7,0-1.2,0.1-1.6,0.3s-0.6,0.5-0.6,1c0,0.4,0.2,0.8,0.5,1.1s0.9,0.6,1.8,0.9c0.8,0.3,1.3,0.5,1.7,0.7s0.6,0.5,0.8,0.8
		S302.7,173.4,302.7,173.8z"/>
</g>
<g class="st10">
	<path class="st11" d="M459.9,138.2c-1.2,0-2.2-0.4-2.9-1.1s-1-1.8-1-3.2s0.3-2.5,1-3.3s1.7-1.2,2.9-1.2c0.4,0,0.8,0,1.2,0.1
		c0.4,0.1,0.7,0.2,1,0.3l-0.4,1.1c-0.3-0.1-0.6-0.2-0.9-0.3s-0.6-0.1-0.9-0.1c-1.7,0-2.6,1.1-2.6,3.3c0,1.1,0.2,1.9,0.6,2.4
		c0.4,0.6,1.1,0.8,1.9,0.8c0.7,0,1.4-0.2,2.2-0.5v1.1C461.5,138,460.8,138.2,459.9,138.2z"/>
	<path class="st11" d="M471.5,133.7c0,1.4-0.4,2.5-1.1,3.3s-1.7,1.2-2.9,1.2c-0.8,0-1.4-0.2-2-0.5s-1.1-0.9-1.4-1.5
		c-0.3-0.7-0.5-1.5-0.5-2.4c0-1.4,0.3-2.5,1-3.3s1.7-1.2,2.9-1.2c1.2,0,2.1,0.4,2.9,1.2C471.2,131.3,471.5,132.4,471.5,133.7z
		 M465,133.7c0,1.1,0.2,1.9,0.7,2.5s1.1,0.9,1.9,0.9s1.5-0.3,1.9-0.9c0.4-0.6,0.7-1.4,0.7-2.5s-0.2-1.9-0.7-2.5
		c-0.4-0.6-1.1-0.8-1.9-0.8s-1.5,0.3-1.9,0.8C465.2,131.8,465,132.6,465,133.7z"/>
	<path class="st11" d="M477.7,129.3c0.4,0,0.7,0,1,0.1l-0.2,1.2c-0.4-0.1-0.7-0.1-0.9-0.1c-0.7,0-1.3,0.3-1.8,0.8s-0.7,1.3-0.7,2.1
		v4.6h-1.3v-8.6h1.1l0.1,1.6h0.1c0.3-0.6,0.7-1,1.1-1.3C476.7,129.4,477.2,129.3,477.7,129.3z"/>
	<path class="st11" d="M484.2,129.3c0.4,0,0.7,0,1,0.1l-0.2,1.2c-0.4-0.1-0.7-0.1-0.9-0.1c-0.7,0-1.3,0.3-1.8,0.8s-0.7,1.3-0.7,2.1
		v4.6h-1.3v-8.6h1.1l0.1,1.6h0.1c0.3-0.6,0.7-1,1.1-1.3C483.2,129.4,483.7,129.3,484.2,129.3z"/>
	<path class="st11" d="M490.5,138.2c-1.3,0-2.3-0.4-3-1.2s-1.1-1.8-1.1-3.2s0.3-2.5,1-3.3s1.6-1.2,2.7-1.2s1.9,0.4,2.5,1.1
		s0.9,1.6,0.9,2.8v0.8h-5.9c0,1,0.3,1.8,0.8,2.3s1.2,0.8,2,0.8c0.9,0,1.8-0.2,2.7-0.6v1.2c-0.5,0.2-0.9,0.3-1.3,0.4
		C491.5,138.1,491,138.2,490.5,138.2z M490.1,130.4c-0.7,0-1.2,0.2-1.6,0.7c-0.4,0.4-0.6,1.1-0.7,1.9h4.5c0-0.8-0.2-1.4-0.5-1.9
		C491.3,130.6,490.8,130.4,490.1,130.4z"/>
	<path class="st11" d="M497.1,138h-1.3v-12.2h1.3V138z"/>
	<path class="st11" d="M505.1,138l-0.3-1.2h-0.1c-0.4,0.5-0.9,0.9-1.3,1.1c-0.4,0.2-1,0.3-1.6,0.3c-0.8,0-1.5-0.2-2-0.7
		c-0.5-0.4-0.7-1.1-0.7-1.9c0-1.7,1.4-2.6,4.1-2.7h1.5v-0.5c0-0.7-0.1-1.2-0.4-1.5s-0.8-0.5-1.4-0.5c-0.7,0-1.5,0.2-2.4,0.7l-0.4-1
		c0.4-0.2,0.9-0.4,1.4-0.5s1-0.2,1.5-0.2c1,0,1.8,0.2,2.3,0.7s0.7,1.2,0.7,2.2v5.8h-0.9V138z M502.2,137.1c0.8,0,1.4-0.2,1.9-0.7
		s0.7-1.1,0.7-1.9v-0.8l-1.3,0.1c-1,0-1.8,0.2-2.2,0.5c-0.5,0.3-0.7,0.7-0.7,1.3c0,0.5,0.1,0.8,0.4,1.1
		C501.3,137,501.7,137.1,502.2,137.1z"/>
	<path class="st11" d="M511.5,137.1c0.2,0,0.5,0,0.7-0.1s0.4-0.1,0.5-0.1v1c-0.1,0.1-0.3,0.1-0.6,0.2s-0.5,0.1-0.7,0.1
		c-1.7,0-2.5-0.9-2.5-2.6v-5.1h-1.2v-0.6l1.2-0.5l0.5-1.8h0.8v2h2.5v1h-2.5v5c0,0.5,0.1,0.9,0.4,1.2S511.1,137.1,511.5,137.1z"/>
	<path class="st11" d="M518,138.2c-1.3,0-2.3-0.4-3-1.2s-1.1-1.8-1.1-3.2s0.3-2.5,1-3.3s1.6-1.2,2.7-1.2c1.1,0,1.9,0.4,2.5,1.1
		s0.9,1.6,0.9,2.8v0.8h-5.9c0,1,0.3,1.8,0.8,2.3s1.2,0.8,2,0.8c0.9,0,1.8-0.2,2.7-0.6v1.2c-0.5,0.2-0.9,0.3-1.3,0.4
		S518.6,138.2,518,138.2z M517.7,130.4c-0.7,0-1.2,0.2-1.6,0.7s-0.6,1.1-0.7,1.9h4.5c0-0.8-0.2-1.4-0.5-1.9S518.4,130.4,517.7,130.4
		z"/>
	<path class="st11" d="M528.9,135.7c0,0.8-0.3,1.4-0.9,1.8s-1.4,0.6-2.5,0.6s-2-0.2-2.7-0.5v-1.2c0.4,0.2,0.9,0.4,1.3,0.5
		s0.9,0.2,1.4,0.2c0.7,0,1.2-0.1,1.6-0.3s0.5-0.5,0.5-1c0-0.3-0.1-0.6-0.4-0.9s-0.9-0.5-1.7-0.8s-1.4-0.6-1.7-0.8s-0.6-0.5-0.8-0.8
		s-0.2-0.6-0.2-1c0-0.7,0.3-1.2,0.9-1.7s1.3-0.6,2.3-0.6c0.9,0,1.8,0.2,2.7,0.6l-0.5,1.1c-0.9-0.4-1.6-0.5-2.3-0.5
		c-0.6,0-1.1,0.1-1.4,0.3s-0.5,0.5-0.5,0.8c0,0.2,0.1,0.4,0.2,0.6s0.3,0.3,0.6,0.5s0.8,0.4,1.5,0.6c1,0.4,1.7,0.7,2.1,1.1
		S528.9,135.1,528.9,135.7z"/>
</g>
<g class="st10">
	<path class="st11" d="M446.5,148.4c0.4,0,0.7,0,1.2,0.1l-0.1,0.7c-0.4-0.1-0.7-0.1-1.1-0.1c-0.7,0-1.3,0.3-1.8,0.9
		c-0.5,0.6-0.7,1.4-0.7,2.3v4.7h-0.8v-8.5h0.7l0.1,1.5h0.1c0.3-0.6,0.7-1.1,1.1-1.3C445.5,148.5,445.9,148.4,446.5,148.4z"/>
	<path class="st11" d="M452.8,157.2c-1.2,0-2.2-0.4-2.9-1.1c-0.7-0.8-1-1.8-1-3.2s0.3-2.4,1-3.3c0.7-0.8,1.6-1.2,2.7-1.2
		c1,0,1.8,0.3,2.4,1s0.9,1.6,0.9,2.8v0.6h-6.1c0,1.2,0.3,2.1,0.8,2.7c0.5,0.6,1.3,0.9,2.3,0.9c0.5,0,0.9,0,1.3-0.1s0.8-0.2,1.4-0.4
		v0.7c-0.5,0.2-0.9,0.4-1.3,0.4S453.3,157.2,452.8,157.2z M452.6,149c-0.8,0-1.5,0.3-2,0.8s-0.8,1.3-0.9,2.3h5.2
		c0-1-0.2-1.8-0.6-2.3C453.9,149.3,453.3,149,452.6,149z"/>
	<path class="st11" d="M461.2,157.2c-1.1,0-2-0.4-2.6-1.1c-0.6-0.7-0.9-1.8-0.9-3.2s0.3-2.5,0.9-3.3s1.5-1.2,2.6-1.2
		c1.2,0,2.1,0.5,2.8,1.4l0,0l0.1-1.2h0.7v12.3H464v-3.2c0-0.6,0-1.3,0-1.9l0,0C463.5,156.7,462.5,157.2,461.2,157.2z M461.2,156.5
		c1,0,1.8-0.3,2.2-0.9c0.4-0.6,0.7-1.5,0.7-2.9v-0.1c0-1.3-0.2-2.2-0.7-2.8c-0.4-0.6-1.1-0.9-2.1-0.9c-0.9,0-1.6,0.3-2.1,1
		s-0.7,1.6-0.7,2.8s0.2,2.1,0.7,2.7C459.7,156.2,460.3,156.5,461.2,156.5z"/>
	<path class="st11" d="M468.4,148.5v5.5c0,0.9,0.2,1.5,0.5,1.9s0.9,0.6,1.7,0.6c1,0,1.8-0.3,2.2-0.8s0.7-1.3,0.7-2.5v-4.7h0.8v8.5
		h-0.7l-0.1-1.2l0,0c-0.6,0.9-1.5,1.3-2.9,1.3c-1.9,0-2.9-1-2.9-3.1v-5.5H468.4z"/>
	<path class="st11" d="M480.6,157.2c-1.2,0-2.2-0.4-2.9-1.1c-0.7-0.8-1-1.8-1-3.2s0.3-2.4,1-3.3c0.7-0.8,1.6-1.2,2.7-1.2
		c1,0,1.8,0.3,2.4,1s0.9,1.6,0.9,2.8v0.6h-6.1c0,1.2,0.3,2.1,0.8,2.7c0.5,0.6,1.3,0.9,2.3,0.9c0.5,0,0.9,0,1.3-0.1s0.8-0.2,1.4-0.4
		v0.7c-0.5,0.2-0.9,0.4-1.3,0.4S481.1,157.2,480.6,157.2z M480.3,149c-0.8,0-1.5,0.3-2,0.8s-0.8,1.3-0.9,2.3h5.2
		c0-1-0.2-1.8-0.6-2.3C481.7,149.3,481.1,149,480.3,149z"/>
	<path class="st11" d="M491.2,154.8c0,0.8-0.3,1.3-0.9,1.8s-1.4,0.6-2.5,0.6s-2-0.2-2.7-0.5v-0.8c0.9,0.4,1.8,0.6,2.7,0.6
		c0.8,0,1.5-0.1,1.9-0.4c0.4-0.3,0.7-0.6,0.7-1.1c0-0.4-0.2-0.8-0.5-1.1s-0.9-0.6-1.7-0.9c-0.8-0.3-1.4-0.6-1.8-0.8
		s-0.6-0.5-0.8-0.8c-0.2-0.3-0.3-0.6-0.3-1c0-0.6,0.3-1.1,0.8-1.5s1.3-0.6,2.2-0.6c0.9,0,1.8,0.2,2.6,0.5l-0.3,0.7
		c-0.8-0.3-1.6-0.5-2.3-0.5c-0.7,0-1.2,0.1-1.6,0.3s-0.6,0.5-0.6,1c0,0.4,0.2,0.8,0.5,1.1s0.9,0.6,1.8,0.9c0.8,0.3,1.3,0.5,1.7,0.7
		c0.3,0.2,0.6,0.5,0.8,0.8C491.1,154.1,491.2,154.4,491.2,154.8z"/>
	<path class="st11" d="M495.6,156.5c0.5,0,0.9,0,1.3-0.1v0.6c-0.4,0.1-0.8,0.2-1.3,0.2c-0.8,0-1.3-0.2-1.7-0.6
		c-0.4-0.4-0.5-1-0.5-1.9v-5.5h-1.3v-0.5l1.3-0.4l0.4-1.9h0.4v2.1h2.5v0.7h-2.5v5.4c0,0.7,0.1,1.1,0.3,1.4
		C494.8,156.3,495.1,156.5,495.6,156.5z"/>
	<path class="st11" d="M504,154.8c0,0.8-0.3,1.3-0.9,1.8s-1.4,0.6-2.5,0.6s-2-0.2-2.7-0.5v-0.8c0.9,0.4,1.8,0.6,2.7,0.6
		c0.8,0,1.5-0.1,1.9-0.4s0.7-0.6,0.7-1.1c0-0.4-0.2-0.8-0.5-1.1s-0.9-0.6-1.7-0.9c-0.8-0.3-1.4-0.6-1.8-0.8s-0.6-0.5-0.8-0.8
		s-0.3-0.6-0.3-1c0-0.6,0.3-1.1,0.8-1.5s1.3-0.6,2.2-0.6c0.9,0,1.8,0.2,2.6,0.5l-0.3,0.7c-0.8-0.3-1.6-0.5-2.3-0.5
		c-0.7,0-1.2,0.1-1.6,0.3s-0.6,0.5-0.6,1c0,0.4,0.2,0.8,0.5,1.1s0.9,0.6,1.8,0.9c0.8,0.3,1.3,0.5,1.7,0.7s0.6,0.5,0.8,0.8
		S504,154.4,504,154.8z"/>
	<path class="st11" d="M517.1,157l-1.9-5.7c-0.1-0.4-0.3-1-0.5-1.7l0,0l-0.2,0.6l-0.4,1.1l-1.9,5.7h-0.8l-2.4-8.5h0.8l1.4,4.9
		c0.3,1.2,0.5,2.1,0.6,2.7l0,0c0.3-1.2,0.5-2,0.7-2.4l1.8-5.2h0.7l1.7,5.2c0.4,1.2,0.6,2,0.7,2.4l0,0c0-0.3,0.2-1.2,0.6-2.7l1.3-4.9
		h0.8l-2.3,8.5L517.1,157L517.1,157z"/>
	<path class="st11" d="M521.8,146.2c0-0.5,0.2-0.8,0.5-0.8c0.2,0,0.3,0.1,0.4,0.2s0.1,0.3,0.1,0.6c0,0.2,0,0.4-0.1,0.6
		s-0.2,0.2-0.4,0.2C522,146.9,521.8,146.7,521.8,146.2z M522.7,157h-0.8v-8.5h0.8V157z"/>
	<path class="st11" d="M527.8,156.5c0.5,0,0.9,0,1.3-0.1v0.6c-0.4,0.1-0.8,0.2-1.3,0.2c-0.8,0-1.3-0.2-1.7-0.6s-0.5-1-0.5-1.9v-5.5
		h-1.3v-0.5l1.3-0.4l0.4-1.9h0.4v2.1h2.5v0.7h-2.5v5.4c0,0.7,0.1,1.1,0.3,1.4S527.3,156.5,527.8,156.5z"/>
	<path class="st11" d="M536.8,157v-5.5c0-0.9-0.2-1.5-0.5-1.9s-0.9-0.6-1.7-0.6c-1,0-1.8,0.3-2.2,0.8s-0.7,1.3-0.7,2.5v4.7h-0.8
		v-12.2h0.8v3.9v1.1h0.1c0.3-0.5,0.7-0.9,1.2-1.1s1.1-0.3,1.8-0.3c1.9,0,2.9,1,2.9,3.1v5.6h-0.9V157z"/>
</g>
<g class="st10">
	<path class="st11" d="M459.9,167.4c0.4,0,0.7,0,1.2,0.1l-0.1,0.7c-0.4-0.1-0.7-0.1-1.1-0.1c-0.7,0-1.3,0.3-1.8,0.9
		c-0.5,0.6-0.7,1.4-0.7,2.3v4.7h-0.8v-8.5h0.7l0.1,1.5h0.1c0.3-0.6,0.7-1.1,1.1-1.3C458.9,167.5,459.4,167.4,459.9,167.4z"/>
	<path class="st11" d="M466.2,176.2c-1.2,0-2.2-0.4-2.9-1.1c-0.7-0.8-1-1.8-1-3.2s0.3-2.4,1-3.3c0.7-0.8,1.6-1.2,2.7-1.2
		c1,0,1.8,0.3,2.4,1s0.9,1.6,0.9,2.8v0.6h-6.1c0,1.2,0.3,2.1,0.8,2.7c0.5,0.6,1.3,0.9,2.3,0.9c0.5,0,0.9,0,1.3-0.1s0.8-0.2,1.4-0.4
		v0.7c-0.5,0.2-0.9,0.4-1.3,0.4S466.7,176.2,466.2,176.2z M466,168c-0.8,0-1.5,0.3-2,0.8s-0.8,1.3-0.9,2.3h5.2c0-1-0.2-1.8-0.6-2.3
		C467.4,168.3,466.8,168,466,168z"/>
	<path class="st11" d="M476.9,173.8c0,0.8-0.3,1.3-0.9,1.8s-1.4,0.6-2.5,0.6s-2-0.2-2.7-0.5v-0.8c0.9,0.4,1.8,0.6,2.7,0.6
		c0.8,0,1.5-0.1,1.9-0.4c0.4-0.3,0.7-0.6,0.7-1.1c0-0.4-0.2-0.8-0.5-1.1s-0.9-0.6-1.7-0.9c-0.8-0.3-1.4-0.6-1.8-0.8
		s-0.6-0.5-0.8-0.8c-0.2-0.3-0.3-0.6-0.3-1c0-0.6,0.3-1.1,0.8-1.5s1.3-0.6,2.2-0.6c0.9,0,1.8,0.2,2.6,0.5l-0.3,0.7
		c-0.8-0.3-1.6-0.5-2.3-0.5c-0.7,0-1.2,0.1-1.6,0.3s-0.6,0.5-0.6,1c0,0.4,0.2,0.8,0.5,1.1s0.9,0.6,1.8,0.9c0.8,0.3,1.3,0.5,1.7,0.7
		c0.3,0.2,0.6,0.5,0.8,0.8C476.8,173.1,476.9,173.4,476.9,173.8z"/>
	<path class="st11" d="M482.7,176.2c-1.3,0-2.3-0.5-2.9-1.5h-0.1v0.7c0,0.4,0,0.8,0,1.3v3.2H479v-12.3h0.7l0.1,1.2l0,0
		c0.6-0.9,1.5-1.4,2.8-1.4c1.1,0,2,0.4,2.6,1.1s0.9,1.8,0.9,3.3c0,1.4-0.3,2.5-0.9,3.2S483.8,176.2,482.7,176.2z M482.7,175.5
		c0.9,0,1.5-0.3,2-1s0.7-1.5,0.7-2.7c0-2.5-0.9-3.7-2.7-3.7c-1,0-1.7,0.3-2.2,0.8s-0.7,1.4-0.7,2.7v0.2c0,1.3,0.2,2.3,0.7,2.8
		S481.6,175.5,482.7,175.5z"/>
	<path class="st11" d="M495.6,171.8c0,1.4-0.3,2.5-1,3.2s-1.6,1.2-2.8,1.2c-0.7,0-1.4-0.2-2-0.5c-0.6-0.4-1-0.9-1.3-1.5
		c-0.3-0.7-0.5-1.4-0.5-2.3c0-1.4,0.3-2.5,1-3.2s1.6-1.2,2.8-1.2c1.2,0,2.1,0.4,2.7,1.2S495.6,170.4,495.6,171.8z M488.9,171.8
		c0,1.2,0.3,2.1,0.8,2.7c0.5,0.7,1.2,1,2.2,1s1.7-0.3,2.2-1s0.8-1.6,0.8-2.7c0-1.2-0.3-2.1-0.8-2.7c-0.5-0.6-1.2-1-2.2-1
		s-1.7,0.3-2.2,1S488.9,170.6,488.9,171.8z"/>
	<path class="st11" d="M503.9,176v-5.5c0-0.9-0.2-1.5-0.5-1.9s-0.9-0.6-1.7-0.6c-1,0-1.8,0.3-2.2,0.8c-0.5,0.5-0.7,1.3-0.7,2.5v4.7
		H498v-8.5h0.7l0.1,1.2l0,0c0.6-0.9,1.5-1.3,2.9-1.3c1.9,0,2.9,1,2.9,3.1v5.6h-0.7V176z"/>
	<path class="st11" d="M512.6,173.8c0,0.8-0.3,1.3-0.9,1.8s-1.4,0.6-2.5,0.6s-2-0.2-2.7-0.5v-0.8c0.9,0.4,1.8,0.6,2.7,0.6
		c0.8,0,1.5-0.1,1.9-0.4s0.7-0.6,0.7-1.1c0-0.4-0.2-0.8-0.5-1.1s-0.9-0.6-1.7-0.9c-0.8-0.3-1.4-0.6-1.8-0.8s-0.6-0.5-0.8-0.8
		c-0.2-0.3-0.3-0.6-0.3-1c0-0.6,0.3-1.1,0.8-1.5s1.3-0.6,2.2-0.6c0.9,0,1.8,0.2,2.6,0.5l-0.3,0.7c-0.8-0.3-1.6-0.5-2.3-0.5
		c-0.7,0-1.2,0.1-1.6,0.3s-0.6,0.5-0.6,1c0,0.4,0.2,0.8,0.5,1.1s0.9,0.6,1.8,0.9c0.8,0.3,1.3,0.5,1.7,0.7s0.6,0.5,0.8,0.8
		S512.6,173.4,512.6,173.8z"/>
	<path class="st11" d="M518.3,176.2c-1.2,0-2.2-0.4-2.9-1.1s-1-1.8-1-3.2s0.3-2.4,1-3.3s1.6-1.2,2.7-1.2c1,0,1.8,0.3,2.4,1
		s0.9,1.6,0.9,2.8v0.6h-6.1c0,1.2,0.3,2.1,0.8,2.7s1.3,0.9,2.3,0.9c0.5,0,0.9,0,1.3-0.1s0.8-0.2,1.4-0.4v0.7
		c-0.5,0.2-0.9,0.4-1.3,0.4S518.7,176.2,518.3,176.2z M518,168c-0.8,0-1.5,0.3-2,0.8s-0.8,1.3-0.9,2.3h5.2c0-1-0.2-1.8-0.6-2.3
		S518.8,168,518,168z"/>
	<path class="st11" d="M528.9,173.8c0,0.8-0.3,1.3-0.9,1.8s-1.4,0.6-2.5,0.6s-2-0.2-2.7-0.5v-0.8c0.9,0.4,1.8,0.6,2.7,0.6
		c0.8,0,1.5-0.1,1.9-0.4s0.7-0.6,0.7-1.1c0-0.4-0.2-0.8-0.5-1.1s-0.9-0.6-1.7-0.9c-0.8-0.3-1.4-0.6-1.8-0.8s-0.6-0.5-0.8-0.8
		s-0.3-0.6-0.3-1c0-0.6,0.3-1.1,0.8-1.5s1.3-0.6,2.2-0.6s1.8,0.2,2.6,0.5l-0.3,0.7c-0.8-0.3-1.6-0.5-2.3-0.5s-1.2,0.1-1.6,0.3
		s-0.6,0.5-0.6,1c0,0.4,0.2,0.8,0.5,1.1s0.9,0.6,1.8,0.9c0.8,0.3,1.3,0.5,1.7,0.7s0.6,0.5,0.8,0.8S528.9,173.4,528.9,173.8z"/>
</g>
<g>
	<g class="st10">
		<path class="st11" d="M660.1,138.2c-1.3,0-2.3-0.4-3-1.2s-1.1-1.8-1.1-3.2s0.3-2.5,1-3.3s1.6-1.2,2.7-1.2c1.1,0,1.9,0.4,2.5,1.1
			s0.9,1.6,0.9,2.8v0.8h-5.9c0,1,0.3,1.8,0.8,2.3s1.2,0.8,2,0.8c0.9,0,1.8-0.2,2.7-0.6v1.2c-0.5,0.2-0.9,0.3-1.3,0.4
			S660.7,138.2,660.1,138.2z M659.8,130.4c-0.7,0-1.2,0.2-1.6,0.7s-0.6,1.1-0.7,1.9h4.5c0-0.8-0.2-1.4-0.5-1.9
			S660.4,130.4,659.8,130.4z"/>
		<path class="st11" d="M667.5,133.6l-3-4.2h1.5l2.3,3.3l2.2-3.3h1.5l-3,4.2l3.1,4.4h-1.5l-2.4-3.5l-2.4,3.5h-1.5L667.5,133.6z"/>
		<path class="st11" d="M676.6,137.1c0.2,0,0.5,0,0.7-0.1s0.4-0.1,0.5-0.1v1c-0.1,0.1-0.3,0.1-0.6,0.2s-0.5,0.1-0.7,0.1
			c-1.7,0-2.5-0.9-2.5-2.6v-5.1h-1.2v-0.6l1.2-0.5l0.5-1.8h0.8v2h2.5v1h-2.5v5c0,0.5,0.1,0.9,0.4,1.2S676.2,137.1,676.6,137.1z"/>
		<path class="st11" d="M683.4,129.3c0.4,0,0.7,0,1,0.1l-0.2,1.2c-0.4-0.1-0.7-0.1-0.9-0.1c-0.7,0-1.3,0.3-1.8,0.8s-0.7,1.3-0.7,2.1
			v4.6h-1.3v-8.6h1.1l0.1,1.6h0.1c0.3-0.6,0.7-1,1.1-1.3S682.9,129.3,683.4,129.3z"/>
		<path class="st11" d="M691.3,138l-0.3-1.2l0,0c-0.4,0.5-0.9,0.9-1.3,1.1s-1,0.3-1.6,0.3c-0.8,0-1.5-0.2-2-0.7s-0.7-1.1-0.7-1.9
			c0-1.7,1.4-2.6,4.1-2.7h1.5v-0.5c0-0.7-0.1-1.2-0.4-1.5s-0.8-0.5-1.4-0.5c-0.7,0-1.5,0.2-2.4,0.7l-0.4-1c0.4-0.2,0.9-0.4,1.4-0.5
			s1-0.2,1.5-0.2c1,0,1.8,0.2,2.3,0.7s0.7,1.2,0.7,2.2v5.8h-1V138z M688.4,137.1c0.8,0,1.4-0.2,1.9-0.7s0.7-1.1,0.7-1.9v-0.8
			l-1.3,0.1c-1,0-1.8,0.2-2.2,0.5s-0.7,0.7-0.7,1.3c0,0.5,0.1,0.8,0.4,1.1S687.8,137.1,688.4,137.1z"/>
		<path class="st11" d="M698.3,138.2c-1.2,0-2.2-0.4-2.9-1.1s-1-1.8-1-3.2s0.3-2.5,1-3.3s1.7-1.2,2.9-1.2c0.4,0,0.8,0,1.2,0.1
			s0.7,0.2,1,0.3l-0.4,1.1c-0.3-0.1-0.6-0.2-0.9-0.3s-0.6-0.1-0.9-0.1c-1.7,0-2.6,1.1-2.6,3.3c0,1.1,0.2,1.9,0.6,2.4
			s1.1,0.8,1.9,0.8c0.7,0,1.4-0.2,2.2-0.5v1.1C699.9,138,699.2,138.2,698.3,138.2z"/>
		<path class="st11" d="M705.3,137.1c0.2,0,0.5,0,0.7-0.1s0.4-0.1,0.5-0.1v1c-0.1,0.1-0.3,0.1-0.6,0.2s-0.5,0.1-0.7,0.1
			c-1.7,0-2.5-0.9-2.5-2.6v-5.1h-1.2v-0.6l1.2-0.5l0.5-1.8h0.8v2h2.5v1H704v5c0,0.5,0.1,0.9,0.4,1.2S704.9,137.1,705.3,137.1z"/>
		<path class="st11" d="M713.7,135.7c0,0.8-0.3,1.4-0.9,1.8s-1.4,0.6-2.5,0.6s-2-0.2-2.7-0.5v-1.2c0.4,0.2,0.9,0.4,1.3,0.5
			c0.5,0.1,0.9,0.2,1.4,0.2c0.7,0,1.2-0.1,1.6-0.3s0.5-0.5,0.5-1c0-0.3-0.1-0.6-0.4-0.9s-0.9-0.5-1.7-0.8s-1.4-0.6-1.7-0.8
			s-0.6-0.5-0.8-0.8s-0.2-0.6-0.2-1c0-0.7,0.3-1.2,0.9-1.7s1.3-0.6,2.3-0.6c0.9,0,1.8,0.2,2.7,0.6l-0.5,1.1
			c-0.9-0.4-1.6-0.5-2.3-0.5c-0.6,0-1.1,0.1-1.4,0.3s-0.5,0.5-0.5,0.8c0,0.2,0.1,0.4,0.2,0.6s0.3,0.3,0.6,0.5s0.8,0.4,1.5,0.6
			c1,0.4,1.7,0.7,2.1,1.1S713.7,135.1,713.7,135.7z"/>
	</g>
	<g class="st10">
		<path class="st11" d="M723.2,130.2h-2v7.8h-0.8v-7.8h-1.6v-0.5l1.6-0.3v-0.7c0-1,0.2-1.8,0.6-2.3s1-0.7,1.9-0.7
			c0.5,0,0.9,0.1,1.4,0.2l-0.2,0.7c-0.4-0.1-0.8-0.2-1.2-0.2c-0.6,0-1,0.2-1.3,0.5s-0.4,0.9-0.4,1.7v0.8h2V130.2z M724.7,127.2
			c0-0.5,0.2-0.8,0.5-0.8c0.2,0,0.3,0.1,0.4,0.2s0.1,0.3,0.1,0.6c0,0.2,0,0.4-0.1,0.6s-0.2,0.2-0.4,0.2
			C724.9,127.9,724.7,127.7,724.7,127.2z M725.6,138h-0.8v-8.5h0.8V138z"/>
		<path class="st11" d="M731.9,138.2c-1.2,0-2.2-0.4-2.9-1.1s-1-1.8-1-3.2s0.3-2.4,1-3.3s1.6-1.2,2.7-1.2c1,0,1.8,0.3,2.4,1
			s0.9,1.6,0.9,2.8v0.6h-6.1c0,1.2,0.3,2.1,0.8,2.7s1.3,0.9,2.3,0.9c0.5,0,0.9,0,1.3-0.1s0.8-0.2,1.4-0.4v0.7
			c-0.5,0.2-0.9,0.4-1.3,0.4S732.4,138.2,731.9,138.2z M731.7,130c-0.8,0-1.5,0.3-2,0.8s-0.8,1.3-0.9,2.3h5.2c0-1-0.2-1.8-0.6-2.3
			S732.4,130,731.7,130z"/>
		<path class="st11" d="M738,138h-0.8v-12.2h0.8V138z"/>
		<path class="st11" d="M744,129.4c0.6,0,1.1,0.1,1.6,0.3s0.8,0.6,1.2,1.1l0,0c0-0.7,0-1.3,0-1.9v-3.1h0.8V138H747l-0.2-1.3h-0.1
			c-0.6,1-1.6,1.5-2.8,1.5s-2.1-0.4-2.7-1.1s-0.9-1.8-0.9-3.2c0-1.5,0.3-2.6,0.9-3.4S742.8,129.4,744,129.4z M744,130.1
			c-0.9,0-1.6,0.3-2.1,1s-0.7,1.6-0.7,2.8c0,2.4,0.9,3.6,2.8,3.6c1,0,1.7-0.3,2.1-0.8s0.7-1.5,0.7-2.8v-0.1c0-1.3-0.2-2.3-0.7-2.8
			S744.9,130.1,744,130.1z"/>
		<path class="st11" d="M755.6,135.8c0,0.8-0.3,1.3-0.9,1.8s-1.4,0.6-2.5,0.6s-2-0.2-2.7-0.5v-0.8c0.9,0.4,1.8,0.6,2.7,0.6
			c0.8,0,1.5-0.1,1.9-0.4s0.7-0.6,0.7-1.1c0-0.4-0.2-0.8-0.5-1.1s-0.9-0.6-1.7-0.9c-0.8-0.3-1.4-0.6-1.8-0.8s-0.6-0.5-0.8-0.8
			s-0.3-0.6-0.3-1c0-0.6,0.3-1.1,0.8-1.5s1.3-0.6,2.2-0.6s1.8,0.2,2.6,0.5l-0.3,0.7c-0.8-0.3-1.6-0.5-2.3-0.5s-1.2,0.1-1.6,0.3
			s-0.6,0.5-0.6,1c0,0.4,0.2,0.8,0.5,1.1s0.9,0.6,1.8,0.9c0.8,0.3,1.3,0.5,1.7,0.7s0.6,0.5,0.8,0.8S755.6,135.4,755.6,135.8z"/>
	</g>
</g>
<g class="st10">
	<path class="st11" d="M660.5,157h-0.8v-12.2h0.8V157z"/>
	<path class="st11" d="M663.2,146.2c0-0.5,0.2-0.8,0.5-0.8c0.2,0,0.3,0.1,0.4,0.2s0.1,0.3,0.1,0.6c0,0.2,0,0.4-0.1,0.6
		s-0.2,0.2-0.4,0.2C663.4,146.9,663.2,146.7,663.2,146.2z M664.1,157h-0.8v-8.5h0.8V157z"/>
	<path class="st11" d="M667.7,153.3l4.3-4.8h0.9l-3.3,3.6l3.6,4.9h-0.9l-3.2-4.3l-1.4,1.3v3h-0.8v-12.2h0.8v6.1L667.7,153.3
		L667.7,153.3z"/>
	<path class="st11" d="M678.1,157.2c-1.2,0-2.2-0.4-2.9-1.1s-1-1.8-1-3.2s0.3-2.4,1-3.3s1.6-1.2,2.7-1.2c1,0,1.8,0.3,2.4,1
		s0.9,1.6,0.9,2.8v0.6H675c0,1.2,0.3,2.1,0.8,2.7s1.3,0.9,2.3,0.9c0.5,0,0.9,0,1.3-0.1s0.8-0.2,1.4-0.4v0.7
		c-0.5,0.2-0.9,0.4-1.3,0.4S678.6,157.2,678.1,157.2z M677.9,149c-0.8,0-1.5,0.3-2,0.8s-0.8,1.3-0.9,2.3h5.2c0-1-0.2-1.8-0.6-2.3
		S678.6,149,677.9,149z"/>
	<path class="st11" d="M691,148.4c0.4,0,0.7,0,1.2,0.1l-0.1,0.7c-0.4-0.1-0.7-0.1-1.1-0.1c-0.7,0-1.3,0.3-1.8,0.9s-0.7,1.4-0.7,2.3
		v4.7h-0.8v-8.5h0.7l0.1,1.5h0.1c0.3-0.6,0.7-1.1,1.1-1.3S690.4,148.4,691,148.4z"/>
	<path class="st11" d="M697.3,157.2c-1.2,0-2.2-0.4-2.9-1.1s-1-1.8-1-3.2s0.3-2.4,1-3.3s1.6-1.2,2.7-1.2c1,0,1.8,0.3,2.4,1
		s0.9,1.6,0.9,2.8v0.6h-6.1c0,1.2,0.3,2.1,0.8,2.7s1.3,0.9,2.3,0.9c0.5,0,0.9,0,1.3-0.1s0.8-0.2,1.4-0.4v0.7
		c-0.5,0.2-0.9,0.4-1.3,0.4S697.8,157.2,697.3,157.2z M697.1,149c-0.8,0-1.5,0.3-2,0.8s-0.8,1.3-0.9,2.3h5.2c0-1-0.2-1.8-0.6-2.3
		S697.8,149,697.1,149z"/>
	<path class="st11" d="M707.9,154.8c0,0.8-0.3,1.3-0.9,1.8s-1.4,0.6-2.5,0.6s-2-0.2-2.7-0.5v-0.8c0.9,0.4,1.8,0.6,2.7,0.6
		c0.8,0,1.5-0.1,1.9-0.4s0.7-0.6,0.7-1.1c0-0.4-0.2-0.8-0.5-1.1s-0.9-0.6-1.7-0.9c-0.8-0.3-1.4-0.6-1.8-0.8s-0.6-0.5-0.8-0.8
		s-0.3-0.6-0.3-1c0-0.6,0.3-1.1,0.8-1.5s1.3-0.6,2.2-0.6s1.8,0.2,2.6,0.5l-0.3,0.7c-0.8-0.3-1.6-0.5-2.3-0.5s-1.2,0.1-1.6,0.3
		s-0.6,0.5-0.6,1c0,0.4,0.2,0.8,0.5,1.1s0.9,0.6,1.8,0.9c0.8,0.3,1.3,0.5,1.7,0.7s0.6,0.5,0.8,0.8S707.9,154.4,707.9,154.8z"/>
	<path class="st11" d="M713.7,157.2c-1.3,0-2.3-0.5-2.9-1.5h-0.1v0.7c0,0.4,0,0.8,0,1.3v3.2h-0.8v-12.3h0.7l0.1,1.2l0,0
		c0.6-0.9,1.5-1.4,2.8-1.4c1.1,0,2,0.4,2.6,1.1s0.9,1.8,0.9,3.3c0,1.4-0.3,2.5-0.9,3.2S714.8,157.2,713.7,157.2z M713.7,156.5
		c0.9,0,1.5-0.3,2-1s0.7-1.5,0.7-2.7c0-2.5-0.9-3.7-2.7-3.7c-1,0-1.7,0.3-2.2,0.8s-0.7,1.4-0.7,2.7v0.2c0,1.3,0.2,2.3,0.7,2.8
		S712.7,156.5,713.7,156.5z"/>
	<path class="st11" d="M726.6,152.8c0,1.4-0.3,2.5-1,3.2s-1.6,1.2-2.8,1.2c-0.7,0-1.4-0.2-2-0.5s-1-0.9-1.3-1.5s-0.5-1.4-0.5-2.3
		c0-1.4,0.3-2.5,1-3.2s1.6-1.2,2.8-1.2s2.1,0.4,2.7,1.2S726.6,151.4,726.6,152.8z M719.9,152.8c0,1.2,0.3,2.1,0.8,2.7s1.2,1,2.2,1
		s1.7-0.3,2.2-1s0.8-1.6,0.8-2.7c0-1.2-0.3-2.1-0.8-2.7s-1.2-1-2.2-1s-1.7,0.3-2.2,1S719.9,151.6,719.9,152.8z"/>
	<path class="st11" d="M734.9,157v-5.5c0-0.9-0.2-1.5-0.5-1.9s-0.9-0.6-1.7-0.6c-1,0-1.8,0.3-2.2,0.8s-0.7,1.3-0.7,2.5v4.7H729v-8.5
		h0.7l0.1,1.2l0,0c0.6-0.9,1.5-1.3,2.9-1.3c1.9,0,2.9,1,2.9,3.1v5.6h-0.7V157z"/>
	<path class="st11" d="M743.7,154.8c0,0.8-0.3,1.3-0.9,1.8s-1.4,0.6-2.5,0.6s-2-0.2-2.7-0.5v-0.8c0.9,0.4,1.8,0.6,2.7,0.6
		c0.8,0,1.5-0.1,1.9-0.4s0.7-0.6,0.7-1.1c0-0.4-0.2-0.8-0.5-1.1s-0.9-0.6-1.7-0.9c-0.8-0.3-1.4-0.6-1.8-0.8s-0.6-0.5-0.8-0.8
		s-0.3-0.6-0.3-1c0-0.6,0.3-1.1,0.8-1.5s1.3-0.6,2.2-0.6s1.8,0.2,2.6,0.5l-0.3,0.7c-0.8-0.3-1.6-0.5-2.3-0.5s-1.2,0.1-1.6,0.3
		s-0.6,0.5-0.6,1c0,0.4,0.2,0.8,0.5,1.1s0.9,0.6,1.8,0.9c0.8,0.3,1.3,0.5,1.7,0.7s0.6,0.5,0.8,0.8S743.7,154.4,743.7,154.8z"/>
	<path class="st11" d="M749.3,157.2c-1.2,0-2.2-0.4-2.9-1.1s-1-1.8-1-3.2s0.3-2.4,1-3.3s1.6-1.2,2.7-1.2c1,0,1.8,0.3,2.4,1
		s0.9,1.6,0.9,2.8v0.6h-6.1c0,1.2,0.3,2.1,0.8,2.7s1.3,0.9,2.3,0.9c0.5,0,0.9,0,1.3-0.1s0.8-0.2,1.4-0.4v0.7
		c-0.5,0.2-0.9,0.4-1.3,0.4S749.8,157.2,749.3,157.2z M749.1,149c-0.8,0-1.5,0.3-2,0.8s-0.8,1.3-0.9,2.3h5.2c0-1-0.2-1.8-0.6-2.3
		S749.8,149,749.1,149z"/>
</g>
<g class="st10">
	<path class="st11" d="M652.2,175.5c0.5,0,0.9,0,1.3-0.1v0.6c-0.4,0.1-0.8,0.2-1.3,0.2c-0.8,0-1.3-0.2-1.7-0.6s-0.5-1-0.5-1.9v-5.5
		h-1.3v-0.5l1.3-0.4l0.4-1.9h0.4v2.1h2.5v0.7h-2.5v5.4c0,0.7,0.1,1.1,0.3,1.4S651.7,175.5,652.2,175.5z"/>
	<path class="st11" d="M655.2,165.2c0-0.5,0.2-0.8,0.5-0.8c0.2,0,0.3,0.1,0.4,0.2s0.1,0.3,0.1,0.6c0,0.2,0,0.4-0.1,0.6
		s-0.2,0.2-0.4,0.2C655.4,165.9,655.2,165.7,655.2,165.2z M656.1,176h-0.8v-8.5h0.8V176z"/>
	<path class="st11" d="M669.5,176v-5.6c0-0.8-0.2-1.4-0.5-1.8s-0.8-0.6-1.5-0.6c-0.9,0-1.5,0.2-1.9,0.7S665,170,665,171v5h-0.8v-5.8
		c0-1.4-0.7-2.1-2-2.1c-0.9,0-1.5,0.3-1.9,0.8s-0.6,1.3-0.6,2.5v4.7h-0.8v-8.5h0.6l0.2,1.2l0,0c0.2-0.4,0.6-0.7,1-1s0.9-0.3,1.4-0.3
		c1.3,0,2.2,0.5,2.6,1.5l0,0c0.3-0.5,0.6-0.9,1.1-1.1s1-0.4,1.6-0.4c0.9,0,1.6,0.2,2.1,0.7s0.7,1.3,0.7,2.4v5.6h-0.7V176z"/>
	<path class="st11" d="M676.5,176.2c-1.2,0-2.2-0.4-2.9-1.1s-1-1.8-1-3.2s0.3-2.4,1-3.3s1.6-1.2,2.7-1.2c1,0,1.8,0.3,2.4,1
		s0.9,1.6,0.9,2.8v0.6h-6.1c0,1.2,0.3,2.1,0.8,2.7s1.3,0.9,2.3,0.9c0.5,0,0.9,0,1.3-0.1s0.8-0.2,1.4-0.4v0.7
		c-0.5,0.2-0.9,0.4-1.3,0.4S677,176.2,676.5,176.2z M676.3,168c-0.8,0-1.5,0.3-2,0.8s-0.8,1.3-0.9,2.3h5.2c0-1-0.2-1.8-0.6-2.3
		S677,168,676.3,168z"/>
	<path class="st11" d="M687.1,173.8c0,0.8-0.3,1.3-0.9,1.8s-1.4,0.6-2.5,0.6s-2-0.2-2.7-0.5v-0.8c0.9,0.4,1.8,0.6,2.7,0.6
		c0.8,0,1.5-0.1,1.9-0.4s0.7-0.6,0.7-1.1c0-0.4-0.2-0.8-0.5-1.1s-0.9-0.6-1.7-0.9c-0.8-0.3-1.4-0.6-1.8-0.8s-0.6-0.5-0.8-0.8
		s-0.3-0.6-0.3-1c0-0.6,0.3-1.1,0.8-1.5s1.3-0.6,2.2-0.6s1.8,0.2,2.6,0.5l-0.3,0.7c-0.8-0.3-1.6-0.5-2.3-0.5s-1.2,0.1-1.6,0.3
		s-0.6,0.5-0.6,1c0,0.4,0.2,0.8,0.5,1.1s0.9,0.6,1.8,0.9c0.8,0.3,1.3,0.5,1.7,0.7s0.6,0.5,0.8,0.8S687.1,173.4,687.1,173.8z"/>
	<path class="st11" d="M698.6,176l-0.2-1.3h-0.1c-0.4,0.5-0.9,0.9-1.3,1.2s-1,0.3-1.6,0.3c-0.8,0-1.5-0.2-1.9-0.6s-0.7-1-0.7-1.8
		s0.3-1.5,1-1.9s1.7-0.7,3-0.7h1.6v-0.6c0-0.8-0.2-1.4-0.5-1.8s-0.9-0.6-1.6-0.6c-0.8,0-1.6,0.2-2.4,0.7l-0.3-0.7
		c0.9-0.4,1.9-0.7,2.8-0.7c0.9,0,1.6,0.2,2.1,0.7s0.7,1.2,0.7,2.3v5.6L698.6,176L698.6,176z M695.5,175.5c0.9,0,1.6-0.3,2.1-0.8
		s0.8-1.2,0.8-2.2v-0.8l-1.5,0.1c-1.2,0.1-2,0.2-2.6,0.6s-0.8,0.8-0.8,1.5c0,0.5,0.2,0.9,0.5,1.2S694.9,175.5,695.5,175.5z"/>
	<path class="st11" d="M707.8,176v-5.5c0-0.9-0.2-1.5-0.5-1.9s-0.9-0.6-1.7-0.6c-1,0-1.8,0.3-2.2,0.8s-0.7,1.3-0.7,2.5v4.7h-0.8
		v-8.5h0.7l0.1,1.2l0,0c0.6-0.9,1.5-1.3,2.9-1.3c1.9,0,2.9,1,2.9,3.1v5.6h-0.7V176z"/>
	<path class="st11" d="M714.5,167.4c0.6,0,1.1,0.1,1.6,0.3s0.8,0.6,1.2,1.1l0,0c0-0.7,0-1.3,0-1.9v-3.1h0.8V176h-0.5l-0.2-1.3h-0.1
		c-0.6,1-1.6,1.5-2.8,1.5s-2.1-0.4-2.7-1.1s-0.9-1.8-0.9-3.2c0-1.5,0.3-2.6,0.9-3.4S713.3,167.4,714.5,167.4z M714.5,168.1
		c-0.9,0-1.6,0.3-2.1,1s-0.7,1.6-0.7,2.8c0,2.4,0.9,3.6,2.8,3.6c1,0,1.7-0.3,2.1-0.8s0.7-1.5,0.7-2.8v-0.1c0-1.3-0.2-2.3-0.7-2.8
		S715.4,168.1,714.5,168.1z"/>
	<path class="st11" d="M730.3,173.8c0,0.8-0.3,1.3-0.9,1.8s-1.4,0.6-2.5,0.6s-2-0.2-2.7-0.5v-0.8c0.9,0.4,1.8,0.6,2.7,0.6
		c0.8,0,1.5-0.1,1.9-0.4s0.7-0.6,0.7-1.1c0-0.4-0.2-0.8-0.5-1.1s-0.9-0.6-1.7-0.9c-0.8-0.3-1.4-0.6-1.8-0.8s-0.6-0.5-0.8-0.8
		s-0.3-0.6-0.3-1c0-0.6,0.3-1.1,0.8-1.5s1.3-0.6,2.2-0.6s1.8,0.2,2.6,0.5l-0.3,0.7c-0.8-0.3-1.6-0.5-2.3-0.5s-1.2,0.1-1.6,0.3
		s-0.6,0.5-0.6,1c0,0.4,0.2,0.8,0.5,1.1s0.9,0.6,1.8,0.9c0.8,0.3,1.3,0.5,1.7,0.7s0.6,0.5,0.8,0.8S730.3,173.4,730.3,173.8z"/>
	<path class="st11" d="M734.7,175.5c0.5,0,0.9,0,1.3-0.1v0.6c-0.4,0.1-0.8,0.2-1.3,0.2c-0.8,0-1.3-0.2-1.7-0.6s-0.5-1-0.5-1.9v-5.5
		h-1.3v-0.5l1.3-0.4l0.4-1.9h0.4v2.1h2.5v0.7h-2.5v5.4c0,0.7,0.1,1.1,0.3,1.4S734.2,175.5,734.7,175.5z"/>
	<path class="st11" d="M743,176l-0.2-1.3h-0.1c-0.4,0.5-0.9,0.9-1.3,1.2s-1,0.3-1.6,0.3c-0.8,0-1.5-0.2-1.9-0.6s-0.7-1-0.7-1.8
		s0.3-1.5,1-1.9s1.7-0.7,3-0.7h1.6v-0.6c0-0.8-0.2-1.4-0.5-1.8s-0.9-0.6-1.6-0.6c-0.8,0-1.6,0.2-2.4,0.7L738,168
		c0.9-0.4,1.9-0.7,2.8-0.7c0.9,0,1.6,0.2,2.1,0.7s0.7,1.2,0.7,2.3v5.6L743,176L743,176z M739.9,175.5c0.9,0,1.6-0.3,2.1-0.8
		s0.8-1.2,0.8-2.2v-0.8l-1.5,0.1c-1.2,0.1-2,0.2-2.6,0.6s-0.8,0.8-0.8,1.5c0,0.5,0.2,0.9,0.5,1.2S739.3,175.5,739.9,175.5z"/>
	<path class="st11" d="M748.6,175.5c0.5,0,0.9,0,1.3-0.1v0.6c-0.4,0.1-0.8,0.2-1.3,0.2c-0.8,0-1.3-0.2-1.7-0.6s-0.5-1-0.5-1.9v-5.5
		h-1.3v-0.5l1.3-0.4l0.4-1.9h0.4v2.1h2.5v0.7h-2.5v5.4c0,0.7,0.1,1.1,0.3,1.4S748.1,175.5,748.6,175.5z"/>
	<path class="st11" d="M752.4,167.5v5.5c0,0.9,0.2,1.5,0.5,1.9s0.9,0.6,1.7,0.6c1,0,1.8-0.3,2.2-0.8s0.7-1.3,0.7-2.5v-4.7h0.8v8.5
		h-0.7l-0.1-1.2l0,0c-0.6,0.9-1.5,1.3-2.9,1.3c-1.9,0-2.9-1-2.9-3.1v-5.5H752.4z"/>
	<path class="st11" d="M766.4,173.8c0,0.8-0.3,1.3-0.9,1.8s-1.4,0.6-2.5,0.6s-2-0.2-2.7-0.5v-0.8c0.9,0.4,1.8,0.6,2.7,0.6
		c0.8,0,1.5-0.1,1.9-0.4s0.7-0.6,0.7-1.1c0-0.4-0.2-0.8-0.5-1.1s-0.9-0.6-1.7-0.9c-0.8-0.3-1.4-0.6-1.8-0.8s-0.6-0.5-0.8-0.8
		s-0.3-0.6-0.3-1c0-0.6,0.3-1.1,0.8-1.5s1.3-0.6,2.2-0.6s1.8,0.2,2.6,0.5l-0.3,0.7c-0.8-0.3-1.6-0.5-2.3-0.5s-1.2,0.1-1.6,0.3
		s-0.6,0.5-0.6,1c0,0.4,0.2,0.8,0.5,1.1s0.9,0.6,1.8,0.9c0.8,0.3,1.3,0.5,1.7,0.7s0.6,0.5,0.8,0.8S766.4,173.4,766.4,173.8z"/>
</g>
<g class="st10">
	<path class="st11" d="M879.6,129.4v0.8l-1.6,0.2c0.1,0.2,0.3,0.4,0.4,0.7s0.2,0.6,0.2,1c0,0.8-0.3,1.5-0.9,2s-1.4,0.8-2.4,0.8
		c-0.3,0-0.5,0-0.7-0.1c-0.6,0.3-0.8,0.7-0.8,1.1c0,0.2,0.1,0.4,0.3,0.5s0.5,0.2,1,0.2h1.5c0.9,0,1.6,0.2,2.1,0.6s0.7,1,0.7,1.7
		c0,0.9-0.4,1.7-1.1,2.2s-1.9,0.7-3.3,0.7c-1.1,0-2-0.2-2.6-0.6s-0.9-1-0.9-1.8c0-0.5,0.2-1,0.5-1.4s0.8-0.6,1.4-0.8
		c-0.2-0.1-0.4-0.3-0.6-0.5s-0.2-0.5-0.2-0.7c0-0.3,0.1-0.6,0.2-0.8s0.4-0.5,0.8-0.7c-0.4-0.2-0.8-0.5-1.1-0.9s-0.4-0.9-0.4-1.5
		c0-0.9,0.3-1.7,0.8-2.2s1.4-0.8,2.4-0.8c0.4,0,0.9,0.1,1.2,0.2h3.1V129.4z M872.7,139.4c0,0.5,0.2,0.8,0.6,1.1s1,0.4,1.7,0.4
		c1.1,0,1.9-0.2,2.4-0.5s0.8-0.8,0.8-1.3s-0.1-0.8-0.4-1s-0.8-0.3-1.6-0.3h-1.6c-0.6,0-1,0.1-1.4,0.4S872.7,138.9,872.7,139.4z
		 M873.4,132.2c0,0.6,0.2,1.1,0.5,1.4s0.8,0.5,1.4,0.5c1.3,0,1.9-0.6,1.9-1.8c0-1.3-0.6-1.9-1.9-1.9c-0.6,0-1.1,0.2-1.4,0.5
		S873.4,131.5,873.4,132.2z"/>
	<path class="st11" d="M885.2,129.3c0.4,0,0.7,0,1,0.1l-0.2,1.2c-0.4-0.1-0.7-0.1-0.9-0.1c-0.7,0-1.3,0.3-1.8,0.8s-0.7,1.3-0.7,2.1
		v4.6h-1.3v-8.6h1.1l0.1,1.6h0.1c0.3-0.6,0.7-1,1.1-1.3S884.7,129.3,885.2,129.3z"/>
	<path class="st11" d="M895.3,133.7c0,1.4-0.4,2.5-1.1,3.3s-1.7,1.2-2.9,1.2c-0.8,0-1.4-0.2-2-0.5s-1.1-0.9-1.4-1.5
		s-0.5-1.5-0.5-2.4c0-1.4,0.3-2.5,1-3.3s1.7-1.2,2.9-1.2s2.1,0.4,2.9,1.2S895.3,132.4,895.3,133.7z M888.7,133.7
		c0,1.1,0.2,1.9,0.7,2.5s1.1,0.9,1.9,0.9s1.5-0.3,1.9-0.9s0.7-1.4,0.7-2.5s-0.2-1.9-0.7-2.5s-1.1-0.8-1.9-0.8
		c-0.8,0-1.5,0.3-1.9,0.8S888.7,132.6,888.7,133.7z"/>
	<path class="st11" d="M898.7,129.4v5.6c0,0.7,0.2,1.2,0.5,1.6s0.8,0.5,1.5,0.5c0.9,0,1.6-0.2,2-0.7s0.6-1.3,0.6-2.4v-4.5h1.3v8.6
		h-1.1l-0.2-1.1h-0.1c-0.3,0.4-0.6,0.7-1.1,1s-1,0.3-1.6,0.3c-1,0-1.8-0.2-2.3-0.7s-0.8-1.3-0.8-2.4v-5.6h1.3V129.4z"/>
	<path class="st11" d="M911.3,138.2c-0.6,0-1.1-0.1-1.5-0.3s-0.8-0.5-1.2-0.9h-0.1c0.1,0.5,0.1,1,0.1,1.4v3.5h-1.3v-12.4h1.1
		l0.2,1.2h0.1c0.3-0.5,0.7-0.8,1.2-1s1-0.3,1.5-0.3c1.1,0,2,0.4,2.6,1.2s0.9,1.9,0.9,3.3c0,1.4-0.3,2.5-0.9,3.3
		S912.4,138.2,911.3,138.2z M911.1,130.4c-0.9,0-1.5,0.2-1.9,0.7s-0.6,1.3-0.6,2.3v0.3c0,1.2,0.2,2.1,0.6,2.6s1,0.8,1.9,0.8
		c0.7,0,1.3-0.3,1.7-0.9s0.6-1.4,0.6-2.5s-0.2-1.9-0.6-2.5S911.9,130.4,911.1,130.4z"/>
	<path class="st11" d="M922.7,135.7c0,0.8-0.3,1.4-0.9,1.8s-1.4,0.6-2.5,0.6s-2-0.2-2.7-0.5v-1.2c0.4,0.2,0.9,0.4,1.3,0.5
		s0.9,0.2,1.4,0.2c0.7,0,1.2-0.1,1.6-0.3s0.5-0.5,0.5-1c0-0.3-0.1-0.6-0.4-0.9s-0.9-0.5-1.7-0.8s-1.4-0.6-1.7-0.8s-0.6-0.5-0.8-0.8
		s-0.2-0.6-0.2-1c0-0.7,0.3-1.2,0.9-1.7s1.3-0.6,2.3-0.6c0.9,0,1.8,0.2,2.7,0.6l-0.5,1.1c-0.9-0.4-1.6-0.5-2.3-0.5
		c-0.6,0-1.1,0.1-1.4,0.3s-0.5,0.5-0.5,0.8c0,0.2,0.1,0.4,0.2,0.6s0.3,0.3,0.6,0.5s0.8,0.4,1.5,0.6c1,0.4,1.7,0.7,2.1,1.1
		S922.7,135.1,922.7,135.7z"/>
</g>
<g class="st10">
	<path class="st11" d="M931.3,137.5c0.5,0,0.9,0,1.3-0.1v0.6c-0.4,0.1-0.8,0.2-1.3,0.2c-0.8,0-1.3-0.2-1.7-0.6
		c-0.4-0.4-0.5-1-0.5-1.9v-5.5h-1.3v-0.5l1.3-0.4l0.4-1.9h0.4v2.1h2.5v0.7h-2.5v5.4c0,0.7,0.1,1.1,0.3,1.4
		C930.4,137.3,930.8,137.5,931.3,137.5z"/>
	<path class="st11" d="M941.4,133.7c0,1.4-0.3,2.5-1,3.2s-1.6,1.2-2.8,1.2c-0.7,0-1.4-0.2-2-0.5c-0.6-0.4-1-0.9-1.3-1.5
		c-0.3-0.7-0.5-1.4-0.5-2.3c0-1.4,0.3-2.5,1-3.2s1.6-1.2,2.8-1.2s2.1,0.4,2.7,1.2S941.4,132.4,941.4,133.7z M934.7,133.7
		c0,1.2,0.3,2.1,0.8,2.7c0.5,0.7,1.2,1,2.2,1s1.7-0.3,2.2-1s0.8-1.6,0.8-2.7c0-1.2-0.3-2.1-0.8-2.7c-0.5-0.6-1.2-1-2.2-1
		s-1.7,0.3-2.2,1S934.7,132.6,934.7,133.7z"/>
	<path class="st11" d="M946.2,140.9c-0.5,0-0.9-0.1-1.2-0.2V140c0.4,0.1,0.8,0.2,1.2,0.2c1.3,0,1.9-0.7,1.9-2.1v-11.5h0.8V138
		C948.9,139.9,948,140.9,946.2,140.9z"/>
	<path class="st11" d="M958.4,135.1c0,1-0.4,1.7-1.1,2.3c-0.7,0.6-1.6,0.8-2.8,0.8c-1.4,0-2.5-0.2-3.2-0.5v-0.8
		c0.8,0.3,1.9,0.5,3.1,0.5c0.9,0,1.7-0.2,2.2-0.6c0.5-0.4,0.8-1,0.8-1.7c0-0.4-0.1-0.8-0.3-1.1s-0.5-0.5-0.9-0.8
		c-0.4-0.2-1-0.5-1.8-0.8c-1.2-0.4-2-0.8-2.4-1.3s-0.7-1.1-0.7-1.9c0-0.9,0.3-1.6,1-2.1s1.5-0.8,2.6-0.8s2.1,0.2,3,0.6l-0.3,0.7
		c-0.9-0.4-1.9-0.6-2.7-0.6s-1.5,0.2-2,0.6s-0.8,0.9-0.8,1.6c0,0.4,0.1,0.8,0.2,1c0.2,0.3,0.4,0.5,0.8,0.7c0.3,0.2,0.9,0.5,1.8,0.8
		c0.9,0.3,1.6,0.6,2,0.9c0.4,0.3,0.8,0.6,1,1C958.3,134.1,958.4,134.5,958.4,135.1z"/>
	<path class="st11" d="M970.4,132.3c0,1.8-0.5,3.2-1.4,4.3s-2.2,1.6-3.8,1.6s-2.8-0.5-3.7-1.6s-1.4-2.5-1.4-4.3s0.5-3.2,1.4-4.3
		s2.2-1.6,3.7-1.6c1.6,0,2.8,0.5,3.7,1.6C969.9,129,970.4,130.5,970.4,132.3z M961,132.3c0,1.6,0.4,2.9,1.1,3.8
		c0.7,0.9,1.8,1.3,3.1,1.3c1.4,0,2.4-0.4,3.2-1.3s1.1-2.2,1.1-3.8s-0.4-2.9-1.1-3.8s-1.8-1.3-3.1-1.3c-1.4,0-2.4,0.4-3.1,1.3
		C961.4,129.4,961,130.6,961,132.3z"/>
	<path class="st11" d="M981.3,138h-0.8l-6.8-10.1h-0.1c0.1,1.2,0.1,2.1,0.1,2.7v7.4H973v-11.4h0.8l6.8,10.1l0,0
		c0-0.9-0.1-1.8-0.1-2.7v-7.5h0.8V138z"/>
</g>
<g class="st10">
	<path class="st11" d="M892.2,156.5c0.5,0,0.9,0,1.3-0.1v0.6c-0.4,0.1-0.8,0.2-1.3,0.2c-0.8,0-1.3-0.2-1.7-0.6s-0.5-1-0.5-1.9v-5.5
		h-1.3v-0.5l1.3-0.4l0.4-1.9h0.4v2.1h2.5v0.7h-2.5v5.4c0,0.7,0.1,1.1,0.3,1.4S891.7,156.5,892.2,156.5z"/>
	<path class="st11" d="M902.3,152.8c0,1.4-0.3,2.5-1,3.2s-1.6,1.2-2.8,1.2c-0.7,0-1.4-0.2-2-0.5s-1-0.9-1.3-1.5s-0.5-1.4-0.5-2.3
		c0-1.4,0.3-2.5,1-3.2s1.6-1.2,2.8-1.2s2.1,0.4,2.7,1.2S902.3,151.4,902.3,152.8z M895.6,152.8c0,1.2,0.3,2.1,0.8,2.7s1.2,1,2.2,1
		s1.7-0.3,2.2-1s0.8-1.6,0.8-2.7c0-1.2-0.3-2.1-0.8-2.7s-1.2-1-2.2-1s-1.7,0.3-2.2,1S895.6,151.6,895.6,152.8z"/>
	<path class="st11" d="M914.1,154.8c0,0.8-0.3,1.3-0.9,1.8s-1.4,0.6-2.5,0.6s-2-0.2-2.7-0.5v-0.8c0.9,0.4,1.8,0.6,2.7,0.6
		c0.8,0,1.5-0.1,1.9-0.4s0.7-0.6,0.7-1.1c0-0.4-0.2-0.8-0.5-1.1s-0.9-0.6-1.7-0.9c-0.8-0.3-1.4-0.6-1.8-0.8s-0.6-0.5-0.8-0.8
		s-0.3-0.6-0.3-1c0-0.6,0.3-1.1,0.8-1.5s1.3-0.6,2.2-0.6s1.8,0.2,2.6,0.5l-0.3,0.7c-0.8-0.3-1.6-0.5-2.3-0.5s-1.2,0.1-1.6,0.3
		s-0.6,0.5-0.6,1c0,0.4,0.2,0.8,0.5,1.1s0.9,0.6,1.8,0.9c0.8,0.3,1.3,0.5,1.7,0.7s0.6,0.5,0.8,0.8S914.1,154.4,914.1,154.8z"/>
	<path class="st11" d="M919.7,157.2c-1.2,0-2.2-0.4-2.9-1.1s-1-1.8-1-3.2s0.3-2.4,1-3.3s1.6-1.2,2.7-1.2c1,0,1.8,0.3,2.4,1
		s0.9,1.6,0.9,2.8v0.6h-6.1c0,1.2,0.3,2.1,0.8,2.7s1.3,0.9,2.3,0.9c0.5,0,0.9,0,1.3-0.1s0.8-0.2,1.4-0.4v0.7
		c-0.5,0.2-0.9,0.4-1.3,0.4S920.2,157.2,919.7,157.2z M919.5,149c-0.8,0-1.5,0.3-2,0.8s-0.8,1.3-0.9,2.3h5.2c0-1-0.2-1.8-0.6-2.3
		S920.2,149,919.5,149z"/>
	<path class="st11" d="M931,157v-5.5c0-0.9-0.2-1.5-0.5-1.9s-0.9-0.6-1.7-0.6c-1,0-1.8,0.3-2.2,0.8s-0.7,1.3-0.7,2.5v4.7H925v-8.5
		h0.7l0.1,1.2l0,0c0.6-0.9,1.5-1.3,2.9-1.3c1.9,0,2.9,1,2.9,3.1v5.6H931V157z"/>
	<path class="st11" d="M937.6,148.4c0.6,0,1.1,0.1,1.6,0.3s0.8,0.6,1.2,1.1l0,0c0-0.7,0-1.3,0-1.9v-3.1h0.8V157h-0.5l-0.2-1.3h-0.1
		c-0.6,1-1.6,1.5-2.8,1.5s-2.1-0.4-2.7-1.1s-0.9-1.8-0.9-3.2c0-1.5,0.3-2.6,0.9-3.4S936.4,148.4,937.6,148.4z M937.6,149.1
		c-0.9,0-1.6,0.3-2.1,1s-0.7,1.6-0.7,2.8c0,2.4,0.9,3.6,2.8,3.6c1,0,1.7-0.3,2.1-0.8s0.7-1.5,0.7-2.8v-0.1c0-1.3-0.2-2.3-0.7-2.8
		S938.6,149.1,937.6,149.1z"/>
	<path class="st11" d="M950.4,156.5c0.5,0,0.9,0,1.3-0.1v0.6c-0.4,0.1-0.8,0.2-1.3,0.2c-0.8,0-1.3-0.2-1.7-0.6s-0.5-1-0.5-1.9v-5.5
		h-1.3v-0.5l1.3-0.4l0.4-1.9h0.4v2.1h2.5v0.7H949v5.4c0,0.7,0.1,1.1,0.3,1.4S949.9,156.5,950.4,156.5z"/>
	<path class="st11" d="M960.5,152.8c0,1.4-0.3,2.5-1,3.2s-1.6,1.2-2.8,1.2c-0.7,0-1.4-0.2-2-0.5s-1-0.9-1.3-1.5s-0.5-1.4-0.5-2.3
		c0-1.4,0.3-2.5,1-3.2s1.6-1.2,2.8-1.2s2.1,0.4,2.7,1.2S960.5,151.4,960.5,152.8z M953.8,152.8c0,1.2,0.3,2.1,0.8,2.7s1.2,1,2.2,1
		s1.7-0.3,2.2-1s0.8-1.6,0.8-2.7c0-1.2-0.3-2.1-0.8-2.7s-1.2-1-2.2-1s-1.7,0.3-2.2,1S953.8,151.6,953.8,152.8z"/>
</g>
<g class="st10">
	<path class="st11" d="M888.4,176h-6.2v-11.4h6.2v0.7H883v4.3h5.1v0.7H883v4.9h5.4V176z"/>
	<path class="st11" d="M891.6,176h-0.8v-12.2h0.8V176z"/>
	<path class="st11" d="M899.6,176l-0.2-1.3h-0.1c-0.4,0.5-0.9,0.9-1.3,1.2s-1,0.3-1.6,0.3c-0.8,0-1.5-0.2-1.9-0.6s-0.7-1-0.7-1.8
		s0.3-1.5,1-1.9s1.7-0.7,3-0.7h1.6v-0.6c0-0.8-0.2-1.4-0.5-1.8s-0.9-0.6-1.6-0.6c-0.8,0-1.6,0.2-2.4,0.7l-0.3-0.7
		c0.9-0.4,1.9-0.7,2.8-0.7c0.9,0,1.6,0.2,2.1,0.7s0.7,1.2,0.7,2.3v5.6L899.6,176L899.6,176z M896.5,175.5c0.9,0,1.6-0.3,2.1-0.8
		s0.8-1.2,0.8-2.2v-0.8l-1.5,0.1c-1.2,0.1-2,0.2-2.6,0.6s-0.8,0.8-0.8,1.5c0,0.5,0.2,0.9,0.5,1.2S895.9,175.5,896.5,175.5z"/>
	<path class="st11" d="M908.2,173.8c0,0.8-0.3,1.3-0.9,1.8s-1.4,0.6-2.5,0.6s-2-0.2-2.7-0.5v-0.8c0.9,0.4,1.8,0.6,2.7,0.6
		c0.8,0,1.5-0.1,1.9-0.4s0.7-0.6,0.7-1.1c0-0.4-0.2-0.8-0.5-1.1s-0.9-0.6-1.7-0.9c-0.8-0.3-1.4-0.6-1.8-0.8s-0.6-0.5-0.8-0.8
		s-0.3-0.6-0.3-1c0-0.6,0.3-1.1,0.8-1.5s1.3-0.6,2.2-0.6s1.8,0.2,2.6,0.5l-0.3,0.7c-0.8-0.3-1.6-0.5-2.3-0.5s-1.2,0.1-1.6,0.3
		s-0.6,0.5-0.6,1c0,0.4,0.2,0.8,0.5,1.1s0.9,0.6,1.8,0.9c0.8,0.3,1.3,0.5,1.7,0.7s0.6,0.5,0.8,0.8S908.2,173.4,908.2,173.8z"/>
	<path class="st11" d="M912.6,175.5c0.5,0,0.9,0,1.3-0.1v0.6c-0.4,0.1-0.8,0.2-1.3,0.2c-0.8,0-1.3-0.2-1.7-0.6s-0.5-1-0.5-1.9v-5.5
		h-1.3v-0.5l1.3-0.4l0.4-1.9h0.4v2.1h2.5v0.7h-2.5v5.4c0,0.7,0.1,1.1,0.3,1.4S912.1,175.5,912.6,175.5z"/>
	<path class="st11" d="M915.6,165.2c0-0.5,0.2-0.8,0.5-0.8c0.2,0,0.3,0.1,0.4,0.2s0.1,0.3,0.1,0.6c0,0.2,0,0.4-0.1,0.6
		s-0.2,0.2-0.4,0.2C915.8,165.9,915.6,165.7,915.6,165.2z M916.5,176h-0.8v-8.5h0.8V176z"/>
	<path class="st11" d="M922.8,176.2c-1.2,0-2.2-0.4-2.9-1.1s-1-1.8-1-3.2s0.4-2.5,1.1-3.3s1.7-1.2,2.9-1.2c0.7,0,1.4,0.1,2.1,0.4
		l-0.2,0.7c-0.7-0.2-1.4-0.4-1.9-0.4c-1,0-1.8,0.3-2.4,1s-0.8,1.6-0.8,2.8c0,1.1,0.3,2,0.8,2.7s1.3,1,2.2,1c0.8,0,1.5-0.1,2.1-0.4
		v0.7C924.3,176,923.6,176.2,922.8,176.2z"/>
	<path class="st11" d="M932.2,173.8c0,0.8-0.3,1.3-0.9,1.8s-1.4,0.6-2.5,0.6s-2-0.2-2.7-0.5v-0.8c0.9,0.4,1.8,0.6,2.7,0.6
		c0.8,0,1.5-0.1,1.9-0.4s0.7-0.6,0.7-1.1c0-0.4-0.2-0.8-0.5-1.1s-0.9-0.6-1.7-0.9c-0.8-0.3-1.4-0.6-1.8-0.8s-0.6-0.5-0.8-0.8
		s-0.3-0.6-0.3-1c0-0.6,0.3-1.1,0.8-1.5s1.3-0.6,2.2-0.6s1.8,0.2,2.6,0.5l-0.3,0.7c-0.8-0.3-1.6-0.5-2.3-0.5s-1.2,0.1-1.6,0.3
		s-0.6,0.5-0.6,1c0,0.4,0.2,0.8,0.5,1.1s0.9,0.6,1.8,0.9c0.8,0.3,1.3,0.5,1.7,0.7s0.6,0.5,0.8,0.8S932.2,173.4,932.2,173.8z"/>
	<path class="st11" d="M937.8,176.2c-1.2,0-2.2-0.4-2.9-1.1s-1-1.8-1-3.2s0.3-2.4,1-3.3s1.6-1.2,2.7-1.2c1,0,1.8,0.3,2.4,1
		s0.9,1.6,0.9,2.8v0.6h-6.1c0,1.2,0.3,2.1,0.8,2.7s1.3,0.9,2.3,0.9c0.5,0,0.9,0,1.3-0.1s0.8-0.2,1.4-0.4v0.7
		c-0.5,0.2-0.9,0.4-1.3,0.4S938.3,176.2,937.8,176.2z M937.6,168c-0.8,0-1.5,0.3-2,0.8s-0.8,1.3-0.9,2.3h5.2c0-1-0.2-1.8-0.6-2.3
		S938.4,168,937.6,168z"/>
	<path class="st11" d="M948.4,176l-0.2-1.3h-0.1c-0.4,0.5-0.9,0.9-1.3,1.2s-1,0.3-1.6,0.3c-0.8,0-1.5-0.2-1.9-0.6s-0.7-1-0.7-1.8
		s0.3-1.5,1-1.9s1.7-0.7,3-0.7h1.6v-0.6c0-0.8-0.2-1.4-0.5-1.8s-0.9-0.6-1.6-0.6c-0.8,0-1.6,0.2-2.4,0.7l-0.3-0.7
		c0.9-0.4,1.9-0.7,2.8-0.7c0.9,0,1.6,0.2,2.1,0.7s0.7,1.2,0.7,2.3v5.6L948.4,176L948.4,176z M945.2,175.5c0.9,0,1.6-0.3,2.1-0.8
		s0.8-1.2,0.8-2.2v-0.8l-1.5,0.1c-1.2,0.1-2,0.2-2.6,0.6s-0.8,0.8-0.8,1.5c0,0.5,0.2,0.9,0.5,1.2S944.6,175.5,945.2,175.5z"/>
	<path class="st11" d="M955,167.4c0.4,0,0.7,0,1.2,0.1l-0.1,0.7c-0.4-0.1-0.7-0.1-1.1-0.1c-0.7,0-1.3,0.3-1.8,0.9s-0.7,1.4-0.7,2.3
		v4.7h-0.8v-8.5h0.7l0.1,1.5h0.1c0.3-0.6,0.7-1.1,1.1-1.3S954.5,167.4,955,167.4z"/>
	<path class="st11" d="M961.3,176.2c-1.2,0-2.2-0.4-2.9-1.1s-1-1.8-1-3.2s0.4-2.5,1.1-3.3s1.7-1.2,2.9-1.2c0.7,0,1.4,0.1,2.1,0.4
		l-0.2,0.7c-0.7-0.2-1.4-0.4-1.9-0.4c-1,0-1.8,0.3-2.4,1s-0.8,1.6-0.8,2.8c0,1.1,0.3,2,0.8,2.7s1.3,1,2.2,1c0.8,0,1.5-0.1,2.1-0.4
		v0.7C962.9,176,962.2,176.2,961.3,176.2z"/>
	<path class="st11" d="M971.4,176v-5.5c0-0.9-0.2-1.5-0.5-1.9s-0.9-0.6-1.7-0.6c-1,0-1.8,0.3-2.2,0.8s-0.7,1.3-0.7,2.5v4.7h-0.8
		v-12.2h0.8v3.9v1.1h0.1c0.3-0.5,0.7-0.9,1.2-1.1s1.1-0.3,1.8-0.3c1.9,0,2.9,1,2.9,3.1v5.6h-0.9V176z"/>
</g>
<g class="st10">
	<path class="st12" d="M24.8,136.2c-1.2,0-2.2-0.4-2.9-1.1s-1-1.8-1-3.2c0-1.4,0.3-2.5,1-3.3c0.7-0.8,1.7-1.2,2.9-1.2
		c0.4,0,0.8,0,1.2,0.1c0.4,0.1,0.7,0.2,1,0.3l-0.4,1.1c-0.3-0.1-0.6-0.2-0.9-0.3c-0.3-0.1-0.6-0.1-0.9-0.1c-1.7,0-2.6,1.1-2.6,3.3
		c0,1.1,0.2,1.9,0.6,2.4c0.4,0.6,1.1,0.8,1.9,0.8c0.7,0,1.4-0.2,2.2-0.5v1.1C26.4,136,25.6,136.2,24.8,136.2z"/>
	<path class="st12" d="M34.2,136l-0.3-1.2h-0.1c-0.4,0.5-0.9,0.9-1.3,1.1c-0.4,0.2-1,0.3-1.6,0.3c-0.8,0-1.5-0.2-2-0.7
		c-0.5-0.4-0.7-1.1-0.7-1.9c0-1.7,1.4-2.6,4.1-2.7l1.5,0v-0.5c0-0.7-0.1-1.2-0.4-1.5s-0.8-0.5-1.4-0.5c-0.7,0-1.5,0.2-2.4,0.7
		l-0.4-1c0.4-0.2,0.9-0.4,1.4-0.5c0.5-0.1,1-0.2,1.5-0.2c1,0,1.8,0.2,2.3,0.7s0.7,1.2,0.7,2.2v5.8H34.2z M31.3,135.1
		c0.8,0,1.4-0.2,1.9-0.7s0.7-1.1,0.7-1.9v-0.8l-1.3,0.1c-1,0-1.8,0.2-2.2,0.5c-0.5,0.3-0.7,0.7-0.7,1.3c0,0.5,0.1,0.8,0.4,1.1
		C30.4,135,30.8,135.1,31.3,135.1z"/>
	<path class="st12" d="M41.8,136.2c-0.6,0-1.1-0.1-1.5-0.3s-0.8-0.5-1.2-0.9h-0.1c0.1,0.5,0.1,1,0.1,1.4v3.5h-1.3v-12.4h1.1l0.2,1.2
		h0.1c0.3-0.5,0.7-0.8,1.2-1c0.4-0.2,1-0.3,1.5-0.3c1.1,0,2,0.4,2.6,1.2s0.9,1.9,0.9,3.3c0,1.4-0.3,2.5-0.9,3.3
		C43.8,135.8,43,136.2,41.8,136.2z M41.7,128.4c-0.9,0-1.5,0.2-1.9,0.7s-0.6,1.3-0.6,2.3v0.3c0,1.2,0.2,2.1,0.6,2.6
		c0.4,0.5,1,0.8,1.9,0.8c0.7,0,1.3-0.3,1.7-0.9c0.4-0.6,0.6-1.4,0.6-2.5c0-1.1-0.2-1.9-0.6-2.5C43,128.7,42.4,128.4,41.7,128.4z"/>
	<path class="st12" d="M50.4,135.1c0.2,0,0.5,0,0.7-0.1c0.2,0,0.4-0.1,0.5-0.1v1c-0.1,0.1-0.3,0.1-0.6,0.2s-0.5,0.1-0.7,0.1
		c-1.7,0-2.5-0.9-2.5-2.6v-5.1h-1.2v-0.6l1.2-0.5l0.5-1.8H49v2h2.5v1H49v5c0,0.5,0.1,0.9,0.4,1.2C49.7,134.9,50,135.1,50.4,135.1z"
		/>
	<path class="st12" d="M54.5,127.4v5.6c0,0.7,0.2,1.2,0.5,1.6c0.3,0.3,0.8,0.5,1.5,0.5c0.9,0,1.6-0.2,2-0.7s0.6-1.3,0.6-2.4v-4.5
		h1.3v8.6h-1.1l-0.2-1.1H59c-0.3,0.4-0.6,0.7-1.1,1c-0.5,0.2-1,0.3-1.6,0.3c-1,0-1.8-0.2-2.3-0.7c-0.5-0.5-0.8-1.3-0.8-2.4v-5.6
		H54.5z"/>
	<path class="st12" d="M67,127.3c0.4,0,0.7,0,1,0.1l-0.2,1.2c-0.4-0.1-0.7-0.1-0.9-0.1c-0.7,0-1.3,0.3-1.8,0.8s-0.7,1.3-0.7,2.1v4.6
		h-1.3v-8.6h1.1l0.1,1.6h0.1c0.3-0.6,0.7-1,1.1-1.3C66,127.4,66.5,127.3,67,127.3z"/>
	<path class="st12" d="M73.3,136.2c-1.3,0-2.3-0.4-3-1.2c-0.7-0.8-1.1-1.8-1.1-3.2c0-1.4,0.3-2.5,1-3.3s1.6-1.2,2.7-1.2
		c1.1,0,1.9,0.4,2.5,1.1s0.9,1.6,0.9,2.8v0.8h-5.9c0,1,0.3,1.8,0.8,2.3c0.5,0.5,1.2,0.8,2,0.8c0.9,0,1.8-0.2,2.7-0.6v1.2
		c-0.5,0.2-0.9,0.3-1.3,0.4S73.9,136.2,73.3,136.2z M72.9,128.4c-0.7,0-1.2,0.2-1.6,0.7c-0.4,0.4-0.7,1.1-0.7,1.9H75
		c0-0.8-0.2-1.4-0.5-1.9C74.1,128.6,73.6,128.4,72.9,128.4z"/>
	<path class="st12" d="M84.2,133.7c0,0.8-0.3,1.4-0.9,1.8s-1.4,0.6-2.5,0.6c-1.1,0-2-0.2-2.7-0.5v-1.2c0.4,0.2,0.9,0.4,1.3,0.5
		s0.9,0.2,1.4,0.2c0.7,0,1.2-0.1,1.6-0.3s0.5-0.5,0.5-1c0-0.3-0.1-0.6-0.4-0.9s-0.9-0.5-1.7-0.8c-0.8-0.3-1.4-0.6-1.7-0.8
		s-0.6-0.5-0.8-0.8s-0.2-0.6-0.2-1c0-0.7,0.3-1.2,0.9-1.7s1.3-0.6,2.3-0.6c0.9,0,1.8,0.2,2.7,0.6l-0.5,1.1c-0.9-0.4-1.6-0.5-2.3-0.5
		c-0.6,0-1.1,0.1-1.4,0.3s-0.5,0.5-0.5,0.8c0,0.2,0.1,0.4,0.2,0.6s0.3,0.3,0.6,0.5s0.8,0.4,1.5,0.6c1,0.4,1.7,0.7,2.1,1.1
		S84.2,133.1,84.2,133.7z"/>
</g>
</svg>
