<?xml version="1.0" encoding="utf-8"?>
<!-- Generator: Adobe Illustrator 21.1.0, SVG Export Plug-In . SVG Version: 6.00 Build 0)  -->
<svg version="1.1" id="Layer_1" xmlns="http://www.w3.org/2000/svg" xmlns:xlink="http://www.w3.org/1999/xlink" x="0px" y="0px"
	 width="364px" height="346.6px" viewBox="0 0 364 346.6" style="enable-background:new 0 0 364 346.6;" xml:space="preserve">
<style type="text/css">
	.st0{fill:#FFFFFF;}
	.st1{fill:#C69CC8;stroke:#6D6E71;stroke-width:3;stroke-miterlimit:10;}
	.st2{fill:#72C59A;stroke:#6D6E71;stroke-width:3;stroke-miterlimit:10;}
	.st3{fill:#71B9E6;stroke:#6D6E71;stroke-width:3;stroke-miterlimit:10;}
	.st4{fill:#58595B;stroke:#6D6E71;stroke-width:3;stroke-miterlimit:10;}
	.st5{enable-background:new    ;}
	.st6{fill:#414042;}
	.st7{fill:none;stroke:#FFFFFF;stroke-width:2;stroke-miterlimit:30;}
	.st8{fill:none;stroke:#FFFFFF;stroke-width:1.5;stroke-miterlimit:10;}
</style>
<circle class="st0" cx="181.9" cy="154.9" r="132.1"/>
<title>Asset 1</title>
<g id="Layer_2">
	<g id="Final_Layer">
		<path class="st1" d="M182.4,209.6c-33.3,23.7-76.7,27.9-113.9,11c-0.3,3.4-0.4,6.9-0.4,10.5c-0.2,63.2,50.8,114.6,114,114.9
			s114.6-50.8,114.9-114c0-0.6,0-1.3,0-1.9c0-3.5-0.2-7-0.5-10.5C259.3,236.9,215.9,233.1,182.4,209.6L182.4,209.6z"/>
		<path class="st2" d="M230.4,116c0,3.5-0.1,7-0.4,10.5c37.2,17,62.5,52.5,66.5,93.2c57.3-26.7,82.1-94.8,55.4-152.1
			S257-14.5,199.7,12.2c-6.3,3-12.4,6.5-18.1,10.5C212,44.1,230.2,78.8,230.4,116z"/>
		<path class="st3" d="M68.5,220.6c3.6-40.7,28.6-76.5,65.7-93.8c-0.3-3.4-0.5-7-0.5-10.5c-0.2-37.2,17.7-72.1,48-93.6
			C129.8-13.4,58.5-0.8,22.3,51S-1.3,174.1,50.5,210.3C56.1,214.3,62.2,217.8,68.5,220.6z"/>
		<path class="st4" d="M182.4,209.6c27.3-19.4,44.6-49.8,47.5-83.2c-30.5-13.8-65.4-13.7-95.8,0.4
			C137.3,160.2,155,190.4,182.4,209.6z"/>
		<g class="st5">
			<path class="st0" d="M164.4,134h4.2v5.6c-0.7,0.2-1.3,0.4-1.9,0.5c-0.6,0.1-1.2,0.1-1.9,0.1c-1.6,0-2.9-0.5-3.7-1.4
				c-0.9-0.9-1.3-2.3-1.3-4.1c0-1.7,0.5-3.1,1.5-4c1-1,2.4-1.4,4.1-1.4c1.1,0,2.2,0.2,3.2,0.7l-0.8,1.8c-0.8-0.4-1.6-0.6-2.4-0.6
				c-1,0-1.8,0.3-2.4,1s-0.9,1.5-0.9,2.7c0,1.2,0.2,2,0.7,2.7c0.5,0.6,1.2,0.9,2.1,0.9c0.5,0,1,0,1.4-0.1v-2.2h-2V134z"/>
			<path class="st0" d="M175.6,131.7c0.3,0,0.6,0,0.8,0.1l-0.2,2.1c-0.2,0-0.4-0.1-0.7-0.1c-0.7,0-1.3,0.2-1.7,0.5
				c-0.4,0.4-0.6,0.9-0.6,1.5v4.2H171v-8.2h1.7l0.3,1.4h0.1c0.3-0.5,0.6-0.8,1-1.1C174.6,131.8,175.1,131.7,175.6,131.7z"/>
			<path class="st0" d="M183,140l-0.4-1.1h-0.1c-0.4,0.5-0.8,0.8-1.2,1c-0.4,0.2-0.9,0.3-1.6,0.3c-0.8,0-1.4-0.2-1.9-0.7
				c-0.5-0.4-0.7-1.1-0.7-1.9c0-0.9,0.3-1.5,0.9-1.9c0.6-0.4,1.5-0.6,2.8-0.7l1.4,0v-0.4c0-0.8-0.4-1.2-1.3-1.2
				c-0.7,0-1.4,0.2-2.3,0.6l-0.7-1.5c0.9-0.5,2-0.7,3.1-0.7c1.1,0,1.9,0.2,2.5,0.7s0.9,1.2,0.9,2.2v5.5H183z M182.4,136.2l-0.9,0
				c-0.6,0-1.1,0.1-1.5,0.4s-0.5,0.5-0.5,1c0,0.6,0.4,0.9,1.1,0.9c0.5,0,0.9-0.1,1.2-0.4c0.3-0.3,0.5-0.7,0.5-1.2V136.2z"/>
			<path class="st0" d="M191.4,140.2c-1,0-1.7-0.3-2.3-1H189c0.1,0.7,0.1,1.1,0.1,1.2v3.3h-2.2v-11.8h1.8l0.3,1.1h0.1
				c0.5-0.8,1.3-1.2,2.3-1.2c1,0,1.7,0.4,2.3,1.1s0.8,1.8,0.8,3.1c0,0.9-0.1,1.6-0.4,2.3c-0.3,0.6-0.6,1.1-1.1,1.5
				C192.6,140,192,140.2,191.4,140.2z M190.7,133.5c-0.6,0-1,0.2-1.2,0.5c-0.3,0.3-0.4,0.9-0.4,1.7v0.2c0,0.9,0.1,1.5,0.4,1.9
				c0.3,0.4,0.7,0.6,1.2,0.6c1,0,1.5-0.8,1.5-2.5c0-0.8-0.1-1.4-0.4-1.8C191.6,133.7,191.3,133.5,190.7,133.5z"/>
			<path class="st0" d="M203.9,140h-2.2v-4.8c0-1.2-0.4-1.8-1.3-1.8c-0.6,0-1.1,0.2-1.4,0.6s-0.4,1.1-0.4,2.1v3.9h-2.2v-11.4h2.2
				v2.3c0,0.2,0,0.6-0.1,1.3l-0.1,0.7h0.1c0.5-0.8,1.3-1.2,2.4-1.2c1,0,1.7,0.3,2.2,0.8c0.5,0.5,0.7,1.3,0.7,2.2V140z"/>
		</g>
		<g class="st5">
			<path class="st0" d="M174.4,152.6c0,1.8-0.5,3.1-1.5,4.1c-1,0.9-2.5,1.4-4.3,1.4h-3v-10.7h3.4c1.7,0,3.1,0.5,4.1,1.4
				C173.9,149.6,174.4,150.9,174.4,152.6z M172,152.6c0-2.3-1-3.4-3-3.4h-1.2v7h1C170.9,156.2,172,155,172,152.6z"/>
			<path class="st0" d="M181.6,158l-0.4-1.1h-0.1c-0.4,0.5-0.8,0.8-1.2,1c-0.4,0.2-0.9,0.3-1.6,0.3c-0.8,0-1.4-0.2-1.9-0.7
				c-0.5-0.4-0.7-1.1-0.7-1.9c0-0.9,0.3-1.5,0.9-1.9c0.6-0.4,1.5-0.6,2.8-0.7l1.4,0v-0.4c0-0.8-0.4-1.2-1.3-1.2
				c-0.7,0-1.4,0.2-2.3,0.6l-0.7-1.5c0.9-0.5,2-0.7,3.1-0.7c1.1,0,1.9,0.2,2.5,0.7s0.9,1.2,0.9,2.2v5.5H181.6z M181,154.2l-0.9,0
				c-0.6,0-1.1,0.1-1.5,0.4s-0.5,0.5-0.5,1c0,0.6,0.4,0.9,1.1,0.9c0.5,0,0.9-0.1,1.2-0.4c0.3-0.3,0.5-0.7,0.5-1.2V154.2z"/>
			<path class="st0" d="M188.9,156.4c0.4,0,0.9-0.1,1.4-0.3v1.7c-0.6,0.2-1.2,0.4-2.1,0.4c-0.9,0-1.5-0.2-2-0.7
				c-0.4-0.5-0.6-1.1-0.6-2v-3.9h-1.1v-0.9l1.2-0.7l0.6-1.7h1.4v1.7h2.3v1.7H188v3.9c0,0.3,0.1,0.6,0.3,0.7
				C188.4,156.3,188.7,156.4,188.9,156.4z"/>
			<path class="st0" d="M197.2,158l-0.4-1.1h-0.1c-0.4,0.5-0.8,0.8-1.2,1c-0.4,0.2-0.9,0.3-1.6,0.3c-0.8,0-1.4-0.2-1.9-0.7
				c-0.5-0.4-0.7-1.1-0.7-1.9c0-0.9,0.3-1.5,0.9-1.9c0.6-0.4,1.5-0.6,2.8-0.7l1.4,0v-0.4c0-0.8-0.4-1.2-1.3-1.2
				c-0.7,0-1.4,0.2-2.3,0.6l-0.7-1.5c0.9-0.5,2-0.7,3.1-0.7c1.1,0,1.9,0.2,2.5,0.7s0.9,1.2,0.9,2.2v5.5H197.2z M196.5,154.2l-0.9,0
				c-0.6,0-1.1,0.1-1.5,0.4s-0.5,0.5-0.5,1c0,0.6,0.4,0.9,1.1,0.9c0.5,0,0.9-0.1,1.2-0.4c0.3-0.3,0.5-0.7,0.5-1.2V154.2z"/>
		</g>
		<g class="st5">
			<path class="st0" d="M161.8,173.1c0,1-0.3,1.7-1,2.3c-0.7,0.6-1.7,0.8-2.9,0.8c-1.1,0-2.2-0.2-3-0.6v-2.1
				c0.7,0.3,1.3,0.5,1.8,0.7c0.5,0.1,1,0.2,1.4,0.2c0.5,0,0.9-0.1,1.1-0.3c0.3-0.2,0.4-0.5,0.4-0.8c0-0.2-0.1-0.4-0.2-0.6
				c-0.1-0.2-0.3-0.3-0.5-0.5c-0.2-0.2-0.7-0.4-1.4-0.7c-0.7-0.3-1.1-0.6-1.5-0.9s-0.6-0.6-0.8-1s-0.3-0.8-0.3-1.3
				c0-0.9,0.3-1.7,1-2.2c0.6-0.5,1.5-0.8,2.7-0.8c0.6,0,1.1,0.1,1.6,0.2c0.5,0.1,1,0.3,1.6,0.6l-0.7,1.8c-0.6-0.2-1-0.4-1.4-0.5
				c-0.4-0.1-0.7-0.1-1.1-0.1c-0.4,0-0.8,0.1-1,0.3s-0.3,0.5-0.3,0.8c0,0.2,0,0.4,0.1,0.5c0.1,0.1,0.2,0.3,0.4,0.4
				c0.2,0.1,0.7,0.4,1.4,0.8c1,0.5,1.7,1,2.1,1.4C161.6,171.8,161.8,172.4,161.8,173.1z"/>
			<path class="st0" d="M166.9,176.2c-2.5,0-3.8-1.4-3.8-4.2c0-1.4,0.3-2.5,1-3.2c0.7-0.7,1.7-1.1,3-1.1c0.9,0,1.8,0.2,2.5,0.6
				L169,170c-0.4-0.1-0.7-0.3-1-0.3c-0.3-0.1-0.6-0.1-0.9-0.1c-1.2,0-1.7,0.8-1.7,2.5c0,1.6,0.6,2.4,1.7,2.4c0.4,0,0.8-0.1,1.2-0.2
				c0.4-0.1,0.7-0.3,1.1-0.5v1.9c-0.4,0.2-0.7,0.4-1.1,0.5C167.9,176.1,167.4,176.2,166.9,176.2z"/>
			<path class="st0" d="M171.2,165.7c0-0.7,0.4-1.1,1.2-1.1s1.2,0.4,1.2,1.1c0,0.3-0.1,0.6-0.3,0.8c-0.2,0.2-0.5,0.3-0.9,0.3
				C171.6,166.8,171.2,166.5,171.2,165.7z M173.5,176h-2.2v-8.2h2.2V176z"/>
			<path class="st0" d="M179.5,176.2c-1.3,0-2.3-0.4-3.1-1.1c-0.7-0.7-1.1-1.8-1.1-3.1c0-1.4,0.3-2.4,1-3.2c0.7-0.8,1.6-1.1,2.8-1.1
				c1.2,0,2.1,0.3,2.7,1s1,1.6,1,2.7v1.1h-5.3c0,0.6,0.2,1.1,0.6,1.5s0.8,0.5,1.5,0.5c0.5,0,1-0.1,1.4-0.2s0.9-0.3,1.4-0.5v1.7
				c-0.4,0.2-0.8,0.3-1.3,0.4C180.7,176.1,180.2,176.2,179.5,176.2z M179.2,169.3c-0.5,0-0.8,0.2-1.1,0.5c-0.3,0.3-0.4,0.7-0.5,1.3
				h3.1c0-0.6-0.2-1-0.4-1.3C180.1,169.4,179.7,169.3,179.2,169.3z"/>
			<path class="st0" d="M192.3,176H190v-4.8c0-0.6-0.1-1-0.3-1.3c-0.2-0.3-0.5-0.4-1-0.4c-0.6,0-1.1,0.2-1.4,0.6
				c-0.3,0.4-0.4,1.1-0.4,2.1v3.9h-2.2v-8.2h1.7l0.3,1h0.1c0.2-0.4,0.6-0.7,1-0.9c0.4-0.2,0.9-0.3,1.5-0.3c1,0,1.7,0.3,2.2,0.8
				c0.5,0.5,0.7,1.3,0.7,2.2V176z"/>
			<path class="st0" d="M197.9,176.2c-2.5,0-3.8-1.4-3.8-4.2c0-1.4,0.3-2.5,1-3.2c0.7-0.7,1.7-1.1,3-1.1c0.9,0,1.8,0.2,2.5,0.6
				L200,170c-0.4-0.1-0.7-0.3-1-0.3c-0.3-0.1-0.6-0.1-0.9-0.1c-1.2,0-1.7,0.8-1.7,2.5c0,1.6,0.6,2.4,1.7,2.4c0.4,0,0.8-0.1,1.2-0.2
				c0.4-0.1,0.7-0.3,1.1-0.5v1.9c-0.4,0.2-0.7,0.4-1.1,0.5C198.9,176.1,198.4,176.2,197.9,176.2z"/>
			<path class="st0" d="M206,176.2c-1.3,0-2.3-0.4-3.1-1.1c-0.7-0.7-1.1-1.8-1.1-3.1c0-1.4,0.3-2.4,1-3.2c0.7-0.8,1.6-1.1,2.8-1.1
				c1.2,0,2.1,0.3,2.7,1s1,1.6,1,2.7v1.1H204c0,0.6,0.2,1.1,0.6,1.5s0.8,0.5,1.5,0.5c0.5,0,1-0.1,1.4-0.2s0.9-0.3,1.4-0.5v1.7
				c-0.4,0.2-0.8,0.3-1.3,0.4C207.2,176.1,206.6,176.2,206,176.2z M205.7,169.3c-0.5,0-0.8,0.2-1.1,0.5c-0.3,0.3-0.4,0.7-0.5,1.3
				h3.1c0-0.6-0.2-1-0.4-1.3C206.5,169.4,206.1,169.3,205.7,169.3z"/>
		</g>
		<g class="st5">
			<path class="st0" d="M269.4,51.7h3.9V57c-0.6,0.2-1.3,0.4-1.9,0.4c-0.6,0.1-1.2,0.1-1.9,0.1c-1.6,0-2.9-0.5-3.8-1.4
				c-0.9-1-1.3-2.3-1.3-4.1c0-1.7,0.5-3.1,1.5-4c1-1,2.4-1.5,4.1-1.5c1.1,0,2.2,0.2,3.2,0.6l-0.6,1.5c-0.9-0.4-1.7-0.6-2.6-0.6
				c-1.1,0-2,0.4-2.7,1.1c-0.7,0.7-1,1.7-1,2.9c0,1.3,0.3,2.3,0.9,3c0.6,0.7,1.5,1,2.6,1c0.6,0,1.2-0.1,1.8-0.2v-2.8h-2.2V51.7z"/>
			<path class="st0" d="M279.8,49.2c0.3,0,0.6,0,0.9,0.1l-0.2,1.6c-0.2-0.1-0.5-0.1-0.8-0.1c-0.7,0-1.2,0.2-1.7,0.7
				c-0.4,0.5-0.6,1-0.6,1.8v4.2h-1.7v-8.1h1.3l0.2,1.4h0.1c0.3-0.5,0.6-0.9,1.1-1.2C278.8,49.4,279.3,49.2,279.8,49.2z"/>
			<path class="st0" d="M287.2,57.5l-0.3-1.1h-0.1c-0.4,0.5-0.8,0.8-1.2,1c-0.4,0.2-0.9,0.3-1.5,0.3c-0.8,0-1.4-0.2-1.9-0.6
				c-0.4-0.4-0.7-1-0.7-1.8c0-0.8,0.3-1.5,0.9-1.9c0.6-0.4,1.6-0.7,2.8-0.7l1.4,0v-0.4c0-0.5-0.1-0.9-0.4-1.2
				c-0.2-0.3-0.6-0.4-1.1-0.4c-0.4,0-0.8,0.1-1.2,0.2c-0.4,0.1-0.7,0.3-1.1,0.4l-0.6-1.2c0.4-0.2,0.9-0.4,1.4-0.5
				c0.5-0.1,1-0.2,1.5-0.2c1,0,1.8,0.2,2.3,0.7c0.5,0.4,0.8,1.2,0.8,2.1v5.5H287.2z M284.7,56.3c0.6,0,1.1-0.2,1.5-0.5
				c0.4-0.3,0.6-0.8,0.6-1.5v-0.7l-1,0c-0.8,0-1.4,0.2-1.8,0.4c-0.4,0.2-0.6,0.6-0.6,1.1c0,0.4,0.1,0.6,0.3,0.8
				C283.9,56.2,284.2,56.3,284.7,56.3z"/>
			<path class="st0" d="M295,57.6c-1,0-1.8-0.4-2.4-1.1h-0.1c0.1,0.7,0.1,1.1,0.1,1.2v3.3h-1.7V49.4h1.4c0,0.2,0.1,0.5,0.2,1.1h0.1
				c0.5-0.8,1.3-1.2,2.4-1.2c1,0,1.8,0.4,2.4,1.1c0.6,0.7,0.8,1.8,0.8,3.1s-0.3,2.4-0.9,3.1C296.8,57.3,296,57.6,295,57.6z
				 M294.6,50.6c-0.7,0-1.2,0.2-1.5,0.6c-0.3,0.4-0.5,1-0.5,1.9v0.3c0,1,0.2,1.7,0.5,2.1c0.3,0.4,0.8,0.7,1.5,0.7
				c0.6,0,1.1-0.2,1.4-0.7s0.5-1.2,0.5-2.1c0-0.9-0.2-1.6-0.5-2.1C295.7,50.9,295.2,50.6,294.6,50.6z"/>
			<path class="st0" d="M307.3,57.5h-1.7v-5c0-0.6-0.1-1.1-0.4-1.4c-0.3-0.3-0.7-0.5-1.2-0.5c-0.7,0-1.3,0.2-1.6,0.6
				c-0.3,0.4-0.5,1.2-0.5,2.2v4h-1.7V46.1h1.7V49c0,0.5,0,1-0.1,1.5h0.1c0.2-0.4,0.6-0.7,1-0.9c0.4-0.2,0.9-0.3,1.5-0.3
				c2,0,2.9,1,2.9,3V57.5z"/>
		</g>
		<g class="st5">
			<path class="st0" d="M247.5,64.8h1.8l-3.8,10.7h-1.8L240,64.8h1.8l2.2,6.7c0.1,0.3,0.2,0.7,0.4,1.2c0.1,0.5,0.2,0.9,0.3,1.1
				c0.1-0.4,0.2-0.8,0.3-1.3c0.1-0.5,0.2-0.8,0.3-1.1L247.5,64.8z"/>
			<path class="st0" d="M250.5,65.2c0-0.3,0.1-0.5,0.3-0.7c0.2-0.2,0.4-0.2,0.7-0.2c0.3,0,0.5,0.1,0.7,0.2c0.2,0.2,0.3,0.4,0.3,0.7
				c0,0.3-0.1,0.5-0.3,0.7c-0.2,0.2-0.4,0.3-0.7,0.3c-0.3,0-0.6-0.1-0.7-0.3C250.6,65.8,250.5,65.5,250.5,65.2z M252.3,75.5h-1.7
				v-8.1h1.7V75.5z"/>
			<path class="st0" d="M260.2,73.2c0,0.8-0.3,1.4-0.9,1.8c-0.6,0.4-1.4,0.6-2.5,0.6c-1.1,0-1.9-0.2-2.6-0.5v-1.5
				c1,0.4,1.8,0.7,2.7,0.7c1.1,0,1.6-0.3,1.6-1c0-0.2-0.1-0.4-0.2-0.5c-0.1-0.1-0.3-0.3-0.6-0.4s-0.6-0.3-1.1-0.5
				c-0.9-0.4-1.6-0.7-1.9-1.1c-0.3-0.4-0.5-0.8-0.5-1.4c0-0.7,0.3-1.2,0.8-1.6c0.6-0.4,1.3-0.6,2.3-0.6c1,0,1.9,0.2,2.7,0.6
				l-0.6,1.3c-0.9-0.4-1.6-0.5-2.2-0.5c-0.9,0-1.4,0.3-1.4,0.8c0,0.3,0.1,0.5,0.4,0.6c0.2,0.2,0.8,0.4,1.5,0.7
				c0.7,0.3,1.2,0.5,1.5,0.7s0.5,0.5,0.7,0.7C260.1,72.4,260.2,72.8,260.2,73.2z"/>
			<path class="st0" d="M267.8,75.5l-0.2-1.1h-0.1c-0.2,0.4-0.6,0.7-1,0.9c-0.4,0.2-0.9,0.3-1.5,0.3c-1,0-1.7-0.2-2.2-0.7
				s-0.7-1.2-0.7-2.2v-5.3h1.7v5c0,0.6,0.1,1.1,0.4,1.4c0.3,0.3,0.7,0.5,1.2,0.5c0.7,0,1.3-0.2,1.6-0.6c0.3-0.4,0.5-1.2,0.5-2.2v-4
				h1.7v8.1H267.8z"/>
			<path class="st0" d="M276.7,75.5l-0.3-1.1h-0.1c-0.4,0.5-0.8,0.8-1.2,1c-0.4,0.2-0.9,0.3-1.5,0.3c-0.8,0-1.4-0.2-1.9-0.6
				c-0.4-0.4-0.7-1-0.7-1.8c0-0.8,0.3-1.5,0.9-1.9c0.6-0.4,1.6-0.7,2.8-0.7l1.4,0v-0.4c0-0.5-0.1-0.9-0.4-1.2
				c-0.2-0.3-0.6-0.4-1.1-0.4c-0.4,0-0.8,0.1-1.2,0.2c-0.4,0.1-0.7,0.3-1.1,0.4l-0.6-1.2c0.4-0.2,0.9-0.4,1.4-0.5
				c0.5-0.1,1-0.2,1.5-0.2c1,0,1.8,0.2,2.3,0.7c0.5,0.4,0.8,1.2,0.8,2.1v5.5H276.7z M274.1,74.3c0.6,0,1.1-0.2,1.5-0.5
				c0.4-0.3,0.6-0.8,0.6-1.5v-0.7l-1,0c-0.8,0-1.4,0.2-1.8,0.4c-0.4,0.2-0.6,0.6-0.6,1.1c0,0.4,0.1,0.6,0.3,0.8
				C273.4,74.2,273.7,74.3,274.1,74.3z"/>
			<path class="st0" d="M282,75.5h-1.7V64.1h1.7V75.5z"/>
			<path class="st0" d="M284.4,65.2c0-0.3,0.1-0.5,0.3-0.7c0.2-0.2,0.4-0.2,0.7-0.2c0.3,0,0.5,0.1,0.7,0.2c0.2,0.2,0.3,0.4,0.3,0.7
				c0,0.3-0.1,0.5-0.3,0.7c-0.2,0.2-0.4,0.3-0.7,0.3c-0.3,0-0.6-0.1-0.7-0.3C284.5,65.8,284.4,65.5,284.4,65.2z M286.2,75.5h-1.7
				v-8.1h1.7V75.5z"/>
			<path class="st0" d="M294.1,75.5h-6.1v-1.1l4.1-5.7h-3.8v-1.3h5.8v1.2l-4,5.6h4.1V75.5z"/>
			<path class="st0" d="M300.9,75.5l-0.3-1.1h-0.1c-0.4,0.5-0.8,0.8-1.2,1c-0.4,0.2-0.9,0.3-1.5,0.3c-0.8,0-1.4-0.2-1.9-0.6
				c-0.4-0.4-0.7-1-0.7-1.8c0-0.8,0.3-1.5,0.9-1.9c0.6-0.4,1.6-0.7,2.8-0.7l1.4,0v-0.4c0-0.5-0.1-0.9-0.4-1.2
				c-0.2-0.3-0.6-0.4-1.1-0.4c-0.4,0-0.8,0.1-1.2,0.2c-0.4,0.1-0.7,0.3-1.1,0.4l-0.6-1.2c0.4-0.2,0.9-0.4,1.4-0.5
				c0.5-0.1,1-0.2,1.5-0.2c1,0,1.8,0.2,2.3,0.7c0.5,0.4,0.8,1.2,0.8,2.1v5.5H300.9z M298.3,74.3c0.6,0,1.1-0.2,1.5-0.5
				c0.4-0.3,0.6-0.8,0.6-1.5v-0.7l-1,0c-0.8,0-1.4,0.2-1.8,0.4c-0.4,0.2-0.6,0.6-0.6,1.1c0,0.4,0.1,0.6,0.3,0.8
				C297.6,74.2,297.9,74.3,298.3,74.3z"/>
			<path class="st0" d="M307.6,74.2c0.4,0,0.8-0.1,1.3-0.2v1.3c-0.2,0.1-0.4,0.2-0.7,0.2c-0.3,0.1-0.6,0.1-0.9,0.1
				c-1.6,0-2.4-0.9-2.4-2.6v-4.4h-1.1v-0.8l1.2-0.6l0.6-1.7h1.1v1.8h2.3v1.3h-2.3V73c0,0.4,0.1,0.7,0.3,0.9
				C306.9,74.1,307.2,74.2,307.6,74.2z"/>
			<path class="st0" d="M310.3,65.2c0-0.3,0.1-0.5,0.3-0.7c0.2-0.2,0.4-0.2,0.7-0.2c0.3,0,0.5,0.1,0.7,0.2c0.2,0.2,0.3,0.4,0.3,0.7
				c0,0.3-0.1,0.5-0.3,0.7c-0.2,0.2-0.4,0.3-0.7,0.3c-0.3,0-0.6-0.1-0.7-0.3C310.4,65.8,310.3,65.5,310.3,65.2z M312.2,75.5h-1.7
				v-8.1h1.7V75.5z"/>
			<path class="st0" d="M321.8,71.4c0,1.3-0.3,2.4-1,3.1s-1.6,1.1-2.8,1.1c-0.8,0-1.4-0.2-2-0.5s-1-0.8-1.3-1.5s-0.5-1.4-0.5-2.2
				c0-1.3,0.3-2.3,1-3.1s1.6-1.1,2.8-1.1c1.2,0,2.1,0.4,2.8,1.1C321.5,69.1,321.8,70.1,321.8,71.4z M315.9,71.4
				c0,1.9,0.7,2.8,2.1,2.8c1.4,0,2.1-0.9,2.1-2.8c0-1.9-0.7-2.8-2.1-2.8c-0.7,0-1.2,0.2-1.6,0.7C316.1,69.8,315.9,70.5,315.9,71.4z"
				/>
			<path class="st0" d="M330.9,75.5h-1.7v-5c0-0.6-0.1-1.1-0.4-1.4c-0.3-0.3-0.7-0.5-1.2-0.5c-0.7,0-1.3,0.2-1.6,0.6
				s-0.5,1.1-0.5,2.2v4h-1.7v-8.1h1.3l0.2,1.1h0.1c0.2-0.4,0.6-0.7,1-0.9s0.9-0.3,1.5-0.3c1.9,0,2.9,1,2.9,3V75.5z"/>
		</g>
		<g class="st5">
			<path class="st0" d="M61.6,51.7h3.9V57c-0.6,0.2-1.3,0.4-1.9,0.4c-0.6,0.1-1.2,0.1-1.9,0.1c-1.6,0-2.9-0.5-3.8-1.4
				c-0.9-1-1.3-2.3-1.3-4.1c0-1.7,0.5-3.1,1.5-4c1-1,2.4-1.5,4.1-1.5c1.1,0,2.2,0.2,3.2,0.6l-0.6,1.5c-0.9-0.4-1.7-0.6-2.6-0.6
				c-1.1,0-2,0.4-2.7,1.1c-0.7,0.7-1,1.7-1,2.9c0,1.3,0.3,2.3,0.9,3c0.6,0.7,1.5,1,2.6,1c0.6,0,1.2-0.1,1.8-0.2v-2.8h-2.2V51.7z"/>
			<path class="st0" d="M72,49.2c0.3,0,0.6,0,0.9,0.1l-0.2,1.6c-0.2-0.1-0.5-0.1-0.8-0.1c-0.7,0-1.2,0.2-1.7,0.7
				c-0.4,0.5-0.6,1-0.6,1.8v4.2h-1.7v-8.1h1.3l0.2,1.4h0.1c0.3-0.5,0.6-0.9,1.1-1.2C71.1,49.4,71.5,49.2,72,49.2z"/>
			<path class="st0" d="M79.5,57.5l-0.3-1.1h-0.1c-0.4,0.5-0.8,0.8-1.2,1c-0.4,0.2-0.9,0.3-1.5,0.3c-0.8,0-1.4-0.2-1.9-0.6
				c-0.4-0.4-0.7-1-0.7-1.8c0-0.8,0.3-1.5,0.9-1.9c0.6-0.4,1.6-0.7,2.8-0.7l1.4,0v-0.4c0-0.5-0.1-0.9-0.4-1.2
				c-0.2-0.3-0.6-0.4-1.1-0.4c-0.4,0-0.8,0.1-1.2,0.2c-0.4,0.1-0.7,0.3-1.1,0.4l-0.6-1.2c0.4-0.2,0.9-0.4,1.4-0.5
				c0.5-0.1,1-0.2,1.5-0.2c1,0,1.8,0.2,2.3,0.7c0.5,0.4,0.8,1.2,0.8,2.1v5.5H79.5z M76.9,56.3c0.6,0,1.1-0.2,1.5-0.5
				c0.4-0.3,0.6-0.8,0.6-1.5v-0.7l-1,0c-0.8,0-1.4,0.2-1.8,0.4c-0.4,0.2-0.6,0.6-0.6,1.1c0,0.4,0.1,0.6,0.3,0.8
				C76.1,56.2,76.5,56.3,76.9,56.3z"/>
			<path class="st0" d="M87.2,57.6c-1,0-1.8-0.4-2.4-1.1h-0.1c0.1,0.7,0.1,1.1,0.1,1.2v3.3h-1.7V49.4h1.4c0,0.2,0.1,0.5,0.2,1.1h0.1
				c0.5-0.8,1.3-1.2,2.4-1.2c1,0,1.8,0.4,2.4,1.1c0.6,0.7,0.8,1.8,0.8,3.1s-0.3,2.4-0.9,3.1C89,57.3,88.2,57.6,87.2,57.6z
				 M86.8,50.6c-0.7,0-1.2,0.2-1.5,0.6c-0.3,0.4-0.5,1-0.5,1.9v0.3c0,1,0.2,1.7,0.5,2.1c0.3,0.4,0.8,0.7,1.5,0.7
				c0.6,0,1.1-0.2,1.4-0.7s0.5-1.2,0.5-2.1c0-0.9-0.2-1.6-0.5-2.1C87.9,50.9,87.4,50.6,86.8,50.6z"/>
			<path class="st0" d="M99.6,57.5h-1.7v-5c0-0.6-0.1-1.1-0.4-1.4c-0.3-0.3-0.7-0.5-1.2-0.5c-0.7,0-1.3,0.2-1.6,0.6
				c-0.3,0.4-0.5,1.2-0.5,2.2v4h-1.7V46.1h1.7V49c0,0.5,0,1-0.1,1.5h0.1c0.2-0.4,0.6-0.7,1-0.9c0.4-0.2,0.9-0.3,1.5-0.3
				c2,0,2.9,1,2.9,3V57.5z"/>
		</g>
		<g class="st5">
			<path class="st0" d="M46.7,75.5l-1.1-3h-4.1l-1,3h-1.8l4-10.8h1.9l4,10.8H46.7z M45.1,71l-1-2.9c-0.1-0.2-0.2-0.5-0.3-0.9
				c-0.1-0.4-0.2-0.7-0.3-0.9c-0.1,0.6-0.3,1.3-0.6,2L42,71H45.1z"/>
			<path class="st0" d="M51.5,75.5h-1.7V64.1h1.7V75.5z"/>
			<path class="st0" d="M60.8,67.4v0.9l-1.4,0.3c0.1,0.2,0.2,0.4,0.3,0.6s0.1,0.5,0.1,0.8c0,0.8-0.3,1.5-0.9,2s-1.4,0.7-2.4,0.7
				c-0.3,0-0.5,0-0.7-0.1c-0.4,0.2-0.6,0.5-0.6,0.8c0,0.2,0.1,0.3,0.3,0.4s0.5,0.1,1,0.1H58c0.9,0,1.6,0.2,2,0.6s0.7,0.9,0.7,1.6
				c0,0.9-0.4,1.6-1.1,2.1s-1.9,0.7-3.3,0.7c-1.1,0-1.9-0.2-2.5-0.6s-0.9-0.9-0.9-1.7c0-0.5,0.2-0.9,0.5-1.3
				c0.3-0.3,0.8-0.6,1.3-0.7c-0.2-0.1-0.4-0.3-0.6-0.5c-0.1-0.2-0.2-0.4-0.2-0.7c0-0.3,0.1-0.6,0.3-0.8s0.4-0.4,0.8-0.6
				c-0.4-0.2-0.8-0.5-1-0.9c-0.3-0.4-0.4-0.9-0.4-1.4c0-0.9,0.3-1.6,0.8-2c0.6-0.5,1.3-0.7,2.4-0.7c0.2,0,0.5,0,0.7,0
				c0.3,0,0.4,0.1,0.6,0.1H60.8z M54.4,76.7c0,0.4,0.2,0.7,0.5,0.9c0.3,0.2,0.8,0.3,1.4,0.3c0.9,0,1.6-0.1,2.1-0.4s0.7-0.6,0.7-1.1
				c0-0.4-0.1-0.6-0.4-0.8c-0.3-0.1-0.7-0.2-1.4-0.2H56c-0.5,0-0.9,0.1-1.2,0.3C54.6,76,54.4,76.3,54.4,76.7z M55.2,70
				c0,0.5,0.1,0.9,0.4,1.2s0.6,0.4,1.1,0.4c1,0,1.5-0.5,1.5-1.6c0-0.5-0.1-0.9-0.4-1.2c-0.2-0.3-0.6-0.4-1.1-0.4
				c-0.5,0-0.9,0.1-1.1,0.4C55.3,69,55.2,69.5,55.2,70z"/>
			<path class="st0" d="M69.5,71.4c0,1.3-0.3,2.4-1,3.1s-1.6,1.1-2.8,1.1c-0.8,0-1.4-0.2-2-0.5s-1-0.8-1.3-1.5s-0.5-1.4-0.5-2.2
				c0-1.3,0.3-2.3,1-3.1s1.6-1.1,2.8-1.1c1.2,0,2.1,0.4,2.8,1.1C69.1,69.1,69.5,70.1,69.5,71.4z M63.6,71.4c0,1.9,0.7,2.8,2.1,2.8
				c1.4,0,2.1-0.9,2.1-2.8c0-1.9-0.7-2.8-2.1-2.8c-0.7,0-1.2,0.2-1.6,0.7C63.7,69.8,63.6,70.5,63.6,71.4z"/>
			<path class="st0" d="M75.6,67.2c0.3,0,0.6,0,0.9,0.1l-0.2,1.6c-0.2-0.1-0.5-0.1-0.8-0.1c-0.7,0-1.2,0.2-1.7,0.7
				c-0.4,0.5-0.6,1-0.6,1.8v4.2h-1.7v-8.1h1.3l0.2,1.4h0.1c0.3-0.5,0.6-0.9,1.1-1.2C74.6,67.4,75.1,67.2,75.6,67.2z"/>
			<path class="st0" d="M77.8,65.2c0-0.3,0.1-0.5,0.3-0.7c0.2-0.2,0.4-0.2,0.7-0.2c0.3,0,0.5,0.1,0.7,0.2c0.2,0.2,0.3,0.4,0.3,0.7
				c0,0.3-0.1,0.5-0.3,0.7c-0.2,0.2-0.4,0.3-0.7,0.3c-0.3,0-0.6-0.1-0.7-0.3C77.9,65.8,77.8,65.5,77.8,65.2z M79.6,75.5h-1.7v-8.1
				h1.7V75.5z"/>
			<path class="st0" d="M85.1,74.2c0.4,0,0.8-0.1,1.3-0.2v1.3c-0.2,0.1-0.4,0.2-0.7,0.2c-0.3,0.1-0.6,0.1-0.9,0.1
				c-1.6,0-2.4-0.9-2.4-2.6v-4.4h-1.1v-0.8l1.2-0.6l0.6-1.7H84v1.8h2.3v1.3H84V73c0,0.4,0.1,0.7,0.3,0.9
				C84.5,74.1,84.8,74.2,85.1,74.2z"/>
			<path class="st0" d="M95.1,75.5h-1.7v-5c0-0.6-0.1-1.1-0.4-1.4c-0.3-0.3-0.7-0.5-1.2-0.5c-0.7,0-1.3,0.2-1.6,0.6
				c-0.3,0.4-0.5,1.2-0.5,2.2v4H88V64.1h1.7V67c0,0.5,0,1-0.1,1.5h0.1c0.2-0.4,0.6-0.7,1-0.9c0.4-0.2,0.9-0.3,1.5-0.3
				c2,0,2.9,1,2.9,3V75.5z"/>
			<path class="st0" d="M104.3,75.5h-1.7v-5c0-0.6-0.1-1.1-0.4-1.4c-0.2-0.3-0.6-0.5-1.1-0.5c-0.7,0-1.2,0.2-1.5,0.6
				c-0.3,0.4-0.5,1.2-0.5,2.2v4h-1.7v-8.1h1.3l0.2,1.1h0.1c0.2-0.4,0.6-0.7,1-0.9c0.4-0.2,0.9-0.3,1.4-0.3c1.2,0,2.1,0.4,2.5,1.3
				h0.1c0.2-0.4,0.6-0.7,1-0.9s0.9-0.3,1.5-0.3c1,0,1.7,0.2,2.1,0.7s0.7,1.2,0.7,2.2v5.3h-1.7v-5c0-0.6-0.1-1.1-0.4-1.4
				c-0.2-0.3-0.6-0.5-1.1-0.5c-0.7,0-1.2,0.2-1.5,0.6c-0.3,0.4-0.5,1.1-0.5,1.9V75.5z"/>
			<path class="st0" d="M117.3,73.2c0,0.8-0.3,1.4-0.9,1.8c-0.6,0.4-1.4,0.6-2.5,0.6c-1.1,0-1.9-0.2-2.6-0.5v-1.5
				c1,0.4,1.8,0.7,2.7,0.7c1.1,0,1.6-0.3,1.6-1c0-0.2-0.1-0.4-0.2-0.5c-0.1-0.1-0.3-0.3-0.6-0.4s-0.6-0.3-1.1-0.5
				c-0.9-0.4-1.6-0.7-1.9-1.1c-0.3-0.4-0.5-0.8-0.5-1.4c0-0.7,0.3-1.2,0.8-1.6c0.6-0.4,1.3-0.6,2.3-0.6c1,0,1.9,0.2,2.7,0.6
				l-0.6,1.3c-0.9-0.4-1.6-0.5-2.2-0.5c-0.9,0-1.4,0.3-1.4,0.8c0,0.3,0.1,0.5,0.4,0.6c0.2,0.2,0.8,0.4,1.5,0.7
				c0.7,0.3,1.2,0.5,1.5,0.7s0.5,0.5,0.7,0.7C117.2,72.4,117.3,72.8,117.3,73.2z"/>
		</g>
		<g class="st5">
			<path class="st0" d="M138.1,244.1h3.9v5.4c-0.6,0.2-1.3,0.4-1.9,0.4c-0.6,0.1-1.2,0.1-1.9,0.1c-1.6,0-2.9-0.5-3.8-1.4
				c-0.9-1-1.3-2.3-1.3-4.1c0-1.7,0.5-3.1,1.5-4c1-1,2.4-1.5,4.1-1.5c1.1,0,2.2,0.2,3.2,0.6l-0.6,1.5c-0.9-0.4-1.7-0.6-2.6-0.6
				c-1.1,0-2,0.4-2.7,1.1c-0.7,0.7-1,1.7-1,2.9c0,1.3,0.3,2.3,0.9,3c0.6,0.7,1.5,1,2.6,1c0.6,0,1.2-0.1,1.8-0.2v-2.8h-2.2V244.1z"/>
			<path class="st0" d="M148.5,241.7c0.3,0,0.6,0,0.9,0.1l-0.2,1.6c-0.2-0.1-0.5-0.1-0.8-0.1c-0.7,0-1.2,0.2-1.7,0.7
				c-0.4,0.5-0.6,1-0.6,1.8v4.2h-1.7v-8.1h1.3l0.2,1.4h0.1c0.3-0.5,0.6-0.9,1.1-1.2C147.6,241.8,148,241.7,148.5,241.7z"/>
			<path class="st0" d="M156,249.9l-0.3-1.1h-0.1c-0.4,0.5-0.8,0.8-1.2,1c-0.4,0.2-0.9,0.3-1.5,0.3c-0.8,0-1.4-0.2-1.9-0.6
				c-0.4-0.4-0.7-1-0.7-1.8c0-0.8,0.3-1.5,0.9-1.9c0.6-0.4,1.6-0.7,2.8-0.7l1.4,0v-0.4c0-0.5-0.1-0.9-0.4-1.2
				c-0.2-0.3-0.6-0.4-1.1-0.4c-0.4,0-0.8,0.1-1.2,0.2c-0.4,0.1-0.7,0.3-1.1,0.4l-0.6-1.2c0.4-0.2,0.9-0.4,1.4-0.5
				c0.5-0.1,1-0.2,1.5-0.2c1,0,1.8,0.2,2.3,0.7c0.5,0.4,0.8,1.2,0.8,2.1v5.5H156z M153.4,248.7c0.6,0,1.1-0.2,1.5-0.5
				c0.4-0.3,0.6-0.8,0.6-1.5V246l-1,0c-0.8,0-1.4,0.2-1.8,0.4c-0.4,0.2-0.6,0.6-0.6,1.1c0,0.4,0.1,0.6,0.3,0.8
				C152.6,248.6,153,248.7,153.4,248.7z"/>
			<path class="st0" d="M163.7,250.1c-1,0-1.8-0.4-2.4-1.1h-0.1c0.1,0.7,0.1,1.1,0.1,1.2v3.3h-1.7v-11.7h1.4c0,0.2,0.1,0.5,0.2,1.1
				h0.1c0.5-0.8,1.3-1.2,2.4-1.2c1,0,1.8,0.4,2.4,1.1c0.6,0.7,0.8,1.8,0.8,3.1s-0.3,2.4-0.9,3.1
				C165.5,249.7,164.7,250.1,163.7,250.1z M163.3,243.1c-0.7,0-1.2,0.2-1.5,0.6c-0.3,0.4-0.5,1-0.5,1.9v0.3c0,1,0.2,1.7,0.5,2.1
				c0.3,0.4,0.8,0.7,1.5,0.7c0.6,0,1.1-0.2,1.4-0.7s0.5-1.2,0.5-2.1c0-0.9-0.2-1.6-0.5-2.1C164.4,243.3,163.9,243.1,163.3,243.1z"/>
			<path class="st0" d="M176.1,249.9h-1.7v-5c0-0.6-0.1-1.1-0.4-1.4c-0.3-0.3-0.7-0.5-1.2-0.5c-0.7,0-1.3,0.2-1.6,0.6
				c-0.3,0.4-0.5,1.2-0.5,2.2v4h-1.7v-11.4h1.7v2.9c0,0.5,0,1-0.1,1.5h0.1c0.2-0.4,0.6-0.7,1-0.9c0.4-0.2,0.9-0.3,1.5-0.3
				c2,0,2.9,1,2.9,3V249.9z"/>
			<path class="st0" d="M192,244.5c0,1.3-0.2,2.4-0.7,3.3c-0.5,0.9-1.2,1.5-2.2,1.9l2.6,2.8h-2.4l-2-2.4H187c-1.6,0-2.9-0.5-3.7-1.4
				c-0.9-1-1.3-2.3-1.3-4.1s0.4-3.1,1.3-4.1c0.9-0.9,2.1-1.4,3.7-1.4c1.6,0,2.8,0.5,3.7,1.4S192,242.8,192,244.5z M183.9,244.5
				c0,1.3,0.3,2.3,0.8,3c0.5,0.7,1.3,1,2.4,1c1,0,1.8-0.3,2.4-1c0.5-0.7,0.8-1.7,0.8-3c0-1.3-0.3-2.3-0.8-3c-0.5-0.7-1.3-1-2.3-1
				c-1,0-1.8,0.3-2.4,1C184.1,242.2,183.9,243.2,183.9,244.5z"/>
			<path class="st0" d="M199.9,249.9l-0.2-1.1h-0.1c-0.2,0.4-0.6,0.7-1,0.9c-0.4,0.2-0.9,0.3-1.5,0.3c-1,0-1.7-0.2-2.2-0.7
				s-0.7-1.2-0.7-2.2v-5.3h1.7v5c0,0.6,0.1,1.1,0.4,1.4c0.3,0.3,0.7,0.5,1.2,0.5c0.7,0,1.3-0.2,1.6-0.6c0.3-0.4,0.5-1.2,0.5-2.2v-4
				h1.7v8.1H199.9z"/>
			<path class="st0" d="M207.2,250.1c-1.3,0-2.2-0.4-3-1.1c-0.7-0.7-1.1-1.7-1.1-3c0-1.3,0.3-2.4,1-3.1s1.6-1.1,2.7-1.1
				c1.1,0,1.9,0.3,2.5,1c0.6,0.7,0.9,1.5,0.9,2.7v0.9H205c0,0.8,0.2,1.4,0.6,1.8c0.4,0.4,1,0.6,1.7,0.6c0.5,0,0.9,0,1.3-0.1
				c0.4-0.1,0.9-0.2,1.3-0.5v1.4c-0.4,0.2-0.8,0.3-1.3,0.4C208.3,250,207.8,250.1,207.2,250.1z M206.9,243c-0.5,0-1,0.2-1.3,0.5
				c-0.3,0.3-0.5,0.9-0.6,1.5h3.7c0-0.7-0.2-1.2-0.5-1.5C207.9,243.1,207.5,243,206.9,243z"/>
			<path class="st0" d="M216.4,241.7c0.3,0,0.6,0,0.9,0.1l-0.2,1.6c-0.2-0.1-0.5-0.1-0.8-0.1c-0.7,0-1.2,0.2-1.7,0.7
				c-0.4,0.5-0.6,1-0.6,1.8v4.2h-1.7v-8.1h1.3l0.2,1.4h0.1c0.3-0.5,0.6-0.9,1.1-1.2C215.5,241.8,215.9,241.7,216.4,241.7z"/>
			<path class="st0" d="M218.7,239.7c0-0.3,0.1-0.5,0.3-0.7c0.2-0.2,0.4-0.2,0.7-0.2c0.3,0,0.5,0.1,0.7,0.2c0.2,0.2,0.3,0.4,0.3,0.7
				c0,0.3-0.1,0.5-0.3,0.7c-0.2,0.2-0.4,0.3-0.7,0.3c-0.3,0-0.6-0.1-0.7-0.3C218.8,240.2,218.7,240,218.7,239.7z M220.5,249.9h-1.7
				v-8.1h1.7V249.9z"/>
			<path class="st0" d="M226.5,250.1c-1.3,0-2.2-0.4-3-1.1c-0.7-0.7-1.1-1.7-1.1-3c0-1.3,0.3-2.4,1-3.1s1.6-1.1,2.7-1.1
				c1.1,0,1.9,0.3,2.5,1c0.6,0.7,0.9,1.5,0.9,2.7v0.9h-5.4c0,0.8,0.2,1.4,0.6,1.8c0.4,0.4,1,0.6,1.7,0.6c0.5,0,0.9,0,1.3-0.1
				c0.4-0.1,0.9-0.2,1.3-0.5v1.4c-0.4,0.2-0.8,0.3-1.3,0.4C227.6,250,227.1,250.1,226.5,250.1z M226.2,243c-0.5,0-1,0.2-1.3,0.5
				c-0.3,0.3-0.5,0.9-0.6,1.5h3.7c0-0.7-0.2-1.2-0.5-1.5C227.2,243.1,226.7,243,226.2,243z"/>
			<path class="st0" d="M237.1,247.6c0,0.8-0.3,1.4-0.9,1.8c-0.6,0.4-1.4,0.6-2.5,0.6c-1.1,0-1.9-0.2-2.6-0.5v-1.5
				c1,0.4,1.8,0.7,2.7,0.7c1.1,0,1.6-0.3,1.6-1c0-0.2-0.1-0.4-0.2-0.5c-0.1-0.1-0.3-0.3-0.6-0.4s-0.6-0.3-1.1-0.5
				c-0.9-0.4-1.6-0.7-1.9-1.1c-0.3-0.4-0.5-0.8-0.5-1.4c0-0.7,0.3-1.2,0.8-1.6c0.6-0.4,1.3-0.6,2.3-0.6c1,0,1.9,0.2,2.7,0.6
				l-0.6,1.3c-0.9-0.4-1.6-0.5-2.2-0.5c-0.9,0-1.4,0.3-1.4,0.8c0,0.3,0.1,0.5,0.4,0.6c0.2,0.2,0.8,0.4,1.5,0.7
				c0.7,0.3,1.2,0.5,1.5,0.7s0.5,0.5,0.7,0.7C237,246.9,237.1,247.2,237.1,247.6z"/>
		</g>
		<g class="st5">
			<path class="st6" d="M161.9,89l-1.2-3h-3.7l-1.1,3h-1.1l3.7-9.3h0.9l3.6,9.3H161.9z M160.4,85l-1.1-2.9c-0.1-0.4-0.3-0.8-0.4-1.3
				c-0.1,0.4-0.2,0.9-0.4,1.3l-1.1,2.9H160.4z"/>
			<path class="st6" d="M168.9,89v-4.5c0-0.6-0.1-1-0.4-1.3s-0.7-0.4-1.2-0.4c-0.7,0-1.3,0.2-1.6,0.6s-0.5,1-0.5,1.9V89h-1.1v-7h0.9
				l0.2,1h0.1c0.2-0.3,0.5-0.6,0.9-0.8s0.8-0.3,1.3-0.3c0.8,0,1.5,0.2,1.9,0.6s0.6,1,0.6,1.9V89H168.9z"/>
			<path class="st6" d="M176.4,89l-0.2-1h-0.1c-0.3,0.4-0.7,0.7-1,0.9c-0.3,0.2-0.8,0.2-1.3,0.2c-0.7,0-1.2-0.2-1.6-0.5
				c-0.4-0.4-0.6-0.9-0.6-1.5c0-1.4,1.1-2.1,3.4-2.2l1.2,0v-0.4c0-0.5-0.1-0.9-0.4-1.2c-0.2-0.3-0.6-0.4-1.1-0.4
				c-0.6,0-1.2,0.2-2,0.5l-0.3-0.8c0.3-0.2,0.7-0.3,1.1-0.4c0.4-0.1,0.8-0.2,1.2-0.2c0.8,0,1.4,0.2,1.8,0.6c0.4,0.4,0.6,1,0.6,1.8
				V89H176.4z M174.1,88.2c0.7,0,1.2-0.2,1.5-0.5c0.4-0.4,0.6-0.9,0.6-1.5v-0.6l-1.1,0c-0.8,0-1.4,0.2-1.8,0.4
				c-0.4,0.2-0.6,0.6-0.6,1.1c0,0.4,0.1,0.7,0.3,0.9C173.3,88.1,173.6,88.2,174.1,88.2z"/>
			<path class="st6" d="M180.4,89h-1.1v-9.9h1.1V89z"/>
			<path class="st6" d="M181.6,82h1.1l1.5,4c0.3,0.9,0.5,1.6,0.6,2h0.1c0.1-0.2,0.2-0.6,0.3-1.1s0.8-2.1,1.7-4.8h1.1l-3,7.9
				c-0.3,0.8-0.6,1.3-1,1.7c-0.4,0.3-0.9,0.5-1.5,0.5c-0.3,0-0.6,0-1-0.1v-0.8c0.2,0.1,0.5,0.1,0.8,0.1c0.7,0,1.2-0.4,1.5-1.2l0.4-1
				L181.6,82z"/>
			<path class="st6" d="M191.5,88.2c0.2,0,0.4,0,0.5,0c0.2,0,0.3-0.1,0.4-0.1v0.8c-0.1,0.1-0.3,0.1-0.5,0.1c-0.2,0-0.4,0.1-0.6,0.1
				c-1.3,0-2-0.7-2-2.1v-4.1h-1v-0.5l1-0.4l0.4-1.5h0.6V82h2v0.8h-2v4.1c0,0.4,0.1,0.7,0.3,1C190.8,88.1,191.1,88.2,191.5,88.2z"/>
			<path class="st6" d="M193.7,80.1c0-0.2,0.1-0.4,0.2-0.5c0.1-0.1,0.3-0.2,0.4-0.2c0.2,0,0.3,0.1,0.4,0.2c0.1,0.1,0.2,0.3,0.2,0.5
				c0,0.2-0.1,0.4-0.2,0.5c-0.1,0.1-0.3,0.2-0.4,0.2c-0.2,0-0.3-0.1-0.4-0.2C193.8,80.5,193.7,80.4,193.7,80.1z M194.9,89h-1.1v-7
				h1.1V89z"/>
			<path class="st6" d="M199.9,89.1c-1,0-1.8-0.3-2.3-0.9c-0.6-0.6-0.8-1.5-0.8-2.6c0-1.2,0.3-2.1,0.8-2.7s1.4-1,2.4-1
				c0.3,0,0.7,0,1,0.1c0.3,0.1,0.6,0.2,0.8,0.3l-0.3,0.9c-0.2-0.1-0.5-0.2-0.8-0.2c-0.3-0.1-0.5-0.1-0.7-0.1c-1.4,0-2.1,0.9-2.1,2.7
				c0,0.9,0.2,1.5,0.5,2c0.3,0.5,0.9,0.7,1.5,0.7c0.6,0,1.2-0.1,1.8-0.4v0.9C201.2,89,200.6,89.1,199.9,89.1z"/>
			<path class="st6" d="M207.8,87.1c0,0.6-0.2,1.1-0.7,1.5c-0.5,0.4-1.2,0.5-2,0.5c-0.9,0-1.6-0.1-2.2-0.4v-1
				c0.3,0.2,0.7,0.3,1.1,0.4s0.8,0.1,1.1,0.1c0.6,0,1-0.1,1.3-0.3c0.3-0.2,0.4-0.4,0.4-0.8c0-0.3-0.1-0.5-0.4-0.7
				c-0.2-0.2-0.7-0.4-1.4-0.7c-0.6-0.2-1.1-0.5-1.4-0.6c-0.3-0.2-0.5-0.4-0.6-0.6c-0.1-0.2-0.2-0.5-0.2-0.8c0-0.6,0.2-1,0.7-1.3
				c0.5-0.3,1.1-0.5,1.9-0.5c0.7,0,1.5,0.2,2.2,0.5l-0.4,0.9c-0.7-0.3-1.3-0.4-1.9-0.4c-0.5,0-0.9,0.1-1.1,0.2s-0.4,0.4-0.4,0.6
				c0,0.2,0,0.3,0.1,0.5c0.1,0.1,0.2,0.3,0.5,0.4c0.2,0.1,0.6,0.3,1.2,0.5c0.8,0.3,1.4,0.6,1.7,0.9S207.8,86.6,207.8,87.1z"/>
		</g>
		<g class="st5">
			<path class="st6" d="M99.2,192.2h-1.1v-9.3h5.2v1h-4.1v3.4h3.8v1h-3.8V192.2z"/>
			<path class="st6" d="M107.6,192.3c-1,0-1.8-0.3-2.4-0.9c-0.6-0.6-0.9-1.5-0.9-2.6c0-1.1,0.3-2,0.8-2.7c0.6-0.7,1.3-1,2.2-1
				c0.9,0,1.6,0.3,2.1,0.9s0.8,1.3,0.8,2.3v0.7h-4.8c0,0.8,0.2,1.4,0.6,1.9c0.4,0.4,0.9,0.6,1.7,0.6c0.7,0,1.5-0.2,2.2-0.5v0.9
				c-0.4,0.2-0.7,0.3-1.1,0.3C108.5,192.3,108.1,192.3,107.6,192.3z M107.3,186c-0.6,0-1,0.2-1.3,0.5c-0.3,0.4-0.5,0.9-0.6,1.5h3.6
				c0-0.7-0.1-1.2-0.4-1.5S107.9,186,107.3,186z"/>
			<path class="st6" d="M116.2,192.2l-0.2-1H116c-0.3,0.4-0.7,0.7-1,0.9c-0.3,0.2-0.8,0.2-1.3,0.2c-0.7,0-1.2-0.2-1.6-0.5
				c-0.4-0.4-0.6-0.9-0.6-1.5c0-1.4,1.1-2.1,3.4-2.2l1.2,0v-0.4c0-0.5-0.1-0.9-0.4-1.2c-0.2-0.3-0.6-0.4-1.1-0.4
				c-0.6,0-1.2,0.2-2,0.5l-0.3-0.8c0.3-0.2,0.7-0.3,1.1-0.4c0.4-0.1,0.8-0.2,1.2-0.2c0.8,0,1.4,0.2,1.8,0.6c0.4,0.4,0.6,1,0.6,1.8
				v4.7H116.2z M113.8,191.4c0.7,0,1.2-0.2,1.5-0.5c0.4-0.4,0.6-0.9,0.6-1.5v-0.6l-1.1,0c-0.8,0-1.4,0.2-1.8,0.4
				c-0.4,0.2-0.6,0.6-0.6,1.1c0,0.4,0.1,0.7,0.3,0.9C113.1,191.3,113.4,191.4,113.8,191.4z"/>
			<path class="st6" d="M121.4,191.4c0.2,0,0.4,0,0.5,0s0.3-0.1,0.4-0.1v0.8c-0.1,0.1-0.3,0.1-0.5,0.1c-0.2,0-0.4,0.1-0.6,0.1
				c-1.3,0-2-0.7-2-2.1V186h-1v-0.5l1-0.4l0.4-1.5h0.6v1.6h2v0.8h-2v4.1c0,0.4,0.1,0.7,0.3,1S121.1,191.4,121.4,191.4z"/>
			<path class="st6" d="M124.7,185.2v4.5c0,0.6,0.1,1,0.4,1.3s0.7,0.4,1.2,0.4c0.7,0,1.3-0.2,1.6-0.6c0.3-0.4,0.5-1,0.5-1.9v-3.7
				h1.1v7h-0.9l-0.2-0.9h-0.1c-0.2,0.3-0.5,0.6-0.9,0.8c-0.4,0.2-0.8,0.3-1.3,0.3c-0.8,0-1.5-0.2-1.9-0.6c-0.4-0.4-0.6-1-0.6-1.9
				v-4.6H124.7z"/>
			<path class="st6" d="M134.9,185.1c0.3,0,0.6,0,0.8,0.1l-0.1,1c-0.3-0.1-0.5-0.1-0.8-0.1c-0.6,0-1,0.2-1.4,0.7
				c-0.4,0.5-0.6,1-0.6,1.7v3.7h-1.1v-7h0.9l0.1,1.3h0.1c0.3-0.5,0.6-0.8,0.9-1S134.5,185.1,134.9,185.1z"/>
			<path class="st6" d="M140,192.3c-1,0-1.8-0.3-2.4-0.9c-0.6-0.6-0.9-1.5-0.9-2.6c0-1.1,0.3-2,0.8-2.7c0.6-0.7,1.3-1,2.2-1
				c0.9,0,1.6,0.3,2.1,0.9s0.8,1.3,0.8,2.3v0.7h-4.8c0,0.8,0.2,1.4,0.6,1.9c0.4,0.4,0.9,0.6,1.7,0.6c0.7,0,1.5-0.2,2.2-0.5v0.9
				c-0.4,0.2-0.7,0.3-1.1,0.3C140.9,192.3,140.5,192.3,140,192.3z M139.7,186c-0.6,0-1,0.2-1.3,0.5c-0.3,0.4-0.5,0.9-0.6,1.5h3.6
				c0-0.7-0.1-1.2-0.4-1.5S140.2,186,139.7,186z"/>
		</g>
		<g class="st5">
			<path class="st6" d="M90.5,207.8h-5.2v-9.3h5.2v1h-4.1v3h3.8v1h-3.8v3.4h4.1V207.8z"/>
			<path class="st6" d="M97.2,207.8v-4.5c0-0.6-0.1-1-0.4-1.3s-0.7-0.4-1.2-0.4c-0.7,0-1.3,0.2-1.6,0.6c-0.3,0.4-0.5,1-0.5,1.9v3.7
				h-1.1v-7h0.9l0.2,1h0.1c0.2-0.3,0.5-0.6,0.9-0.8c0.4-0.2,0.8-0.3,1.3-0.3c0.8,0,1.5,0.2,1.9,0.6s0.6,1,0.6,1.9v4.5H97.2z"/>
			<path class="st6" d="M106.1,200.8v0.7l-1.3,0.2c0.1,0.1,0.2,0.3,0.3,0.6c0.1,0.2,0.1,0.5,0.1,0.8c0,0.7-0.2,1.2-0.7,1.6
				s-1.1,0.6-1.9,0.6c-0.2,0-0.4,0-0.6-0.1c-0.4,0.2-0.7,0.5-0.7,0.9c0,0.2,0.1,0.3,0.2,0.4c0.2,0.1,0.4,0.1,0.8,0.1h1.2
				c0.8,0,1.3,0.2,1.7,0.5c0.4,0.3,0.6,0.8,0.6,1.4c0,0.8-0.3,1.4-0.9,1.8s-1.5,0.6-2.7,0.6c-0.9,0-1.6-0.2-2.1-0.5
				c-0.5-0.3-0.7-0.8-0.7-1.4c0-0.4,0.1-0.8,0.4-1.1c0.3-0.3,0.7-0.5,1.1-0.6c-0.2-0.1-0.3-0.2-0.4-0.4c-0.1-0.2-0.2-0.4-0.2-0.6
				c0-0.3,0.1-0.5,0.2-0.7c0.1-0.2,0.3-0.4,0.6-0.6c-0.4-0.1-0.7-0.4-0.9-0.8c-0.2-0.4-0.3-0.8-0.3-1.2c0-0.8,0.2-1.3,0.7-1.8
				s1.1-0.6,1.9-0.6c0.4,0,0.7,0,1,0.1H106.1z M100.6,208.9c0,0.4,0.2,0.7,0.5,0.9s0.8,0.3,1.4,0.3c0.9,0,1.5-0.1,2-0.4
				c0.4-0.3,0.6-0.6,0.6-1.1c0-0.4-0.1-0.6-0.3-0.8s-0.7-0.2-1.3-0.2h-1.3c-0.5,0-0.9,0.1-1.1,0.3S100.6,208.5,100.6,208.9z
				 M101.1,203c0,0.5,0.1,0.9,0.4,1.1c0.3,0.2,0.7,0.4,1.1,0.4c1,0,1.5-0.5,1.5-1.5c0-1-0.5-1.6-1.6-1.6c-0.5,0-0.9,0.1-1.1,0.4
				C101.3,202.1,101.1,202.5,101.1,203z"/>
			<path class="st6" d="M107.4,198.9c0-0.2,0.1-0.4,0.2-0.5c0.1-0.1,0.3-0.2,0.4-0.2c0.2,0,0.3,0.1,0.4,0.2c0.1,0.1,0.2,0.3,0.2,0.5
				s-0.1,0.4-0.2,0.5c-0.1,0.1-0.3,0.2-0.4,0.2c-0.2,0-0.3-0.1-0.4-0.2C107.5,199.3,107.4,199.2,107.4,198.9z M108.6,207.8h-1.1v-7
				h1.1V207.8z"/>
			<path class="st6" d="M115.6,207.8v-4.5c0-0.6-0.1-1-0.4-1.3s-0.7-0.4-1.2-0.4c-0.7,0-1.3,0.2-1.6,0.6c-0.3,0.4-0.5,1-0.5,1.9v3.7
				h-1.1v-7h0.9l0.2,1h0.1c0.2-0.3,0.5-0.6,0.9-0.8c0.4-0.2,0.8-0.3,1.3-0.3c0.8,0,1.5,0.2,1.9,0.6s0.6,1,0.6,1.9v4.5H115.6z"/>
			<path class="st6" d="M121.7,207.9c-1,0-1.8-0.3-2.4-0.9c-0.6-0.6-0.9-1.5-0.9-2.6c0-1.1,0.3-2,0.8-2.7c0.6-0.7,1.3-1,2.2-1
				c0.9,0,1.6,0.3,2.1,0.9c0.5,0.6,0.8,1.3,0.8,2.3v0.7h-4.8c0,0.8,0.2,1.4,0.6,1.9c0.4,0.4,0.9,0.6,1.7,0.6c0.7,0,1.5-0.2,2.2-0.5
				v0.9c-0.4,0.2-0.7,0.3-1.1,0.3C122.6,207.9,122.2,207.9,121.7,207.9z M121.4,201.6c-0.6,0-1,0.2-1.3,0.5
				c-0.3,0.4-0.5,0.9-0.6,1.5h3.6c0-0.7-0.1-1.2-0.4-1.5S122,201.6,121.4,201.6z"/>
			<path class="st6" d="M129,207.9c-1,0-1.8-0.3-2.4-0.9c-0.6-0.6-0.9-1.5-0.9-2.6c0-1.1,0.3-2,0.8-2.7c0.6-0.7,1.3-1,2.2-1
				c0.9,0,1.6,0.3,2.1,0.9c0.5,0.6,0.8,1.3,0.8,2.3v0.7h-4.8c0,0.8,0.2,1.4,0.6,1.9c0.4,0.4,0.9,0.6,1.7,0.6c0.7,0,1.5-0.2,2.2-0.5
				v0.9c-0.4,0.2-0.7,0.3-1.1,0.3C129.9,207.9,129.5,207.9,129,207.9z M128.7,201.6c-0.6,0-1,0.2-1.3,0.5c-0.3,0.4-0.5,0.9-0.6,1.5
				h3.6c0-0.7-0.1-1.2-0.4-1.5S129.3,201.6,128.7,201.6z"/>
			<path class="st6" d="M136.6,200.7c0.3,0,0.6,0,0.8,0.1l-0.1,1c-0.3-0.1-0.5-0.1-0.8-0.1c-0.6,0-1,0.2-1.4,0.7
				c-0.4,0.5-0.6,1-0.6,1.7v3.7h-1.1v-7h0.9l0.1,1.3h0.1c0.3-0.5,0.6-0.8,0.9-1C135.7,200.8,136.1,200.7,136.6,200.7z"/>
			<path class="st6" d="M138.6,198.9c0-0.2,0.1-0.4,0.2-0.5c0.1-0.1,0.3-0.2,0.4-0.2c0.2,0,0.3,0.1,0.4,0.2c0.1,0.1,0.2,0.3,0.2,0.5
				s-0.1,0.4-0.2,0.5c-0.1,0.1-0.3,0.2-0.4,0.2c-0.2,0-0.3-0.1-0.4-0.2C138.7,199.3,138.6,199.2,138.6,198.9z M139.7,207.8h-1.1v-7
				h1.1V207.8z"/>
			<path class="st6" d="M146.7,207.8v-4.5c0-0.6-0.1-1-0.4-1.3s-0.7-0.4-1.2-0.4c-0.7,0-1.3,0.2-1.6,0.6c-0.3,0.4-0.5,1-0.5,1.9v3.7
				H142v-7h0.9l0.2,1h0.1c0.2-0.3,0.5-0.6,0.9-0.8c0.4-0.2,0.8-0.3,1.3-0.3c0.8,0,1.5,0.2,1.9,0.6s0.6,1,0.6,1.9v4.5H146.7z"/>
			<path class="st6" d="M155.6,200.8v0.7l-1.3,0.2c0.1,0.1,0.2,0.3,0.3,0.6c0.1,0.2,0.1,0.5,0.1,0.8c0,0.7-0.2,1.2-0.7,1.6
				s-1.1,0.6-1.9,0.6c-0.2,0-0.4,0-0.6-0.1c-0.4,0.2-0.7,0.5-0.7,0.9c0,0.2,0.1,0.3,0.2,0.4c0.2,0.1,0.4,0.1,0.8,0.1h1.2
				c0.8,0,1.3,0.2,1.7,0.5c0.4,0.3,0.6,0.8,0.6,1.4c0,0.8-0.3,1.4-0.9,1.8s-1.5,0.6-2.7,0.6c-0.9,0-1.6-0.2-2.1-0.5
				c-0.5-0.3-0.7-0.8-0.7-1.4c0-0.4,0.1-0.8,0.4-1.1c0.3-0.3,0.7-0.5,1.1-0.6c-0.2-0.1-0.3-0.2-0.4-0.4c-0.1-0.2-0.2-0.4-0.2-0.6
				c0-0.3,0.1-0.5,0.2-0.7c0.1-0.2,0.3-0.4,0.6-0.6c-0.4-0.1-0.7-0.4-0.9-0.8c-0.2-0.4-0.3-0.8-0.3-1.2c0-0.8,0.2-1.3,0.7-1.8
				s1.1-0.6,1.9-0.6c0.4,0,0.7,0,1,0.1H155.6z M150.1,208.9c0,0.4,0.2,0.7,0.5,0.9s0.8,0.3,1.4,0.3c0.9,0,1.5-0.1,2-0.4
				c0.4-0.3,0.6-0.6,0.6-1.1c0-0.4-0.1-0.6-0.3-0.8s-0.7-0.2-1.3-0.2h-1.3c-0.5,0-0.9,0.1-1.1,0.3S150.1,208.5,150.1,208.9z
				 M150.7,203c0,0.5,0.1,0.9,0.4,1.1c0.3,0.2,0.7,0.4,1.1,0.4c1,0,1.5-0.5,1.5-1.5c0-1-0.5-1.6-1.6-1.6c-0.5,0-0.9,0.1-1.1,0.4
				C150.8,202.1,150.7,202.5,150.7,203z"/>
		</g>
		<g class="st5">
			<path class="st6" d="M242.3,187.4c0,1.5-0.4,2.7-1.2,3.5c-0.8,0.8-2,1.2-3.6,1.2h-2.6v-9.3h2.8c1.4,0,2.6,0.4,3.4,1.2
				C241.9,184.9,242.3,186,242.3,187.4z M241.2,187.5c0-1.2-0.3-2.1-0.9-2.7s-1.5-0.9-2.7-0.9H236v7.4h1.3c1.3,0,2.3-0.3,2.9-0.9
				S241.2,188.7,241.2,187.5z"/>
			<path class="st6" d="M248.5,192.2l-0.2-1h-0.1c-0.3,0.4-0.7,0.7-1,0.9s-0.8,0.2-1.3,0.2c-0.7,0-1.2-0.2-1.6-0.5
				c-0.4-0.4-0.6-0.9-0.6-1.5c0-1.4,1.1-2.1,3.4-2.2l1.2,0v-0.4c0-0.5-0.1-0.9-0.4-1.2c-0.2-0.3-0.6-0.4-1.1-0.4
				c-0.6,0-1.2,0.2-2,0.5l-0.3-0.8c0.3-0.2,0.7-0.3,1.1-0.4c0.4-0.1,0.8-0.2,1.2-0.2c0.8,0,1.4,0.2,1.8,0.6c0.4,0.4,0.6,1,0.6,1.8
				v4.7H248.5z M246.1,191.4c0.7,0,1.2-0.2,1.5-0.5c0.4-0.4,0.6-0.9,0.6-1.5v-0.6l-1.1,0c-0.8,0-1.4,0.2-1.8,0.4s-0.6,0.6-0.6,1.1
				c0,0.4,0.1,0.7,0.3,0.9C245.4,191.3,245.7,191.4,246.1,191.4z"/>
			<path class="st6" d="M253.7,191.4c0.2,0,0.4,0,0.5,0c0.2,0,0.3-0.1,0.4-0.1v0.8c-0.1,0.1-0.3,0.1-0.5,0.1c-0.2,0-0.4,0.1-0.6,0.1
				c-1.3,0-2-0.7-2-2.1V186h-1v-0.5l1-0.4l0.4-1.5h0.6v1.6h2v0.8h-2v4.1c0,0.4,0.1,0.7,0.3,1C253.1,191.3,253.3,191.4,253.7,191.4z"
				/>
			<path class="st6" d="M260.3,192.2l-0.2-1h-0.1c-0.3,0.4-0.7,0.7-1,0.9s-0.8,0.2-1.3,0.2c-0.7,0-1.2-0.2-1.6-0.5
				c-0.4-0.4-0.6-0.9-0.6-1.5c0-1.4,1.1-2.1,3.4-2.2l1.2,0v-0.4c0-0.5-0.1-0.9-0.4-1.2c-0.2-0.3-0.6-0.4-1.1-0.4
				c-0.6,0-1.2,0.2-2,0.5l-0.3-0.8c0.3-0.2,0.7-0.3,1.1-0.4c0.4-0.1,0.8-0.2,1.2-0.2c0.8,0,1.4,0.2,1.8,0.6c0.4,0.4,0.6,1,0.6,1.8
				v4.7H260.3z M257.9,191.4c0.7,0,1.2-0.2,1.5-0.5c0.4-0.4,0.6-0.9,0.6-1.5v-0.6l-1.1,0c-0.8,0-1.4,0.2-1.8,0.4s-0.6,0.6-0.6,1.1
				c0,0.4,0.1,0.7,0.3,0.9C257.2,191.3,257.5,191.4,257.9,191.4z"/>
		</g>
		<g class="st5">
			<path class="st6" d="M219.6,207.8h-5.2v-9.3h5.2v1h-4.1v3h3.8v1h-3.8v3.4h4.1V207.8z"/>
			<path class="st6" d="M223.2,204.2l-2.4-3.4h1.2l1.8,2.7l1.8-2.7h1.2l-2.4,3.4l2.5,3.6h-1.2l-1.9-2.8l-2,2.8h-1.2L223.2,204.2z"/>
			<path class="st6" d="M231.6,207.9c-0.5,0-0.9-0.1-1.2-0.2c-0.4-0.2-0.7-0.4-0.9-0.8h-0.1c0.1,0.4,0.1,0.8,0.1,1.2v2.9h-1.1v-10.1
				h0.9l0.1,1h0.1c0.3-0.4,0.6-0.7,0.9-0.8c0.4-0.2,0.8-0.3,1.2-0.3c0.9,0,1.6,0.3,2.1,0.9c0.5,0.6,0.8,1.5,0.8,2.7
				c0,1.1-0.3,2-0.8,2.7S232.5,207.9,231.6,207.9z M231.4,201.6c-0.7,0-1.2,0.2-1.5,0.6c-0.3,0.4-0.5,1-0.5,1.9v0.2
				c0,1,0.2,1.7,0.5,2.1c0.3,0.4,0.8,0.6,1.6,0.6c0.6,0,1.1-0.2,1.4-0.7c0.3-0.5,0.5-1.2,0.5-2c0-0.9-0.2-1.5-0.5-2
				C232.5,201.8,232.1,201.6,231.4,201.6z"/>
			<path class="st6" d="M237.4,207.8h-1.1v-9.9h1.1V207.8z"/>
			<path class="st6" d="M245.6,204.3c0,1.1-0.3,2-0.9,2.7c-0.6,0.6-1.4,1-2.4,1c-0.6,0-1.2-0.1-1.7-0.4c-0.5-0.3-0.9-0.7-1.1-1.3
				c-0.3-0.5-0.4-1.2-0.4-1.9c0-1.1,0.3-2,0.9-2.7c0.6-0.6,1.4-0.9,2.4-0.9c1,0,1.7,0.3,2.3,1C245.3,202.3,245.6,203.2,245.6,204.3z
				 M240.3,204.3c0,0.9,0.2,1.6,0.5,2s0.9,0.7,1.6,0.7s1.2-0.2,1.6-0.7c0.4-0.5,0.5-1.1,0.5-2c0-0.9-0.2-1.6-0.5-2
				c-0.4-0.5-0.9-0.7-1.6-0.7c-0.7,0-1.2,0.2-1.6,0.7S240.3,203.4,240.3,204.3z"/>
			<path class="st6" d="M250.6,200.7c0.3,0,0.6,0,0.8,0.1l-0.1,1c-0.3-0.1-0.5-0.1-0.8-0.1c-0.6,0-1,0.2-1.4,0.7
				c-0.4,0.5-0.6,1-0.6,1.7v3.7h-1.1v-7h0.9l0.1,1.3h0.1c0.3-0.5,0.6-0.8,0.9-1C249.8,200.8,250.2,200.7,250.6,200.7z"/>
			<path class="st6" d="M257,207.8l-0.2-1h-0.1c-0.3,0.4-0.7,0.7-1,0.9c-0.3,0.2-0.8,0.2-1.3,0.2c-0.7,0-1.2-0.2-1.6-0.5
				c-0.4-0.4-0.6-0.9-0.6-1.5c0-1.4,1.1-2.1,3.4-2.2l1.2,0v-0.4c0-0.5-0.1-0.9-0.4-1.2s-0.6-0.4-1.1-0.4c-0.6,0-1.2,0.2-2,0.5
				l-0.3-0.8c0.3-0.2,0.7-0.3,1.1-0.4s0.8-0.2,1.2-0.2c0.8,0,1.4,0.2,1.8,0.6c0.4,0.4,0.6,1,0.6,1.8v4.7H257z M254.7,207
				c0.7,0,1.2-0.2,1.5-0.5s0.6-0.9,0.6-1.5v-0.6l-1.1,0c-0.8,0-1.4,0.2-1.8,0.4c-0.4,0.2-0.6,0.6-0.6,1.1c0,0.4,0.1,0.7,0.3,0.9
				S254.2,207,254.7,207z"/>
			<path class="st6" d="M262.2,207c0.2,0,0.4,0,0.5,0c0.2,0,0.3-0.1,0.4-0.1v0.8c-0.1,0.1-0.3,0.1-0.5,0.1c-0.2,0-0.4,0.1-0.6,0.1
				c-1.3,0-2-0.7-2-2.1v-4.1h-1v-0.5l1-0.4l0.4-1.5h0.6v1.6h2v0.8h-2v4.1c0,0.4,0.1,0.7,0.3,1C261.6,206.9,261.9,207,262.2,207z"/>
			<path class="st6" d="M264.5,198.9c0-0.2,0.1-0.4,0.2-0.5c0.1-0.1,0.3-0.2,0.4-0.2c0.2,0,0.3,0.1,0.4,0.2c0.1,0.1,0.2,0.3,0.2,0.5
				s-0.1,0.4-0.2,0.5c-0.1,0.1-0.3,0.2-0.4,0.2c-0.2,0-0.3-0.1-0.4-0.2C264.6,199.3,264.5,199.2,264.5,198.9z M265.6,207.8h-1.1v-7
				h1.1V207.8z"/>
			<path class="st6" d="M273.9,204.3c0,1.1-0.3,2-0.9,2.7s-1.4,1-2.4,1c-0.6,0-1.2-0.1-1.7-0.4c-0.5-0.3-0.9-0.7-1.1-1.3
				c-0.3-0.5-0.4-1.2-0.4-1.9c0-1.1,0.3-2,0.9-2.7s1.4-0.9,2.4-0.9c1,0,1.7,0.3,2.3,1C273.6,202.3,273.9,203.2,273.9,204.3z
				 M268.6,204.3c0,0.9,0.2,1.6,0.5,2s0.9,0.7,1.6,0.7c0.7,0,1.2-0.2,1.6-0.7c0.4-0.5,0.5-1.1,0.5-2c0-0.9-0.2-1.6-0.5-2
				c-0.4-0.5-0.9-0.7-1.6-0.7c-0.7,0-1.2,0.2-1.6,0.7C268.7,202.7,268.6,203.4,268.6,204.3z"/>
			<path class="st6" d="M280.5,207.8v-4.5c0-0.6-0.1-1-0.4-1.3c-0.3-0.3-0.7-0.4-1.2-0.4c-0.7,0-1.3,0.2-1.6,0.6
				c-0.3,0.4-0.5,1-0.5,1.9v3.7h-1.1v-7h0.9l0.2,1h0.1c0.2-0.3,0.5-0.6,0.9-0.8c0.4-0.2,0.8-0.3,1.3-0.3c0.8,0,1.5,0.2,1.9,0.6
				s0.6,1,0.6,1.9v4.5H280.5z"/>
		</g>
		<path class="st0" d="M285,127.9l9.1-5.2c-0.5-0.9-0.8-1.9-0.9-3l-13.9-3.7c-1.5,2.6-4.9,3.5-7.5,1.9c-2.6-1.5-3.5-4.9-1.9-7.5
			c0.2-0.4,0.5-0.7,0.8-1.1c2.2-2.1,5.6-2.1,7.7,0c1,1,1.6,2.4,1.6,3.9l13.4,3.6c0.5-1.5,1.4-2.9,2.6-3.9l-4.5-7.9
			c-4.9,1.9-10.4-0.4-12.4-5.3c-1.9-4.9,0.4-10.4,5.3-12.4c4.9-1.9,10.4,0.4,12.4,5.3c0.4,1.1,0.7,2.3,0.7,3.5c0,2.5-1,4.9-2.7,6.7
			c-1.6,1.6,2.7,7,3.9,8.8c2.6-0.7,5.5,0,7.4,2l10.5-10.3c-1.2-2.2-0.9-4.8,0.9-6.6c2.2-2.1,5.6-2,7.7,0.2c2,2.1,2,5.4,0,7.6
			c-1.8,1.7-4.5,2.1-6.6,0.9l-10.8,10.9c0.3,0.9,0.5,1.8,0.5,2.7h11.8c0.3-2,1.3-3.9,2.7-5.3c3.7-3.7,9.7-3.7,13.5,0
			c3.7,3.7,3.7,9.7,0,13.5c-3.7,3.7-9.7,3.7-13.5,0c-1.4-1.5-2.3-3.3-2.7-5.3h-12.4c-0.6,1.5-1.6,2.8-3,3.7l4.1,15.4
			c1.4,0,2.8,0.6,3.9,1.5c2.1,2.2,2.1,5.6,0,7.7c-2.1,2.1-5.6,2.2-7.7,0c-2.1-2.1-2.2-5.6,0-7.7c0.3-0.3,0.7-0.6,1.2-0.9l-4-15.1
			c-2.2,0.4-4.5-0.3-6.2-1.7l-9.5,5.5c0.4,1.1,0.7,2.3,0.7,3.4c0,5.3-4.2,9.5-9.4,9.6s-9.5-4.2-9.6-9.4c0-5.3,4.2-9.5,9.4-9.6
			C280.4,124.3,283.2,125.7,285,127.9L285,127.9z"/>
		<path class="st7" d="M223.1,20.5h11.3"/>
		<path class="st7" d="M259.8,15.7v31.1h-39.6V16.4h40.1"/>
		<path class="st7" d="M241.1,22.4c-0.1,0.7-0.7,1.3-1.4,1.2c-0.6-0.1-1.1-0.6-1.2-1.2c-0.1-0.7,0.5-1.4,1.2-1.4
			c0.7-0.1,1.4,0.5,1.4,1.2C241.1,22.3,241.1,22.3,241.1,22.4"/>
		<path class="st7" d="M246.6,30.2c-0.3-1.3,0.6-2.5,1.8-2.7s2.5,0.6,2.7,1.8c0.3,1.3-0.6,2.5-1.8,2.7c-0.3,0.1-0.6,0.1-0.9,0
			C247.5,31.9,246.8,31.2,246.6,30.2z"/>
		<path class="st7" d="M230.6,30.5c-0.3-1.3,0.6-2.6,1.9-2.9s2.6,0.6,2.9,1.9c0.3,1.3-0.6,2.6-1.9,2.9c-0.3,0.1-0.6,0.1-0.9,0
			C231.6,32.2,230.8,31.5,230.6,30.5z"/>
		<path class="st7" d="M236.8,38.5c-0.3-1.6,0.7-3.1,2.2-3.4c1.6-0.3,3.1,0.7,3.4,2.2c0.3,1.6-0.7,3.1-2.2,3.4
			c-0.4,0.1-0.7,0.1-1.1,0C238,40.6,237.1,39.7,236.8,38.5z"/>
		<path class="st7" d="M235.2,27.6l3.8-4.1"/>
		<path class="st7" d="M239.6,23.7v11.4"/>
		<path class="st7" d="M241.2,36l5.4-4.7"/>
		<path class="st0" d="M217.4,311.1l-13.8-13.8c6.9-8.1,5.9-20.3-2.2-27.2s-20.3-5.9-27.2,2.2s-5.9,20.3,2.2,27.2
			c0.9,0.8,1.9,1.5,3,2.1l-5,9.9c-1.9-0.6-4-0.3-5.7,0.9L157.3,301c2.1-2.8,1.4-6.8-1.4-8.9c-2.8-2.1-6.8-1.4-8.9,1.4
			c-2.1,2.8-1.4,6.8,1.4,8.9c2.2,1.6,5.3,1.6,7.5-0.1l11.5,11.5c-2.1,2.8-1.5,6.8,1.4,8.8c2.8,2.1,6.8,1.5,8.8-1.4
			c2.1-2.8,1.5-6.8-1.4-8.8c0,0,0,0,0,0l-0.1,0l5-9.9l0,0c6.8,3,14.7,1.8,20.3-3l13.8,13.8L217.4,311.1z M152.2,301.7
			c-2.4,0-4.4-2-4.4-4.4c0-2.4,2-4.4,4.4-4.4s4.4,2,4.4,4.4c0,0,0,0,0,0C156.6,299.7,154.6,301.7,152.2,301.7z M172.5,322
			c-2.4,0-4.4-2-4.4-4.4c0-2.4,2-4.4,4.4-4.4c2.4,0,4.4,2,4.4,4.4S174.9,322,172.5,322L172.5,322z M188.9,301.1
			c-2.2,0-4.4-0.4-6.4-1.3l3.3-6.6c4.6,1.7,9.8-0.6,11.5-5.2c1.7-4.6-0.6-9.8-5.2-11.5c-4.6-1.7-9.8,0.6-11.5,5.2
			c-1.5,3.9,0,8.3,3.5,10.6l-3.3,6.6c-7.8-4.5-10.4-14.4-5.9-22.2c4.5-7.8,14.4-10.4,22.2-5.9s10.4,14.4,5.9,22.2
			C200,298,194.7,301.1,188.9,301.1L188.9,301.1z M181.9,284.9c0-3.9,3.1-7,7-7s7,3.1,7,7s-3.1,7-7,7S181.9,288.8,181.9,284.9z"/>
		<path class="st0" d="M42.6,140.1c-0.4-1-1.2-1.8-2.1-2.2c-0.5-0.2-1-0.4-1.6-0.4c-1.6,0-3,0.9-3.6,2.4c-0.4,0.9-0.5,2-0.1,3
			c0.4,1,1.2,1.8,2.1,2.2c0.5,0.2,1,0.4,1.6,0.4c1.6,0,3-0.9,3.6-2.4C43,142.1,43,141,42.6,140.1z M41,142.4
			c-0.4,0.9-1.2,1.4-2.2,1.4c-0.3,0-0.6-0.1-0.9-0.2c-0.6-0.3-1-0.8-1.2-1.3c-0.3-0.6-0.3-1.3,0-1.8c0.4-0.9,1.3-1.4,2.2-1.4
			c0.3,0,0.7,0.1,1,0.2c0.6,0.3,1,0.8,1.3,1.4C41.5,141.2,41.4,141.9,41,142.4z"/>
		<path class="st0" d="M54.5,143.9c-0.8-1.4-2.2-2.5-3.8-2.9h-0.2c-0.4-0.1-0.9-0.1-1.3-0.2c-3.5,0-6.2,2.8-6.2,6.3
			c0,2.9,1.9,5.4,4.7,6.1h0.2c0.4,0.1,0.9,0.1,1.3,0.1c3.4,0,6.2-2.8,6.2-6.2C55.4,145.9,55.1,144.8,54.5,143.9L54.5,143.9z
			 M53.7,148.1c-0.5,2.1-2.3,3.6-4.5,3.6c-0.4,0-0.8,0-1.1-0.1c-1.2-0.3-2.3-1-2.9-2.1c-0.6-1.1-0.8-2.3-0.5-3.5
			c0.5-2.1,2.4-3.5,4.5-3.5c0.4,0,0.8,0,1.1,0.1c1.2,0.3,2.2,1.1,2.9,2.1C53.8,145.7,54,147,53.7,148.1z"/>
		<path class="st0" d="M56.5,125.9c-0.9-2.3-2.7-4.1-4.9-5.1c-1.2-0.5-2.4-0.8-3.7-0.8c-3.7,0-7,2.2-8.4,5.6
			c-2.1,4.7,0.1,10.2,4.8,12.2c1.2,0.5,2.4,0.8,3.7,0.8c5.1-0.1,9.3-4.3,9.2-9.4C57.1,128,56.9,126.9,56.5,125.9z M54.9,132.2
			c-1.2,2.8-4,4.6-7,4.6c-1.1,0-2.1-0.2-3-0.6c-1.9-0.8-3.3-2.3-4.1-4.2c-0.7-1.9-0.7-4,0.1-5.9c1.2-2.8,3.9-4.6,7-4.6
			c1.1,0,2.1,0.2,3.1,0.6c1.9,0.8,3.4,2.3,4.1,4.2C55.7,128.3,55.7,130.4,54.9,132.2z"/>
		<path class="st0" d="M49,89.4c-0.2,0-0.4,0-0.6,0c-1,0.2-1.9,0.8-2.6,1.7c-0.6,0.9-0.9,1.9-0.7,3c0.2,1.9,1.8,3.3,3.7,3.3H49
			c0.1,0,0.2,0,0.3,0c0.1,0,0.3,0,0.4-0.1c2.1-0.3,3.6-2.3,3.3-4.5c0,0,0-0.1,0-0.1C52.6,90.8,50.9,89.4,49,89.4z M46.8,94.8
			c0-0.2-0.1-0.3-0.1-0.4l-0.1-0.4c-0.1-0.7,0-1.4,0.4-1.9c0.4-0.5,0.9-0.9,1.5-1h0.4c0.4,0,0.9,0.2,1.2,0.4l0.2,0.1L46.9,95
			L46.8,94.8z M51,94.8c-0.4,0.6-1,0.9-1.7,1c-0.1,0-0.3,0-0.4,0l0,0c-0.3,0-0.7-0.1-1-0.2l-0.2-0.1l3.2-3.2l0.1,0.2
			c0.1,0.2,0.2,0.4,0.2,0.6C51.5,93.6,51.4,94.3,51,94.8L51,94.8z"/>
		<path class="st0" d="M64.5,137.4c-0.5-1.2-1.4-2.2-2.6-2.8c-0.6-0.3-1.3-0.4-2-0.4c-1.9,0-3.7,1.2-4.5,2.9
			c-0.5,1.2-0.6,2.5-0.1,3.7c0.4,1.2,1.4,2.2,2.6,2.8c0.6,0.3,1.3,0.4,2,0.4c1.9,0,3.7-1.2,4.5-2.9C64.9,140,64.9,138.6,64.5,137.4z
			 M63,140.6c-0.7,1.7-2.6,2.4-4.3,1.7c0,0-0.1,0-0.1,0c-0.8-0.3-1.5-1-1.8-1.9c-0.3-0.8-0.3-1.7,0.1-2.6c0.5-1.2,1.7-2,3-2
			c0.5,0,0.9,0.1,1.3,0.3c0.8,0.3,1.5,1,1.8,1.9C63.4,138.9,63.4,139.8,63,140.6z"/>
		<path class="st0" d="M37.2,99.9c-1,1.4-1.5,3.2-1.2,5c0.5,3.2,3.3,5.5,6.5,5.4c0.4,0,0.8,0,1.2-0.1c1.7-0.3,3.3-1.2,4.3-2.7
			c1-1.4,1.4-3.2,1.1-4.9c-0.6-3.1-3.3-5.4-6.5-5.4c-0.4,0-0.8,0-1.2,0.1C39.7,97.6,38.2,98.5,37.2,99.9z M47.5,102.7
			c0,0.1,0.1,0.1,0.1,0.2c0.3,1.3-0.1,2.7-0.9,3.8c-0.8,1.1-1.9,1.8-3.3,2c-0.3,0.1-0.5,0.1-0.8,0.1c-0.4,0-0.8-0.1-1.1-0.2h-0.2
			l6.3-6.3L47.5,102.7C47.4,102.6,47.5,102.7,47.5,102.7z M44.9,99.3c0.9,0.4,1.6,1.1,2.1,1.9l0.1,0.1l-6.9,6.9l-0.1-0.1
			c-0.8-0.5-1.4-1.2-1.9-2l0-0.1L44.9,99.3L44.9,99.3z M41.7,98.8c0.3-0.1,0.6-0.1,0.8-0.1c0.1,0,0.3,0,0.4,0c0.1,0,0.3,0,0.4,0h0.3
			l-6,6v-0.2c-0.5-2.7,1.4-5.3,4.1-5.8c0,0,0,0,0,0L41.7,98.8z"/>
		<path class="st0" d="M62.9,92.3c-6.3,0-11.4,5.1-11.4,11.4s5.1,11.4,11.4,11.4s11.4-5.1,11.4-11.4c0,0,0,0,0,0
			C74.3,97.4,69.2,92.3,62.9,92.3z M53.5,100.9c1-3.1,3.4-5.6,6.5-6.6l0.5-0.2l-7.2,7.2L53.5,100.9z M53.4,106.5
			c-0.2-0.9-0.3-1.8-0.4-2.7v-0.6l0,0l9.3-9.2h0.6c0.9,0,1.8,0.1,2.7,0.4l0.2,0.1l-0.1,0.1l-12.2,12.1L53.4,106.5z M55.2,109.9
			c-0.5-0.6-1-1.3-1.3-2v-0.1l0.1-0.1l13-12.9h0.1c0.7,0.3,1.4,0.8,2,1.3l0.1,0.1l-0.1,0.1L55.2,109.9L55.2,109.9z M58.4,112.6
			c-0.9-0.4-1.6-0.9-2.3-1.6l-0.1-0.1l0.1-0.1l14-14v0.2c0.6,0.7,1.2,1.4,1.5,2.3v0.1L58.4,112.6L58.4,112.6z M72.3,106.1
			c-0.9,3.6-3.7,6.4-7.3,7.3l-0.4,0.1l7.8-7.8L72.3,106.1z M72.7,103.9l-9.7,9.7h-0.1c-1,0-2.1-0.1-3.1-0.5l-0.2-0.1l0.1-0.1
			l12.4-12.4l0.1,0.2c0.3,1,0.4,2,0.5,3L72.7,103.9L72.7,103.9z"/>
		<path class="st8" d="M88.1,116.7c0.6-0.6,0.9-1.4,0.8-2.3c-0.1-1.7-1.5-3.1-3.2-3.1c-0.9,0-1.7,0.4-2.3,1
			c-0.6,0.6-0.9,1.5-0.9,2.3c0.1,1.7,1.5,3,3.2,3h0.1C86.7,117.6,87.5,117.3,88.1,116.7z"/>
		<path class="st8" d="M93.6,142.4c0-2.2-1.7-4-3.8-4c-0.1,0-0.1,0-0.2,0h-0.2c-1.1,0-2.1,0.5-2.9,1.3c-0.7,0.8-1.1,1.8-1.1,2.9
			c0.1,2.2,1.8,3.9,4,4h0.2C91.8,146.5,93.6,144.7,93.6,142.4C93.6,142.4,93.6,142.4,93.6,142.4z"/>
		<path class="st8" d="M101.1,119c-0.1-3-2.5-5.3-5.5-5.3h-0.2c-3,0.2-5.3,2.9-5.1,5.9c0.2,2.8,2.5,5,5.3,5.1h0.2
			c1.5-0.1,2.8-0.7,3.8-1.8C100.6,121.9,101.1,120.5,101.1,119z"/>
		<path class="st8" d="M90.7,128.6c-0.2-5.2-4.5-9.4-9.7-9.4h-0.3c-5.3,0.2-9.5,4.8-9.2,10.1c0.2,5.1,4.4,9.2,9.6,9.3h0.3
			C86.7,138.4,90.9,133.9,90.7,128.6z"/>
		<rect x="138.8" y="28.5" class="st0" width="1.2" height="1.7"/>
		<rect x="129" y="31.3" class="st0" width="1.2" height="1.7"/>
		<rect x="138.8" y="31.3" class="st0" width="1.2" height="1.7"/>
		<path class="st0" d="M138.7,33.9c0,0.5-0.1,1-0.3,1.4l1.1,0.5c0.3-0.6,0.4-1.2,0.4-1.9L138.7,33.9z"/>
		<path class="st0" d="M136.9,37l0.5,1.1c0.6-0.3,1.1-0.7,1.6-1.2l-1-0.7C137.6,36.5,137.3,36.8,136.9,37z"/>
		<path class="st0" d="M134.7,37.4v1.2c0.6,0,1.1-0.1,1.7-0.2l-0.3-1.2C135.6,37.4,135.1,37.4,134.7,37.4z"/>
		<rect x="119.2" y="28.5" class="st0" width="1.2" height="1.7"/>
		<rect x="119.2" y="31.3" class="st0" width="1.2" height="1.7"/>
		<path class="st0" d="M124.5,38.6v-1.2c-0.5,0-0.9-0.1-1.3-0.2l-0.3,1.2C123.4,38.5,123.9,38.6,124.5,38.6z"/>
		<path class="st0" d="M121.8,38l0.5-1.1c-0.4-0.2-0.8-0.5-1.1-0.8l-1,0.7C120.6,37.3,121.2,37.7,121.8,38z"/>
		<rect x="129" y="28.5" class="st0" width="1.2" height="1.7"/>
		<path class="st0" d="M120.7,35.3c-0.2-0.4-0.3-0.9-0.3-1.4h-1.2c0,0.6,0.2,1.3,0.4,1.9L120.7,35.3z"/>
		<path class="st0" d="M129.6,34.1c-2.3,0-4.1,1.9-4.1,4.1c0,1.7,1.1,3.2,2.7,3.8l1.4,3.3L131,42c2.1-0.8,3.2-3.1,2.4-5.3
			C132.9,35.1,131.3,34.1,129.6,34.1L129.6,34.1z M129.6,41.1c-1.7,0-3-1.3-3-3s1.3-3,3-3c1.7,0,3,1.3,3,3S131.2,41.1,129.6,41.1z"
			/>
		<path class="st0" d="M119.8,20.2c-1.6,0-2.8,1.2-2.8,2.8c0,1.2,0.7,2.3,1.9,2.7l0.9,2.3l0.9-2.3c1.5-0.5,2.2-2.1,1.7-3.6
			C122.1,20.9,121,20.2,119.8,20.2z M119.8,25c-1.1,0-2-0.9-2-2s0.9-2,2-2s2,0.9,2,2C121.8,24.1,120.9,25,119.8,25L119.8,25z"/>
		<path class="st0" d="M119.8,28.1l-1-2.4c-1.5-0.6-2.3-2.2-1.7-3.7s2.2-2.3,3.7-1.7s2.3,2.2,1.7,3.7c-0.3,0.8-0.9,1.4-1.7,1.7
			L119.8,28.1z M119.8,20.3c-1.5,0-2.7,1.2-2.7,2.7c0,1.2,0.7,2.2,1.8,2.6l0,0l0.9,2.1l0.9-2.1l0,0c1.4-0.5,2.2-2,1.7-3.4
			C122,21,120.9,20.3,119.8,20.3L119.8,20.3z M119.8,25.1c-1.2,0-2.1-1-2.1-2.2c0-1.2,1-2.1,2.2-2.1c1.2,0,2.1,1,2.1,2.2
			C122,24.2,121,25.1,119.8,25.1C119.8,25.1,119.8,25.1,119.8,25.1z M119.8,21c-1.1,0-2,0.9-2,2s0.9,2,2,2s2-0.9,2-2
			C121.8,21.9,120.9,21,119.8,21C119.8,21,119.8,21,119.8,21L119.8,21z"/>
		<path class="st0" d="M129.6,20.2c-1.6,0-2.8,1.2-2.9,2.7c0,1.2,0.7,2.3,1.9,2.7l1,2.3l0.9-2.3c1.5-0.5,2.2-2.1,1.7-3.6
			C131.8,20.9,130.8,20.2,129.6,20.2z M129.6,25c-1.1,0-2-0.9-2-2s0.9-2,2-2s2,0.9,2,2C131.6,24.1,130.7,25,129.6,25L129.6,25z"/>
		<path class="st0" d="M129.6,28.1l-1-2.4c-1.5-0.6-2.3-2.2-1.7-3.7s2.2-2.3,3.7-1.7s2.3,2.2,1.7,3.7c-0.3,0.8-0.9,1.4-1.7,1.7
			L129.6,28.1z M129.6,20.3c-1.5,0-2.7,1.2-2.7,2.7c0,1.2,0.7,2.2,1.8,2.6l0,0l0.9,2.1l0.9-2.1l0,0c1.4-0.5,2.2-2,1.7-3.4
			C131.7,21,130.7,20.3,129.6,20.3L129.6,20.3z M129.6,25.1c-1.2,0-2.1-0.9-2.1-2.1c0-1.2,0.9-2.1,2.1-2.1c1.2,0,2.1,0.9,2.1,2.1
			c0,0,0,0,0,0C131.7,24.2,130.7,25.1,129.6,25.1z M129.6,21c-1.1,0-2,0.8-2,1.9c0,1.1,0.8,2,1.9,2c1.1,0,2-0.8,2-1.9c0,0,0,0,0,0
			C131.5,21.9,130.7,21,129.6,21L129.6,21z"/>
		<path class="st0" d="M139.3,20.2c-1.6,0-2.8,1.3-2.8,2.8c0,1.2,0.7,2.3,1.9,2.7l1,2.3l0.9-2.3c1.5-0.5,2.2-2.1,1.7-3.6
			C141.6,20.9,140.6,20.2,139.3,20.2L139.3,20.2z M139.3,25c-1.1,0-2-0.9-2-2s0.9-2,2-2s2,0.9,2,2C141.3,24.1,140.4,25,139.3,25
			L139.3,25z"/>
		<path class="st0" d="M139.3,28.1l-1-2.4c-1.5-0.6-2.3-2.2-1.7-3.7c0.6-1.5,2.2-2.3,3.7-1.7s2.3,2.2,1.7,3.7
			c-0.3,0.8-0.9,1.4-1.7,1.7L139.3,28.1z M139.3,20.3c-1.5,0-2.7,1.2-2.7,2.7c0,1.2,0.7,2.2,1.8,2.6l0,0l0.9,2.1l0.9-2.1l0,0
			c1.4-0.5,2.2-2,1.7-3.4C141.5,21,140.4,20.2,139.3,20.3L139.3,20.3z M139.3,25.1c-1.2,0-2.1-0.9-2.1-2.1s0.9-2.1,2.1-2.1
			c1.2,0,2.1,0.9,2.1,2.1c0,0,0,0,0,0C141.5,24.2,140.5,25.1,139.3,25.1L139.3,25.1z M139.3,21c-1.1,0-2,0.9-2,2s0.9,2,2,2
			s2-0.9,2-2C141.4,21.9,140.5,21,139.3,21C139.4,21,139.3,21,139.3,21L139.3,21z"/>
		<path class="st0" d="M127.1,283.6v-2.3c0-0.9-0.4-1.7-1.1-2.2c-2.4-1.7-5.2-2.7-8.1-2.9v-3.4c4.3-0.5,7.4-4.4,6.8-8.7
			c-0.5-4.3-4.4-7.4-8.7-6.8c-4.3,0.5-7.4,4.4-6.8,8.7c0.4,3.6,3.3,6.4,6.8,6.8v3.4c-2.9,0.2-5.8,1.2-8.1,2.9
			c-0.7,0.5-1.1,1.3-1.1,2.2v2.3c-1.4,0.5-2.1,2-1.6,3.4c0.5,1.4,2,2.1,3.4,1.6c1.1-0.4,1.7-1.4,1.8-2.5c0-1.1-0.7-2.1-1.7-2.5v-2.3
			c0-0.3,0.1-0.5,0.4-0.7c2.1-1.5,4.5-2.4,7-2.5v5.5c-1.4,0.5-2.1,2-1.6,3.4s2,2.1,3.4,1.6c1.1-0.4,1.8-1.4,1.7-2.5
			c0-1.1-0.7-2.1-1.7-2.5v-5.5c2.5,0.2,5,1,7,2.5c0.2,0.2,0.4,0.4,0.4,0.7v2.3c-1.4,0.5-2.1,2-1.6,3.4c0.5,1.4,2,2.1,3.4,1.6
			c1.1-0.4,1.7-1.4,1.8-2.5C128.7,285,128.1,284.1,127.1,283.6L127.1,283.6z M117,269.6c-0.5,0-0.9-0.4-0.9-0.9
			c0-0.5,0.4-0.9,0.9-0.9s0.9,0.4,0.9,0.9c0,0,0,0,0,0C118,269.2,117.6,269.6,117,269.6C117,269.7,117,269.7,117,269.6L117,269.6z
			 M115.6,263.5c0,0.2-0.2,0.4-0.4,0.4h-0.7c-0.2,0-0.4-0.2-0.4-0.4c0,0,0,0,0,0c0.1-1.5,1.4-2.5,2.9-2.5c1.1,0,2,0.5,2.5,1.5
			c0.4,0.8,0.4,1.9-0.2,2.6c-0.3,0.4-0.6,0.7-1,1c-0.3,0.1-0.5,0.5-0.5,0.8c0,0.2-0.2,0.4-0.4,0.4c0,0,0,0,0,0h-0.7
			c-0.2,0-0.4-0.2-0.4-0.4c0,0,0,0,0,0c0-0.8,0.4-1.6,1.1-2c0.2-0.2,0.5-0.4,0.7-0.6c0.2-0.3,0.2-0.7,0.1-1
			c-0.2-0.4-0.7-0.7-1.2-0.6C116.3,262.3,115.7,262.8,115.6,263.5C115.6,263.5,115.6,263.5,115.6,263.5L115.6,263.5z"/>
		<path class="st0" d="M240.5,280.6h14.8v3.3c0,0.1,0.1,0.3,0.2,0.3c0,0,0.1,0,0.1,0c0.1,0,0.2,0,0.3-0.1l2.2-2.2
			c0.1-0.1,0.1-0.2,0.1-0.3v-4.2l3.8-1.4c0.1-0.1,0.2-0.2,0.2-0.4v-3c0-0.2-0.2-0.4-0.3-0.4c0,0,0,0,0,0h-4.8v-10
			c0-0.2-0.2-0.4-0.4-0.4h-16.2c-0.2,0-0.4,0.2-0.4,0.3c0,0,0,0,0,0v17.7c-0.1,0.2,0.1,0.4,0.2,0.4
			C240.4,280.6,240.5,280.6,240.5,280.6z M251.5,276.1l2.1,0.8h-3.1v-2.2h0.7v1.1C251.2,275.9,251.3,276.1,251.5,276.1L251.5,276.1z
			 M240.9,274.7h8.9v2.2h-8.9V274.7z M240.9,271.7h8.9v2.3h-8.9V271.7z M240.9,268.7h8.9v2.3h-8.9V268.7z M250.5,268.7h5.9v2.3h-5.9
			V268.7z M256.4,268h-5.9v-2.2h5.9V268z M249.8,268h-8.9v-2.2h8.9L249.8,268z M240.9,277.6h8.9v2.2h-8.9L240.9,277.6z M250.5,279.8
			v-2.2h4.8v0.7h-3.7v0.7h3.7v0.7L250.5,279.8z M261.6,275.5l-3.8,1.4c-0.1,0.1-0.2,0.2-0.2,0.4v4.3L256,283v-5.8c0,0,0,0,0,0l0,0
			l0,0l0,0l0,0l0,0l0,0h-0.1l0,0l0,0l-3.9-1.6v-2.3h9.6L261.6,275.5z M251.6,272.4c-0.2,0-0.4,0.2-0.4,0.3c0,0,0,0,0,0v1.2h-0.7
			v-2.2h5.9v0.7L251.6,272.4z M256.4,265h-5.9v-2.2h5.9L256.4,265z M240.9,262.8h8.9v2.2h-8.8L240.9,262.8z"/>
		<rect x="242" y="263.6" class="st0" width="6.6" height="0.7"/>
		<rect x="251.6" y="263.6" class="st0" width="3.7" height="0.7"/>
		<rect x="242" y="266.6" class="st0" width="6.6" height="0.7"/>
		<rect x="251.6" y="266.6" class="st0" width="3.7" height="0.7"/>
		<rect x="242" y="269.5" class="st0" width="6.6" height="0.7"/>
		<rect x="251.6" y="269.5" class="st0" width="3.7" height="0.7"/>
		<rect x="242" y="272.5" class="st0" width="6.6" height="0.7"/>
		<rect x="242" y="275.4" class="st0" width="6.6" height="0.7"/>
		<rect x="242" y="278.4" class="st0" width="6.6" height="0.7"/>
		<rect x="243.5" y="281.3" class="st0" width="0.7" height="0.7"/>
		<rect x="243.5" y="282.8" class="st0" width="0.7" height="0.7"/>
		<rect x="245" y="282.8" class="st0" width="0.7" height="0.7"/>
		<rect x="246.4" y="282.8" class="st0" width="0.7" height="0.7"/>
		<rect x="247.9" y="282.8" class="st0" width="0.7" height="0.7"/>
		<rect x="249.4" y="282.8" class="st0" width="0.7" height="0.7"/>
		<rect x="250.9" y="282.8" class="st0" width="0.7" height="0.7"/>
		<rect x="252.4" y="282.8" class="st0" width="0.7" height="0.7"/>
		<rect x="253.8" y="282.8" class="st0" width="0.7" height="0.7"/>
		<rect x="260.8" y="271" class="st0" width="0.7" height="0.7"/>
		<rect x="260.8" y="269.5" class="st0" width="0.7" height="0.7"/>
		<rect x="260.8" y="268" class="st0" width="0.7" height="0.7"/>
		<rect x="260.8" y="266.6" class="st0" width="0.7" height="0.7"/>
		<rect x="260.8" y="265.1" class="st0" width="0.7" height="0.7"/>
		<rect x="257.9" y="265.1" class="st0" width="0.7" height="0.7"/>
		<rect x="259.4" y="265.1" class="st0" width="0.7" height="0.7"/>
	</g>
</g>
</svg>
