<svg width="1084" height="403" fill="none" xmlns="http://www.w3.org/2000/svg"><g filter="url(#a)"><rect x="3" y="3" width="131" height="78" rx="4" fill="#F9FCFF"/></g><rect x="3.5" y="106.5" width="130" height="76" rx="3.5" fill="#F9FCFF" stroke="#0C005C"/><rect x="3.5" y="209.5" width="130" height="76" rx="3.5" fill="#F9FCFF" stroke="#0C005C"/><rect x="3.5" y="311.5" width="130" height="77" rx="3.5" fill="#F9FCFF" stroke="#0C005C"/><g filter="url(#b)"><rect x="3" y="106" width="131" height="77" rx="4" fill="#F9FCFF"/></g><g filter="url(#c)"><rect x="168" y="4" width="903" height="283" rx="4" fill="#F9FCFF"/></g><g filter="url(#d)"><rect x="223" y="96" width="259" height="114" rx="4" fill="#D4D9FF"/></g><g filter="url(#e)"><rect x="609" y="96" width="426" height="154" rx="4" fill="#D4D9FF"/></g><g filter="url(#f)"><rect x="3" y="209" width="131" height="77" rx="4" fill="#F9FCFF"/></g><g filter="url(#g)"><rect x="3" y="311" width="131" height="78" rx="4" fill="#0C005C"/></g><path d="M22.463 70h-3.061v-9.455h3.158c.926 0 1.722.19 2.386.568a3.742 3.742 0 0 1 1.528 1.62c.357.702.536 1.544.536 2.526 0 .985-.18 1.831-.54 2.539a3.79 3.79 0 0 1-1.551 1.634c-.677.379-1.496.568-2.456.568Zm-1.635-1.246h1.556c.72 0 1.319-.136 1.796-.407a2.56 2.56 0 0 0 1.071-1.186c.237-.52.355-1.154.355-1.902 0-.742-.118-1.371-.355-1.888a2.511 2.511 0 0 0-1.048-1.178c-.465-.267-1.042-.401-1.731-.401h-1.644v6.962Zm10.901 1.39c-.698 0-1.3-.15-1.805-.449a3.038 3.038 0 0 1-1.163-1.27c-.271-.547-.406-1.189-.406-1.924 0-.727.135-1.367.406-1.92a3.156 3.156 0 0 1 1.145-1.298c.492-.31 1.068-.466 1.726-.466.4 0 .788.066 1.163.198.376.133.713.34 1.012.623.298.284.533.651.706 1.104.172.45.258.995.258 1.639v.489h-5.636v-1.034h4.284c0-.363-.074-.685-.222-.965a1.676 1.676 0 0 0-.623-.67 1.742 1.742 0 0 0-.933-.244c-.387 0-.726.095-1.015.286a1.921 1.921 0 0 0-.665.739c-.154.302-.23.63-.23.983v.808c0 .474.082.877.248 1.21.17.332.405.586.707.761.301.173.654.259 1.057.259.262 0 .5-.037.716-.111a1.484 1.484 0 0 0 .919-.9l1.306.235a2.367 2.367 0 0 1-.563 1.011c-.268.287-.605.51-1.012.67a3.785 3.785 0 0 1-1.38.235Zm10.437-7.235L39.594 70h-1.477l-2.576-7.09h1.482l1.796 5.456h.074l1.79-5.457h1.483Zm4.112 7.234c-.699 0-1.3-.15-1.805-.448a3.038 3.038 0 0 1-1.163-1.27c-.271-.547-.407-1.189-.407-1.924 0-.727.136-1.367.407-1.92a3.155 3.155 0 0 1 1.145-1.298c.492-.31 1.067-.466 1.726-.466.4 0 .788.066 1.163.198.376.133.713.34 1.011.623.299.284.534.651.707 1.104.172.45.258.995.258 1.639v.489h-5.636v-1.034h4.284c0-.363-.074-.685-.222-.965a1.675 1.675 0 0 0-.623-.67 1.742 1.742 0 0 0-.933-.244c-.387 0-.726.095-1.015.286a1.92 1.92 0 0 0-.665.739c-.154.302-.231.63-.231.983v.808c0 .474.083.877.25 1.21.169.332.404.586.706.761.301.173.654.259 1.057.259.261 0 .5-.037.715-.111a1.483 1.483 0 0 0 .919-.9l1.306.235a2.366 2.366 0 0 1-.563 1.011c-.267.287-.604.51-1.01.67a3.785 3.785 0 0 1-1.381.235Zm5.954-9.598V70h-1.38v-9.455h1.38Zm4.844 9.598c-.665 0-1.245-.152-1.74-.457a3.082 3.082 0 0 1-1.155-1.279c-.273-.547-.41-1.188-.41-1.92 0-.736.136-1.379.41-1.93.274-.55.659-.979 1.155-1.283.495-.305 1.075-.457 1.74-.457s1.245.152 1.74.457c.496.304.88.732 1.154 1.283.274.551.411 1.194.411 1.93 0 .732-.137 1.373-.41 1.92a3.082 3.082 0 0 1-1.155 1.28c-.495.304-1.075.456-1.74.456Zm.005-1.159c.43 0 .787-.113 1.07-.341.284-.228.493-.531.628-.91.139-.378.208-.795.208-1.25 0-.453-.07-.869-.208-1.247a2.03 2.03 0 0 0-.628-.919c-.283-.23-.64-.346-1.07-.346-.434 0-.795.115-1.08.346-.284.23-.495.537-.633.919a3.677 3.677 0 0 0-.203 1.246c0 .456.067.873.203 1.251.138.379.35.682.632.91.286.228.647.341 1.08.341Zm4.841 3.675v-9.75h1.348v1.15h.115c.08-.148.196-.319.347-.513.15-.194.36-.363.628-.508.267-.147.621-.221 1.061-.221a2.77 2.77 0 0 1 1.533.434c.45.289.802.706 1.057 1.25.259.545.388 1.201.388 1.967 0 .767-.128 1.424-.383 1.972-.256.544-.607.965-1.053 1.26a2.725 2.725 0 0 1-1.528.438c-.43 0-.783-.072-1.057-.217a2 2 0 0 1-.637-.507 3.851 3.851 0 0 1-.355-.517h-.084v3.762h-1.38Zm1.353-6.205c0 .5.072.936.217 1.312.144.375.354.669.628.881.273.21.609.314 1.006.314.412 0 .757-.109 1.034-.328.277-.221.486-.521.628-.9a3.56 3.56 0 0 0 .217-1.279c0-.467-.071-.887-.213-1.26a1.93 1.93 0 0 0-.627-.882c-.277-.215-.624-.323-1.04-.323-.4 0-.738.103-1.015.31a1.9 1.9 0 0 0-.623.863c-.142.37-.212.8-.212 1.292Zm9.727 3.69c-.699 0-1.3-.15-1.805-.449a3.037 3.037 0 0 1-1.164-1.27c-.27-.547-.406-1.189-.406-1.924 0-.727.135-1.367.406-1.92a3.155 3.155 0 0 1 1.145-1.298c.493-.31 1.068-.466 1.727-.466.4 0 .787.066 1.163.198.376.133.713.34 1.011.623.299.284.534.651.706 1.104.173.45.259.995.259 1.639v.489h-5.637v-1.034h4.284c0-.363-.074-.685-.221-.965a1.674 1.674 0 0 0-.624-.67 1.742 1.742 0 0 0-.932-.244c-.388 0-.726.095-1.016.286a1.92 1.92 0 0 0-.664.739c-.154.302-.231.63-.231.983v.808c0 .474.083.877.249 1.21.17.332.405.586.706.761.302.173.654.259 1.057.259.262 0 .5-.037.716-.111a1.484 1.484 0 0 0 .919-.9l1.306.235a2.365 2.365 0 0 1-.563 1.011 2.73 2.73 0 0 1-1.011.67 3.785 3.785 0 0 1-1.38.235ZM77.575 70v-7.09h1.334v1.126h.074c.13-.382.357-.682.684-.9.329-.222.701-.333 1.117-.333a5.957 5.957 0 0 1 .586.032v1.32a2.485 2.485 0 0 0-.295-.05 2.813 2.813 0 0 0-.425-.033c-.326 0-.617.07-.873.208a1.544 1.544 0 0 0-.821 1.39V70h-1.38ZM22.463 171h-3.061v-9.455h3.158c.926 0 1.722.19 2.386.568a3.745 3.745 0 0 1 1.528 1.621c.357.701.536 1.543.536 2.525 0 .985-.18 1.831-.54 2.539a3.786 3.786 0 0 1-1.551 1.634c-.677.379-1.496.568-2.456.568Zm-1.635-1.246h1.556c.72 0 1.319-.136 1.796-.407a2.56 2.56 0 0 0 1.071-1.186c.237-.52.355-1.154.355-1.902 0-.742-.118-1.371-.355-1.888a2.507 2.507 0 0 0-1.048-1.177c-.465-.268-1.042-.402-1.731-.402h-1.644v6.962Zm10.901 1.389c-.698 0-1.3-.149-1.805-.448a3.031 3.031 0 0 1-1.163-1.269c-.271-.548-.406-1.19-.406-1.925 0-.727.135-1.367.406-1.921a3.156 3.156 0 0 1 1.145-1.297c.492-.311 1.068-.466 1.726-.466.4 0 .788.066 1.163.198.376.133.713.34 1.012.623.298.284.533.651.706 1.104.172.449.258.995.258 1.639v.489h-5.636v-1.034h4.284c0-.363-.074-.685-.222-.965a1.675 1.675 0 0 0-.623-.669 1.743 1.743 0 0 0-.933-.245 1.8 1.8 0 0 0-1.015.286 1.922 1.922 0 0 0-.665.739c-.154.301-.23.629-.23.983v.808c0 .474.082.877.248 1.21.17.332.405.586.707.761.301.173.654.259 1.057.259.262 0 .5-.037.716-.111a1.48 1.48 0 0 0 .919-.9l1.306.235a2.363 2.363 0 0 1-.563 1.011c-.268.287-.605.51-1.012.67a3.783 3.783 0 0 1-1.38.235Zm10.437-7.234L39.594 171h-1.477l-2.576-7.091h1.482l1.796 5.457h.074l1.79-5.457h1.483Zm4.112 7.234c-.699 0-1.3-.149-1.805-.448a3.031 3.031 0 0 1-1.163-1.269c-.271-.548-.407-1.19-.407-1.925 0-.727.136-1.367.407-1.921a3.154 3.154 0 0 1 1.145-1.297c.492-.311 1.067-.466 1.726-.466.4 0 .788.066 1.163.198.376.133.713.34 1.011.623.299.284.534.651.707 1.104.172.449.258.995.258 1.639v.489h-5.636v-1.034h4.284c0-.363-.074-.685-.222-.965a1.675 1.675 0 0 0-.623-.669 1.743 1.743 0 0 0-.933-.245 1.8 1.8 0 0 0-1.015.286 1.921 1.921 0 0 0-.665.739c-.154.301-.231.629-.231.983v.808c0 .474.083.877.25 1.21.169.332.404.586.706.761.301.173.654.259 1.057.259.261 0 .5-.037.715-.111a1.48 1.48 0 0 0 .919-.9l1.306.235a2.362 2.362 0 0 1-.563 1.011c-.267.287-.604.51-1.01.67a3.783 3.783 0 0 1-1.381.235Zm5.954-9.598V171h-1.38v-9.455h1.38Zm4.844 9.598c-.665 0-1.245-.152-1.74-.457a3.083 3.083 0 0 1-1.155-1.279c-.273-.548-.41-1.188-.41-1.92 0-.736.136-1.379.41-1.93a3.07 3.07 0 0 1 1.155-1.283c.495-.305 1.075-.457 1.74-.457s1.245.152 1.74.457c.496.304.88.732 1.154 1.283.274.551.411 1.194.411 1.93 0 .732-.137 1.372-.41 1.92a3.083 3.083 0 0 1-1.155 1.279c-.495.305-1.075.457-1.74.457Zm.005-1.159c.43 0 .787-.113 1.07-.341.284-.228.493-.531.628-.91.139-.378.208-.795.208-1.251a3.6 3.6 0 0 0-.208-1.246 2.03 2.03 0 0 0-.628-.919c-.283-.231-.64-.346-1.07-.346-.434 0-.795.115-1.08.346a2.063 2.063 0 0 0-.633.919 3.674 3.674 0 0 0-.203 1.246c0 .456.067.873.203 1.251.138.379.35.682.632.91.286.228.647.341 1.08.341Zm4.841 3.675v-9.75h1.348v1.15h.115c.08-.148.196-.319.347-.513.15-.194.36-.363.628-.508.267-.147.621-.221 1.061-.221.573 0 1.084.144 1.533.434.45.289.802.706 1.057 1.251.259.545.388 1.2.388 1.966 0 .767-.128 1.424-.383 1.972-.256.544-.607.964-1.053 1.26a2.728 2.728 0 0 1-1.528.438c-.43 0-.783-.072-1.057-.216a2.005 2.005 0 0 1-.637-.508 3.91 3.91 0 0 1-.355-.517h-.084v3.762h-1.38Zm1.353-6.204c0 .498.072.935.217 1.311.144.375.354.669.628.881.273.21.609.314 1.006.314.412 0 .757-.109 1.034-.327.277-.222.486-.522.628-.901.145-.378.217-.804.217-1.278 0-.468-.071-.888-.213-1.261a1.935 1.935 0 0 0-.627-.882c-.277-.215-.624-.323-1.04-.323-.4 0-.738.103-1.015.31a1.9 1.9 0 0 0-.623.863c-.142.369-.212.8-.212 1.293Zm9.727 3.688c-.699 0-1.3-.149-1.805-.448a3.03 3.03 0 0 1-1.164-1.269c-.27-.548-.406-1.19-.406-1.925 0-.727.135-1.367.406-1.921a3.154 3.154 0 0 1 1.145-1.297c.493-.311 1.068-.466 1.727-.466.4 0 .787.066 1.163.198.376.133.713.34 1.011.623.299.284.534.651.706 1.104.173.449.259.995.259 1.639v.489h-5.637v-1.034h4.284c0-.363-.074-.685-.221-.965a1.674 1.674 0 0 0-.624-.669 1.743 1.743 0 0 0-.932-.245 1.8 1.8 0 0 0-1.016.286 1.92 1.92 0 0 0-.664.739c-.154.301-.231.629-.231.983v.808c0 .474.083.877.249 1.21a1.8 1.8 0 0 0 .706.761c.302.173.654.259 1.057.259.262 0 .5-.037.716-.111a1.48 1.48 0 0 0 .919-.9l1.306.235a2.361 2.361 0 0 1-.563 1.011 2.72 2.72 0 0 1-1.011.67 3.783 3.783 0 0 1-1.38.235Zm4.573-.143v-7.091h1.334v1.127h.074c.13-.382.357-.682.684-.901a1.96 1.96 0 0 1 1.117-.332 6.05 6.05 0 0 1 .586.032v1.321a2.258 2.258 0 0 0-.295-.051 2.763 2.763 0 0 0-.425-.033c-.326 0-.617.07-.873.208a1.55 1.55 0 0 0-.821 1.39V171h-1.38ZM22.463 273h-3.061v-9.455h3.158c.926 0 1.722.19 2.386.568a3.745 3.745 0 0 1 1.528 1.621c.357.701.536 1.543.536 2.525 0 .985-.18 1.831-.54 2.539a3.786 3.786 0 0 1-1.551 1.634c-.677.379-1.496.568-2.456.568Zm-1.635-1.246h1.556c.72 0 1.319-.136 1.796-.407a2.56 2.56 0 0 0 1.071-1.186c.237-.52.355-1.154.355-1.902 0-.742-.118-1.371-.355-1.888a2.507 2.507 0 0 0-1.048-1.177c-.465-.268-1.042-.402-1.731-.402h-1.644v6.962Zm10.901 1.389c-.698 0-1.3-.149-1.805-.448a3.031 3.031 0 0 1-1.163-1.269c-.271-.548-.406-1.19-.406-1.925 0-.727.135-1.367.406-1.921a3.156 3.156 0 0 1 1.145-1.297c.492-.311 1.068-.466 1.726-.466.4 0 .788.066 1.163.198.376.133.713.34 1.012.623.298.284.533.651.706 1.104.172.449.258.995.258 1.639v.489h-5.636v-1.034h4.284c0-.363-.074-.685-.222-.965a1.675 1.675 0 0 0-.623-.669 1.743 1.743 0 0 0-.933-.245 1.8 1.8 0 0 0-1.015.286 1.922 1.922 0 0 0-.665.739c-.154.301-.23.629-.23.983v.808c0 .474.082.877.248 1.21.17.332.405.586.707.761.301.173.654.259 1.057.259.262 0 .5-.037.716-.111a1.48 1.48 0 0 0 .919-.9l1.306.235a2.363 2.363 0 0 1-.563 1.011c-.268.287-.605.51-1.012.67a3.783 3.783 0 0 1-1.38.235Zm10.437-7.234L39.594 273h-1.477l-2.576-7.091h1.482l1.796 5.457h.074l1.79-5.457h1.483Zm4.112 7.234c-.699 0-1.3-.149-1.805-.448a3.031 3.031 0 0 1-1.163-1.269c-.271-.548-.407-1.19-.407-1.925 0-.727.136-1.367.407-1.921a3.154 3.154 0 0 1 1.145-1.297c.492-.311 1.067-.466 1.726-.466.4 0 .788.066 1.163.198.376.133.713.34 1.011.623.299.284.534.651.707 1.104.172.449.258.995.258 1.639v.489h-5.636v-1.034h4.284c0-.363-.074-.685-.222-.965a1.675 1.675 0 0 0-.623-.669 1.743 1.743 0 0 0-.933-.245 1.8 1.8 0 0 0-1.015.286 1.921 1.921 0 0 0-.665.739c-.154.301-.231.629-.231.983v.808c0 .474.083.877.25 1.21.169.332.404.586.706.761.301.173.654.259 1.057.259.261 0 .5-.037.715-.111a1.48 1.48 0 0 0 .919-.9l1.306.235a2.362 2.362 0 0 1-.563 1.011c-.267.287-.604.51-1.01.67a3.783 3.783 0 0 1-1.381.235Zm5.954-9.598V273h-1.38v-9.455h1.38Zm4.844 9.598c-.665 0-1.245-.152-1.74-.457a3.083 3.083 0 0 1-1.155-1.279c-.273-.548-.41-1.188-.41-1.92 0-.736.136-1.379.41-1.93a3.07 3.07 0 0 1 1.155-1.283c.495-.305 1.075-.457 1.74-.457s1.245.152 1.74.457c.496.304.88.732 1.154 1.283.274.551.411 1.194.411 1.93 0 .732-.137 1.372-.41 1.92a3.083 3.083 0 0 1-1.155 1.279c-.495.305-1.075.457-1.74.457Zm.005-1.159c.43 0 .787-.113 1.07-.341.284-.228.493-.531.628-.91.139-.378.208-.795.208-1.251a3.6 3.6 0 0 0-.208-1.246 2.03 2.03 0 0 0-.628-.919c-.283-.231-.64-.346-1.07-.346-.434 0-.795.115-1.08.346a2.063 2.063 0 0 0-.633.919 3.674 3.674 0 0 0-.203 1.246c0 .456.067.873.203 1.251.138.379.35.682.632.91.286.228.647.341 1.08.341Zm4.841 3.675v-9.75h1.348v1.15h.115c.08-.148.196-.319.347-.513.15-.194.36-.363.628-.508.267-.147.621-.221 1.061-.221.573 0 1.084.144 1.533.434.45.289.802.706 1.057 1.251.259.545.388 1.2.388 1.966 0 .767-.128 1.424-.383 1.972-.256.544-.607.964-1.053 1.26a2.728 2.728 0 0 1-1.528.438c-.43 0-.783-.072-1.057-.216a2.005 2.005 0 0 1-.637-.508 3.91 3.91 0 0 1-.355-.517h-.084v3.762h-1.38Zm1.353-6.204c0 .498.072.935.217 1.311.144.375.354.669.628.881.273.21.609.314 1.006.314.412 0 .757-.109 1.034-.327.277-.222.486-.522.628-.901.145-.378.217-.804.217-1.278 0-.468-.071-.888-.213-1.261a1.935 1.935 0 0 0-.627-.882c-.277-.215-.624-.323-1.04-.323-.4 0-.738.103-1.015.31a1.9 1.9 0 0 0-.623.863c-.142.369-.212.8-.212 1.293Zm9.727 3.688c-.699 0-1.3-.149-1.805-.448a3.03 3.03 0 0 1-1.164-1.269c-.27-.548-.406-1.19-.406-1.925 0-.727.135-1.367.406-1.921a3.154 3.154 0 0 1 1.145-1.297c.493-.311 1.068-.466 1.727-.466.4 0 .787.066 1.163.198.376.133.713.34 1.011.623.299.284.534.651.706 1.104.173.449.259.995.259 1.639v.489h-5.637v-1.034h4.284c0-.363-.074-.685-.221-.965a1.674 1.674 0 0 0-.624-.669 1.743 1.743 0 0 0-.932-.245 1.8 1.8 0 0 0-1.016.286 1.92 1.92 0 0 0-.664.739c-.154.301-.231.629-.231.983v.808c0 .474.083.877.249 1.21a1.8 1.8 0 0 0 .706.761c.302.173.654.259 1.057.259.262 0 .5-.037.716-.111a1.48 1.48 0 0 0 .919-.9l1.306.235a2.361 2.361 0 0 1-.563 1.011 2.72 2.72 0 0 1-1.011.67 3.783 3.783 0 0 1-1.38.235Zm4.573-.143v-7.091h1.334v1.127h.074c.13-.382.357-.682.684-.901a1.96 1.96 0 0 1 1.117-.332 6.05 6.05 0 0 1 .586.032v1.321a2.258 2.258 0 0 0-.295-.051 2.763 2.763 0 0 0-.425-.033c-.326 0-.617.07-.873.208a1.55 1.55 0 0 0-.821 1.39V273h-1.38Z" fill="#0C005C"/><path d="M22.837 376h-1.514l3.402-9.455h1.649L29.776 376h-1.514l-2.673-7.737h-.074L22.837 376Zm.254-3.702h4.912v1.2h-4.912v-1.2Zm10.48 3.84a2.75 2.75 0 0 1-1.533-.438c-.446-.296-.797-.716-1.053-1.26-.252-.548-.378-1.205-.378-1.972 0-.766.128-1.421.383-1.966.259-.545.613-.962 1.062-1.251.45-.29.959-.434 1.528-.434.44 0 .794.074 1.062.221.27.145.48.314.627.508.151.194.268.365.351.513h.084v-3.514h1.38V376h-1.348v-1.103h-.116c-.083.15-.203.323-.36.517a2.004 2.004 0 0 1-.637.508c-.27.144-.621.216-1.052.216Zm.304-1.177c.397 0 .733-.104 1.007-.314a1.94 1.94 0 0 0 .628-.881c.144-.376.217-.813.217-1.311 0-.493-.071-.924-.213-1.293a1.899 1.899 0 0 0-.623-.863c-.274-.207-.612-.31-1.016-.31-.415 0-.761.108-1.038.323-.277.216-.487.51-.628.882a3.602 3.602 0 0 0-.208 1.261c0 .474.07.9.212 1.278.142.379.351.679.628.901.28.218.625.327 1.034.327ZM39.054 376v-7.091h1.325v1.154h.088c.147-.391.389-.695.724-.914.336-.221.737-.332 1.205-.332.474 0 .871.111 1.191.332.323.222.562.526.716.914h.074a2 2 0 0 1 .808-.905c.369-.227.809-.341 1.32-.341.643 0 1.168.201 1.574.605.41.403.614 1.011.614 1.823V376h-1.38v-4.626c0-.48-.131-.828-.393-1.043a1.43 1.43 0 0 0-.937-.323c-.45 0-.798.138-1.048.415-.249.274-.374.627-.374 1.057V376h-1.375v-4.713c0-.385-.12-.694-.36-.928-.24-.234-.553-.351-.938-.351-.261 0-.503.069-.724.208a1.52 1.52 0 0 0-.531.567 1.743 1.743 0 0 0-.199.845V376h-1.38Zm11.49 0v-7.091h1.38V376h-1.38Zm.696-8.185a.878.878 0 0 1-.618-.24.78.78 0 0 1-.254-.582.77.77 0 0 1 .254-.581.865.865 0 0 1 .618-.245.85.85 0 0 1 .614.245c.173.16.259.354.259.581a.774.774 0 0 1-.259.582.861.861 0 0 1-.614.24Zm3.92 3.975V376h-1.38v-7.091h1.325v1.154h.088c.163-.375.419-.677.766-.905.351-.227.793-.341 1.325-.341.483 0 .907.101 1.27.304.363.2.645.499.845.896.2.397.3.888.3 1.473V376h-1.38v-4.344c0-.514-.134-.916-.402-1.205-.268-.292-.636-.439-1.104-.439-.32 0-.604.07-.854.208a1.498 1.498 0 0 0-.586.61c-.141.264-.212.584-.212.96Z" fill="#F9FCFF"/><path d="M216.918 41.656h-3.733a3.672 3.672 0 0 0-.418-1.287c-.21-.38-.48-.704-.81-.971a3.555 3.555 0 0 0-1.142-.614 4.365 4.365 0 0 0-1.389-.213c-.903 0-1.69.224-2.361.673-.67.444-1.19 1.091-1.559 1.944-.37.846-.554 1.874-.554 3.085 0 1.244.184 2.29.554 3.136.375.847.897 1.486 1.568 1.918.67.431 1.446.647 2.327.647.494 0 .951-.065 1.372-.196a3.6 3.6 0 0 0 1.133-.57 3.27 3.27 0 0 0 .818-.93c.222-.363.375-.778.461-1.244l3.733.017a6.749 6.749 0 0 1-.725 2.318c-.38.739-.895 1.4-1.542 1.986-.642.58-1.41 1.04-2.302 1.38-.886.336-1.889.504-3.008.504-1.557 0-2.949-.353-4.176-1.057-1.222-.705-2.188-1.725-2.898-3.06-.705-1.335-1.057-2.952-1.057-4.85 0-1.903.358-3.522 1.074-4.857.716-1.335 1.688-2.352 2.915-3.051 1.227-.705 2.608-1.057 4.142-1.057 1.011 0 1.949.142 2.812.426.87.284 1.64.699 2.31 1.244a6.385 6.385 0 0 1 1.636 1.986c.427.784.699 1.682.819 2.693Zm8.013 11.6c-1.324 0-2.469-.282-3.435-.844a5.778 5.778 0 0 1-2.225-2.37c-.522-1.016-.784-2.195-.784-3.536 0-1.353.262-2.534.784-3.546a5.71 5.71 0 0 1 2.225-2.37c.966-.567 2.111-.851 3.435-.851 1.323 0 2.465.284 3.426.852a5.69 5.69 0 0 1 2.233 2.37c.522 1.01.784 2.192.784 3.545 0 1.34-.262 2.52-.784 3.537a5.758 5.758 0 0 1-2.233 2.369c-.961.562-2.103.844-3.426.844Zm.017-2.813c.602 0 1.105-.17 1.508-.511.403-.347.707-.818.912-1.415.21-.597.315-1.276.315-2.037 0-.761-.105-1.44-.315-2.037-.205-.596-.509-1.068-.912-1.415-.403-.346-.906-.52-1.508-.52-.608 0-1.12.174-1.535.52-.409.347-.718.819-.929 1.415-.204.597-.306 1.276-.306 2.037 0 .762.102 1.44.306 2.037.211.597.52 1.068.929 1.415.415.34.927.511 1.535.511Zm13.13 2.77a4.938 4.938 0 0 1-2.701-.767c-.801-.517-1.438-1.276-1.909-2.276-.466-1.005-.699-2.238-.699-3.698 0-1.5.241-2.748.724-3.742.483-1 1.125-1.747 1.926-2.241.807-.5 1.691-.75 2.651-.75.733 0 1.344.125 1.832.375.495.244.892.55 1.193.92.307.364.54.722.699 1.074h.111v-6.563h3.622V53h-3.579v-2.097h-.154a4.68 4.68 0 0 1-.724 1.083c-.307.352-.708.645-1.202.878-.489.233-1.085.35-1.79.35Zm1.151-2.89c.585 0 1.079-.158 1.483-.476.409-.324.721-.776.937-1.355.222-.58.333-1.259.333-2.037 0-.779-.108-1.455-.324-2.029-.216-.574-.529-1.017-.938-1.33-.409-.312-.906-.468-1.491-.468-.597 0-1.1.162-1.509.486-.409.324-.718.772-.929 1.346-.21.574-.315 1.239-.315 1.995 0 .76.105 1.434.315 2.02.216.579.526 1.033.929 1.363.409.324.912.486 1.509.486Zm14.769 2.933c-1.346 0-2.505-.273-3.477-.819a5.604 5.604 0 0 1-2.233-2.335c-.523-1.011-.784-2.207-.784-3.588 0-1.346.261-2.528.784-3.545a5.803 5.803 0 0 1 2.207-2.378c.955-.568 2.074-.852 3.358-.852.864 0 1.668.139 2.412.417.75.273 1.404.685 1.96 1.236.563.551 1 1.244 1.313 2.08.312.83.469 1.8.469 2.914v.997h-11.054v-2.25h7.636c0-.522-.114-.985-.341-1.389a2.436 2.436 0 0 0-.946-.946c-.398-.233-.861-.35-1.389-.35-.551 0-1.04.129-1.466.384-.42.25-.75.588-.989 1.015-.238.42-.36.889-.366 1.406v2.139c0 .648.119 1.207.358 1.679.244.472.588.835 1.031 1.09.443.257.969.384 1.577.384.403 0 .773-.056 1.108-.17.335-.114.622-.284.861-.511.238-.228.42-.506.545-.836l3.358.222a4.584 4.584 0 0 1-1.048 2.114c-.523.596-1.199 1.062-2.029 1.397-.824.33-1.775.495-2.855.495Zm7.898-.256V39.91h3.52v2.283h.136c.239-.812.64-1.426 1.202-1.84.563-.421 1.21-.631 1.943-.631.182 0 .378.011.588.034.21.022.395.054.554.093v3.222a4.725 4.725 0 0 0-.707-.136 6.353 6.353 0 0 0-.827-.06c-.534 0-1.011.117-1.432.35a2.575 2.575 0 0 0-.988.954c-.239.41-.358.88-.358 1.415V53h-3.631ZM631.922 124l-2.668-9.455h1.842l1.703 6.948h.088l1.819-6.948h1.676l1.823 6.953h.083l1.704-6.953h1.842L639.165 124h-1.689l-1.893-6.634h-.074L633.612 124h-1.69Zm13.395.138c-.693 0-1.293-.152-1.8-.457a3.095 3.095 0 0 1-1.182-1.278c-.277-.548-.416-1.188-.416-1.921 0-.732.139-1.374.416-1.925a3.09 3.09 0 0 1 1.182-1.283c.507-.305 1.107-.457 1.8-.457.692 0 1.293.152 1.8.457.508.304.901.732 1.178 1.283.28.551.42 1.193.42 1.925 0 .733-.14 1.373-.42 1.921-.277.548-.67.974-1.178 1.278-.507.305-1.108.457-1.8.457Zm.009-1.338c.376 0 .69-.103.942-.31.252-.209.44-.489.563-.84a3.45 3.45 0 0 0 .189-1.172 3.47 3.47 0 0 0-.189-1.178 1.86 1.86 0 0 0-.563-.844c-.252-.21-.566-.314-.942-.314-.385 0-.705.104-.96.314-.252.209-.442.49-.568.844a3.547 3.547 0 0 0-.185 1.178c0 .43.062.821.185 1.172.126.351.316.631.568.84.255.207.575.31.96.31Zm4.807 1.2v-7.091h1.62v1.182h.074c.13-.409.351-.725.665-.946a1.828 1.828 0 0 1 1.085-.337c.092 0 .195.004.309.013.117.007.214.017.291.033v1.537a1.765 1.765 0 0 0-.337-.065 3.183 3.183 0 0 0-.438-.032c-.305 0-.579.066-.822.199-.24.129-.43.309-.568.54-.139.23-.208.497-.208.798V124h-1.671Zm6.678-2.225-.005-2.018h.268l2.548-2.848h1.953l-3.135 3.49h-.346l-1.283 1.376ZM655.287 124v-9.455h1.672V124h-1.672Zm4.451 0-2.309-3.227 1.127-1.177 3.181 4.404h-1.999Zm8.555-5.217-1.523.167a1.23 1.23 0 0 0-.226-.434 1.125 1.125 0 0 0-.425-.328 1.55 1.55 0 0 0-.656-.125c-.348 0-.64.076-.877.226-.234.151-.349.347-.346.587a.613.613 0 0 0 .226.503c.157.129.416.235.776.318l1.209.259c.671.145 1.17.374 1.496.688.329.314.495.725.498 1.232a1.922 1.922 0 0 1-.392 1.182c-.255.339-.611.603-1.066.794-.456.191-.979.286-1.57.286-.868 0-1.566-.181-2.096-.544-.529-.366-.845-.876-.946-1.528l1.629-.157c.074.32.231.561.471.725.24.163.553.244.937.244.397 0 .716-.081.956-.244.243-.164.365-.365.365-.605a.63.63 0 0 0-.236-.503c-.154-.133-.394-.234-.72-.305l-1.209-.254c-.681-.142-1.184-.38-1.51-.716-.326-.338-.488-.766-.485-1.283a1.82 1.82 0 0 1 .356-1.136c.243-.323.58-.572 1.011-.747.434-.179.934-.268 1.5-.268.831 0 1.485.177 1.962.531.48.354.777.832.891 1.435Zm1.531 7.876v-9.75h1.643v1.173h.097c.086-.173.208-.356.365-.55.157-.197.369-.364.637-.503.267-.141.609-.212 1.025-.212.547 0 1.041.14 1.481.42.444.277.794.688 1.053 1.232.262.542.392 1.207.392 1.995 0 .778-.127 1.44-.383 1.985-.255.545-.603.96-1.043 1.246-.44.287-.939.43-1.496.43-.406 0-.743-.068-1.011-.203a2.059 2.059 0 0 1-.646-.49 3.173 3.173 0 0 1-.374-.549h-.069v3.776h-1.671Zm1.638-6.204c0 .458.065.86.194 1.204.133.345.322.614.568.808.249.191.551.287.905.287.369 0 .679-.099.928-.296.249-.2.437-.472.563-.817.129-.348.194-.743.194-1.186 0-.441-.063-.831-.189-1.173a1.76 1.76 0 0 0-.564-.803c-.249-.194-.56-.291-.932-.291-.357 0-.66.094-.91.281a1.73 1.73 0 0 0-.567.79c-.127.338-.19.737-.19 1.196Zm8.527 3.688a2.96 2.96 0 0 1-1.214-.24 1.986 1.986 0 0 1-.85-.72c-.206-.317-.309-.708-.309-1.173 0-.4.074-.731.222-.992.147-.262.349-.471.604-.628.256-.157.544-.276.864-.356a7.035 7.035 0 0 1 1.002-.18c.415-.043.752-.081 1.011-.115.258-.037.446-.092.563-.166.12-.077.18-.196.18-.356v-.027c0-.348-.103-.617-.31-.808-.206-.191-.503-.286-.89-.286-.41 0-.735.089-.975.267-.237.179-.397.39-.48.633l-1.56-.222c.123-.431.326-.791.609-1.08.283-.292.63-.511 1.039-.656a3.99 3.99 0 0 1 1.357-.221c.342 0 .682.04 1.021.12.338.08.647.212.927.397.28.181.505.429.674.743.173.314.259.706.259 1.177V124h-1.607v-.974h-.055a2.055 2.055 0 0 1-.429.554 2.08 2.08 0 0 1-.688.411 2.789 2.789 0 0 1-.965.152Zm.434-1.228c.335 0 .626-.066.872-.198.247-.136.436-.314.568-.536.136-.221.203-.463.203-.725v-.835a.783.783 0 0 1-.267.12 3.842 3.842 0 0 1-.416.097c-.154.027-.306.052-.457.074l-.392.055a2.92 2.92 0 0 0-.67.166 1.116 1.116 0 0 0-.466.323.791.791 0 0 0-.171.527c0 .307.113.54.337.697.225.157.511.235.859.235Zm8.083 1.223c-.707 0-1.315-.155-1.823-.466a3.112 3.112 0 0 1-1.168-1.288c-.271-.551-.406-1.185-.406-1.902 0-.72.138-1.355.415-1.906a3.102 3.102 0 0 1 1.173-1.293c.508-.311 1.108-.466 1.8-.466.576 0 1.085.106 1.528.318.446.21.802.507 1.067.891.264.382.415.828.452 1.339h-1.597a1.53 1.53 0 0 0-.462-.854c-.24-.231-.562-.346-.965-.346-.341 0-.641.092-.9.277-.258.181-.46.443-.605.785-.141.341-.212.751-.212 1.228 0 .483.071.898.212 1.246.142.345.34.611.596.799.258.184.561.277.909.277.246 0 .467-.047.66-.139.197-.095.362-.232.494-.411.133-.178.223-.395.273-.651h1.597c-.04.502-.188.947-.443 1.335a2.627 2.627 0 0 1-1.043.904c-.441.216-.958.323-1.552.323Zm7.549 0c-.71 0-1.324-.147-1.841-.443a2.998 2.998 0 0 1-1.187-1.265c-.277-.547-.415-1.192-.415-1.934 0-.729.138-1.369.415-1.92.28-.554.671-.985 1.173-1.293.501-.311 1.091-.466 1.768-.466.437 0 .849.071 1.237.212.391.139.736.354 1.034.646.302.293.539.665.711 1.118.172.449.259.984.259 1.606v.513h-5.813v-1.127h4.211a1.8 1.8 0 0 0-.208-.854 1.513 1.513 0 0 0-.568-.595 1.592 1.592 0 0 0-.84-.217c-.342 0-.642.083-.9.249-.259.163-.46.378-.605.646a1.857 1.857 0 0 0-.217.873v.983c0 .412.075.766.226 1.062.151.292.362.517.633.674.27.154.587.231.951.231.243 0 .463-.034.66-.102.197-.071.368-.174.512-.309a1.29 1.29 0 0 0 .328-.503l1.56.175a2.424 2.424 0 0 1-.563 1.08 2.744 2.744 0 0 1-1.052.711c-.428.166-.918.249-1.469.249Zm7.792 2.521v-9.75h1.643v1.173h.097c.087-.173.208-.356.365-.55.157-.197.369-.364.637-.503.268-.141.61-.212 1.025-.212.548 0 1.042.14 1.482.42.443.277.794.688 1.052 1.232.262.542.393 1.207.393 1.995 0 .778-.128 1.44-.383 1.985-.256.545-.604.96-1.044 1.246-.44.287-.938.43-1.495.43-.407 0-.744-.068-1.011-.203a2.063 2.063 0 0 1-.647-.49 3.23 3.23 0 0 1-.374-.549h-.069v3.776h-1.671Zm1.639-6.204c0 .458.064.86.194 1.204.132.345.321.614.568.808.249.191.55.287.904.287.37 0 .679-.099.928-.296.25-.2.437-.472.563-.817.13-.348.194-.743.194-1.186 0-.441-.063-.831-.189-1.173a1.759 1.759 0 0 0-.563-.803c-.249-.194-.56-.291-.933-.291-.357 0-.66.094-.909.281a1.733 1.733 0 0 0-.568.79c-.126.338-.189.737-.189 1.196Zm6.486 3.545v-7.091h1.62v1.182h.074c.129-.409.351-.725.665-.946a1.828 1.828 0 0 1 1.085-.337c.092 0 .195.004.309.013.117.007.214.017.291.033v1.537a1.765 1.765 0 0 0-.337-.065 3.186 3.186 0 0 0-.439-.032c-.304 0-.578.066-.821.199-.24.129-.43.309-.568.54-.139.23-.208.497-.208.798V124h-1.671Zm7.955.138c-.692 0-1.292-.152-1.8-.457a3.095 3.095 0 0 1-1.182-1.278c-.277-.548-.415-1.188-.415-1.921 0-.732.138-1.374.415-1.925a3.09 3.09 0 0 1 1.182-1.283c.508-.305 1.108-.457 1.8-.457.693 0 1.293.152 1.801.457.508.304.9.732 1.177 1.283.28.551.42 1.193.42 1.925 0 .733-.14 1.373-.42 1.921a3.064 3.064 0 0 1-1.177 1.278c-.508.305-1.108.457-1.801.457Zm.01-1.338c.375 0 .689-.103.941-.31.253-.209.44-.489.563-.84.127-.351.19-.742.19-1.172 0-.434-.063-.827-.19-1.178a1.852 1.852 0 0 0-.563-.844c-.252-.21-.566-.314-.941-.314-.385 0-.705.104-.961.314a1.9 1.9 0 0 0-.568.844 3.547 3.547 0 0 0-.184 1.178c0 .43.061.821.184 1.172.127.351.316.631.568.84.256.207.576.31.961.31Zm10.899-5.891L728.311 124h-1.847l-2.525-7.091h1.782l1.63 5.267h.073l1.635-5.267h1.777Zm1.156 7.091v-7.091h1.672V124h-1.672Zm.841-8.097a.978.978 0 0 1-.684-.263.853.853 0 0 1-.286-.642c0-.252.096-.466.286-.642a.97.97 0 0 1 .684-.268c.267 0 .495.09.683.268a.84.84 0 0 1 .286.642.85.85 0 0 1-.286.642.967.967 0 0 1-.683.263Zm5.18 8.222a2.675 2.675 0 0 1-1.495-.43c-.44-.286-.788-.701-1.044-1.246-.255-.545-.383-1.207-.383-1.985 0-.788.13-1.453.388-1.995.262-.544.614-.955 1.057-1.232.443-.28.937-.42 1.482-.42.416 0 .757.071 1.025.212.268.139.48.306.637.503.157.194.279.377.365.55h.069v-3.537h1.676V124h-1.644v-1.117h-.101a2.866 2.866 0 0 1-.374.549 2.07 2.07 0 0 1-.646.49c-.268.135-.605.203-1.012.203Zm.467-1.371c.354 0 .655-.096.905-.287.249-.194.438-.463.567-.808.13-.344.194-.746.194-1.204 0-.459-.064-.858-.194-1.196a1.703 1.703 0 0 0-.563-.79c-.246-.187-.549-.281-.909-.281-.373 0-.683.097-.933.291a1.759 1.759 0 0 0-.563.803 3.376 3.376 0 0 0-.189 1.173c0 .443.063.838.189 1.186.129.345.319.617.568.817.252.197.562.296.928.296Zm8.23 1.384c-.711 0-1.325-.147-1.842-.443a2.998 2.998 0 0 1-1.187-1.265c-.277-.547-.415-1.192-.415-1.934 0-.729.138-1.369.415-1.92.28-.554.671-.985 1.173-1.293.502-.311 1.091-.466 1.768-.466.437 0 .85.071 1.237.212.391.139.736.354 1.034.646.302.293.539.665.711 1.118.173.449.259.984.259 1.606v.513h-5.812v-1.127h4.21a1.79 1.79 0 0 0-.208-.854 1.506 1.506 0 0 0-.568-.595 1.592 1.592 0 0 0-.84-.217c-.341 0-.642.083-.9.249-.259.163-.46.378-.605.646a1.869 1.869 0 0 0-.217.873v.983c0 .412.076.766.226 1.062.151.292.362.517.633.674.271.154.588.231.951.231.243 0 .463-.034.66-.102.197-.071.368-.174.512-.309a1.29 1.29 0 0 0 .328-.503l1.561.175a2.436 2.436 0 0 1-.564 1.08 2.737 2.737 0 0 1-1.052.711c-.428.166-.917.249-1.468.249Zm4.567-.138v-7.091h1.62v1.182h.074c.129-.409.351-.725.665-.946a1.826 1.826 0 0 1 1.085-.337c.092 0 .195.004.309.013.117.007.214.017.291.033v1.537a1.765 1.765 0 0 0-.337-.065 3.186 3.186 0 0 0-.439-.032c-.305 0-.578.066-.822.199-.24.129-.429.309-.567.54-.139.23-.208.497-.208.798V124h-1.671ZM39.482 48.16l-2.28-5.28V35.4c0-.66-.48-1.1-1.2-1.1h-12c-.72 0-1.2.44-1.2 1.1v7.48l-2.28 5.28c-.24.33-.24 1.54 1.08 1.54h16.8c1.32 0 1.32-1.21 1.08-1.54Zm-4.68-11.66V42h-9.6v-5.5h9.6ZM39.482 150.161l-2.28-5.28v-7.48c0-.66-.48-1.1-1.2-1.1h-12c-.72 0-1.2.44-1.2 1.1v7.48l-2.28 5.28c-.24.33-.24 1.54 1.08 1.54h16.8c1.32 0 1.32-1.21 1.08-1.54Zm-4.68-11.66v5.5h-9.6v-5.5h9.6ZM39.482 252.161l-2.28-5.28v-7.48c0-.66-.48-1.1-1.2-1.1h-12c-.72 0-1.2.44-1.2 1.1v7.48l-2.28 5.28c-.24.33-.24 1.54 1.08 1.54h16.8c1.32 0 1.32-1.21 1.08-1.54Zm-4.68-11.66v5.5h-9.6v-5.5h9.6Z" fill="#0C005C"/><path d="m39.482 355.161-2.28-5.28v-7.48c0-.66-.48-1.1-1.2-1.1h-12c-.72 0-1.2.44-1.2 1.1v7.48l-2.28 5.28c-.24.33-.24 1.54 1.08 1.54h16.8c1.32 0 1.32-1.21 1.08-1.54Zm-4.68-11.66v5.5h-9.6v-5.5h9.6Z" fill="#F9FCFF"/><g filter="url(#h)"><rect x="257" y="121" width="192" height="60" rx="4" fill="#F9FCFF"/></g><g filter="url(#i)"><rect x="645" y="153" width="100" height="60" rx="4" fill="#F9FCFF"/></g><g filter="url(#j)"><rect x="645" y="330" width="100" height="60" rx="4" fill="#F9FCFF"/></g><g filter="url(#k)"><rect x="771" y="330" width="101" height="60" rx="4" fill="#F9FCFF"/></g><g filter="url(#l)"><rect x="771" y="153" width="101" height="60" rx="4" fill="#F9FCFF"/></g><g filter="url(#m)"><rect x="897" y="153" width="102" height="60" rx="4" fill="#F9FCFF"/></g><path d="M294.891 138.62h-1.44a2.199 2.199 0 0 0-.863-1.408 2.39 2.39 0 0 0-.734-.369 2.873 2.873 0 0 0-.854-.125 2.67 2.67 0 0 0-1.464.411c-.428.274-.766.675-1.015 1.205-.247.529-.37 1.175-.37 1.939 0 .769.123 1.419.37 1.948.249.529.589.929 1.02 1.2.431.271.915.406 1.454.406.299 0 .582-.04.849-.12.271-.083.516-.204.734-.364a2.214 2.214 0 0 0 .873-1.39l1.44.005a3.875 3.875 0 0 1-.447 1.283 3.573 3.573 0 0 1-.845 1.007 3.81 3.81 0 0 1-1.173.65c-.44.154-.92.231-1.44.231-.819 0-1.548-.194-2.188-.581-.641-.391-1.145-.95-1.515-1.676-.366-.727-.549-1.593-.549-2.599 0-1.01.185-1.876.554-2.599.369-.727.874-1.284 1.514-1.672.64-.39 1.368-.586 2.184-.586.501 0 .969.073 1.403.217.437.142.83.351 1.177.628.348.274.636.609.864 1.006a3.9 3.9 0 0 1 .461 1.353Zm4.583 6.523c-.664 0-1.245-.152-1.74-.457a3.08 3.08 0 0 1-1.154-1.279c-.274-.548-.411-1.188-.411-1.92 0-.736.137-1.379.411-1.93a3.067 3.067 0 0 1 1.154-1.283c.495-.305 1.076-.457 1.74-.457.665 0 1.245.152 1.741.457.495.304.88.732 1.154 1.283.274.551.411 1.194.411 1.93 0 .732-.137 1.372-.411 1.92a3.087 3.087 0 0 1-1.154 1.279c-.496.305-1.076.457-1.741.457Zm.005-1.159c.431 0 .788-.113 1.071-.341.283-.228.492-.531.628-.91.138-.378.208-.795.208-1.251 0-.452-.07-.868-.208-1.246a2.037 2.037 0 0 0-.628-.919c-.283-.231-.64-.346-1.071-.346-.434 0-.794.115-1.08.346a2.069 2.069 0 0 0-.633.919 3.684 3.684 0 0 0-.203 1.246c0 .456.068.873.203 1.251.139.379.35.682.633.91.286.228.646.341 1.08.341Zm7.496 1.154a2.754 2.754 0 0 1-1.533-.438c-.446-.296-.797-.716-1.052-1.26-.253-.548-.379-1.205-.379-1.972 0-.766.128-1.421.383-1.966.259-.545.613-.962 1.062-1.251.449-.29.959-.434 1.528-.434.44 0 .794.074 1.062.221.271.145.48.314.628.508.151.194.268.365.351.513h.083v-3.514h1.38V145h-1.348v-1.103h-.115c-.083.15-.203.323-.36.517a2.015 2.015 0 0 1-.637.508c-.271.144-.622.216-1.053.216Zm.305-1.177c.397 0 .732-.104 1.006-.314.277-.212.486-.506.628-.881.145-.376.217-.813.217-1.311 0-.493-.071-.924-.212-1.293a1.902 1.902 0 0 0-.624-.863c-.274-.207-.612-.31-1.015-.31-.416 0-.762.108-1.039.323-.277.216-.486.51-.628.882a3.613 3.613 0 0 0-.208 1.261c0 .474.071.9.213 1.278.141.379.351.679.628.901.28.218.624.327 1.034.327Zm8.234 1.182c-.698 0-1.3-.149-1.805-.448a3.035 3.035 0 0 1-1.163-1.269c-.271-.548-.406-1.19-.406-1.925 0-.727.135-1.367.406-1.921a3.151 3.151 0 0 1 1.145-1.297c.492-.311 1.068-.466 1.726-.466.4 0 .788.066 1.164.198.375.133.712.34 1.011.623.298.284.534.651.706 1.104.172.449.259.995.259 1.639v.489h-5.637v-1.034h4.284c0-.363-.074-.685-.222-.965a1.667 1.667 0 0 0-.623-.669 1.742 1.742 0 0 0-.932-.245 1.8 1.8 0 0 0-1.016.286 1.924 1.924 0 0 0-.665.739 2.128 2.128 0 0 0-.231.983v.808c0 .474.083.877.25 1.21.169.332.404.586.706.761.302.173.654.259 1.057.259.262 0 .5-.037.716-.111a1.478 1.478 0 0 0 .918-.9l1.307.235a2.374 2.374 0 0 1-.563 1.011c-.268.287-.605.51-1.011.67a3.79 3.79 0 0 1-1.381.235Zm4.574-.143v-7.091h1.334v1.127h.074c.129-.382.357-.682.683-.901.33-.221.702-.332 1.118-.332a6.034 6.034 0 0 1 .586.032v1.321a2.276 2.276 0 0 0-.296-.051 2.753 2.753 0 0 0-.424-.033c-.327 0-.617.07-.873.208a1.553 1.553 0 0 0-.822 1.39V145h-1.38Zm11.417.143c-.687 0-1.278-.155-1.773-.466a3.085 3.085 0 0 1-1.136-1.297c-.264-.551-.397-1.182-.397-1.893 0-.72.136-1.356.406-1.907a3.116 3.116 0 0 1 1.145-1.297c.493-.311 1.073-.466 1.741-.466.538 0 1.018.1 1.44.3.422.197.762.474 1.02.831.262.357.417.774.467 1.251h-1.344a1.607 1.607 0 0 0-.508-.859c-.261-.24-.612-.36-1.052-.36-.385 0-.722.102-1.011.305-.286.2-.51.486-.67.858-.16.37-.24.807-.24 1.312 0 .517.079.963.236 1.338.157.376.378.667.665.873.289.206.629.309 1.02.309.261 0 .498-.048.711-.143.215-.098.395-.238.54-.42.148-.182.251-.4.309-.656h1.344a2.62 2.62 0 0 1-.448 1.228c-.249.36-.583.644-1.002.85-.415.206-.903.309-1.463.309Zm7.376 0c-.665 0-1.245-.152-1.741-.457a3.087 3.087 0 0 1-1.154-1.279c-.274-.548-.411-1.188-.411-1.92 0-.736.137-1.379.411-1.93a3.074 3.074 0 0 1 1.154-1.283c.496-.305 1.076-.457 1.741-.457.664 0 1.245.152 1.74.457.496.304.88.732 1.154 1.283.274.551.411 1.194.411 1.93 0 .732-.137 1.372-.411 1.92a3.08 3.08 0 0 1-1.154 1.279c-.495.305-1.076.457-1.74.457Zm.004-1.159c.431 0 .788-.113 1.071-.341a2 2 0 0 0 .628-.91 3.6 3.6 0 0 0 .208-1.251c0-.452-.069-.868-.208-1.246a2.029 2.029 0 0 0-.628-.919c-.283-.231-.64-.346-1.071-.346-.434 0-.794.115-1.08.346a2.069 2.069 0 0 0-.633.919 3.684 3.684 0 0 0-.203 1.246c0 .456.068.873.203 1.251.139.379.35.682.633.91.286.228.646.341 1.08.341Zm6.222-3.194V145h-1.38v-7.091h1.325v1.154h.087a2.03 2.03 0 0 1 .767-.905c.351-.227.792-.341 1.325-.341.483 0 .906.101 1.269.304.363.2.645.499.845.896.2.397.3.888.3 1.473V145h-1.38v-4.344c0-.514-.134-.916-.402-1.205-.268-.292-.635-.439-1.103-.439-.32 0-.605.07-.854.208a1.502 1.502 0 0 0-.587.61c-.141.264-.212.584-.212.96Zm9.699-2.881v1.108h-3.873v-1.108h3.873Zm-2.834-1.699h1.38v6.708c0 .268.04.469.12.605.08.132.183.223.309.272.13.046.27.069.421.069.11 0 .207-.007.29-.023.083-.015.148-.027.194-.037l.25 1.141c-.08.03-.194.061-.342.092a2.69 2.69 0 0 1-.554.055 2.426 2.426 0 0 1-1.016-.194 1.731 1.731 0 0 1-.761-.627c-.194-.284-.291-.639-.291-1.067v-6.994Zm4.361 8.79v-7.091h1.334v1.127h.074c.129-.382.357-.682.683-.901.33-.221.702-.332 1.118-.332a6.034 6.034 0 0 1 .586.032v1.321a2.243 2.243 0 0 0-.296-.051 2.753 2.753 0 0 0-.424-.033c-.326 0-.617.07-.873.208a1.553 1.553 0 0 0-.6.568c-.148.24-.221.514-.221.822V145h-1.381Zm7.722.143c-.664 0-1.245-.152-1.74-.457a3.08 3.08 0 0 1-1.154-1.279c-.274-.548-.411-1.188-.411-1.92 0-.736.137-1.379.411-1.93a3.067 3.067 0 0 1 1.154-1.283c.495-.305 1.076-.457 1.74-.457.665 0 1.245.152 1.741.457.495.304.88.732 1.154 1.283.274.551.411 1.194.411 1.93 0 .732-.137 1.372-.411 1.92a3.087 3.087 0 0 1-1.154 1.279c-.496.305-1.076.457-1.741.457Zm.005-1.159c.431 0 .788-.113 1.071-.341.283-.228.492-.531.628-.91.138-.378.208-.795.208-1.251 0-.452-.07-.868-.208-1.246a2.037 2.037 0 0 0-.628-.919c-.283-.231-.64-.346-1.071-.346-.434 0-.794.115-1.08.346a2.069 2.069 0 0 0-.633.919 3.684 3.684 0 0 0-.203 1.246c0 .456.068.873.203 1.251.139.379.35.682.633.91.286.228.646.341 1.08.341Zm6.222-8.439V145h-1.38v-9.455h1.38Zm5.297 12.114v-9.75h1.348v1.15h.116c.08-.148.195-.319.346-.513.151-.194.36-.363.628-.508.268-.147.621-.221 1.062-.221.572 0 1.083.144 1.532.434.45.289.802.706 1.057 1.251.259.545.388 1.2.388 1.966 0 .767-.128 1.424-.383 1.972-.255.544-.606.964-1.053 1.26a2.726 2.726 0 0 1-1.528.438c-.43 0-.783-.072-1.057-.216a2.004 2.004 0 0 1-.637-.508 3.873 3.873 0 0 1-.355-.517h-.083v3.762h-1.381Zm1.353-6.204c0 .498.072.935.217 1.311.145.375.354.669.628.881.274.21.609.314 1.006.314.413 0 .757-.109 1.034-.327a2.04 2.04 0 0 0 .628-.901c.145-.378.217-.804.217-1.278 0-.468-.071-.888-.212-1.261a1.94 1.94 0 0 0-.628-.882c-.277-.215-.623-.323-1.039-.323-.4 0-.739.103-1.016.31a1.908 1.908 0 0 0-.623.863c-.141.369-.212.8-.212 1.293Zm8.051-5.91V145h-1.38v-9.455h1.38Zm3.921 9.612c-.45 0-.856-.083-1.219-.249a2.057 2.057 0 0 1-.863-.734c-.21-.32-.314-.713-.314-1.178 0-.4.077-.729.23-.987.154-.259.362-.464.624-.614.261-.151.554-.265.877-.342a8.68 8.68 0 0 1 .988-.176l1.034-.12c.265-.033.457-.087.577-.161.12-.074.18-.194.18-.36v-.033c0-.403-.114-.715-.342-.937-.224-.221-.56-.332-1.006-.332-.465 0-.831.103-1.099.309-.264.203-.448.43-.549.679l-1.297-.296c.153-.43.378-.778.674-1.043a2.723 2.723 0 0 1 1.029-.582 4.024 4.024 0 0 1 1.223-.184c.284 0 .584.034.901.101.32.065.618.185.895.36.28.176.51.427.688.753.179.323.268.743.268 1.26V145h-1.348v-.969h-.056a1.983 1.983 0 0 1-.401.526 2.148 2.148 0 0 1-.688.429c-.28.114-.616.171-1.006.171Zm.3-1.108c.381 0 .708-.075.978-.226.274-.151.482-.348.624-.591.144-.246.217-.509.217-.79v-.914c-.05.05-.145.096-.287.139-.138.04-.297.075-.475.106l-.522.079-.425.055a3.448 3.448 0 0 0-.734.171c-.218.08-.394.195-.526.346-.129.148-.194.345-.194.591 0 .342.126.6.379.775.252.173.574.259.965.259Zm6.418-3.259V145h-1.381v-7.091h1.325v1.154h.088c.163-.375.419-.677.766-.905.351-.227.793-.341 1.325-.341.483 0 .907.101 1.27.304.363.2.645.499.845.896.2.397.3.888.3 1.473V145h-1.381v-4.344c0-.514-.133-.916-.401-1.205-.268-.292-.636-.439-1.104-.439-.32 0-.604.07-.854.208a1.5 1.5 0 0 0-.586.61c-.141.264-.212.584-.212.96Zm9.445 4.353c-.699 0-1.3-.149-1.805-.448a3.028 3.028 0 0 1-1.163-1.269c-.271-.548-.407-1.19-.407-1.925 0-.727.136-1.367.407-1.921a3.151 3.151 0 0 1 1.145-1.297c.492-.311 1.067-.466 1.726-.466.4 0 .788.066 1.163.198.376.133.713.34 1.011.623.299.284.534.651.707 1.104.172.449.258.995.258 1.639v.489h-5.636v-1.034h4.284c0-.363-.074-.685-.222-.965a1.674 1.674 0 0 0-.623-.669 1.745 1.745 0 0 0-.933-.245 1.8 1.8 0 0 0-1.015.286 1.916 1.916 0 0 0-.665.739 2.128 2.128 0 0 0-.231.983v.808c0 .474.083.877.249 1.21.17.332.405.586.707.761.301.173.654.259 1.057.259.261 0 .5-.037.715-.111a1.478 1.478 0 0 0 .919-.9l1.307.235a2.366 2.366 0 0 1-.564 1.011c-.267.287-.604.51-1.011.67a3.78 3.78 0 0 1-1.38.235ZM287.33 157.076c0-1.157.152-2.222.457-3.195a9.504 9.504 0 0 1 1.334-2.691h1.265c-.228.305-.44.679-.637 1.122-.197.443-.37.929-.517 1.459a13.013 13.013 0 0 0-.347 1.638 11.43 11.43 0 0 0 .093 3.892c.144.751.34 1.448.586 2.091.246.644.52 1.168.822 1.575h-1.265a9.497 9.497 0 0 1-1.334-2.692c-.305-.972-.457-2.039-.457-3.199Zm7.371 4.067c-.686 0-1.277-.155-1.773-.466a3.083 3.083 0 0 1-1.135-1.297c-.265-.551-.397-1.182-.397-1.893 0-.72.135-1.356.406-1.907a3.11 3.11 0 0 1 1.145-1.297c.492-.311 1.072-.466 1.74-.466.539 0 1.019.1 1.44.3.422.197.762.474 1.021.831.261.357.417.774.466 1.251h-1.343a1.614 1.614 0 0 0-.508-.859c-.262-.24-.613-.36-1.053-.36-.385 0-.722.102-1.011.305-.286.2-.509.486-.669.858-.16.37-.24.807-.24 1.312 0 .517.078.963.235 1.338.157.376.379.667.665.873.289.206.629.309 1.02.309.262 0 .499-.048.711-.143.216-.098.396-.238.54-.42.148-.182.251-.4.31-.656h1.343a2.609 2.609 0 0 1-.448 1.228c-.249.36-.583.644-1.002.85-.415.206-.903.309-1.463.309Zm7.376 0c-.665 0-1.245-.152-1.741-.457a3.087 3.087 0 0 1-1.154-1.279c-.274-.548-.411-1.188-.411-1.92 0-.736.137-1.379.411-1.93a3.074 3.074 0 0 1 1.154-1.283c.496-.305 1.076-.457 1.741-.457s1.245.152 1.74.457a3.06 3.06 0 0 1 1.154 1.283c.274.551.411 1.194.411 1.93 0 .732-.137 1.372-.411 1.92a3.074 3.074 0 0 1-1.154 1.279c-.495.305-1.075.457-1.74.457Zm.004-1.159c.431 0 .788-.113 1.072-.341.283-.228.492-.531.627-.91a3.6 3.6 0 0 0 .208-1.251c0-.452-.069-.868-.208-1.246a2.027 2.027 0 0 0-.627-.919c-.284-.231-.641-.346-1.072-.346-.433 0-.794.115-1.08.346a2.06 2.06 0 0 0-.632.919 3.66 3.66 0 0 0-.203 1.246c0 .456.067.873.203 1.251.138.379.349.682.632.91.286.228.647.341 1.08.341Zm7.497 1.154a2.75 2.75 0 0 1-1.533-.438c-.446-.296-.797-.716-1.053-1.26-.252-.548-.378-1.205-.378-1.972 0-.766.127-1.421.383-1.966.258-.545.612-.962 1.062-1.251.449-.29.958-.434 1.528-.434.44 0 .794.074 1.062.221.27.145.48.314.627.508.151.194.268.365.351.513h.083v-3.514h1.381V161h-1.348v-1.103h-.116c-.083.15-.203.323-.36.517a2.004 2.004 0 0 1-.637.508c-.271.144-.622.216-1.052.216Zm.304-1.177c.397 0 .733-.104 1.007-.314.277-.212.486-.506.627-.881.145-.376.217-.813.217-1.311 0-.493-.07-.924-.212-1.293-.142-.369-.349-.657-.623-.863-.274-.207-.613-.31-1.016-.31-.415 0-.762.108-1.039.323-.277.216-.486.51-.627.882a3.59 3.59 0 0 0-.208 1.261c0 .474.071.9.212 1.278.142.379.351.679.628.901.28.218.625.327 1.034.327Zm8.235 1.182c-.699 0-1.3-.149-1.805-.448a3.03 3.03 0 0 1-1.164-1.269c-.27-.548-.406-1.19-.406-1.925 0-.727.136-1.367.406-1.921a3.158 3.158 0 0 1 1.145-1.297c.493-.311 1.068-.466 1.727-.466.4 0 .788.066 1.163.198.376.133.713.34 1.011.623.299.284.534.651.707 1.104.172.449.258.995.258 1.639v.489h-5.637v-1.034h4.284c0-.363-.073-.685-.221-.965a1.681 1.681 0 0 0-.623-.669 1.745 1.745 0 0 0-.933-.245c-.388 0-.726.095-1.016.286a1.922 1.922 0 0 0-.664.739 2.128 2.128 0 0 0-.231.983v.808c0 .474.083.877.249 1.21.169.332.405.586.707.761.301.173.654.259 1.057.259.261 0 .5-.037.715-.111a1.478 1.478 0 0 0 .919-.9l1.306.235a2.354 2.354 0 0 1-.563 1.011c-.268.287-.605.51-1.011.67a3.78 3.78 0 0 1-1.38.235Zm4.574-.143v-7.091h1.334v1.127h.074c.129-.382.357-.682.683-.901a1.96 1.96 0 0 1 1.117-.332 6.07 6.07 0 0 1 .586.032v1.321a2.252 2.252 0 0 0-.295-.051 2.766 2.766 0 0 0-.425-.033c-.326 0-.617.07-.872.208a1.54 1.54 0 0 0-.822 1.39V161h-1.38Zm7.389.138a2.749 2.749 0 0 1-1.532-.438c-.446-.296-.797-.716-1.053-1.26-.252-.548-.378-1.205-.378-1.972 0-.766.127-1.421.383-1.966.258-.545.612-.962 1.062-1.251.449-.29.958-.434 1.528-.434.44 0 .794.074 1.061.221.271.145.481.314.628.508.151.194.268.365.351.513h.083v-3.514h1.381V161h-1.348v-1.103h-.116c-.083.15-.203.323-.36.517a2.004 2.004 0 0 1-.637.508c-.271.144-.622.216-1.053.216Zm.305-1.177c.397 0 .733-.104 1.007-.314.277-.212.486-.506.627-.881.145-.376.217-.813.217-1.311 0-.493-.07-.924-.212-1.293-.142-.369-.349-.657-.623-.863-.274-.207-.613-.31-1.016-.31-.415 0-.762.108-1.039.323-.277.216-.486.51-.627.882a3.59 3.59 0 0 0-.208 1.261c0 .474.071.9.212 1.278.142.379.351.679.628.901.28.218.625.327 1.034.327Zm7.833-2.885c0 1.16-.152 2.227-.457 3.199a9.523 9.523 0 0 1-1.334 2.692h-1.265c.228-.305.44-.679.637-1.122.197-.443.369-.928.517-1.454.148-.53.263-1.078.346-1.644.083-.566.125-1.123.125-1.671a11.7 11.7 0 0 0-.217-2.221c-.145-.75-.34-1.448-.586-2.091-.246-.643-.52-1.168-.822-1.574h1.265a9.53 9.53 0 0 1 1.334 2.691c.305.973.457 2.038.457 3.195ZM663.89 185l-2.622-9.455h1.5l1.842 7.322h.088l1.916-7.322h1.486l1.916 7.327h.088l1.837-7.327h1.505L670.819 185h-1.435l-1.99-7.082h-.074L665.33 185h-1.44Zm13.035.143c-.665 0-1.245-.152-1.741-.457a3.087 3.087 0 0 1-1.154-1.279c-.274-.548-.411-1.188-.411-1.92 0-.736.137-1.379.411-1.93a3.074 3.074 0 0 1 1.154-1.283c.496-.305 1.076-.457 1.741-.457.664 0 1.244.152 1.74.457.495.304.88.732 1.154 1.283.274.551.411 1.194.411 1.93 0 .732-.137 1.372-.411 1.92a3.087 3.087 0 0 1-1.154 1.279c-.496.305-1.076.457-1.74.457Zm.004-1.159c.431 0 .788-.113 1.071-.341a2 2 0 0 0 .628-.91 3.6 3.6 0 0 0 .208-1.251c0-.452-.069-.868-.208-1.246a2.029 2.029 0 0 0-.628-.919c-.283-.231-.64-.346-1.071-.346-.434 0-.794.115-1.08.346a2.069 2.069 0 0 0-.633.919 3.684 3.684 0 0 0-.203 1.246c0 .456.068.873.203 1.251.139.379.35.682.633.91.286.228.646.341 1.08.341Zm4.842 1.016v-7.091h1.334v1.127h.074c.129-.382.357-.682.683-.901a1.96 1.96 0 0 1 1.117-.332 6.07 6.07 0 0 1 .586.032v1.321a2.22 2.22 0 0 0-.295-.051 2.766 2.766 0 0 0-.425-.033c-.326 0-.617.07-.872.208a1.54 1.54 0 0 0-.822 1.39V185h-1.38Zm6.258-2.405-.009-1.685h.24l2.826-3.001h1.652l-3.222 3.416h-.217l-1.27 1.27ZM686.76 185v-9.455h1.38V185h-1.38Zm4.478 0-2.539-3.37.951-.965 3.282 4.335h-1.694Zm8.072-5.36-1.251.222a1.489 1.489 0 0 0-.25-.457 1.228 1.228 0 0 0-.452-.356c-.191-.092-.429-.138-.715-.138-.391 0-.718.088-.979.263-.262.172-.393.395-.393.669 0 .237.088.428.264.573.175.144.458.263.849.355l1.126.259c.653.151 1.139.383 1.459.697.32.314.48.722.48 1.223 0 .425-.123.804-.369 1.136-.243.329-.583.588-1.02.776-.434.187-.937.281-1.51.281-.794 0-1.442-.169-1.943-.508-.502-.341-.81-.826-.924-1.454l1.335-.203c.083.348.253.611.512.789.258.176.595.264 1.011.264.452 0 .814-.094 1.085-.282.271-.191.406-.423.406-.697a.725.725 0 0 0-.249-.559c-.163-.151-.414-.264-.753-.341l-1.2-.264c-.662-.15-1.151-.39-1.468-.72-.314-.329-.471-.746-.471-1.251 0-.418.117-.785.351-1.098.234-.314.557-.559.969-.734.413-.179.885-.268 1.418-.268.766 0 1.369.166 1.809.498.44.33.731.771.873 1.325Zm1.656 8.019v-9.75h1.348v1.15h.115c.08-.148.196-.319.347-.513.15-.194.36-.363.627-.508.268-.147.622-.221 1.062-.221.573 0 1.084.144 1.533.434.449.289.802.706 1.057 1.251.259.545.388 1.2.388 1.966 0 .767-.128 1.424-.383 1.972-.256.544-.607.964-1.053 1.26a2.726 2.726 0 0 1-1.528.438c-.431 0-.783-.072-1.057-.216a2.004 2.004 0 0 1-.637-.508 3.99 3.99 0 0 1-.356-.517h-.083v3.762h-1.38Zm1.353-6.204c0 .498.072.935.217 1.311.144.375.354.669.627.881.274.21.61.314 1.007.314.412 0 .757-.109 1.034-.327a2.04 2.04 0 0 0 .628-.901c.144-.378.217-.804.217-1.278 0-.468-.071-.888-.213-1.261a1.93 1.93 0 0 0-.627-.882c-.277-.215-.624-.323-1.039-.323-.4 0-.739.103-1.016.31-.274.206-.481.494-.623.863-.142.369-.212.8-.212 1.293Zm8.734 3.702a2.9 2.9 0 0 1-1.219-.249 2.057 2.057 0 0 1-.863-.734c-.209-.32-.314-.713-.314-1.178 0-.4.077-.729.231-.987a1.69 1.69 0 0 1 .623-.614c.262-.151.554-.265.877-.342a8.72 8.72 0 0 1 .988-.176l1.034-.12c.265-.033.457-.087.577-.161.12-.074.18-.194.18-.36v-.033c0-.403-.114-.715-.341-.937-.225-.221-.56-.332-1.007-.332-.464 0-.831.103-1.098.309-.265.203-.448.43-.55.679l-1.297-.296c.154-.43.379-.778.674-1.043a2.735 2.735 0 0 1 1.03-.582 4.015 4.015 0 0 1 1.223-.184c.283 0 .583.034.9.101.32.065.619.185.896.36.28.176.509.427.688.753.178.323.267.743.267 1.26V185h-1.348v-.969h-.055a1.967 1.967 0 0 1-.402.526 2.137 2.137 0 0 1-.688.429c-.28.114-.615.171-1.006.171Zm.3-1.108c.382 0 .708-.075.979-.226.274-.151.481-.348.623-.591.145-.246.217-.509.217-.79v-.914c-.049.05-.145.096-.286.139-.139.04-.297.075-.476.106l-.521.079-.425.055a3.42 3.42 0 0 0-.734.171c-.219.08-.394.195-.526.346-.13.148-.194.345-.194.591 0 .342.126.6.378.775.253.173.574.259.965.259Zm8.025 1.094c-.687 0-1.278-.155-1.773-.466a3.092 3.092 0 0 1-1.136-1.297c-.264-.551-.397-1.182-.397-1.893 0-.72.136-1.356.407-1.907.27-.554.652-.986 1.144-1.297.493-.311 1.073-.466 1.741-.466.538 0 1.019.1 1.44.3.422.197.762.474 1.02.831.262.357.417.774.467 1.251h-1.344a1.607 1.607 0 0 0-.508-.859c-.261-.24-.612-.36-1.052-.36-.385 0-.722.102-1.011.305-.286.2-.509.486-.67.858-.16.37-.24.807-.24 1.312 0 .517.079.963.236 1.338.157.376.378.667.665.873.289.206.629.309 1.02.309.261 0 .498-.048.711-.143.215-.098.395-.238.54-.42.148-.182.251-.4.309-.656h1.344a2.62 2.62 0 0 1-.448 1.228c-.249.36-.583.644-1.002.85-.415.206-.903.309-1.463.309Zm7.445 0c-.699 0-1.3-.149-1.805-.448a3.03 3.03 0 0 1-1.164-1.269c-.27-.548-.406-1.19-.406-1.925 0-.727.136-1.367.406-1.921a3.158 3.158 0 0 1 1.145-1.297c.493-.311 1.068-.466 1.727-.466.4 0 .788.066 1.163.198.376.133.713.34 1.011.623.299.284.534.651.707 1.104.172.449.258.995.258 1.639v.489h-5.637v-1.034h4.285c0-.363-.074-.685-.222-.965a1.681 1.681 0 0 0-.623-.669 1.745 1.745 0 0 0-.933-.245c-.388 0-.726.095-1.015.286a1.916 1.916 0 0 0-.665.739 2.128 2.128 0 0 0-.231.983v.808c0 .474.083.877.249 1.21.17.332.405.586.707.761.301.173.654.259 1.057.259.261 0 .5-.037.715-.111a1.478 1.478 0 0 0 .919-.9l1.306.235a2.354 2.354 0 0 1-.563 1.011c-.268.287-.605.51-1.011.67a3.78 3.78 0 0 1-1.38.235ZM660.465 345.545V355h-1.426v-9.455h1.426Zm1.967 9.455v-7.091h1.325v1.154h.087c.148-.391.39-.695.725-.914.336-.221.737-.332 1.205-.332.474 0 .871.111 1.191.332.323.222.562.526.716.914h.074c.169-.378.438-.68.807-.905.37-.227.81-.341 1.321-.341.643 0 1.168.201 1.574.605.409.403.614 1.011.614 1.823V355h-1.38v-4.626c0-.48-.131-.828-.393-1.043a1.428 1.428 0 0 0-.937-.323c-.449 0-.799.138-1.048.415-.249.274-.374.627-.374 1.057V355h-1.375v-4.713c0-.385-.12-.694-.361-.928-.24-.234-.552-.351-.937-.351-.261 0-.503.069-.724.208a1.513 1.513 0 0 0-.531.567 1.736 1.736 0 0 0-.199.845V355h-1.38Zm13.553.157c-.45 0-.856-.083-1.219-.249a2.057 2.057 0 0 1-.863-.734c-.21-.32-.314-.713-.314-1.178 0-.4.077-.729.231-.987.153-.259.361-.464.623-.614.261-.151.554-.265.877-.342a8.68 8.68 0 0 1 .988-.176l1.034-.12c.265-.033.457-.087.577-.161.12-.074.18-.194.18-.36v-.033c0-.403-.114-.715-.342-.937-.224-.221-.56-.332-1.006-.332-.465 0-.831.103-1.099.309-.264.203-.448.43-.549.679l-1.297-.296c.154-.43.378-.778.674-1.043a2.723 2.723 0 0 1 1.029-.582 4.026 4.026 0 0 1 1.224-.184c.283 0 .583.034.9.101.32.065.618.185.895.36.28.176.51.427.688.753.179.323.268.743.268 1.26V355h-1.348v-.969h-.055a2.01 2.01 0 0 1-.402.526 2.148 2.148 0 0 1-.688.429c-.28.114-.615.171-1.006.171Zm.3-1.108c.381 0 .708-.075.978-.226.274-.151.482-.348.624-.591.144-.246.217-.509.217-.79v-.914c-.05.05-.145.096-.287.139-.138.04-.297.075-.475.106l-.522.079-.424.055a3.443 3.443 0 0 0-.735.171c-.218.08-.393.195-.526.346-.129.148-.194.345-.194.591 0 .342.127.6.379.775.252.173.574.259.965.259Zm8.01 3.758c-.563 0-1.047-.074-1.454-.222a2.814 2.814 0 0 1-.988-.586 2.457 2.457 0 0 1-.572-.799l1.186-.489c.083.135.194.278.333.429.141.154.332.285.572.393.243.107.556.161.937.161.524 0 .956-.127 1.298-.383.341-.252.512-.655.512-1.209v-1.395h-.088a3.145 3.145 0 0 1-.36.504 1.963 1.963 0 0 1-.637.48c-.271.135-.623.203-1.057.203-.56 0-1.065-.131-1.514-.393-.447-.264-.8-.654-1.062-1.168-.259-.517-.388-1.152-.388-1.906s.128-1.4.383-1.939c.259-.539.613-.951 1.062-1.237.449-.29.959-.434 1.528-.434.44 0 .796.074 1.067.221.27.145.481.314.632.508.154.194.272.365.355.513h.102v-1.15h1.353v7.248c0 .609-.142 1.109-.425 1.5-.283.391-.666.68-1.15.868-.48.188-1.021.282-1.625.282Zm-.013-4.058c.397 0 .732-.092 1.006-.277.277-.188.486-.456.628-.803.144-.351.217-.771.217-1.261 0-.477-.071-.897-.213-1.26a1.867 1.867 0 0 0-.623-.849c-.274-.207-.612-.31-1.015-.31-.416 0-.762.108-1.039.323a1.958 1.958 0 0 0-.628.868 3.465 3.465 0 0 0-.208 1.228c0 .465.071.873.213 1.224.141.351.351.625.628.821.28.197.624.296 1.034.296Zm8.12 1.394c-.699 0-1.3-.149-1.805-.448a3.028 3.028 0 0 1-1.163-1.269c-.271-.548-.407-1.19-.407-1.925 0-.727.136-1.367.407-1.921a3.156 3.156 0 0 1 1.144-1.297c.493-.311 1.068-.466 1.727-.466.4 0 .788.066 1.163.198.376.133.713.34 1.011.623.299.284.534.651.707 1.104.172.449.258.995.258 1.639v.489h-5.636v-1.034h4.284c0-.363-.074-.685-.222-.965a1.674 1.674 0 0 0-.623-.669 1.745 1.745 0 0 0-.933-.245c-.388 0-.726.095-1.015.286a1.916 1.916 0 0 0-.665.739 2.128 2.128 0 0 0-.231.983v.808c0 .474.083.877.249 1.21.17.332.405.586.707.761.301.173.654.259 1.057.259.261 0 .5-.037.715-.111a1.478 1.478 0 0 0 .919-.9l1.307.235a2.366 2.366 0 0 1-.564 1.011c-.267.287-.604.51-1.011.67a3.78 3.78 0 0 1-1.38.235ZM658.928 371v-7.091h1.334v1.127h.074c.129-.382.357-.682.683-.901a1.96 1.96 0 0 1 1.117-.332 6.038 6.038 0 0 1 .587.032v1.321a2.276 2.276 0 0 0-.296-.051 2.756 2.756 0 0 0-.425-.033c-.326 0-.617.07-.872.208a1.553 1.553 0 0 0-.822 1.39V371h-1.38Zm7.791.143c-.698 0-1.3-.149-1.805-.448a3.035 3.035 0 0 1-1.163-1.269c-.271-.548-.406-1.19-.406-1.925 0-.727.135-1.367.406-1.921a3.158 3.158 0 0 1 1.145-1.297c.492-.311 1.068-.466 1.726-.466.401 0 .788.066 1.164.198.375.133.712.34 1.011.623.298.284.534.651.706 1.104.172.449.259.995.259 1.639v.489h-5.637v-1.034h4.284c0-.363-.074-.685-.222-.965a1.667 1.667 0 0 0-.623-.669 1.74 1.74 0 0 0-.932-.245 1.8 1.8 0 0 0-1.016.286 1.924 1.924 0 0 0-.665.739 2.128 2.128 0 0 0-.231.983v.808c0 .474.084.877.25 1.21.169.332.404.586.706.761.302.173.654.259 1.057.259.262 0 .5-.037.716-.111a1.478 1.478 0 0 0 .918-.9l1.307.235a2.364 2.364 0 0 1-.563 1.011c-.268.287-.605.51-1.011.67a3.786 3.786 0 0 1-1.381.235Zm4.574 2.516v-9.75h1.348v1.15h.116c.08-.148.195-.319.346-.513.151-.194.36-.363.628-.508.267-.147.621-.221 1.061-.221.573 0 1.084.144 1.533.434.449.289.802.706 1.057 1.251.259.545.388 1.2.388 1.966 0 .767-.128 1.424-.383 1.972-.256.544-.606.964-1.053 1.26a2.726 2.726 0 0 1-1.528.438c-.431 0-.783-.072-1.057-.216a2.004 2.004 0 0 1-.637-.508 3.873 3.873 0 0 1-.355-.517h-.084v3.762h-1.38Zm1.353-6.204c0 .498.072.935.217 1.311.144.375.354.669.628.881.274.21.609.314 1.006.314.412 0 .757-.109 1.034-.327a2.04 2.04 0 0 0 .628-.901c.145-.378.217-.804.217-1.278 0-.468-.071-.888-.212-1.261a1.94 1.94 0 0 0-.628-.882c-.277-.215-.624-.323-1.039-.323-.4 0-.739.103-1.016.31-.274.206-.481.494-.623.863-.141.369-.212.8-.212 1.293Zm9.657 3.688c-.664 0-1.244-.152-1.74-.457a3.087 3.087 0 0 1-1.154-1.279c-.274-.548-.411-1.188-.411-1.92 0-.736.137-1.379.411-1.93a3.074 3.074 0 0 1 1.154-1.283c.496-.305 1.076-.457 1.74-.457.665 0 1.245.152 1.741.457.495.304.88.732 1.154 1.283.274.551.411 1.194.411 1.93 0 .732-.137 1.372-.411 1.92a3.087 3.087 0 0 1-1.154 1.279c-.496.305-1.076.457-1.741.457Zm.005-1.159c.431 0 .788-.113 1.071-.341a2 2 0 0 0 .628-.91c.138-.378.208-.795.208-1.251 0-.452-.07-.868-.208-1.246a2.029 2.029 0 0 0-.628-.919c-.283-.231-.64-.346-1.071-.346-.434 0-.794.115-1.08.346a2.069 2.069 0 0 0-.633.919 3.684 3.684 0 0 0-.203 1.246c0 .456.068.873.203 1.251.139.379.35.682.633.91.286.228.646.341 1.08.341Zm10.155-4.344-1.251.222a1.465 1.465 0 0 0-.249-.457 1.24 1.24 0 0 0-.453-.356c-.19-.092-.429-.138-.715-.138-.391 0-.717.088-.979.263-.261.172-.392.395-.392.669 0 .237.087.428.263.573.175.144.458.263.849.355l1.127.259c.652.151 1.138.383 1.459.697.32.314.48.722.48 1.223 0 .425-.123.804-.37 1.136-.243.329-.583.588-1.02.776-.434.187-.937.281-1.509.281-.795 0-1.442-.169-1.944-.508-.502-.341-.809-.826-.923-1.454l1.334-.203c.083.348.254.611.512.789.259.176.596.264 1.011.264.453 0 .814-.094 1.085-.282.271-.191.406-.423.406-.697a.725.725 0 0 0-.249-.559c-.163-.151-.414-.264-.752-.341l-1.201-.264c-.661-.15-1.151-.39-1.468-.72-.314-.329-.471-.746-.471-1.251 0-.418.117-.785.351-1.098.234-.314.557-.559.97-.734.412-.179.885-.268 1.417-.268.766 0 1.37.166 1.81.498.44.33.731.771.872 1.325Zm1.656 5.36v-7.091h1.381V371h-1.381Zm.697-8.185a.876.876 0 0 1-.618-.24.782.782 0 0 1-.254-.582c0-.227.085-.421.254-.581a.863.863 0 0 1 .618-.245c.24 0 .445.081.614.245.173.16.259.354.259.581a.772.772 0 0 1-.259.582.861.861 0 0 1-.614.24Zm5.851 1.094v1.108h-3.874v-1.108h3.874Zm-2.835-1.699h1.38v6.708c0 .268.04.469.12.605.08.132.184.223.31.272.129.046.269.069.42.069.111 0 .208-.007.291-.023.083-.015.147-.027.194-.037l.249 1.141c-.08.03-.194.061-.342.092a2.683 2.683 0 0 1-.554.055 2.421 2.421 0 0 1-1.015-.194 1.74 1.74 0 0 1-.762-.627c-.194-.284-.291-.639-.291-1.067v-6.994Zm7.272 8.933c-.665 0-1.245-.152-1.74-.457a3.08 3.08 0 0 1-1.154-1.279c-.274-.548-.411-1.188-.411-1.92 0-.736.137-1.379.411-1.93a3.067 3.067 0 0 1 1.154-1.283c.495-.305 1.075-.457 1.74-.457s1.245.152 1.741.457c.495.304.88.732 1.154 1.283.274.551.411 1.194.411 1.93 0 .732-.137 1.372-.411 1.92a3.087 3.087 0 0 1-1.154 1.279c-.496.305-1.076.457-1.741.457Zm.005-1.159c.431 0 .788-.113 1.071-.341.283-.228.492-.531.628-.91.138-.378.207-.795.207-1.251 0-.452-.069-.868-.207-1.246a2.037 2.037 0 0 0-.628-.919c-.283-.231-.64-.346-1.071-.346-.434 0-.794.115-1.08.346a2.061 2.061 0 0 0-.633.919 3.684 3.684 0 0 0-.203 1.246c0 .456.068.873.203 1.251.139.379.349.682.633.91.286.228.646.341 1.08.341ZM709.95 371v-7.091h1.335v1.127h.073c.13-.382.357-.682.684-.901a1.957 1.957 0 0 1 1.117-.332 6.07 6.07 0 0 1 .586.032v1.321a2.252 2.252 0 0 0-.295-.051 2.766 2.766 0 0 0-.425-.033c-.326 0-.617.07-.873.208a1.542 1.542 0 0 0-.821 1.39V371h-1.381Zm6.078 2.659c-.206 0-.394-.017-.563-.051a1.72 1.72 0 0 1-.379-.101l.333-1.131c.252.067.477.097.674.087a.806.806 0 0 0 .521-.221c.154-.139.29-.365.407-.679l.17-.471-2.594-7.183h1.477l1.796 5.503h.074l1.796-5.503h1.482l-2.923 8.037c-.135.37-.307.682-.517.938a2.001 2.001 0 0 1-.748.581 2.447 2.447 0 0 1-1.006.194ZM790.437 348.532a2.86 2.86 0 0 0-.36-.752 2.308 2.308 0 0 0-.531-.573 2.22 2.22 0 0 0-.706-.364 2.847 2.847 0 0 0-.863-.125c-.533 0-1.013.137-1.441.411-.428.274-.766.675-1.015 1.205-.247.526-.37 1.171-.37 1.934 0 .766.125 1.414.374 1.944.25.529.591.931 1.025 1.205.434.273.928.41 1.482.41.514 0 .962-.104 1.343-.314.385-.209.682-.504.891-.886.213-.385.319-.837.319-1.357l.369.069h-2.705v-1.177h3.716v1.076c0 .794-.169 1.483-.508 2.068a3.459 3.459 0 0 1-1.394 1.348c-.591.317-1.268.475-2.031.475-.856 0-1.607-.197-2.253-.591-.643-.394-1.145-.952-1.505-1.675-.36-.727-.54-1.588-.54-2.586 0-.754.105-1.431.314-2.031.209-.6.503-1.109.882-1.528a3.843 3.843 0 0 1 1.343-.965 4.217 4.217 0 0 1 1.694-.337c.511 0 .987.076 1.427.226.443.151.837.365 1.182.642a3.644 3.644 0 0 1 1.325 2.248h-1.464ZM794.11 355v-7.091h1.38V355h-1.38Zm.697-8.185a.878.878 0 0 1-.619-.24.782.782 0 0 1-.254-.582c0-.227.085-.421.254-.581a.865.865 0 0 1 .619-.245.85.85 0 0 1 .614.245c.172.16.258.354.258.581a.775.775 0 0 1-.258.582.863.863 0 0 1-.614.24Zm5.85 1.094v1.108h-3.873v-1.108h3.873Zm-2.835-1.699h1.381v6.708c0 .268.04.469.12.605.08.132.183.223.309.272.129.046.269.069.42.069.111 0 .208-.007.291-.023.083-.015.148-.027.194-.037l.249 1.141a2.698 2.698 0 0 1-.895.147 2.423 2.423 0 0 1-1.016-.194 1.74 1.74 0 0 1-.762-.627c-.194-.284-.291-.639-.291-1.067v-6.994ZM783.928 371v-7.091h1.334v1.127h.074c.129-.382.357-.682.683-.901a1.96 1.96 0 0 1 1.117-.332 6.038 6.038 0 0 1 .587.032v1.321a2.276 2.276 0 0 0-.296-.051 2.756 2.756 0 0 0-.425-.033c-.326 0-.617.07-.872.208a1.553 1.553 0 0 0-.822 1.39V371h-1.38Zm7.791.143c-.698 0-1.3-.149-1.805-.448a3.035 3.035 0 0 1-1.163-1.269c-.271-.548-.406-1.19-.406-1.925 0-.727.135-1.367.406-1.921a3.158 3.158 0 0 1 1.145-1.297c.492-.311 1.068-.466 1.726-.466.401 0 .788.066 1.164.198.375.133.712.34 1.011.623.298.284.534.651.706 1.104.172.449.259.995.259 1.639v.489h-5.637v-1.034h4.284c0-.363-.074-.685-.222-.965a1.667 1.667 0 0 0-.623-.669 1.74 1.74 0 0 0-.932-.245 1.8 1.8 0 0 0-1.016.286 1.924 1.924 0 0 0-.665.739 2.128 2.128 0 0 0-.231.983v.808c0 .474.084.877.25 1.21.169.332.404.586.706.761.302.173.654.259 1.057.259.262 0 .5-.037.716-.111a1.478 1.478 0 0 0 .918-.9l1.307.235a2.364 2.364 0 0 1-.563 1.011c-.268.287-.605.51-1.011.67a3.786 3.786 0 0 1-1.381.235Zm4.574 2.516v-9.75h1.348v1.15h.116c.08-.148.195-.319.346-.513.151-.194.36-.363.628-.508.267-.147.621-.221 1.061-.221.573 0 1.084.144 1.533.434.449.289.802.706 1.057 1.251.259.545.388 1.2.388 1.966 0 .767-.128 1.424-.383 1.972-.256.544-.606.964-1.053 1.26a2.726 2.726 0 0 1-1.528.438c-.431 0-.783-.072-1.057-.216a2.004 2.004 0 0 1-.637-.508 3.873 3.873 0 0 1-.355-.517h-.084v3.762h-1.38Zm1.353-6.204c0 .498.072.935.217 1.311.144.375.354.669.628.881.274.21.609.314 1.006.314.412 0 .757-.109 1.034-.327a2.04 2.04 0 0 0 .628-.901c.145-.378.217-.804.217-1.278 0-.468-.071-.888-.212-1.261a1.94 1.94 0 0 0-.628-.882c-.277-.215-.624-.323-1.039-.323-.4 0-.739.103-1.016.31-.274.206-.481.494-.623.863-.141.369-.212.8-.212 1.293Zm9.657 3.688c-.664 0-1.244-.152-1.74-.457a3.087 3.087 0 0 1-1.154-1.279c-.274-.548-.411-1.188-.411-1.92 0-.736.137-1.379.411-1.93a3.074 3.074 0 0 1 1.154-1.283c.496-.305 1.076-.457 1.74-.457.665 0 1.245.152 1.741.457.495.304.88.732 1.154 1.283.274.551.411 1.194.411 1.93 0 .732-.137 1.372-.411 1.92a3.087 3.087 0 0 1-1.154 1.279c-.496.305-1.076.457-1.741.457Zm.005-1.159c.431 0 .788-.113 1.071-.341a2 2 0 0 0 .628-.91c.138-.378.208-.795.208-1.251 0-.452-.07-.868-.208-1.246a2.029 2.029 0 0 0-.628-.919c-.283-.231-.64-.346-1.071-.346-.434 0-.794.115-1.08.346a2.069 2.069 0 0 0-.633.919 3.684 3.684 0 0 0-.203 1.246c0 .456.068.873.203 1.251.139.379.35.682.633.91.286.228.646.341 1.08.341Zm10.155-4.344-1.251.222a1.465 1.465 0 0 0-.249-.457 1.24 1.24 0 0 0-.453-.356c-.19-.092-.429-.138-.715-.138-.391 0-.717.088-.979.263-.261.172-.392.395-.392.669 0 .237.087.428.263.573.175.144.458.263.849.355l1.127.259c.652.151 1.138.383 1.459.697.32.314.48.722.48 1.223 0 .425-.123.804-.37 1.136-.243.329-.583.588-1.02.776-.434.187-.937.281-1.509.281-.795 0-1.442-.169-1.944-.508-.502-.341-.809-.826-.923-1.454l1.334-.203c.083.348.254.611.512.789.259.176.596.264 1.011.264.453 0 .814-.094 1.085-.282.271-.191.406-.423.406-.697a.725.725 0 0 0-.249-.559c-.163-.151-.414-.264-.752-.341l-1.201-.264c-.661-.15-1.151-.39-1.468-.72-.314-.329-.471-.746-.471-1.251 0-.418.117-.785.351-1.098.234-.314.557-.559.97-.734.412-.179.885-.268 1.417-.268.766 0 1.37.166 1.81.498.44.33.731.771.872 1.325Zm1.656 5.36v-7.091h1.381V371h-1.381Zm.697-8.185a.876.876 0 0 1-.618-.24.782.782 0 0 1-.254-.582c0-.227.085-.421.254-.581a.863.863 0 0 1 .618-.245c.24 0 .445.081.614.245.173.16.259.354.259.581a.772.772 0 0 1-.259.582.861.861 0 0 1-.614.24Zm5.851 1.094v1.108h-3.874v-1.108h3.874Zm-2.835-1.699h1.38v6.708c0 .268.04.469.12.605.08.132.184.223.31.272.129.046.269.069.42.069.111 0 .208-.007.291-.023.083-.015.147-.027.194-.037l.249 1.141c-.08.03-.194.061-.342.092a2.683 2.683 0 0 1-.554.055 2.421 2.421 0 0 1-1.015-.194 1.74 1.74 0 0 1-.762-.627c-.194-.284-.291-.639-.291-1.067v-6.994Zm7.272 8.933c-.665 0-1.245-.152-1.74-.457a3.08 3.08 0 0 1-1.154-1.279c-.274-.548-.411-1.188-.411-1.92 0-.736.137-1.379.411-1.93a3.067 3.067 0 0 1 1.154-1.283c.495-.305 1.075-.457 1.74-.457s1.245.152 1.741.457c.495.304.88.732 1.154 1.283.274.551.411 1.194.411 1.93 0 .732-.137 1.372-.411 1.92a3.087 3.087 0 0 1-1.154 1.279c-.496.305-1.076.457-1.741.457Zm.005-1.159c.431 0 .788-.113 1.071-.341.283-.228.492-.531.628-.91.138-.378.207-.795.207-1.251 0-.452-.069-.868-.207-1.246a2.037 2.037 0 0 0-.628-.919c-.283-.231-.64-.346-1.071-.346-.434 0-.794.115-1.08.346a2.061 2.061 0 0 0-.633.919 3.684 3.684 0 0 0-.203 1.246c0 .456.068.873.203 1.251.139.379.349.682.633.91.286.228.646.341 1.08.341ZM834.95 371v-7.091h1.335v1.127h.073c.13-.382.357-.682.684-.901a1.957 1.957 0 0 1 1.117-.332 6.07 6.07 0 0 1 .586.032v1.321a2.252 2.252 0 0 0-.295-.051 2.766 2.766 0 0 0-.425-.033c-.326 0-.617.07-.873.208a1.542 1.542 0 0 0-.821 1.39V371h-1.381Zm6.078 2.659c-.206 0-.394-.017-.563-.051a1.72 1.72 0 0 1-.379-.101l.333-1.131c.252.067.477.097.674.087a.806.806 0 0 0 .521-.221c.154-.139.29-.365.407-.679l.17-.471-2.594-7.183h1.477l1.796 5.503h.074l1.796-5.503h1.482l-2.923 8.037c-.135.37-.307.682-.517.938a2.001 2.001 0 0 1-.748.581 2.447 2.447 0 0 1-1.006.194ZM792.89 185l-2.622-9.455h1.5l1.842 7.322h.088l1.916-7.322h1.486l1.916 7.327h.088l1.837-7.327h1.505L799.819 185h-1.435l-1.99-7.082h-.074L794.33 185h-1.44Zm13.035.143c-.665 0-1.245-.152-1.741-.457a3.087 3.087 0 0 1-1.154-1.279c-.274-.548-.411-1.188-.411-1.92 0-.736.137-1.379.411-1.93a3.074 3.074 0 0 1 1.154-1.283c.496-.305 1.076-.457 1.741-.457.664 0 1.244.152 1.74.457.495.304.88.732 1.154 1.283.274.551.411 1.194.411 1.93 0 .732-.137 1.372-.411 1.92a3.087 3.087 0 0 1-1.154 1.279c-.496.305-1.076.457-1.74.457Zm.004-1.159c.431 0 .788-.113 1.071-.341a2 2 0 0 0 .628-.91 3.6 3.6 0 0 0 .208-1.251c0-.452-.069-.868-.208-1.246a2.029 2.029 0 0 0-.628-.919c-.283-.231-.64-.346-1.071-.346-.434 0-.794.115-1.08.346a2.069 2.069 0 0 0-.633.919 3.684 3.684 0 0 0-.203 1.246c0 .456.068.873.203 1.251.139.379.35.682.633.91.286.228.646.341 1.08.341Zm4.842 1.016v-7.091h1.334v1.127h.074c.129-.382.357-.682.683-.901a1.96 1.96 0 0 1 1.117-.332 6.07 6.07 0 0 1 .586.032v1.321a2.22 2.22 0 0 0-.295-.051 2.766 2.766 0 0 0-.425-.033c-.326 0-.617.07-.872.208a1.54 1.54 0 0 0-.822 1.39V185h-1.38Zm6.258-2.405-.009-1.685h.24l2.826-3.001h1.652l-3.222 3.416h-.217l-1.27 1.27ZM815.76 185v-9.455h1.38V185h-1.38Zm4.478 0-2.539-3.37.951-.965 3.282 4.335h-1.694Zm8.072-5.36-1.251.222a1.489 1.489 0 0 0-.25-.457 1.228 1.228 0 0 0-.452-.356c-.191-.092-.429-.138-.715-.138-.391 0-.718.088-.979.263-.262.172-.393.395-.393.669 0 .237.088.428.264.573.175.144.458.263.849.355l1.126.259c.653.151 1.139.383 1.459.697.32.314.48.722.48 1.223 0 .425-.123.804-.369 1.136-.243.329-.583.588-1.02.776-.434.187-.937.281-1.51.281-.794 0-1.442-.169-1.943-.508-.502-.341-.81-.826-.924-1.454l1.335-.203c.083.348.253.611.512.789.258.176.595.264 1.011.264.452 0 .814-.094 1.085-.282.271-.191.406-.423.406-.697a.725.725 0 0 0-.249-.559c-.163-.151-.414-.264-.753-.341l-1.2-.264c-.662-.15-1.151-.39-1.468-.72-.314-.329-.471-.746-.471-1.251 0-.418.117-.785.351-1.098.234-.314.557-.559.969-.734.413-.179.885-.268 1.418-.268.766 0 1.369.166 1.809.498.44.33.731.771.873 1.325Zm1.656 8.019v-9.75h1.348v1.15h.115c.08-.148.196-.319.347-.513.15-.194.36-.363.627-.508.268-.147.622-.221 1.062-.221.573 0 1.084.144 1.533.434.449.289.802.706 1.057 1.251.259.545.388 1.2.388 1.966 0 .767-.128 1.424-.383 1.972-.256.544-.607.964-1.053 1.26a2.726 2.726 0 0 1-1.528.438c-.431 0-.783-.072-1.057-.216a2.004 2.004 0 0 1-.637-.508 3.99 3.99 0 0 1-.356-.517h-.083v3.762h-1.38Zm1.353-6.204c0 .498.072.935.217 1.311.144.375.354.669.627.881.274.21.61.314 1.007.314.412 0 .757-.109 1.034-.327a2.04 2.04 0 0 0 .628-.901c.144-.378.217-.804.217-1.278 0-.468-.071-.888-.213-1.261a1.93 1.93 0 0 0-.627-.882c-.277-.215-.624-.323-1.039-.323-.4 0-.739.103-1.016.31-.274.206-.481.494-.623.863-.142.369-.212.8-.212 1.293Zm8.734 3.702a2.9 2.9 0 0 1-1.219-.249 2.057 2.057 0 0 1-.863-.734c-.209-.32-.314-.713-.314-1.178 0-.4.077-.729.231-.987a1.69 1.69 0 0 1 .623-.614c.262-.151.554-.265.877-.342a8.72 8.72 0 0 1 .988-.176l1.034-.12c.265-.033.457-.087.577-.161.12-.074.18-.194.18-.36v-.033c0-.403-.114-.715-.341-.937-.225-.221-.56-.332-1.007-.332-.464 0-.831.103-1.098.309-.265.203-.448.43-.55.679l-1.297-.296c.154-.43.379-.778.674-1.043a2.735 2.735 0 0 1 1.03-.582 4.015 4.015 0 0 1 1.223-.184c.283 0 .583.034.9.101.32.065.619.185.896.36.28.176.509.427.688.753.178.323.267.743.267 1.26V185h-1.348v-.969h-.055a1.967 1.967 0 0 1-.402.526 2.137 2.137 0 0 1-.688.429c-.28.114-.615.171-1.006.171Zm.3-1.108c.382 0 .708-.075.979-.226.274-.151.481-.348.623-.591.145-.246.217-.509.217-.79v-.914c-.049.05-.145.096-.286.139-.139.04-.297.075-.476.106l-.521.079-.425.055a3.42 3.42 0 0 0-.734.171c-.219.08-.394.195-.526.346-.13.148-.194.345-.194.591 0 .342.126.6.378.775.253.173.574.259.965.259Zm8.025 1.094c-.687 0-1.278-.155-1.773-.466a3.092 3.092 0 0 1-1.136-1.297c-.264-.551-.397-1.182-.397-1.893 0-.72.136-1.356.407-1.907.27-.554.652-.986 1.144-1.297.493-.311 1.073-.466 1.741-.466.538 0 1.019.1 1.44.3.422.197.762.474 1.02.831.262.357.417.774.467 1.251h-1.344a1.607 1.607 0 0 0-.508-.859c-.261-.24-.612-.36-1.052-.36-.385 0-.722.102-1.011.305-.286.2-.509.486-.67.858-.16.37-.24.807-.24 1.312 0 .517.079.963.236 1.338.157.376.378.667.665.873.289.206.629.309 1.02.309.261 0 .498-.048.711-.143.215-.098.395-.238.54-.42.148-.182.251-.4.309-.656h1.344a2.62 2.62 0 0 1-.448 1.228c-.249.36-.583.644-1.002.85-.415.206-.903.309-1.463.309Zm7.445 0c-.699 0-1.3-.149-1.805-.448a3.03 3.03 0 0 1-1.164-1.269c-.27-.548-.406-1.19-.406-1.925 0-.727.136-1.367.406-1.921a3.158 3.158 0 0 1 1.145-1.297c.493-.311 1.068-.466 1.727-.466.4 0 .788.066 1.163.198.376.133.713.34 1.011.623.299.284.534.651.707 1.104.172.449.258.995.258 1.639v.489h-5.637v-1.034h4.285c0-.363-.074-.685-.222-.965a1.681 1.681 0 0 0-.623-.669 1.745 1.745 0 0 0-.933-.245c-.388 0-.726.095-1.015.286a1.916 1.916 0 0 0-.665.739 2.128 2.128 0 0 0-.231.983v.808c0 .474.083.877.249 1.21.17.332.405.586.707.761.301.173.654.259 1.057.259.261 0 .5-.037.715-.111a1.478 1.478 0 0 0 .919-.9l1.306.235a2.354 2.354 0 0 1-.563 1.011c-.268.287-.605.51-1.011.67a3.78 3.78 0 0 1-1.38.235ZM919.89 185l-2.622-9.455h1.5l1.842 7.322h.088l1.916-7.322h1.486l1.916 7.327h.088l1.837-7.327h1.505L926.819 185h-1.435l-1.99-7.082h-.074L921.33 185h-1.44Zm13.035.143c-.665 0-1.245-.152-1.741-.457a3.087 3.087 0 0 1-1.154-1.279c-.274-.548-.411-1.188-.411-1.92 0-.736.137-1.379.411-1.93a3.074 3.074 0 0 1 1.154-1.283c.496-.305 1.076-.457 1.741-.457.664 0 1.244.152 1.74.457.495.304.88.732 1.154 1.283.274.551.411 1.194.411 1.93 0 .732-.137 1.372-.411 1.92a3.087 3.087 0 0 1-1.154 1.279c-.496.305-1.076.457-1.74.457Zm.004-1.159c.431 0 .788-.113 1.071-.341a2 2 0 0 0 .628-.91 3.6 3.6 0 0 0 .208-1.251c0-.452-.069-.868-.208-1.246a2.029 2.029 0 0 0-.628-.919c-.283-.231-.64-.346-1.071-.346-.434 0-.794.115-1.08.346a2.069 2.069 0 0 0-.633.919 3.684 3.684 0 0 0-.203 1.246c0 .456.068.873.203 1.251.139.379.35.682.633.91.286.228.646.341 1.08.341Zm4.842 1.016v-7.091h1.334v1.127h.074c.129-.382.357-.682.683-.901a1.96 1.96 0 0 1 1.117-.332 6.07 6.07 0 0 1 .586.032v1.321a2.22 2.22 0 0 0-.295-.051 2.766 2.766 0 0 0-.425-.033c-.326 0-.617.07-.872.208a1.54 1.54 0 0 0-.822 1.39V185h-1.38Zm6.258-2.405-.009-1.685h.24l2.826-3.001h1.652l-3.222 3.416h-.217l-1.27 1.27ZM942.76 185v-9.455h1.38V185h-1.38Zm4.478 0-2.539-3.37.951-.965 3.282 4.335h-1.694Zm8.072-5.36-1.251.222a1.489 1.489 0 0 0-.25-.457 1.228 1.228 0 0 0-.452-.356c-.191-.092-.429-.138-.715-.138-.391 0-.718.088-.979.263-.262.172-.393.395-.393.669 0 .237.088.428.264.573.175.144.458.263.849.355l1.126.259c.653.151 1.139.383 1.459.697.32.314.48.722.48 1.223 0 .425-.123.804-.369 1.136-.243.329-.583.588-1.02.776-.434.187-.937.281-1.51.281-.794 0-1.442-.169-1.943-.508-.502-.341-.81-.826-.924-1.454l1.335-.203c.083.348.253.611.512.789.258.176.595.264 1.011.264.452 0 .814-.094 1.085-.282.271-.191.406-.423.406-.697a.725.725 0 0 0-.249-.559c-.163-.151-.414-.264-.753-.341l-1.2-.264c-.662-.15-1.151-.39-1.468-.72-.314-.329-.471-.746-.471-1.251 0-.418.117-.785.351-1.098.234-.314.557-.559.969-.734.413-.179.885-.268 1.418-.268.766 0 1.369.166 1.809.498.44.33.731.771.873 1.325Zm1.656 8.019v-9.75h1.348v1.15h.115c.08-.148.196-.319.347-.513.15-.194.36-.363.627-.508.268-.147.622-.221 1.062-.221.573 0 1.084.144 1.533.434.449.289.802.706 1.057 1.251.259.545.388 1.2.388 1.966 0 .767-.128 1.424-.383 1.972-.256.544-.607.964-1.053 1.26a2.726 2.726 0 0 1-1.528.438c-.431 0-.783-.072-1.057-.216a2.004 2.004 0 0 1-.637-.508 3.99 3.99 0 0 1-.356-.517h-.083v3.762h-1.38Zm1.353-6.204c0 .498.072.935.217 1.311.144.375.354.669.627.881.274.21.61.314 1.007.314.412 0 .757-.109 1.034-.327a2.04 2.04 0 0 0 .628-.901c.144-.378.217-.804.217-1.278 0-.468-.071-.888-.213-1.261a1.93 1.93 0 0 0-.627-.882c-.277-.215-.624-.323-1.039-.323-.4 0-.739.103-1.016.31-.274.206-.481.494-.623.863-.142.369-.212.8-.212 1.293Zm8.734 3.702a2.9 2.9 0 0 1-1.219-.249 2.057 2.057 0 0 1-.863-.734c-.209-.32-.314-.713-.314-1.178 0-.4.077-.729.231-.987a1.69 1.69 0 0 1 .623-.614c.262-.151.554-.265.877-.342a8.72 8.72 0 0 1 .988-.176l1.034-.12c.265-.033.457-.087.577-.161.12-.074.18-.194.18-.36v-.033c0-.403-.114-.715-.341-.937-.225-.221-.56-.332-1.007-.332-.464 0-.831.103-1.098.309-.265.203-.448.43-.55.679l-1.297-.296c.154-.43.379-.778.674-1.043a2.735 2.735 0 0 1 1.03-.582 4.015 4.015 0 0 1 1.223-.184c.283 0 .583.034.9.101.32.065.619.185.896.36.28.176.509.427.688.753.178.323.267.743.267 1.26V185h-1.348v-.969h-.055a1.967 1.967 0 0 1-.402.526 2.137 2.137 0 0 1-.688.429c-.28.114-.615.171-1.006.171Zm.3-1.108c.382 0 .708-.075.979-.226.274-.151.481-.348.623-.591.145-.246.217-.509.217-.79v-.914c-.049.05-.145.096-.286.139-.139.04-.297.075-.476.106l-.521.079-.425.055a3.42 3.42 0 0 0-.734.171c-.219.08-.394.195-.526.346-.13.148-.194.345-.194.591 0 .342.126.6.378.775.253.173.574.259.965.259Zm8.025 1.094c-.687 0-1.278-.155-1.773-.466a3.092 3.092 0 0 1-1.136-1.297c-.264-.551-.397-1.182-.397-1.893 0-.72.136-1.356.407-1.907.27-.554.652-.986 1.144-1.297.493-.311 1.073-.466 1.741-.466.538 0 1.019.1 1.44.3.422.197.762.474 1.02.831.262.357.417.774.467 1.251h-1.344a1.607 1.607 0 0 0-.508-.859c-.261-.24-.612-.36-1.052-.36-.385 0-.722.102-1.011.305-.286.2-.509.486-.67.858-.16.37-.24.807-.24 1.312 0 .517.079.963.236 1.338.157.376.378.667.665.873.289.206.629.309 1.02.309.261 0 .498-.048.711-.143.215-.098.395-.238.54-.42.148-.182.251-.4.309-.656h1.344a2.62 2.62 0 0 1-.448 1.228c-.249.36-.583.644-1.002.85-.415.206-.903.309-1.463.309Zm7.445 0c-.699 0-1.3-.149-1.805-.448a3.03 3.03 0 0 1-1.164-1.269c-.27-.548-.406-1.19-.406-1.925 0-.727.136-1.367.406-1.921a3.158 3.158 0 0 1 1.145-1.297c.493-.311 1.068-.466 1.727-.466.4 0 .788.066 1.163.198.376.133.713.34 1.011.623.299.284.534.651.707 1.104.172.449.258.995.258 1.639v.489h-5.637v-1.034h4.285c0-.363-.074-.685-.222-.965a1.681 1.681 0 0 0-.623-.669 1.745 1.745 0 0 0-.933-.245c-.388 0-.726.095-1.015.286a1.916 1.916 0 0 0-.665.739 2.128 2.128 0 0 0-.231.983v.808c0 .474.083.877.249 1.21.17.332.405.586.707.761.301.173.654.259 1.057.259.261 0 .5-.037.715-.111a1.478 1.478 0 0 0 .919-.9l1.306.235a2.354 2.354 0 0 1-.563 1.011c-.268.287-.605.51-1.011.67a3.78 3.78 0 0 1-1.38.235Z" fill="#0C005C"/><path d="M482 126c70.857 0 40 95 124 95" stroke="#7B61FF"/><path fill-rule="evenodd" clip-rule="evenodd" d="m599.223 224.54 9.325-3.997-9.325-3.996v7.993Z" fill="#0C005C"/><path d="M133 44c48.733 0 17.773 79 86 79M133 249c48.733 0 17.773-126 86-126" stroke="#7B61FF"/><path d="M133 351c48.733 0 17.773-170 86-170M133 146c48.733 0 17.773-23 86-23" stroke="#7B61FF"/><path fill-rule="evenodd" clip-rule="evenodd" d="m214.527 127.508 9.325-3.996-9.325-3.996v7.992ZM214.527 184.993l9.325-3.997-9.325-3.996v7.993ZM491.324 182.999l-9.325 3.997 9.325 3.996v-7.993Z" fill="#0C005C"/><path d="M822 221.5c0 49-34.5 17.5-34.5 99.5" stroke="#7B61FF"/><path fill-rule="evenodd" clip-rule="evenodd" d="m783 321 3.997 9.325 3.996-9.325H783ZM698.993 221.324l-3.997-9.325-3.996 9.325h7.993ZM825.993 221.324l-3.997-9.325-3.996 9.325h7.993ZM953.993 221.324l-3.997-9.325-3.996 9.325h7.993Z" fill="#0C005C"/><path d="M645.5 360c-163 0-41.5-173-154.5-173M695 221c0 67 92.5 7.5 92.5 100M950.5 221c0 67-163 7.5-163 100" stroke="#7B61FF"/><defs><filter id="a" x="0" y="0" width="147" height="94" filterUnits="userSpaceOnUse" color-interpolation-filters="sRGB"><feFlood flood-opacity="0" result="BackgroundImageFix"/><feColorMatrix in="SourceAlpha" values="0 0 0 0 0 0 0 0 0 0 0 0 0 0 0 0 0 0 127 0" result="hardAlpha"/><feOffset dx="5" dy="5"/><feGaussianBlur stdDeviation="4"/><feComposite in2="hardAlpha" operator="out"/><feColorMatrix values="0 0 0 0 0.482353 0 0 0 0 0.380392 0 0 0 0 1 0 0 0 1 0"/><feBlend mode="color" in2="BackgroundImageFix" result="effect1_dropShadow_593_11791"/><feBlend in="SourceGraphic" in2="effect1_dropShadow_593_11791" result="shape"/></filter><filter id="b" x="0" y="103" width="147" height="93" filterUnits="userSpaceOnUse" color-interpolation-filters="sRGB"><feFlood flood-opacity="0" result="BackgroundImageFix"/><feColorMatrix in="SourceAlpha" values="0 0 0 0 0 0 0 0 0 0 0 0 0 0 0 0 0 0 127 0" result="hardAlpha"/><feOffset dx="5" dy="5"/><feGaussianBlur stdDeviation="4"/><feComposite in2="hardAlpha" operator="out"/><feColorMatrix values="0 0 0 0 0.482353 0 0 0 0 0.380392 0 0 0 0 1 0 0 0 1 0"/><feBlend mode="color" in2="BackgroundImageFix" result="effect1_dropShadow_593_11791"/><feBlend in="SourceGraphic" in2="effect1_dropShadow_593_11791" result="shape"/></filter><filter id="c" x="165" y="1" width="919" height="299" filterUnits="userSpaceOnUse" color-interpolation-filters="sRGB"><feFlood flood-opacity="0" result="BackgroundImageFix"/><feColorMatrix in="SourceAlpha" values="0 0 0 0 0 0 0 0 0 0 0 0 0 0 0 0 0 0 127 0" result="hardAlpha"/><feOffset dx="5" dy="5"/><feGaussianBlur stdDeviation="4"/><feComposite in2="hardAlpha" operator="out"/><feColorMatrix values="0 0 0 0 0.482353 0 0 0 0 0.380392 0 0 0 0 1 0 0 0 1 0"/><feBlend mode="color" in2="BackgroundImageFix" result="effect1_dropShadow_593_11791"/><feBlend in="SourceGraphic" in2="effect1_dropShadow_593_11791" result="shape"/></filter><filter id="d" x="215" y="88" width="275" height="130" filterUnits="userSpaceOnUse" color-interpolation-filters="sRGB"><feFlood flood-opacity="0" result="BackgroundImageFix"/><feBlend in="SourceGraphic" in2="BackgroundImageFix" result="shape"/><feGaussianBlur stdDeviation="4" result="effect1_foregroundBlur_593_11791"/></filter><filter id="e" x="601" y="88" width="442" height="170" filterUnits="userSpaceOnUse" color-interpolation-filters="sRGB"><feFlood flood-opacity="0" result="BackgroundImageFix"/><feBlend in="SourceGraphic" in2="BackgroundImageFix" result="shape"/><feGaussianBlur stdDeviation="4" result="effect1_foregroundBlur_593_11791"/></filter><filter id="f" x="0" y="206" width="147" height="93" filterUnits="userSpaceOnUse" color-interpolation-filters="sRGB"><feFlood flood-opacity="0" result="BackgroundImageFix"/><feColorMatrix in="SourceAlpha" values="0 0 0 0 0 0 0 0 0 0 0 0 0 0 0 0 0 0 127 0" result="hardAlpha"/><feOffset dx="5" dy="5"/><feGaussianBlur stdDeviation="4"/><feComposite in2="hardAlpha" operator="out"/><feColorMatrix values="0 0 0 0 0.482353 0 0 0 0 0.380392 0 0 0 0 1 0 0 0 1 0"/><feBlend mode="color" in2="BackgroundImageFix" result="effect1_dropShadow_593_11791"/><feBlend in="SourceGraphic" in2="effect1_dropShadow_593_11791" result="shape"/></filter><filter id="g" x="0" y="308" width="147" height="94" filterUnits="userSpaceOnUse" color-interpolation-filters="sRGB"><feFlood flood-opacity="0" result="BackgroundImageFix"/><feColorMatrix in="SourceAlpha" values="0 0 0 0 0 0 0 0 0 0 0 0 0 0 0 0 0 0 127 0" result="hardAlpha"/><feOffset dx="5" dy="5"/><feGaussianBlur stdDeviation="4"/><feComposite in2="hardAlpha" operator="out"/><feColorMatrix values="0 0 0 0 0.482353 0 0 0 0 0.380392 0 0 0 0 1 0 0 0 1 0"/><feBlend mode="color" in2="BackgroundImageFix" result="effect1_dropShadow_593_11791"/><feBlend in="SourceGraphic" in2="effect1_dropShadow_593_11791" result="shape"/></filter><filter id="h" x="254" y="118" width="208" height="76" filterUnits="userSpaceOnUse" color-interpolation-filters="sRGB"><feFlood flood-opacity="0" result="BackgroundImageFix"/><feColorMatrix in="SourceAlpha" values="0 0 0 0 0 0 0 0 0 0 0 0 0 0 0 0 0 0 127 0" result="hardAlpha"/><feOffset dx="5" dy="5"/><feGaussianBlur stdDeviation="4"/><feComposite in2="hardAlpha" operator="out"/><feColorMatrix values="0 0 0 0 0.482353 0 0 0 0 0.380392 0 0 0 0 1 0 0 0 1 0"/><feBlend in2="BackgroundImageFix" result="effect1_dropShadow_593_11791"/><feBlend in="SourceGraphic" in2="effect1_dropShadow_593_11791" result="shape"/></filter><filter id="i" x="642" y="150" width="116" height="76" filterUnits="userSpaceOnUse" color-interpolation-filters="sRGB"><feFlood flood-opacity="0" result="BackgroundImageFix"/><feColorMatrix in="SourceAlpha" values="0 0 0 0 0 0 0 0 0 0 0 0 0 0 0 0 0 0 127 0" result="hardAlpha"/><feOffset dx="5" dy="5"/><feGaussianBlur stdDeviation="4"/><feComposite in2="hardAlpha" operator="out"/><feColorMatrix values="0 0 0 0 0.482353 0 0 0 0 0.380392 0 0 0 0 1 0 0 0 1 0"/><feBlend in2="BackgroundImageFix" result="effect1_dropShadow_593_11791"/><feBlend in="SourceGraphic" in2="effect1_dropShadow_593_11791" result="shape"/></filter><filter id="j" x="642" y="327" width="116" height="76" filterUnits="userSpaceOnUse" color-interpolation-filters="sRGB"><feFlood flood-opacity="0" result="BackgroundImageFix"/><feColorMatrix in="SourceAlpha" values="0 0 0 0 0 0 0 0 0 0 0 0 0 0 0 0 0 0 127 0" result="hardAlpha"/><feOffset dx="5" dy="5"/><feGaussianBlur stdDeviation="4"/><feComposite in2="hardAlpha" operator="out"/><feColorMatrix values="0 0 0 0 0.482353 0 0 0 0 0.380392 0 0 0 0 1 0 0 0 1 0"/><feBlend mode="color" in2="BackgroundImageFix" result="effect1_dropShadow_593_11791"/><feBlend in="SourceGraphic" in2="effect1_dropShadow_593_11791" result="shape"/></filter><filter id="k" x="768" y="327" width="117" height="76" filterUnits="userSpaceOnUse" color-interpolation-filters="sRGB"><feFlood flood-opacity="0" result="BackgroundImageFix"/><feColorMatrix in="SourceAlpha" values="0 0 0 0 0 0 0 0 0 0 0 0 0 0 0 0 0 0 127 0" result="hardAlpha"/><feOffset dx="5" dy="5"/><feGaussianBlur stdDeviation="4"/><feComposite in2="hardAlpha" operator="out"/><feColorMatrix values="0 0 0 0 0.482353 0 0 0 0 0.380392 0 0 0 0 1 0 0 0 1 0"/><feBlend mode="color" in2="BackgroundImageFix" result="effect1_dropShadow_593_11791"/><feBlend in="SourceGraphic" in2="effect1_dropShadow_593_11791" result="shape"/></filter><filter id="l" x="768" y="150" width="117" height="76" filterUnits="userSpaceOnUse" color-interpolation-filters="sRGB"><feFlood flood-opacity="0" result="BackgroundImageFix"/><feColorMatrix in="SourceAlpha" values="0 0 0 0 0 0 0 0 0 0 0 0 0 0 0 0 0 0 127 0" result="hardAlpha"/><feOffset dx="5" dy="5"/><feGaussianBlur stdDeviation="4"/><feComposite in2="hardAlpha" operator="out"/><feColorMatrix values="0 0 0 0 0.482353 0 0 0 0 0.380392 0 0 0 0 1 0 0 0 1 0"/><feBlend in2="BackgroundImageFix" result="effect1_dropShadow_593_11791"/><feBlend in="SourceGraphic" in2="effect1_dropShadow_593_11791" result="shape"/></filter><filter id="m" x="894" y="150" width="118" height="76" filterUnits="userSpaceOnUse" color-interpolation-filters="sRGB"><feFlood flood-opacity="0" result="BackgroundImageFix"/><feColorMatrix in="SourceAlpha" values="0 0 0 0 0 0 0 0 0 0 0 0 0 0 0 0 0 0 127 0" result="hardAlpha"/><feOffset dx="5" dy="5"/><feGaussianBlur stdDeviation="4"/><feComposite in2="hardAlpha" operator="out"/><feColorMatrix values="0 0 0 0 0.482353 0 0 0 0 0.380392 0 0 0 0 1 0 0 0 1 0"/><feBlend in2="BackgroundImageFix" result="effect1_dropShadow_593_11791"/><feBlend in="SourceGraphic" in2="effect1_dropShadow_593_11791" result="shape"/></filter></defs></svg>
